<svg width="148" height="38" viewBox="0 0 148 38" fill="none" xmlns="http://www.w3.org/2000/svg">
<path d="M118.542 10.7841C121.614 10.8477 122.52 7.0457 120.271 6.99908C117.707 6.94611 116.349 10.7389 118.542 10.7841Z" fill="black"/>
<path d="M35.4637 21.6972C36.1599 15.9678 39.833 3.69024 34.6268 3.2255C31.7904 2.97195 29.4232 5.98782 27.6996 9.26856C28.6379 0.968885 20.8616 1.69355 17.1416 10.9354C16.8711 8.92956 16.2593 7.11437 15.1716 5.60218C11.2342 0.131925 2.97076 3.08849 1.12885 12.764C0.526915 17.843 1.54099 20.1173 3.41335 20.2508C5.46701 20.3977 8.82295 17.4962 8.6183 17.1007C6.64892 13.3015 4.22774 17.754 4.0599 16.4106C4.22916 4.99688 10.8206 4.18748 11.6131 9.73402C12.3212 14.6746 9.59058 27.7642 6.59367 37.0613L12.9671 34.9466C13.8827 31.0621 15.3748 26.3151 16.3506 21.6153C18.8865 9.79052 22.2389 6.21808 22.9542 10.0109C23.5207 13.0261 19.7222 33.044 19.7222 33.044L23.8443 31.7218C23.8443 31.7218 25.4306 23.2674 26.5906 16.4438C29.0054 8.34192 32.4683 6.11777 32.4683 8.82715C32.4683 11.4708 31.3311 17.5266 30.8947 19.7387C28.3891 32.4649 33.1396 37.6913 43.5501 32.2762L42.3648 30.6114C34.9638 32.863 34.6714 28.2177 35.4637 21.6972Z" fill="black"/>
<path d="M142.962 28.2984C144.463 24.8205 145.99 20.1053 148 14.1844L143.79 14.1039C143.449 15.072 143.127 16.0041 142.823 16.9001C142.657 11.5633 136.58 12.1023 134.317 17.5054C133.7 18.9774 133.345 20.2685 133.195 21.383C132.342 22.6254 131.456 23.7943 130.525 23.7018C129.083 23.5605 131.327 19.0896 132.354 15.9127C133.178 13.3637 130.624 10.2624 125.561 14.9832L126.428 12.4512L122.398 12.5783C122.361 12.6984 120.952 17.0668 119.77 20.7339C118.682 21.9728 117.455 22.8217 116.965 22.4891C115.899 21.7665 117.186 18.8248 119.988 12.2294L116.094 12.3C115.19 13.8701 113.656 17.6587 113.112 20.8497C110.976 23.6382 106.427 27.7941 113.389 12.1828L109.316 12.5246L107.964 15.5907C107.598 15.7383 107.185 15.7425 106.706 15.5151C107.898 13.0551 106.325 11.3797 104.735 11.8282C103.367 12.2146 103.16 14.4895 104.139 16.167C103.943 17.2822 103.393 18.8672 101.932 20.6167C104.032 14.0036 100.049 8.04881 95.6363 13.8588L96.3367 10.8585L92.6195 11.3578L90.8115 18.8566C90.3741 19.5378 89.8309 20.1453 89.202 20.6562C89.5723 17.266 87.977 13.7882 82.6196 11.7442C76.6116 9.45082 87.8459 0.846017 90.49 3.26156C93.0557 5.60504 84.138 6.58115 84.458 10.3951C93.9282 10.6819 96.6474 2.35608 91.9241 0.5635C86.8962 -1.34774 80.1688 1.73948 76.2258 7.75431C71.3727 15.1556 81.9476 15.1287 84.4467 17.3635C87.0343 19.6787 85.1682 24.4186 82.2557 25.9479C78.1228 28.1169 76.0692 22.2877 78.5897 19.6759C78.5897 19.6759 77.2779 17.8324 75.0947 19.3976C74.4374 19.8588 73.8648 20.4299 73.4023 21.0857C70.3169 23.9928 65.7995 24.7633 66.3993 20.2854C70.7192 20.4041 74.8901 16.8189 72.7827 13.0607C71.0534 9.97561 65.0155 11.0485 63.0909 17.8967C62.6653 17.6855 62.2602 17.436 61.88 17.1516C62.0419 16.3598 62.16 15.5598 62.2341 14.7551C62.6377 10.3549 56.2019 11.2335 58.9056 16.3655C57.9531 20.7304 56.7905 23.0046 56.0476 23.4779C54.3126 24.5776 54.3727 18.6553 56.2863 12.437L52.7263 12.6037C52.0574 14.2929 51.5565 16.0435 51.2308 17.8303C50.7007 18.5197 50.0956 19.1482 49.4264 19.7041C49.6783 14.4401 45.3062 10.1938 40.7372 14.1583C34.1145 19.9047 38.4259 33.0963 45.6489 26.9697C47.4613 25.4329 48.5446 23.6446 49.0638 21.8619C49.7258 21.3574 50.3531 20.8092 50.9418 20.2211C50.6514 24.8227 52.1258 27.8039 54.1539 27.6549C57.2161 27.4302 60.0741 23.6382 61.4542 18.8679C61.8486 19.1353 62.2679 19.364 62.7064 19.5509C61.9182 23.896 63.231 26.8364 66.0284 26.9669C68.126 27.0629 70.3048 26.1307 72.4137 24.2499C72.4428 28.4538 77.2815 32.4286 82.8696 29.7328C85.1811 28.6175 87.5669 25.9803 88.6518 22.982C89.1021 22.5653 89.6389 22.0335 90.1976 21.4021L86.9607 34.8012L90.5367 34.5716L93.3256 24.2188C93.3179 25.967 96.9457 28.174 99.9227 24.5062C101.071 23.7004 103.983 21.3399 105.238 17.3727C105.721 17.7091 106.281 17.917 106.867 17.9765C103.236 26.664 108.425 28.7604 112.931 23.367C113.168 27.3929 116.365 26.0926 119.021 23.059L118.165 25.714L121.856 25.7904L124.819 17.1459C126.381 15.6683 127.255 15.1535 127.952 15.2389C129.369 15.4141 126.804 19.8016 126.258 22.9962C125.494 27.4719 130.458 27.424 133.279 24.0634C134.109 27.4698 137.854 27.6528 140.123 24.9816C139.769 26.0213 139.428 26.9628 139.097 27.8068C131.936 28.0935 129.224 33.6069 133.526 35.2936C137.582 36.353 139.961 34.525 142.227 29.896C143.535 30.2964 144.723 31.021 145.568 32.1265L147.174 31.0671C146.009 29.6792 144.536 28.7928 142.962 28.2984ZM43.7689 25.0077C40.5942 27.4799 40.3201 18.7761 43.9686 16.0942C47.1978 13.7211 46.3325 23.0096 43.7689 25.0077ZM70.4996 14.8491C70.9706 15.8379 70.273 18.2838 66.7613 18.5331L66.7208 18.5387C67.6315 15.342 69.9799 13.7607 70.4996 14.8491ZM95.1702 23.3536C93.0856 22.4841 95.6732 13.7536 98.1707 14.6873C100.602 15.5956 97.284 24.235 95.171 23.3536H95.1702ZM137.828 18.7626C140.307 14.3483 143.803 16.9263 140.129 22.7249C137.615 26.6874 135.59 22.749 137.829 18.7598L137.828 18.7626ZM134.76 33.0672C132.538 33.1182 133.942 30.5132 137.525 29.7343C137.79 29.6769 138.06 29.6303 138.334 29.593C137.29 31.7939 136.228 32.9635 134.761 33.0644L134.76 33.0672Z" fill="black"/>
</svg>
