<svg width="133" height="32" viewBox="0 0 133 32" fill="none" xmlns="http://www.w3.org/2000/svg">
<path fill-rule="evenodd" clip-rule="evenodd" d="M90.6193 0C89.6164 0.00228311 88.6718 0.639269 88.285 1.68493L78.4355 28.3882C77.934 29.7511 78.5717 31.2878 79.8619 31.8196C80.1623 31.9429 80.4694 32 80.7719 32C81.7748 32 82.7238 31.3584 83.1084 30.3129L84.7662 25.8196H96.5243L98.1843 30.3129C98.5668 31.3584 99.5158 32 100.521 32C100.821 32 101.13 31.9429 101.431 31.8196C102.721 31.2878 103.361 29.7511 102.855 28.3882L93.0056 1.68493C92.625 0.648402 91.6936 0.0136986 90.6993 0H90.6193ZM90.6452 9.88129L94.5682 20.5206H86.7223L90.6452 9.88129ZM0.010685 11.1849C0.00420075 11.274 -0.00012207 11.3607 -0.00012207 11.452V29.2282C-0.00012207 30.694 1.12165 31.8789 2.50712 31.8789C3.89475 31.8789 5.01652 30.694 5.01652 29.2282V21.0046C6.75429 22.1826 8.82926 22.8676 11.0598 22.8676C17.1507 22.8676 22.1089 17.7489 22.1089 11.452C22.1089 5.15524 17.1507 0.0342464 11.0598 0.0342464C5.04894 0.0342464 0.151177 5.01142 0.010685 11.1849ZM5.023 11.452C5.023 8.07762 7.72908 5.33562 11.0598 5.33562C14.3862 5.33562 17.0923 8.07762 17.0923 11.452C17.0923 14.8265 14.3862 17.5685 11.0598 17.5685C7.72908 17.5685 5.023 14.8265 5.023 11.452ZM26.2372 2.64611C26.2372 4.10731 27.3784 5.27853 28.7619 5.27853C30.1473 5.27853 31.2538 4.10731 31.2538 2.64611C31.2538 1.22146 30.1473 0.0525113 28.7619 0.0525113C27.3784 0.0525113 26.2372 1.22146 26.2372 2.64611ZM121.64 2.71689V22.58C121.64 27.7078 125.587 31.8789 130.441 31.8789C131.824 31.8789 132.948 30.694 132.948 29.2282C132.948 27.7649 131.824 26.58 130.441 26.58C128.353 26.58 126.657 24.7853 126.657 22.58V13.7671H130.441C131.824 13.7671 132.948 12.5822 132.948 11.1164C132.948 9.65298 131.824 8.46805 130.441 8.46805H126.657V2.71689C126.657 1.25342 125.533 0.0684931 124.147 0.0684931C122.764 0.0684931 121.64 1.25342 121.64 2.71689ZM111.194 9.7694C110.757 8.99316 109.958 8.46805 109.037 8.46805C107.653 8.46805 106.529 9.65298 106.529 11.1164V29.3356C106.529 30.7969 107.653 31.984 109.037 31.984C110.422 31.984 111.548 30.7969 111.548 29.3356V18.0822C111.548 15.7032 113.496 13.7671 115.891 13.7671C117.272 13.7671 118.398 12.5822 118.398 11.1164C118.398 9.65298 117.272 8.46805 115.891 8.46805C114.179 8.46805 112.575 8.94293 111.194 9.7694ZM60.8739 10.7854C59.6269 12.0457 58.9114 13.742 58.9114 15.4452C58.9114 21.0274 64.6088 22.3653 66.4806 22.806C70.1204 23.6598 70.1204 24.5936 70.1204 24.9953C70.1204 25.194 70.0146 25.5182 69.7077 25.8264C69.1695 26.3744 68.2659 26.6484 67.1399 26.5958C66.1456 26.548 64.8812 26.2809 63.0483 24.6324C61.9914 23.6827 60.4093 23.8129 59.5123 24.9293C58.6131 26.0411 58.7384 27.7122 59.7932 28.662C62.1081 30.7489 64.3755 31.774 66.9237 31.8882C67.0815 31.8949 67.2372 31.8996 67.3928 31.8996C69.6968 31.8996 71.735 31.1118 73.1745 29.6529C74.4217 28.3927 75.1372 26.694 75.1372 24.9953C75.1372 19.411 69.4417 18.0731 67.5701 17.6324C63.928 16.7785 63.928 15.8425 63.928 15.4452C63.928 15.2443 64.0362 14.9201 64.343 14.6073C64.8834 14.0639 65.7934 13.8059 66.9109 13.8425C67.9049 13.8881 69.1695 14.1552 71.0046 15.8082C72.057 16.7557 73.6393 16.6233 74.5385 15.5091C75.4355 14.3973 75.3121 12.726 74.2597 11.7763C71.9426 9.68949 69.6752 8.66667 67.1247 8.55022C66.9647 8.54338 66.8069 8.53882 66.6491 8.53882C64.3561 8.53882 62.3112 9.33104 60.8739 10.7854ZM38.5789 11.968C38.566 11.9794 38.5594 11.9909 38.5509 12C34.282 16.5434 34.282 23.8996 38.5487 28.4451C38.5594 28.4544 38.566 28.468 38.5789 28.4771C40.7338 30.7533 43.5653 31.8882 46.3925 31.8882C49.224 31.8882 52.051 30.7533 54.2059 28.4771C55.1851 27.4451 55.1851 25.7649 54.2059 24.7329C53.2268 23.6964 51.6383 23.6987 50.6613 24.7307C48.3075 27.2169 44.4775 27.2169 42.1258 24.7307C42.1237 24.726 42.1173 24.7238 42.1151 24.7191C39.7763 22.2351 39.7763 18.2078 42.1151 15.726C42.1173 15.7215 42.1237 15.7192 42.1258 15.7169C44.4775 13.2306 48.3075 13.2306 50.6613 15.7169C51.1497 16.2306 51.7916 16.4932 52.4335 16.4932C53.0757 16.4932 53.7176 16.2306 54.2059 15.7146C55.1851 14.6804 55.1851 13.0046 54.2059 11.968C52.0531 9.69407 49.2216 8.5548 46.3925 8.5548C43.561 8.5548 40.7317 9.69407 38.5789 11.968ZM26.2351 11.2534V29.2282C26.2351 30.694 27.3613 31.8789 28.7446 31.8789C30.1299 31.8789 31.2538 30.694 31.2538 29.2282V11.2534C31.2538 9.78996 30.1299 8.60502 28.7446 8.60502C27.3613 8.60502 26.2351 9.78996 26.2351 11.2534Z" fill="black"/>
</svg>
