<svg width="151" height="20" viewBox="0 0 151 20" fill="none" xmlns="http://www.w3.org/2000/svg">
<path d="M10.9683 7.43712C10.9683 5.67064 9.71443 4.14879 7.77725 4.14879H4.61505V10.7245H7.77725C9.71443 10.7245 10.9683 9.20362 10.9683 7.43712ZM-0.00012207 0.562012H8.34674C12.7628 0.562012 15.6121 3.74169 15.6121 7.43712C15.6121 11.1326 12.7628 14.3113 8.34674 14.3113H4.61505V19.5834H-0.00012207V0.562012Z" fill="black"/>
<path d="M28.9732 5.99653L26.523 13.8229H31.3659L28.9732 5.99653ZM33.2753 19.5834L32.5069 17.2736H25.4128L24.6433 19.5834H19.7143L26.8369 0.562012H31.0817L38.2896 19.5834H33.2753Z" fill="black"/>
<path d="M46.0384 4.3661H41.5381V0.562012H55.1834V4.3661H50.6534V19.5834H46.0384V4.3661Z" fill="black"/>
<path d="M73.3314 7.43712C73.3314 5.67064 72.0774 4.14879 70.1401 4.14879H66.9777V10.7245H70.1401C72.0774 10.7245 73.3314 9.20362 73.3314 7.43712ZM62.3629 0.562012H70.7394C75.1545 0.562012 78.0037 3.74169 78.0037 7.43712C78.0037 10.1001 76.5221 12.4635 74.043 13.5782L78.0327 19.5834H72.6768L69.1429 14.3113H66.9777V19.5834H62.3629V0.562012Z" fill="black"/>
<path d="M90.454 4.09494V8.41482H98.0034V11.8666H90.454V16.0503H98.0034V19.5834H85.8386V0.562012H98.0034V4.09494H90.454Z" fill="black"/>
<path d="M121.906 10C121.906 6.87511 119.683 3.96753 116.066 3.96753C112.419 3.96753 110.225 6.87511 110.225 10C110.225 13.1249 112.419 16.0325 116.066 16.0325C119.683 16.0325 121.906 13.1249 121.906 10ZM105.495 10C105.495 4.78272 109.427 0 116.066 0C122.674 0 126.606 4.78272 126.606 10C126.606 15.2172 122.674 20 116.066 20C109.427 20 105.495 15.2172 105.495 10Z" fill="black"/>
<path d="M146.294 12.9529V0.562012H150.879V19.5834H146.065L138.885 7.35493V19.5834H134.27V0.562012H139.084L146.294 12.9529Z" fill="black"/>
</svg>
