<svg width="150" height="40" viewBox="0 0 150 40" fill="none" xmlns="http://www.w3.org/2000/svg">
<path d="M46.2306 18.433C47.0096 16.5437 48.4564 15.046 50.2814 14.2625C52.1734 13.4561 54.3102 13.4561 56.2022 14.2625C57.1148 14.6542 57.9161 15.2303 58.6283 15.9446C59.3184 16.6589 59.8972 17.5114 60.2756 18.433C60.6762 19.4008 60.8764 20.4377 60.8764 21.4976V29.3777H57.8716V21.4976C57.8716 20.8754 57.7602 20.2303 57.5155 19.6542C56.781 17.9031 55.1114 16.751 53.2419 16.7741C52.6409 16.7741 52.0175 16.8893 51.4613 17.1427C50.9047 17.3731 50.415 17.7188 49.9921 18.1565C49.5692 18.5944 49.2354 19.1012 49.0127 19.6542C48.768 20.2303 48.6566 20.8754 48.6566 21.4976V29.3777H45.6295V21.4976C45.6295 20.4377 45.83 19.4008 46.2306 18.433Z" fill="black"/>
<path d="M74.2313 23.8018L76.3681 26.0138L75.3218 27.0968C72.3615 30.1843 67.5538 30.1843 64.5935 27.1198L64.5712 27.0968C63.8365 26.3594 63.2802 25.4608 62.9019 24.4931C62.5455 23.5484 62.3676 22.5346 62.3676 21.5438C62.3676 20.53 62.5455 19.5392 62.9019 18.5945C63.2802 17.6267 63.8365 16.7281 64.5489 15.9908C65.2611 15.2304 66.1292 14.6544 67.064 14.2627C68.8893 13.5023 70.9592 13.5023 72.7844 14.2627C73.7416 14.6544 74.5874 15.2535 75.2996 15.9908L76.3681 17.0737L67.9544 25.8065C69.7128 26.7051 71.8273 26.3364 73.2073 24.8848L74.2313 23.8018ZM66.6857 18.1567C65.2834 19.5853 64.9273 21.7742 65.7953 23.5945L67.0195 22.3041L68.8002 20.4839C69.4235 19.8387 70.0243 19.2166 70.6031 18.6405C71.1819 18.0645 71.6271 17.6037 71.9386 17.2811C71.0929 16.8433 70.1357 16.682 69.2231 16.8203C68.2436 16.9585 67.3533 17.4424 66.6857 18.1567Z" fill="black"/>
<path d="M84.5147 13.6177C85.5384 13.6177 86.5401 13.8251 87.475 14.2398C89.278 15.0463 90.7246 16.544 91.5038 18.4103C91.9045 19.3781 92.1046 20.4149 92.1046 21.4748V29.3551H84.5147C83.513 29.3551 82.5113 29.1476 81.5765 28.7328C79.7512 27.9265 78.2824 26.4057 77.5031 24.5163C76.7018 22.5578 76.7018 20.3458 77.5031 18.4103C77.8817 17.4886 78.438 16.6361 79.1504 15.9218C79.8626 15.2075 80.6861 14.6315 81.5765 14.2398C82.4891 13.8251 83.4908 13.6177 84.5147 13.6177ZM89.0775 26.2214V21.4518C89.0775 20.8297 88.9662 20.1845 88.7215 19.6085C88.254 18.4564 87.3859 17.5578 86.2729 17.0739C85.7166 16.8205 85.0933 16.7052 84.4925 16.7052C83.8691 16.7052 83.2681 16.8205 82.6895 17.0739C81.5765 17.5578 80.7084 18.4564 80.2409 19.6085C79.9962 20.1845 79.8849 20.8297 79.8849 21.4518C79.8626 24.0785 81.9103 26.1983 84.4479 26.2214C84.4702 26.2214 84.4925 26.2214 84.4925 26.2214H89.0775Z" fill="black"/>
<path d="M102.611 13.6175V16.7281H101.097C100.496 16.7281 99.8728 16.8433 99.3165 17.0968C98.2035 17.5807 97.3354 18.4793 96.868 19.6313C96.6233 20.2074 96.5119 20.8526 96.5119 21.4747V29.3549H93.4625V21.4516C93.4625 20.3917 93.663 19.3549 94.0636 18.3871C94.442 17.4655 94.9985 16.6129 95.7106 15.8986C96.4228 15.1843 97.2463 14.6083 98.1589 14.2166C99.0938 13.8019 100.096 13.5945 101.097 13.5945H102.611V13.6175Z" fill="black"/>
<path d="M117.234 18.4565C116.856 17.5118 116.299 16.6593 115.61 15.945C113.428 13.6869 110.112 12.9957 107.263 14.2399C105.438 15.0464 103.968 16.5671 103.189 18.4565C102.789 19.4243 102.588 20.4611 102.588 21.498C102.588 21.7515 102.611 22.0049 102.633 22.2584V32.8345H105.571V27.7192C106.083 28.134 106.662 28.4795 107.263 28.7562C109.155 29.5626 111.292 29.5626 113.183 28.7562C115.009 27.9726 116.455 26.475 117.234 24.5856C118.036 22.627 118.036 20.4151 117.234 18.4565ZM114.497 23.3413C114.274 23.8943 113.94 24.4243 113.517 24.839C113.094 25.2768 112.583 25.6224 112.026 25.8528C110.868 26.3367 109.577 26.3367 108.42 25.8528C107.864 25.6224 107.374 25.2768 106.951 24.839C106.528 24.4012 106.194 23.8943 105.972 23.3413C105.727 22.7653 105.615 22.1201 105.615 21.498C105.615 18.8713 107.663 16.7284 110.201 16.7284C110.223 16.7284 110.223 16.7284 110.245 16.7284C110.868 16.7284 111.469 16.8436 112.048 17.0971C113.74 17.8344 114.875 19.5856 114.853 21.498C114.853 22.1432 114.742 22.7653 114.497 23.3413Z" fill="black"/>
<path d="M133.817 21.498C133.817 22.5579 133.617 23.5948 133.216 24.5625C132.437 26.4519 130.99 27.9496 129.165 28.7329C127.273 29.5396 125.136 29.5396 123.244 28.7329C122.331 28.3412 121.508 27.7653 120.818 27.051C120.128 26.3367 119.549 25.5072 119.171 24.5625C118.369 22.604 118.369 20.4151 119.171 18.4565C119.95 16.5671 121.397 15.0464 123.244 14.2399C126.093 12.9957 129.41 13.6639 131.591 15.945C132.281 16.6823 132.837 17.5349 133.216 18.4565C133.617 19.4242 133.817 20.4611 133.817 21.498ZM130.834 21.498C130.857 19.5625 129.743 17.8344 128.007 17.0971C126.85 16.6132 125.559 16.6132 124.402 17.0971C123.845 17.3275 123.355 17.6731 122.91 18.1109C122.042 19.0095 121.575 20.2307 121.575 21.498C121.575 22.1201 121.686 22.7653 121.931 23.3413C122.154 23.8943 122.51 24.4242 122.91 24.839C123.333 25.2768 123.845 25.6224 124.402 25.8528C125.559 26.3367 126.85 26.3367 128.007 25.8528C129.12 25.369 130.011 24.4703 130.478 23.3183C130.723 22.7653 130.834 22.1432 130.834 21.498Z" fill="black"/>
<path d="M149.754 10.2075H146.815V15.2766C146.304 14.8619 145.725 14.4932 145.124 14.2398C143.232 13.4333 141.095 13.4333 139.203 14.2398C137.378 15.0462 135.909 16.567 135.13 18.4564C134.329 20.4149 134.329 22.6038 135.13 24.5624C135.508 25.484 136.087 26.3365 136.777 27.0508C137.467 27.7651 138.291 28.3411 139.203 28.7328C141.095 29.5394 143.232 29.5394 145.124 28.7328C146.949 27.9494 148.396 26.4517 149.175 24.5624C149.576 23.5946 149.776 22.5577 149.776 21.4978C149.776 21.3826 149.776 21.2674 149.754 21.1522H149.776L149.754 10.2075ZM146.437 23.3412C146.215 23.8942 145.881 24.4241 145.458 24.8389C145.035 25.2766 144.523 25.6223 143.967 25.8527C142.809 26.3365 141.518 26.3365 140.361 25.8527C139.804 25.6223 139.315 25.2766 138.87 24.8389C138.447 24.401 138.113 23.8942 137.89 23.3412C137.645 22.7651 137.534 22.12 137.534 21.4978C137.534 18.8711 139.582 16.7282 142.119 16.7282C142.141 16.7282 142.141 16.7282 142.164 16.7282C142.787 16.7282 143.388 16.8435 143.967 17.0969C145.68 17.8342 146.793 19.5624 146.793 21.4978C146.793 22.143 146.682 22.7651 146.437 23.3412Z" fill="black"/>
<path fill-rule="evenodd" clip-rule="evenodd" d="M19.3201 0C8.65837 0 -0.00012207 8.96314 -0.00012207 20C-0.00012207 31.0369 8.65837 40 19.3201 40C29.9819 40 38.6403 31.0369 38.6403 20C38.618 8.96314 29.9819 0.0230415 19.3201 0ZM12.3532 11.5669L13.1768 9.83883C13.7333 8.66369 14.8239 7.9955 16.382 7.9955H25.0182C25.4189 7.97247 25.8418 8.08767 26.1757 8.34111C26.4205 8.52544 26.554 8.825 26.554 9.14758C26.554 9.378 26.4872 9.63144 26.3982 9.83883H16.4265C15.8033 9.83883 15.3359 9.88489 14.8239 10.8757L14.49 11.5669L8.23544 25.0231H6.05414L12.3532 11.5669ZM5.58672 27.4656C5.58672 27.7881 5.72024 28.0878 5.9651 28.2719C6.29897 28.5256 6.69962 28.6406 7.12254 28.5717H19.8098C21.3678 28.5717 22.4585 27.9033 23.015 26.7282L23.0595 26.613C23.1013 26.5698 23.1256 26.5174 23.149 26.4674C23.1629 26.4375 23.1764 26.4084 23.193 26.3826L28.6018 14.7928H26.4205L25.3521 17.1199L24.9959 17.9034L24.9737 17.9725L21.6795 25.0462L21.3456 25.7374C20.8336 26.7282 20.3662 26.7743 19.743 26.7743H8.45803C8.44689 26.7743 8.43578 26.7686 8.42465 26.7628C8.41351 26.757 8.40237 26.7513 8.39126 26.7513H5.76476C5.65348 26.9817 5.58672 27.2121 5.58672 27.4656ZM25.5079 29.7925C25.4857 29.8272 25.4634 29.8675 25.4411 29.9078C25.4189 29.9481 25.3966 29.9883 25.3744 30.0231L25.3299 30.1381C24.7734 31.3133 23.6827 31.9814 22.1247 31.9814H13.4884C13.0878 32.0044 12.6649 31.8894 12.331 31.6358C12.0861 31.4517 11.9526 31.1519 11.9526 30.8294C11.9526 30.5758 12.0194 30.3456 12.1307 30.1153H14.7571C14.7683 30.1153 14.7794 30.1208 14.7905 30.1267C14.8017 30.1325 14.8128 30.1381 14.8239 30.1381H22.1692C22.7256 30.1381 23.1708 30.0461 23.6605 29.1244L23.9944 28.4331L30.2712 14.9078H32.4525L25.5079 29.7925ZM19.1198 13.0414H32.8754C32.9645 12.8341 33.0313 12.5806 33.0535 12.3732C33.0535 12.0506 32.9199 11.7511 32.6752 11.5668C32.3411 11.3133 31.9182 11.1981 31.5176 11.2211H18.964C17.4059 11.2211 16.3152 11.8893 15.7588 13.0645L10.1496 25.0921H12.2865L13.5552 22.4423L17.4949 13.9861C17.9401 13.2027 18.4075 13.0414 19.1198 13.0414Z" fill="black"/>
</svg>
