<svg width="139" height="22" viewBox="0 0 139 22" fill="none" xmlns="http://www.w3.org/2000/svg">
<path d="M110.482 9.64879C110.482 9.04606 110.255 8.56188 109.808 8.20614C109.361 7.85044 108.795 7.66763 108.121 7.66763C107.474 7.66763 106.93 7.84056 106.477 8.18145C106.041 8.52726 105.771 9.01144 105.669 9.64381H110.482V9.64879ZM114.422 10.5776C114.422 10.9086 114.4 11.2495 114.352 11.6102H105.648C105.707 12.3265 105.954 12.8749 106.391 13.2603C106.839 13.6308 107.388 13.8186 108.035 13.8186C108.994 13.8186 109.663 13.448 110.035 12.707H114.131C113.921 13.4629 113.538 14.1447 112.983 14.7474C112.443 15.35 111.759 15.8244 110.935 16.1702C110.11 16.516 109.188 16.6841 108.17 16.6841C106.941 16.6841 105.847 16.4419 104.887 15.9627C103.928 15.4836 103.179 14.7968 102.64 13.9025C102.101 13.0083 101.832 11.9659 101.832 10.7703C101.832 9.57469 102.096 8.52726 102.619 7.63803C103.157 6.74376 103.906 6.05706 104.866 5.57781C105.825 5.09859 106.93 4.8565 108.175 4.8565C109.388 4.8565 110.471 5.08871 111.414 5.55806C112.357 6.02742 113.096 6.69436 113.619 7.55896C114.147 8.41362 114.422 9.42151 114.422 10.5776ZM100.446 13.5271V16.516H98.4897C97.0942 16.516 96.0056 16.2048 95.2289 15.5873C94.4474 14.9549 94.0597 13.9322 94.0597 12.5143V7.93442H92.529V5.00472H94.0597V2.19852H97.9075V5.00472H100.425V7.93442H97.9075V12.5538C97.9075 12.8996 97.9992 13.1466 98.1775 13.2948C98.355 13.448 98.6567 13.5221 99.0774 13.5221H100.446V13.5271ZM86.8159 10.7653C86.8159 9.88593 86.5465 9.18929 86.0076 8.68042C85.4846 8.17156 84.8382 7.91962 84.0729 7.91962C83.3075 7.91962 82.655 8.17156 82.116 8.68042C81.5937 9.17449 81.3294 9.86119 81.3294 10.7406C81.3294 11.62 81.5937 12.3216 82.116 12.8453C82.655 13.3541 83.3075 13.6061 84.0729 13.6061C84.8382 13.6061 85.4846 13.3541 86.0076 12.8453C86.5465 12.3364 86.8159 11.6447 86.8159 10.7653ZM77.4167 10.7456C77.4167 9.56481 77.6592 8.52726 78.1385 7.63305C78.6345 6.73886 79.3027 6.05209 80.1384 5.57288C80.9792 5.09364 81.9165 4.85156 82.9517 4.85156C83.8355 4.85156 84.6064 5.01459 85.2689 5.34562C85.9427 5.67663 86.4599 6.10642 86.8214 6.64493V5.01459H90.6694V16.5209H86.8214V14.8907C86.4444 15.4292 85.9215 15.8589 85.2477 16.19C84.5902 16.5209 83.8137 16.6841 82.9299 16.6841C81.9115 16.6841 80.9792 16.4419 80.1384 15.9627C79.2977 15.4688 78.629 14.7721 78.1385 13.8778C77.6535 12.9688 77.4167 11.9263 77.4167 10.7456ZM69.7415 13.2158L72.4632 5.00966H76.5599L72.1074 16.516H67.3595L62.9077 5.00966H67.0255L69.7415 13.2158ZM61.3122 5.00966V16.516H57.464V5.00966H61.3122ZM59.399 3.81407C58.7252 3.81407 58.1702 3.6362 57.7335 3.27554C57.3132 2.90501 57.103 2.45048 57.103 1.9169C57.103 1.36851 57.3132 0.913993 57.7335 0.558276C58.1702 0.187739 58.7252 0 59.399 0C60.0565 0 60.6009 0.187739 61.0212 0.558276C61.4577 0.913993 61.6734 1.36851 61.6734 1.9169C61.6734 2.45543 61.4577 2.90501 61.0212 3.27554C60.5955 3.6362 60.0565 3.81407 59.399 3.81407ZM55.319 13.5271V16.516H53.3625C51.9667 16.516 50.8779 16.2048 50.1019 15.5873C49.3204 14.9549 48.9324 13.9322 48.9324 12.5143V7.93442H47.4017V5.00472H48.9324V2.19852H52.7805V5.00472H55.2974V7.93442H52.7805V12.5538C52.7805 12.8996 52.872 13.1466 53.05 13.2948C53.2279 13.4431 53.5297 13.5221 53.95 13.5221H55.319V13.5271ZM42.3894 10.7456C42.3894 9.86616 42.1199 9.17945 41.5809 8.6854C41.058 8.17654 40.4059 7.92454 39.6244 7.92454C38.859 7.92454 38.2069 8.17654 37.668 8.6854C37.1452 9.19426 36.881 9.88593 36.881 10.7703C36.881 11.6497 37.1452 12.3463 37.668 12.8552C38.2069 13.364 38.859 13.616 39.6244 13.616C40.3897 13.616 41.0419 13.364 41.5809 12.8552C42.1199 12.3265 42.3894 11.625 42.3894 10.7456ZM36.9027 6.64001C37.2799 6.10152 37.7974 5.67169 38.4549 5.34067C39.1124 5.00966 39.8885 4.84662 40.7724 4.84662C41.8072 4.84662 42.745 5.08871 43.5857 5.56794C44.4265 6.04717 45.084 6.73886 45.5637 7.62815C46.0595 8.52234 46.3075 9.55982 46.3075 10.7406C46.3075 11.9214 46.0595 12.9688 45.5637 13.8729C45.084 14.7671 44.4265 15.4588 43.5857 15.9578C42.745 16.4371 41.8072 16.6791 40.7724 16.6791C39.9047 16.6791 39.1285 16.516 38.4549 16.1851C37.7974 15.8541 37.2799 15.4292 36.9027 14.9055V22H33.0545V5.00966H36.9027V6.64001ZM26.4252 10.7653C26.4252 9.88593 26.1557 9.18929 25.6167 8.68042C25.094 8.17156 24.4472 7.91962 23.6819 7.91962C22.9165 7.91962 22.2644 8.17156 21.7255 8.68042C21.2027 9.17449 20.9385 9.86119 20.9385 10.7406C20.9385 11.62 21.2027 12.3216 21.7255 12.8453C22.2644 13.3541 22.9165 13.6061 23.6819 13.6061C24.4472 13.6061 25.094 13.3541 25.6167 12.8453C26.1557 12.3364 26.4252 11.6447 26.4252 10.7653ZM17.0204 10.7456C17.0204 9.56481 17.2629 8.52726 17.7425 7.63305C18.2384 6.73886 18.9067 6.05209 19.742 5.57288C20.5829 5.09364 21.5207 4.85156 22.5554 4.85156C23.4394 4.85156 24.21 5.01459 24.873 5.34562C25.5467 5.67663 26.064 6.10642 26.4252 6.64493V5.01459H30.2734V16.5209H26.4252V14.8907C26.048 15.4292 25.5252 15.8589 24.8515 16.19C24.1939 16.5209 23.4179 16.6841 22.5339 16.6841C21.5152 16.6841 20.5829 16.4419 19.742 15.9627C18.9012 15.4688 18.233 14.7721 17.7425 13.8778C17.2629 12.9688 17.0204 11.9263 17.0204 10.7456ZM-0.00012207 9.25847C-0.00012207 7.83067 0.339425 6.55605 1.01313 5.44442C1.68683 4.31799 2.62463 3.44352 3.82651 2.82596C5.03918 2.19358 6.41351 1.87738 7.94418 1.87738C9.81976 1.87738 11.4259 2.33191 12.7571 3.23602C14.0937 4.14507 14.983 5.38019 15.4358 6.94635H11.2049C10.8923 6.34358 10.4396 5.87916 9.85753 5.56299C9.28619 5.2468 8.63404 5.08871 7.90106 5.08871C6.71534 5.08871 5.75599 5.46912 5.02301 6.22502C4.29001 6.98092 3.91814 7.99371 3.91814 9.25847C3.91814 10.5232 4.28463 11.536 5.02301 12.2919C5.75599 13.0479 6.71534 13.4282 7.90106 13.4282C8.63404 13.4282 9.28619 13.2702 9.85753 12.9539C10.445 12.6378 10.8923 12.1783 11.2049 11.5706H15.4358C14.9884 13.1368 14.0937 14.3768 12.7571 15.281C11.4205 16.1752 9.81976 16.6198 7.94418 16.6198C6.41351 16.6198 5.04456 16.3086 3.82651 15.691C2.62463 15.0586 1.68683 14.1841 1.01313 13.0725C0.339425 11.9609 -0.00012207 10.6863 -0.00012207 9.25847Z" fill="black"/>
<path d="M126.365 9.23877C126.365 10.5183 126.737 11.541 127.492 12.3117C128.257 13.0676 129.275 13.4481 130.553 13.4481C131.815 13.4481 132.817 13.0627 133.566 12.292C134.331 11.5212 134.714 10.5035 134.714 9.23877C134.714 7.95916 134.331 6.94139 133.566 6.18549C132.817 5.4148 131.809 5.02943 130.553 5.02943C129.281 5.02943 128.257 5.40985 127.492 6.16573C126.743 6.92168 126.365 7.94431 126.365 9.23877ZM134.331 18.9913L132.304 16.4963C131.707 16.6051 131.119 16.6593 130.547 16.6593C129.065 16.6593 127.697 16.3432 126.451 15.7107C125.222 15.0784 124.236 14.199 123.503 13.0725C122.781 11.9313 122.425 10.6517 122.425 9.23877C122.425 7.82079 122.787 6.55113 123.503 5.42469C124.236 4.29825 125.222 3.41884 126.451 2.78646C127.697 2.15406 129.06 1.83789 130.547 1.83789C132.035 1.83789 133.388 2.15406 134.617 2.78646C135.862 3.41884 136.837 4.29825 137.543 5.42469C138.266 6.55113 138.622 7.82576 138.622 9.23877C138.622 10.4739 138.341 11.6102 137.791 12.6427C137.252 13.6605 136.493 14.5053 135.517 15.1772L138.982 18.9913H134.331ZM120.296 2.04044V16.516H116.448V2.04044H120.296Z" fill="black"/>
</svg>
