<svg width="47" height="46" viewBox="0 0 47 46" fill="none" xmlns="http://www.w3.org/2000/svg">
<g clip-path="url(#clip0)">
<path d="M29.5465 0.682861H24.6478C23.8927 0.682861 23.1689 0.980071 22.6354 1.50885L20.0325 4.08983C19.5422 4.57576 19.2672 5.234 19.2672 5.92049V22.9079H23.4705V6.86044C23.4705 6.00255 24.1714 5.30784 25.0369 5.30784H29.1602C30.0257 5.30784 30.7266 6.00255 30.7266 6.86044V22.9079H34.9299V5.92049C34.9299 5.234 34.6549 4.57576 34.1646 4.08983L31.5608 1.50885C31.0255 0.979159 30.3016 0.682861 29.5465 0.682861Z" fill="#CCAA97"/>
<path d="M23.4696 6.86046L20.0325 4.08984C19.5422 4.57577 19.2672 5.23401 19.2672 5.92051V22.9079H23.4705V6.86046H23.4696Z" fill="#E0C1AD"/>
<path d="M30.7257 6.86041V0.936279C31.0329 1.07486 31.3161 1.26722 31.559 1.50791L34.1628 4.08889C34.6531 4.57482 34.9281 5.23305 34.9281 5.91955V22.907H30.7247L30.7257 6.86041Z" fill="#E0C1AD"/>
<path d="M20.9761 0.682861H16.0775C15.3223 0.682861 14.5985 0.980071 14.065 1.50885L11.4612 4.08983C10.9709 4.57576 10.6959 5.234 10.6959 5.92049V22.9079H14.8983V6.86044C14.8983 6.00255 15.6001 5.30784 16.4647 5.30784H20.588C21.4526 5.30784 22.1544 6.00255 22.1544 6.86044V22.9079H26.3577V5.92049C26.3577 5.234 26.0827 4.57576 25.5924 4.08983L22.9886 1.50885C22.4551 0.979159 21.7313 0.682861 20.9761 0.682861Z" fill="#EFD4BF"/>
<path d="M14.8993 6.86041V0.936279C14.5921 1.07486 14.3088 1.26722 14.066 1.50791L11.4621 4.08889C10.9719 4.57482 10.6969 5.23305 10.6969 5.91955V22.907H14.9002L14.8993 6.86041Z" fill="#FCE6D4"/>
<path d="M22.1553 6.86041V0.936279C22.4625 1.07486 22.7458 1.26722 22.9886 1.50791L25.5924 4.08889C26.0827 4.57482 26.3577 5.23305 26.3577 5.91955V22.907H22.1553V6.86041Z" fill="#FCE6D4"/>
<path d="M38.2273 11.4535H15.7188L10.6334 45.318H41.9128C44.6004 45.318 46.6588 42.9504 46.2633 40.3156L42.4739 15.082C42.1602 12.997 40.3547 11.4535 38.2273 11.4535Z" fill="#DD9F80"/>
<path d="M11.6746 45.3171H41.9128C44.6003 45.3171 46.6587 42.9495 46.2632 40.3147L44.088 25.8317C40.3142 26.633 34.9897 28.6232 29.5152 33.4789C23.2627 39.0274 16.0913 43.0871 11.6746 45.3171Z" fill="#C68D6D"/>
<path d="M46.2633 40.3156L42.4739 15.082C42.1611 12.997 40.3547 11.4535 38.2282 11.4535H36.8081L41.8503 45.318H41.9128C44.6003 45.3171 46.6588 42.9504 46.2633 40.3156Z" fill="#C68D6D"/>
<path d="M41.8502 45.3171H41.9128C44.6003 45.3171 46.6597 42.9495 46.2632 40.3147L44.088 25.8317C42.6504 26.1371 40.9866 26.6148 39.1755 27.3578L41.8502 45.3171Z" fill="#B2785B"/>
<path d="M28.8723 45.3171H41.9127C44.6003 45.3171 46.6597 42.9495 46.2632 40.3147L40.4825 36.131L28.8723 45.3171Z" fill="#935B45"/>
<path d="M31.2813 11.4535H8.77185C6.64535 11.4535 4.83893 12.997 4.52621 15.082L0.736778 40.3156C0.341279 42.9504 2.40063 45.318 5.08727 45.318H36.3666L31.2813 11.4535Z" fill="#EAB9A4"/>
<path d="M11.6746 45.3172H36.3666L34.0699 30.0255C32.5845 30.9754 31.0568 32.1141 29.5162 33.4798C23.2627 39.0274 16.0913 43.0872 11.6746 45.3172Z" fill="#DD9F80"/>
<path d="M13.6906 40.425C13.0707 39.8106 13.0707 38.8141 13.6906 38.1996L21.1187 30.8368C21.7386 30.2224 22.7448 30.2224 23.3647 30.8368C23.9847 31.4513 23.9847 32.4478 23.3647 33.0623L15.9367 40.425C15.3159 41.0395 14.3106 41.0395 13.6906 40.425Z" fill="#FF6600"/>
<path d="M12.6504 21.2943C12.6504 20.0945 11.4179 19.1226 9.89848 19.1226C8.37903 19.1226 7.14746 20.0954 7.14746 21.2943C7.14746 22.4931 8.37995 23.4659 9.89848 23.4659C11.4179 23.4659 12.6504 22.4931 12.6504 21.2943Z" fill="#FF6600"/>
<path d="M29.9071 21.2943C29.9071 20.0945 28.6746 19.1226 27.1552 19.1226C25.6357 19.1226 24.4042 20.0954 24.4042 21.2943C24.4042 22.4931 25.6367 23.4659 27.1552 23.4659C28.6756 23.4659 29.9071 22.4931 29.9071 21.2943Z" fill="#FF6600"/>
<path d="M15.9459 31.4432C15.9459 32.343 15.2101 33.0723 14.3023 33.0723C13.3945 33.0723 12.6587 32.343 12.6587 31.4432C12.6587 30.5433 13.3945 29.814 14.3023 29.814C15.2101 29.814 15.9459 30.5433 15.9459 31.4432Z" fill="#FF6600"/>
<path d="M24.3959 39.8188C24.3959 40.7186 23.6601 41.4479 22.7523 41.4479C21.8445 41.4479 21.1086 40.7186 21.1086 39.8188C21.1086 38.9189 21.8445 38.1896 22.7523 38.1896C23.6601 38.1896 24.3959 38.9189 24.3959 39.8188Z" fill="#FF6600"/>
<path d="M20.209 23.005C19.2194 23.7663 17.836 23.7663 16.8454 23.005C16.5447 22.7744 16.1124 22.8281 15.8797 23.1263C15.647 23.4244 15.7013 23.8529 16.002 24.0835C16.7461 24.6552 17.6364 24.9414 18.5277 24.9414C19.4189 24.9414 20.3102 24.6561 21.0534 24.0835C21.3541 23.8529 21.4084 23.4235 21.1757 23.1263C20.9421 22.8281 20.5098 22.7744 20.209 23.005Z" fill="black"/>
<path d="M11.5009 17C10.1793 17 8.95601 17.6745 8.22836 18.8019C7.80699 19.4575 7.98519 20.3367 8.62745 20.7668C9.26786 21.1969 10.1292 21.015 10.5524 20.3613C10.855 19.8895 11.3172 19.8384 11.5009 19.8384C11.6847 19.8384 12.1376 19.8952 12.4495 20.3613C13.0992 21.3333 14.1387 20.9241 14.3725 20.7668C15.0148 20.3367 15.193 19.4575 14.7716 18.8019C14.0477 17.6745 12.8244 17 11.5009 17Z" fill="black"/>
<path d="M24.5532 20.3613C24.8575 19.8895 25.3177 19.8384 25.5014 19.8384C25.6851 19.8384 26.1397 19.8952 26.4496 20.3613C27.099 21.3333 28.1381 20.9241 28.3737 20.7668C29.0139 20.3367 29.1939 19.4575 28.7708 18.8019C28.0453 17.6745 26.8225 17 25.4995 17C24.1784 17 22.9556 17.6745 22.2283 18.8019C21.8071 19.4575 21.9852 20.3367 22.6272 20.7668C23.2711 21.1969 24.132 21.015 24.5532 20.3613Z" fill="black"/>
<path d="M46.9441 40.2154L43.1547 14.9817C42.979 13.8111 42.3839 12.7417 41.4798 11.9695C40.5766 11.1964 39.4204 10.7716 38.2275 10.7716H35.6163V5.9214C35.6163 5.048 35.2732 4.22566 34.6496 3.60845L32.0457 1.02747C31.378 0.364674 30.4904 0 29.5458 0H24.6472C23.9895 0 23.3586 0.177779 22.8113 0.50872C22.264 0.177779 21.634 0 20.9755 0H16.0768C15.1322 0 14.2455 0.364674 13.5778 1.02656L10.9739 3.60754C10.3503 4.22566 10.0073 5.04709 10.0073 5.92049V10.7707H8.77109C7.57815 10.7707 6.42201 11.1964 5.5188 11.9686C4.61467 12.7408 4.0205 13.8111 3.84483 14.9808L1.1352 33.0231C1.07909 33.396 1.33846 33.7433 1.71465 33.7989C2.09083 33.8545 2.44126 33.5974 2.49737 33.2246L5.207 15.1823C5.46729 13.4455 7.00054 12.1354 8.77201 12.1354H30.6873L35.5675 44.6352H5.08651C4.00578 44.6352 2.98209 44.1702 2.27663 43.3588C1.57117 42.5474 1.25753 41.4753 1.41665 40.4159L2.066 36.0918C2.1221 35.7189 1.86273 35.3716 1.48655 35.316C1.11036 35.2603 0.759933 35.5174 0.703827 35.8903L0.0544728 40.2154C-0.163512 41.6677 0.266019 43.1382 1.23361 44.2505C2.20029 45.3627 3.60477 46 5.08651 46H41.9121C43.3938 46 44.7983 45.3627 45.765 44.2505C46.7326 43.1382 47.1621 41.6677 46.9441 40.2154ZM33.6756 4.5721C34.0389 4.93222 34.2385 5.41085 34.2385 5.92049V10.7707H31.4129V2.33027L33.6756 4.5721ZM20.5882 5.99068C21.072 5.99068 21.4657 6.38089 21.4657 6.86043V10.7707H19.9554V5.99068H20.5882ZM22.8426 2.33027L25.1052 4.57301C25.4685 4.93313 25.6681 5.41176 25.6681 5.9214V10.7716H22.8426V2.33027ZM27.0459 5.99068H29.1586C29.6424 5.99068 30.037 6.38089 30.037 6.86043V10.7707H27.0459V5.99068ZM30.037 1.40308V4.80185C29.7666 4.68789 29.4704 4.62589 29.1586 4.62589H26.7773C26.6145 4.25028 26.3791 3.90475 26.0792 3.60754L23.9371 1.48422C24.1634 1.40582 24.4025 1.3657 24.6481 1.3657L30.037 1.40308ZM11.3841 5.92049C11.3841 5.41085 11.5847 4.93313 11.947 4.5721L14.5509 1.99112C14.9583 1.58724 15.5001 1.36479 16.0768 1.36479L21.4648 1.37847V4.80185C21.1953 4.6888 20.8982 4.62589 20.5873 4.62589H16.464C16.1531 4.62589 15.856 4.6888 15.5865 4.80185V3.89837C15.5865 3.52093 15.2784 3.21551 14.8976 3.21551C14.5169 3.21551 14.2087 3.52093 14.2087 3.89837V10.7707H11.3823V5.92049H11.3841ZM15.5865 10.7707V6.86043C15.5865 6.38089 15.9802 5.99068 16.4649 5.99068H18.5776V10.7707H15.5865ZM36.2132 12.1354L36.789 16.0046C36.8396 16.3438 37.0897 16.6373 37.5708 16.5799C37.9488 16.5343 38.2073 16.1779 38.1511 15.805L37.6048 12.1354H38.2275C39.999 12.1354 41.5313 13.4455 41.7925 15.1823L45.34 38.8022L41.1211 35.749L38.5917 18.7643C38.5365 18.3914 38.1861 18.1334 37.8099 18.189C37.4337 18.2437 37.1734 18.5911 37.2295 18.964L39.7433 35.8438L36.0752 38.7457L32.0789 12.1364H36.2132V12.1354ZM44.722 43.3588C44.0165 44.1702 42.9919 44.6352 41.9121 44.6352H36.9601L36.3098 40.3056L40.5002 36.9898L45.6114 40.6894C45.6822 41.6576 45.3667 42.6176 44.722 43.3588Z" fill="black"/>
<path d="M20.6322 30.3537L13.2042 37.7165C12.3166 38.5962 12.2909 40.054 13.2042 40.9073C14.6142 42.2247 15.98 41.3468 16.4234 40.9073L23.8514 33.5446C24.739 32.6648 24.739 31.2335 23.8514 30.3537C22.9629 29.4739 21.5189 29.4739 20.6322 30.3537ZM22.8773 32.58L15.4493 39.9428C15.2792 40.1105 14.6501 40.3941 14.1773 39.9428C13.7045 39.4906 14.0071 38.8506 14.1773 38.6819L21.6053 31.3192C21.7755 31.1514 22.4257 30.8533 22.8773 31.3192C23.328 31.785 23.0475 32.4114 22.8773 32.58Z" fill="black"/>
<path d="M11.9698 31.4431C11.9698 32.7177 13.0156 33.7543 14.3015 33.7543C15.5873 33.7543 16.634 32.7177 16.634 31.4431C16.634 30.1686 15.5873 29.1311 14.3015 29.1311C13.0156 29.1311 11.9698 30.1686 11.9698 31.4431ZM15.2571 31.4431C15.2571 31.9655 14.8285 32.3895 14.3015 32.3895C13.7753 32.3895 13.3467 31.9655 13.3467 31.4431C13.3467 30.9207 13.7753 30.4968 14.3015 30.4968C14.8285 30.4968 15.2571 30.9207 15.2571 31.4431Z" fill="black"/>
<path d="M22.7523 37.5067C21.4664 37.5067 20.4207 38.5442 20.4207 39.8187C20.4207 41.0933 21.4664 42.1308 22.7523 42.1308C24.0381 42.1308 25.0848 41.0933 25.0848 39.8187C25.0839 38.5442 24.0381 37.5067 22.7523 37.5067ZM22.7523 40.7651C22.2262 40.7651 21.7975 40.3411 21.7975 39.8187C21.7975 39.2964 22.2262 38.8715 22.7523 38.8715C23.2793 38.8715 23.7079 39.2964 23.7079 39.8187C23.7079 40.3411 23.2784 40.7651 22.7523 40.7651Z" fill="black"/>
</g>
<defs>
<clipPath id="clip0">
<rect width="47" height="46" fill="white"/>
</clipPath>
</defs>
</svg>
