<svg width="51" height="53" viewBox="0 0 51 53" fill="none" xmlns="http://www.w3.org/2000/svg">
<path fill-rule="evenodd" clip-rule="evenodd" d="M29.9934 11.0409C36.4459 10.8128 43.6874 4.42913 48.6214 8.1762C53.6885 12.0243 49.0633 19.6616 49.1975 25.6253C49.2839 29.467 49.9623 33.0793 49.2671 36.8706C48.4434 41.3625 48.5304 46.4929 44.8058 49.5757C40.9723 52.7485 35.1673 53.3696 29.9934 52.8228C25.1668 52.3127 21.5536 49.1171 17.511 46.691C13.2578 44.1385 6.8503 45.1608 4.10135 41.283C0.744553 36.5478 -0.825852 28.0991 0.431543 22.5982C1.73119 16.9126 6.48136 11.7708 12.3999 9.45693C17.9408 7.29069 23.9564 11.2544 29.9934 11.0409Z" fill="#F0F4F8"/>
<path d="M23.7535 4.71778C23.7535 7.13324 21.7183 9.09136 19.2078 9.09136C18.0436 9.09136 16.4765 8.95374 15.6723 8.2612C14.7423 7.46037 14.6621 6.01309 14.6621 4.71778C14.6621 2.30232 15.6871 0 18.1976 0C19.3619 0 20.929 1.25127 21.7332 1.94381C22.6631 2.74464 23.7535 3.42248 23.7535 4.71778Z" fill="#F0F4F8"/>
<path d="M30 7.07572C30 8.13847 29.1046 9 28 9C27.4878 9 26.7983 8.93945 26.4444 8.63475C26.0353 8.2824 26 7.64563 26 7.07572C26 6.01297 26.451 5 27.5556 5C28.0678 5 28.7573 5.55053 29.1111 5.85523C29.5203 6.20758 30 6.50581 30 7.07572Z" fill="#F0F4F8"/>
</svg>
