<svg xmlns="http://www.w3.org/2000/svg" width="39" height="42" viewBox="0 0 39 42">
  <metadata><?xpacket begin="﻿" id="W5M0MpCehiHzreSzNTczkc9d"?>
<x:xmpmeta xmlns:x="adobe:ns:meta/" x:xmptk="Adobe XMP Core 5.6-c142 79.160924, 2017/07/13-01:06:39        ">
   <rdf:RDF xmlns:rdf="http://www.w3.org/1999/02/22-rdf-syntax-ns#">
      <rdf:Description rdf:about=""/>
   </rdf:RDF>
</x:xmpmeta>
                                                                                                    
                                                                                                    
                                                                                                    
                                                                                                    
                                                                                                    
                                                                                                    
                                                                                                    
                                                                                                    
                                                                                                    
                                                                                                    
                                                                                                    
                                                                                                    
                                                                                                    
                                                                                                    
                                                                                                    
                                                                                                    
                                                                                                    
                                                                                                    
                                                                                                    
                                                                                                    
                           
<?xpacket end="w"?></metadata>
<defs>
    <style>
      .cls-1 {
        fill: #fff;
        fill-rule: evenodd;
      }
    </style>
  </defs>
  <path class="cls-1" d="M1033.66,698.267l-18.9-9.207a0.587,0.587,0,0,0-.52,0l-18.9,9.207a0.616,0.616,0,0,0-.344.554v22.357a0.617,0.617,0,0,0,.344.555l18.886,9.205a0.647,0.647,0,0,0,.27.062,0.572,0.572,0,0,0,.26-0.062l18.9-9.205a0.614,0.614,0,0,0,.34-0.555V698.821A0.612,0.612,0,0,0,1033.66,698.267ZM1014.5,690.3l17.49,8.523-5.07,2.47a0.943,0.943,0,0,0-.1-0.065l-17.37-8.465Zm-6.43,3.159,17.46,8.51-3.57,1.743L1004.5,695.2Zm17.87,9.677v6.443l-3.34,1.629v-6.444Zm6.84,17.659-17.67,8.611V708.413l4.21-2.054a0.62,0.62,0,0,0,.29-0.822,0.613,0.613,0,0,0-.82-0.286l-4.29,2.093-1.69-.824a0.6,0.6,0,0,0-.81.287,0.615,0.615,0,0,0,.28.821l1.61,0.785V729.4l-17.671-8.612V699.8l13.461,6.558a0.559,0.559,0,0,0,.26.061,0.617,0.617,0,0,0,.27-1.169l-13.2-6.43,6.059-2.951,18.3,8.922c0.01,0,.01.007,0.01,0.011v7.383a0.615,0.615,0,0,0,.29.521,0.607,0.607,0,0,0,.32.094,0.646,0.646,0,0,0,.27-0.061l4.56-2.222a0.614,0.614,0,0,0,.34-0.555V702.54l5.62-2.739v20.992h0Zm-31.53-2.387-2.774-1.351a0.607,0.607,0,0,0-.814.287,0.617,0.617,0,0,0,.284.821l2.774,1.351a0.56,0.56,0,0,0,.26.062,0.6,0.6,0,0,0,.55-0.348A0.616,0.616,0,0,0,1001.25,718.406Zm2.55-1.676-5.32-2.593a0.607,0.607,0,0,0-.814.287,0.618,0.618,0,0,0,.284.821l5.32,2.593a0.637,0.637,0,0,0,.26.061,0.6,0.6,0,0,0,.55-0.348A0.615,0.615,0,0,0,1003.8,716.73Z" transform="translate(-995 -689)"/>
</svg>
