<svg xmlns="http://www.w3.org/2000/svg" width="42" height="26" viewBox="0 0 42 26">
  <metadata><?xpacket begin="﻿" id="W5M0MpCehiHzreSzNTczkc9d"?>
<x:xmpmeta xmlns:x="adobe:ns:meta/" x:xmptk="Adobe XMP Core 5.6-c142 79.160924, 2017/07/13-01:06:39        ">
   <rdf:RDF xmlns:rdf="http://www.w3.org/1999/02/22-rdf-syntax-ns#">
      <rdf:Description rdf:about=""/>
   </rdf:RDF>
</x:xmpmeta>
                                                                                                    
                                                                                                    
                                                                                                    
                                                                                                    
                                                                                                    
                                                                                                    
                                                                                                    
                                                                                                    
                                                                                                    
                                                                                                    
                                                                                                    
                                                                                                    
                                                                                                    
                                                                                                    
                                                                                                    
                                                                                                    
                                                                                                    
                                                                                                    
                                                                                                    
                                                                                                    
                           
<?xpacket end="w"?></metadata>
<defs>
    <style>
      .cls-1 {
        fill: #fff;
        fill-rule: evenodd;
      }
    </style>
  </defs>
  <path class="cls-1" d="M425.551,705v4.669h-3.39a10.089,10.089,0,0,0-10.161,10V727h2.761a4.747,4.747,0,0,0,9.376,0h15.014a4.747,4.747,0,0,0,9.376,0H454V705H425.551Zm-6.1,24.665a3.335,3.335,0,1,1,3.39-3.335A3.368,3.368,0,0,1,419.449,729.665Zm6.1-4h-1.414a4.747,4.747,0,0,0-9.376,0h-1.405v-6a8.41,8.41,0,0,1,.248-2h11.947v8Zm0-9.331H414.034A8.827,8.827,0,0,1,422.161,711h3.39v5.328Zm18.288,13.333a3.335,3.335,0,1,1,3.39-3.335A3.367,3.367,0,0,1,443.839,729.665Zm8.813-4h-4.125a4.747,4.747,0,0,0-9.376,0H426.907V706.334h25.745v19.329ZM421.483,719H424.2v1.334h-2.712V719Zm7.449-10.665v11.332H450.61V708.335H428.932Zm1.356,10v-8.664h18.966v8.664H430.288Zm8.805-4.669h1.356V715h-1.356v-1.334Zm2.712,0h1.356V715h-1.356v-1.334Zm-5.415,0h1.356V715H436.39v-1.334Z" transform="translate(-412 -705)"/>
</svg>
