<svg width="72" height="64" viewBox="0 0 72 64" fill="none" xmlns="http://www.w3.org/2000/svg">
<path fill-rule="evenodd" clip-rule="evenodd" d="M52.5001 42C49.8615 46.1262 50.4802 51.5191 45.4999 52C40.8537 52.4486 28.5147 53.4225 24.0001 52C19.2398 50.5001 17.8572 43.7016 14 40.5C9.69235 36.9244 9.53051 37.8532 9.32797 32.3944C9.12289 26.8671 11.8204 18.9848 15.6881 15.1429C19.2547 11.5999 24.8823 14.9234 30.0001 14.5C34.4086 14.1353 40.1299 8.55237 44.5001 9.49998C49.8133 10.6521 57.9904 9.31306 61.4999 13.5C64.9672 17.6365 64.5 29.5 61.4999 32.3944C58.5 37 55.066 37.9873 52.5001 42Z" fill="#F0F4F8"/>
<path d="M11.5126 20.6532C10.6999 23.0241 8.01718 24.2523 5.52055 23.3965C4.36276 22.9996 2.85065 22.3304 2.28389 21.3765C1.62851 20.2734 2.03571 18.8255 2.47153 17.5541C3.28421 15.1832 5.07819 13.2728 7.57481 14.1286C8.7326 14.5255 9.87002 16.2878 10.4368 17.2417C11.0922 18.3448 11.9484 19.3818 11.5126 20.6532Z" fill="#F0F4F8"/>
<path d="M14.046 47.949C12.7027 48.3721 11.2525 47.5685 10.8069 46.154C10.6002 45.498 10.3986 44.5909 10.641 44.0165C10.9213 43.3522 11.7119 43.0535 12.4323 42.8265C13.7755 42.4034 15.2378 42.5775 15.6835 43.9921C15.8901 44.648 15.4724 45.7502 15.23 46.3247C14.9497 46.9889 14.7663 47.722 14.046 47.949Z" fill="#F0F4F8"/>
</svg>
