<svg xmlns="http://www.w3.org/2000/svg" width="36" height="44" viewBox="0 0 36 44">
  <metadata><?xpacket begin="﻿" id="W5M0MpCehiHzreSzNTczkc9d"?>
<x:xmpmeta xmlns:x="adobe:ns:meta/" x:xmptk="Adobe XMP Core 5.6-c142 79.160924, 2017/07/13-01:06:39        ">
   <rdf:RDF xmlns:rdf="http://www.w3.org/1999/02/22-rdf-syntax-ns#">
      <rdf:Description rdf:about=""/>
   </rdf:RDF>
</x:xmpmeta>
                                                                                                    
                                                                                                    
                                                                                                    
                                                                                                    
                                                                                                    
                                                                                                    
                                                                                                    
                                                                                                    
                                                                                                    
                                                                                                    
                                                                                                    
                                                                                                    
                                                                                                    
                                                                                                    
                                                                                                    
                                                                                                    
                                                                                                    
                                                                                                    
                                                                                                    
                                                                                                    
                           
<?xpacket end="w"?></metadata>
<defs>
    <style>
      .cls-1 {
        fill: #f8f8f8;
        fill-rule: evenodd;
      }
    </style>
  </defs>
  <path class="cls-1" d="M1034.98,2335.38a0.658,0.658,0,0,0-.32-0.49l-8.4-8.54a0.645,0.645,0,0,0-.47-0.34,0.608,0.608,0,0,0-.19-0.01h-20.12a2.142,2.142,0,0,0-2.16,2.2v2.2h-2.16a2.139,2.139,0,0,0-2.16,2.2v35.2a2.139,2.139,0,0,0,2.16,2.2h27.36a2.142,2.142,0,0,0,2.16-2.2v-2.2h2.16a2.142,2.142,0,0,0,2.16-2.2v-27.83A0.615,0.615,0,0,0,1034.98,2335.38Zm-2.43-.58h-5.47a0.685,0.685,0,0,1-.72-0.73v-5.58Zm-3.31,33a0.685,0.685,0,0,1-.72.73h-27.36a0.685,0.685,0,0,1-.72-0.73v-35.2a0.725,0.725,0,0,1,.72-0.73h2.16v31.53a2.142,2.142,0,0,0,2.16,2.2h23.76v2.2h0Zm4.32-4.4a0.685,0.685,0,0,1-.72.73h-27.36a0.685,0.685,0,0,1-.72-0.73v-35.2a0.725,0.725,0,0,1,.72-0.73h19.44v6.6a2.142,2.142,0,0,0,2.16,2.2h6.48v27.13Zm-24.48-27.13h12.96a0.693,0.693,0,0,0,.72-0.74,0.685,0.685,0,0,0-.72-0.73h-12.96a0.685,0.685,0,0,0-.72.73A0.693,0.693,0,0,0,1009.08,2336.27Zm-0.72,3.66a0.693,0.693,0,0,0,.72.74h21.6a0.693,0.693,0,0,0,.72-0.74,0.685,0.685,0,0,0-.72-0.73h-21.6A0.685,0.685,0,0,0,1008.36,2339.93Zm22.32,3.67h-21.6a0.685,0.685,0,0,0-.72.73,0.693,0.693,0,0,0,.72.74h21.6a0.693,0.693,0,0,0,.72-0.74A0.685,0.685,0,0,0,1030.68,2343.6Zm0,4.4h-21.6a0.685,0.685,0,0,0-.72.73,0.693,0.693,0,0,0,.72.74h21.6a0.693,0.693,0,0,0,.72-0.74A0.685,0.685,0,0,0,1030.68,2348Zm0,4.4h-21.6a0.685,0.685,0,0,0-.72.73,0.693,0.693,0,0,0,.72.74h21.6a0.693,0.693,0,0,0,.72-0.74A0.685,0.685,0,0,0,1030.68,2352.4Zm0,4.4h-21.6a0.685,0.685,0,0,0-.72.73,0.693,0.693,0,0,0,.72.74h21.6a0.693,0.693,0,0,0,.72-0.74A0.685,0.685,0,0,0,1030.68,2356.8Z" transform="translate(-999 -2326)"/>
</svg>
