<svg width="17" height="15" viewBox="0 0 17 15" fill="none" xmlns="http://www.w3.org/2000/svg">
<path d="M13.4517 1.73684C14.4663 1.73684 15.2922 2.57684 15.2922 3.60868V11.3913C15.2922 12.4232 14.4663 13.2632 13.4517 13.2632H3.54826C2.5337 13.2632 1.70776 12.4232 1.70776 11.3913V3.60868C1.70776 2.57684 2.5337 1.73684 3.54826 1.73684H13.4517ZM13.4517 0H3.54826C1.58822 0 0 1.61526 0 3.60868V11.3913C0 13.3847 1.58822 15 3.54826 15H13.4517C15.411 15 17 13.3847 17 11.3913V3.60868C17 1.61526 15.4118 0 13.4517 0Z" fill="white"/>
<path d="M8.53889 8.36853C8.34172 8.36853 8.14299 8.29905 7.98153 8.15774L1.22811 2.23668C0.871031 1.92326 0.830666 1.37537 1.13884 1.01221C1.44701 0.649052 1.98573 0.608 2.34281 0.921421L9.09624 6.84247C9.45331 7.15589 9.49368 7.70379 9.18551 8.06695C9.01706 8.26668 8.77797 8.36853 8.53889 8.36853Z" fill="white"/>
<path d="M8.53889 8.36829C8.30058 8.36829 8.06382 8.26724 7.89537 8.07066C7.58565 7.70908 7.62213 7.1604 7.97765 6.8454L14.6535 0.924343C15.009 0.609343 15.5485 0.646449 15.8582 1.00803C16.1679 1.36961 16.1314 1.91829 15.7759 2.23329L9.10012 8.15434C8.93866 8.29803 8.73839 8.36829 8.53889 8.36829Z" fill="white"/>
</svg>
