<svg xmlns="http://www.w3.org/2000/svg" width="17" height="17" viewBox="0 0 17 17">
  <metadata><?xpacket begin="﻿" id="W5M0MpCehiHzreSzNTczkc9d"?>
<x:xmpmeta xmlns:x="adobe:ns:meta/" x:xmptk="Adobe XMP Core 5.6-c142 79.160924, 2017/07/13-01:06:39        ">
   <rdf:RDF xmlns:rdf="http://www.w3.org/1999/02/22-rdf-syntax-ns#">
      <rdf:Description rdf:about=""/>
   </rdf:RDF>
</x:xmpmeta>
                                                                                                    
                                                                                                    
                                                                                                    
                                                                                                    
                                                                                                    
                                                                                                    
                                                                                                    
                                                                                                    
                                                                                                    
                                                                                                    
                                                                                                    
                                                                                                    
                                                                                                    
                                                                                                    
                                                                                                    
                                                                                                    
                                                                                                    
                                                                                                    
                                                                                                              
                           
<?xpacket end="w"?></metadata>
  <path fill-rule="evenodd"  fill="#000" id="Shape_1_copy" data-name="Shape 1 copy" class="cls-1" d="M958.406,3956h-7.813a4.6,4.6,0,0,0-4.593,4.59v7.82a4.6,4.6,0,0,0,4.593,4.59h7.813a4.6,4.6,0,0,0,4.594-4.59v-7.82A4.6,4.6,0,0,0,958.406,3956Zm3.22,12.41a3.227,3.227,0,0,1-3.22,3.22h-7.813a3.228,3.228,0,0,1-3.22-3.22v-7.82a3.228,3.228,0,0,1,3.22-3.22h7.813a3.227,3.227,0,0,1,3.22,3.22v7.82Zm-3.322-4.5a3.8,3.8,0,0,0-3.211-3.21,3.5,3.5,0,0,0-1.119,0,3.811,3.811,0,0,0,.551,7.58,5.44,5.44,0,0,0,.568-0.04A3.812,3.812,0,0,0,958.3,3963.91Zm-3.413,2.97a2.441,2.441,0,0,1-1.81-.46,2.392,2.392,0,0,1-.96-1.6,2.44,2.44,0,0,1,2.055-2.77c0.119-.01.238-0.02,0.358-0.02s0.239,0.01.357,0.02A2.442,2.442,0,0,1,954.891,3966.88Zm4.392-7.16a0.689,0.689,0,0,0-.971,0,0.666,0.666,0,0,0-.2.48,0.707,0.707,0,0,0,.2.49,0.689,0.689,0,0,0,.971,0,0.706,0.706,0,0,0,.2-0.49A0.666,0.666,0,0,0,959.283,3959.72Z" transform="translate(-946 -3956)"/>
</svg>
