<svg xmlns="http://www.w3.org/2000/svg" width="20" height="20" viewBox="0 0 20 20">
  <metadata><?xpacket begin="﻿" id="W5M0MpCehiHzreSzNTczkc9d"?>
<x:xmpmeta xmlns:x="adobe:ns:meta/" x:xmptk="Adobe XMP Core 5.6-c142 79.160924, 2017/07/13-01:06:39        ">
   <rdf:RDF xmlns:rdf="http://www.w3.org/1999/02/22-rdf-syntax-ns#">
      <rdf:Description rdf:about=""/>
   </rdf:RDF>
</x:xmpmeta>
                                                                                                    
                                                                                                    
                                                                                                    
                                                                                                    
                                                                                                    
                                                                                                    
                                                                                                    
                                                                                                    
                                                                                                    
                                                                                                    
                                                                                                    
                                                                                                    
                                                                                                    
                                                                                                    
                                                                                                    
                                                                                                    
                                                                                                    
                                                                                                    
                                                                                                    
                                                                                                    
                           
<?xpacket end="w"?></metadata>
<defs>
    <style>
      .cls-1 {
        fill: #fff;
        fill-rule: evenodd;
      }
    </style>
  </defs>
  <path class="cls-1" d="M804.993,3816.99c0.1,0,.194.01,0.286,0.01a3.433,3.433,0,0,0,2.643-1.14,0.041,0.041,0,0,0,.023-0.02,10.977,10.977,0,0,1,.774-0.79c0.195-.18.39-0.38,0.579-0.58a2.163,2.163,0,0,0-.012-3.2l-2.448-2.44a2.186,2.186,0,0,0-1.582-.72,2.242,2.242,0,0,0-1.594.72l-1.352,1.34c-0.092-.05-0.19-0.09-0.281-0.14-0.155-.08-0.3-0.15-0.43-0.23a15.187,15.187,0,0,1-3.64-3.31,8.93,8.93,0,0,1-1.164-1.8c0.344-.32.671-0.65,0.986-0.97,0.126-.12.252-0.25,0.378-0.37a2.122,2.122,0,0,0,0-3.21l-1.215-1.21-0.413-.42c-0.269-.28-0.556-0.56-0.831-0.82a2.217,2.217,0,0,0-1.571-.69,2.277,2.277,0,0,0-1.594.69l-1.524,1.52a3.339,3.339,0,0,0-.992,2.12,7.868,7.868,0,0,0,.579,3.34,19.13,19.13,0,0,0,3.422,5.69,21.128,21.128,0,0,0,7.017,5.47A11.115,11.115,0,0,0,804.993,3816.99Zm-9.9-7.53a17.779,17.779,0,0,1-3.187-5.28,6.194,6.194,0,0,1-.493-2.73,1.941,1.941,0,0,1,.6-1.27l1.5-1.5a0.934,0.934,0,0,1,.613-0.29,0.9,0.9,0,0,1,.6.3c0.27,0.25.528,0.51,0.8,0.79,0.137,0.15.281,0.29,0.424,0.43l1.215,1.21a0.75,0.75,0,0,1,0,1.23c-0.131.13-.258,0.26-0.384,0.39-0.372.38-.728,0.74-1.112,1.08-0.011.01-.017,0.02-0.028,0.03a0.994,0.994,0,0,0-.253,1.11,0.153,0.153,0,0,1,.018.04,9.774,9.774,0,0,0,1.461,2.37,16.5,16.5,0,0,0,3.979,3.61,4.954,4.954,0,0,0,.556.3c0.155,0.08.3,0.15,0.43,0.23a0.221,0.221,0,0,0,.063.04,1,1,0,0,0,1.232-.22l1.525-1.52a0.946,0.946,0,0,1,.6-0.3,0.855,0.855,0,0,1,.579.3l2.459,2.45a0.782,0.782,0,0,1-.017,1.25c-0.166.18-.349,0.35-0.539,0.53-0.286.28-.59,0.57-0.865,0.89a2.043,2.043,0,0,1-1.6.67h-0.2a9.84,9.84,0,0,1-3.44-1.03A19.734,19.734,0,0,1,795.092,3809.46Z" transform="translate(-790 -3797)"/>
</svg>
