<svg width="15" height="18" viewBox="0 0 15 18" fill="none" xmlns="http://www.w3.org/2000/svg">
<path d="M7.4991 18L6.81108 17.3364C6.65569 17.186 2.98293 13.641 1.77126 12.2221C0.628742 10.8842 0 9.18237 0 7.42809C0 3.33241 3.36467 0 7.5 0C11.6353 0 15 3.33241 15 7.42809C15 9.16813 14.3802 10.8601 13.2539 12.1927C12.0404 13.6285 8.34521 17.186 8.18802 17.3373L7.4991 18ZM7.5 1.9571C4.45419 1.9571 1.97605 4.41149 1.97605 7.42809C1.97605 8.71978 2.43862 9.97321 3.27934 10.958C4.12455 11.9481 6.36108 14.1525 7.5 15.2654C8.64431 14.1507 10.8925 11.9365 11.7377 10.9366C12.5677 9.95631 13.024 8.70999 13.024 7.42809C13.024 4.41149 10.5458 1.9571 7.5 1.9571Z" fill="white"/>
<path d="M7.50012 10.5861C5.69204 10.5861 4.22168 9.1298 4.22168 7.33905C4.22168 5.5483 5.69204 4.09204 7.50012 4.09204C9.3082 4.09204 10.7786 5.5483 10.7786 7.33905C10.7786 9.1298 9.3082 10.5861 7.50012 10.5861ZM7.50012 6.04914C6.78156 6.04914 6.19773 6.62738 6.19773 7.33905C6.19773 8.05072 6.78156 8.62896 7.50012 8.62896C8.21868 8.62896 8.80252 8.05072 8.80252 7.33905C8.80252 6.62738 8.21868 6.04914 7.50012 6.04914Z" fill="white"/>
</svg>
