<svg xmlns="http://www.w3.org/2000/svg" width="16" height="20" viewBox="0 0 16 20">
  <metadata><?xpacket begin="﻿" id="W5M0MpCehiHzreSzNTczkc9d"?>
<x:xmpmeta xmlns:x="adobe:ns:meta/" x:xmptk="Adobe XMP Core 5.6-c142 79.160924, 2017/07/13-01:06:39        ">
   <rdf:RDF xmlns:rdf="http://www.w3.org/1999/02/22-rdf-syntax-ns#">
      <rdf:Description rdf:about=""/>
   </rdf:RDF>
</x:xmpmeta>
                                                                                                    
                                                                                                    
                                                                                                    
                                                                                                    
                                                                                                    
                                                                                                    
                                                                                                    
                                                                                                    
                                                                                                    
                                                                                                    
                                                                                                    
                                                                                                    
                                                                                                    
                                                                                                    
                                                                                                    
                                                                                                    
                                                                                                    
                                                                                                    
                                                                                                    
                                                                                                    
                           
<?xpacket end="w"?></metadata>
<defs>
    <style>
      .cls-1 {
        fill: #fff;
        fill-rule: evenodd;
      }
    </style>
  </defs>
  <path id="Forma_1" data-name="Forma 1" class="cls-1" d="M800.009,3905a8.007,8.007,0,0,0-7.853,9.58c0,0.03.017,0.07,0.017,0.12,0.882,3.94,7.092,9.87,7.351,10.11a0.658,0.658,0,0,0,.485.19,0.751,0.751,0,0,0,.484-0.19c0.259-.26,6.434-6.17,7.316-10.03,0-.03.018-0.06,0.018-0.1a7.882,7.882,0,0,0,.173-1.69A7.984,7.984,0,0,0,800.009,3905Zm6.434,9.42v0.05c-0.657,2.86-4.964,7.38-6.434,8.84-1.471-1.46-5.795-5.98-6.452-8.9a0.147,0.147,0,0,0-.018-0.09,7.171,7.171,0,0,1-.138-1.34,6.6,6.6,0,0,1,13.2,0A6.512,6.512,0,0,1,806.443,3914.42Zm-6.434-4.92a2.67,2.67,0,1,0,2.681,2.67A2.675,2.675,0,0,0,800.009,3909.5Zm0,3.94a1.275,1.275,0,1,1,1.28-1.27A1.275,1.275,0,0,1,800.009,3913.44Z" transform="translate(-792 -3905)"/>
</svg>
