<svg xmlns="http://www.w3.org/2000/svg" width="30.344" height="39.718" viewBox="0 0 30.344 39.718">
  <metadata><?xpacket begin="﻿" id="W5M0MpCehiHzreSzNTczkc9d"?>
<x:xmpmeta xmlns:x="adobe:ns:meta/" x:xmptk="Adobe XMP Core 5.6-c142 79.160924, 2017/07/13-01:06:39        ">
   <rdf:RDF xmlns:rdf="http://www.w3.org/1999/02/22-rdf-syntax-ns#">
      <rdf:Description rdf:about=""/>
   </rdf:RDF>
</x:xmpmeta>
                                                                                                    
                                                                                                    
                                                                                                    
                                                                                                    
                                                                                                    
                                                                                                    
                                                                                                    
                                                                                                    
                                                                                                    
                                                                                                    
                                                                                                    
                                                                                                    
                                                                                                    
                                                                                                    
                                                                                                    
                                                                                                    
                                                                                                    
                                                                                                    
                                                                                                    
                                                                                                    
                           
<?xpacket end="w"?></metadata>
<defs>
    <style>
      .cls-1 {
        fill: #fff;
        fill-rule: evenodd;
      }
    </style>
  </defs>
  <path class="cls-1" d="M735.013,695.734c-9.625,0-13.943-4.982-14-5.057a0.666,0.666,0,0,0-.506-0.237,0.746,0.746,0,0,0-.507.236c-0.043.051-4.357,5.058-14.006,5.058a0.66,0.66,0,0,0-.66.662v12.63a22.414,22.414,0,0,0,8.276,17.551,20.129,20.129,0,0,0,6.709,3.542,0.661,0.661,0,0,0,.187.027,0.668,0.668,0,0,0,.188-0.027,20.125,20.125,0,0,0,6.708-3.542,22.414,22.414,0,0,0,8.276-17.551V696.4A0.661,0.661,0,0,0,735.013,695.734Zm-0.659,13.292a21.08,21.08,0,0,1-7.772,16.511,18.857,18.857,0,0,1-6.081,3.256,17.941,17.941,0,0,1-3.475-1.511,0.658,0.658,0,0,0-.483-1.107,0.653,0.653,0,0,0-.615.444q-0.766-.5-1.507-1.082c-0.028-.022-0.054-0.046-0.081-0.069a0.645,0.645,0,0,0,.225.046,0.662,0.662,0,1,0-.66-0.662,0.642,0.642,0,0,0,.109.342,19.661,19.661,0,0,1-3.388-3.656,0.66,0.66,0,1,0-.622-0.922c-0.289-.452-0.563-0.915-0.817-1.391a0.636,0.636,0,0,0-.491-0.977,21.627,21.627,0,0,1-1.594-4.831,0.659,0.659,0,0,0-.195-1.086,21.855,21.855,0,0,1-.241-2.7,0.66,0.66,0,0,0-.017-1.32V705.66a0.662,0.662,0,0,0,0-1.323V701.69a0.662,0.662,0,0,0,0-1.324v-2.647a0.661,0.661,0,0,0,.66-0.662,0.234,0.234,0,0,0-.009-0.038,26.57,26.57,0,0,0,2.726-.26,0.642,0.642,0,0,0-.079.3,0.66,0.66,0,1,0,1.119-.473,21.718,21.718,0,0,0,4.819-1.507,0.659,0.659,0,1,0,1.318,0,0.652,0.652,0,0,0-.256-0.511c0.533-.281,1.009-0.565,1.433-0.842a0.619,0.619,0,0,0,.142.03,0.654,0.654,0,0,0,.643-0.576,13.8,13.8,0,0,0,1.336-1.117c1.409,1.356,5.777,4.813,13.853,4.994v11.976ZM720.5,694.41a0.662,0.662,0,1,1-.659.662A0.661,0.661,0,0,1,720.5,694.41Zm-11.873,3.971a0.662,0.662,0,1,1-.66.661A0.66,0.66,0,0,1,708.628,698.381Zm3.957,0a0.662,0.662,0,1,1-.659.661A0.66,0.66,0,0,1,712.585,698.381Zm1.98-1.985a0.662,0.662,0,1,1-.66.661A0.66,0.66,0,0,1,714.565,696.4Zm1.978,1.985a0.662,0.662,0,1,1-.659.661A0.66,0.66,0,0,1,716.543,698.381Zm1.979-1.985a0.662,0.662,0,1,1-.659.661A0.66,0.66,0,0,1,718.522,696.4Zm1.979,1.985a0.662,0.662,0,1,1-.659.661A0.66,0.66,0,0,1,720.5,698.381Zm-11.873,3.97a0.662,0.662,0,1,1-.66.662A0.661,0.661,0,0,1,708.628,702.351Zm1.979-1.985a0.662,0.662,0,1,1-.66.662A0.66,0.66,0,0,1,710.607,700.366Zm1.978,1.985a0.662,0.662,0,1,1-.659.662A0.661,0.661,0,0,1,712.585,702.351Zm1.98-1.985a0.662,0.662,0,1,1-.66.662A0.66,0.66,0,0,1,714.565,700.366Zm1.978,1.985a0.662,0.662,0,1,1-.659.662A0.661,0.661,0,0,1,716.543,702.351Zm1.979-1.985a0.662,0.662,0,1,1-.659.662A0.66,0.66,0,0,1,718.522,700.366Zm1.979,1.985a0.662,0.662,0,1,1-.659.662A0.661,0.661,0,0,1,720.5,702.351Zm-11.873,3.971a0.662,0.662,0,1,1-.66.662A0.661,0.661,0,0,1,708.628,706.322Zm1.979-1.985a0.662,0.662,0,1,1-.66.661A0.66,0.66,0,0,1,710.607,704.337Zm1.978,1.985a0.662,0.662,0,1,1-.659.662A0.661,0.661,0,0,1,712.585,706.322Zm1.98-1.985a0.662,0.662,0,1,1-.66.661A0.66,0.66,0,0,1,714.565,704.337Zm1.978,1.985a0.662,0.662,0,1,1-.659.662A0.661,0.661,0,0,1,716.543,706.322Zm1.979-1.985a0.662,0.662,0,1,1-.659.661A0.66,0.66,0,0,1,718.522,704.337Zm1.979,1.985a0.662,0.662,0,1,1-.659.662A0.661,0.661,0,0,1,720.5,706.322Zm-11.873,3.971a0.662,0.662,0,1,1-.66.662A0.66,0.66,0,0,1,708.628,710.293Zm1.979-1.985a0.662,0.662,0,1,1-.66.661A0.66,0.66,0,0,1,710.607,708.308Zm1.978,1.985a0.662,0.662,0,1,1-.659.662A0.66,0.66,0,0,1,712.585,710.293Zm1.98-1.985a0.662,0.662,0,1,1-.66.661A0.66,0.66,0,0,1,714.565,708.308Zm1.978,1.985a0.662,0.662,0,1,1-.659.662A0.66,0.66,0,0,1,716.543,710.293Zm1.979-1.985a0.662,0.662,0,1,1-.659.661A0.66,0.66,0,0,1,718.522,708.308Zm1.979,1.985a0.662,0.662,0,1,1-.659.662A0.66,0.66,0,0,1,720.5,710.293Zm-11.873,3.97a0.662,0.662,0,1,1-.66.663A0.661,0.661,0,0,1,708.628,714.263Zm1.979-1.985a0.662,0.662,0,1,1-.66.662A0.661,0.661,0,0,1,710.607,712.278Zm1.978,1.985a0.662,0.662,0,1,1-.659.663A0.661,0.661,0,0,1,712.585,714.263Zm1.98-1.985a0.662,0.662,0,1,1-.66.662A0.661,0.661,0,0,1,714.565,712.278Zm1.978,1.985a0.662,0.662,0,1,1-.659.663A0.661,0.661,0,0,1,716.543,714.263Zm1.979-1.985a0.662,0.662,0,1,1-.659.662A0.661,0.661,0,0,1,718.522,712.278Zm1.979,1.985a0.662,0.662,0,1,1-.659.663A0.661,0.661,0,0,1,720.5,714.263Zm-9.894,1.986a0.662,0.662,0,1,1-.66.661A0.66,0.66,0,0,1,710.607,716.249Zm1.978,1.985a0.662,0.662,0,1,1-.659.662A0.66,0.66,0,0,1,712.585,718.234Zm1.98-1.985a0.662,0.662,0,1,1-.66.661A0.66,0.66,0,0,1,714.565,716.249Zm1.978,1.985a0.662,0.662,0,1,1-.659.662A0.66,0.66,0,0,1,716.543,718.234Zm1.979-1.985a0.662,0.662,0,1,1-.659.661A0.66,0.66,0,0,1,718.522,716.249Zm1.979,1.985a0.662,0.662,0,1,1-.659.662A0.66,0.66,0,0,1,720.5,718.234Zm-7.916,3.971a0.662,0.662,0,1,1-.659.662A0.66,0.66,0,0,1,712.585,722.205Zm1.98-1.985a0.662,0.662,0,1,1-.66.661A0.66,0.66,0,0,1,714.565,720.22Zm1.978,1.985a0.662,0.662,0,1,1-.659.662A0.66,0.66,0,0,1,716.543,722.205Zm1.979-1.985a0.662,0.662,0,1,1-.659.661A0.66,0.66,0,0,1,718.522,720.22Zm1.979,1.985a0.662,0.662,0,1,1-.659.662A0.66,0.66,0,0,1,720.5,722.205Zm-1.979,1.985a0.662,0.662,0,1,1-.659.662A0.66,0.66,0,0,1,718.522,724.19Zm1.979,1.985a0.662,0.662,0,1,1-.659.662A0.661,0.661,0,0,1,720.5,726.175Z" transform="translate(-705.344 -690.438)"/>
</svg>
