<svg width="26" height="27" viewBox="0 0 26 27" fill="none" xmlns="http://www.w3.org/2000/svg">
<path d="M12.8106 18.4565C17.7295 18.4565 21.731 14.4655 21.731 9.55938C21.731 4.65324 17.7295 0.662231 12.8106 0.662231C7.89157 0.662231 3.89012 4.65324 3.89012 9.55938C3.89012 14.4655 7.89157 18.4565 12.8106 18.4565ZM12.8106 3.60565C16.1024 3.60565 18.7799 6.27613 18.7799 9.55938C18.7799 12.8426 16.1024 15.5131 12.8106 15.5131C9.51871 15.5131 6.84124 12.8426 6.84124 9.55938C6.84124 6.27613 9.51871 3.60565 12.8106 3.60565Z" fill="#FF6600"/>
<path d="M0 26.2833H2.95112C2.95112 19.4613 9.75212 18.7241 12.6764 18.7241C15.649 18.7241 18.1481 19.3824 19.904 20.6266C21.739 21.9271 22.67 23.8296 22.67 26.2833H25.6211C25.6211 22.8703 24.2354 20.0848 21.6129 18.2264C19.3553 16.6263 16.2647 15.7807 12.6764 15.7807C4.85728 15.7807 0 19.8051 0 26.2833Z" fill="#FF6600"/>
</svg>
