<svg width="140" height="27" viewBox="0 0 140 27" fill="none" xmlns="http://www.w3.org/2000/svg">
<path d="M14.8409 0C6.64654 0 -0.00012207 6.54281 -0.00012207 14.6092V25.0442H4.24016V14.6092C4.24016 8.84897 8.98931 4.17403 14.8409 4.17403C20.6924 4.17403 25.4416 8.84897 25.4416 14.6092V25.0442H29.682V14.6092C29.682 6.54281 23.0353 0 14.8409 0Z" fill="black"/>
<path d="M21.2014 25.0443V21.7051H8.48047V25.0443H21.2014Z" fill="black"/>
<path d="M21.2014 18.3659V15.0266H8.48047V18.3659H21.2014Z" fill="black"/>
<path d="M9.21179 11.6874H20.4591C19.3991 9.70471 17.2789 8.34814 14.8407 8.34814C12.4026 8.34814 10.2824 9.70471 9.21179 11.6874Z" fill="black"/>
<path d="M47.6714 21.8824C50.7987 21.9868 53.8305 20.5886 55.7173 18.1675L55.7385 18.1362L52.7916 15.8301L52.7703 15.8614C51.5724 17.4475 49.8975 18.251 47.9152 18.1779C46.2509 18.1258 44.7455 17.4266 43.6749 16.2266C42.6255 15.0474 42.0848 13.4822 42.1377 11.8126C42.2013 10.1534 42.8587 8.6403 43.993 7.54461C45.1484 6.43849 46.696 5.85412 48.371 5.91675C50.3215 5.97936 51.9223 6.88721 53.0248 8.53596L53.0459 8.56727L56.152 6.49067L56.1307 6.45936C54.4029 3.86102 51.5619 2.30619 48.3604 2.20185C48.2438 2.20185 48.1272 2.19141 48.0107 2.19141C45.4876 2.19141 43.1131 3.12013 41.2791 4.84193C39.3604 6.62633 38.2579 9.05771 38.1625 11.6769C38.0671 14.3274 39 16.8423 40.781 18.7624C42.5724 20.6824 45.0211 21.7989 47.6714 21.8824Z" fill="black"/>
<path fill-rule="evenodd" clip-rule="evenodd" d="M104.089 8.96373C102.636 7.6489 100.685 6.91846 98.6078 6.91846C96.5299 6.91846 94.5794 7.6489 93.1273 8.96373C91.6006 10.3412 90.7632 12.282 90.7632 14.4213C90.7632 16.55 91.6006 18.4701 93.1273 19.8476C94.5794 21.1623 96.5299 21.8928 98.6078 21.8928C100.685 21.8928 102.636 21.1728 104.089 19.8476C105.615 18.4701 106.452 16.5396 106.452 14.4213C106.452 12.282 105.615 10.3412 104.089 8.96373ZM98.6078 18.3762C96.3711 18.3762 94.6855 16.6753 94.6855 14.4213C94.6855 12.1465 96.3711 10.4247 98.6078 10.4247C100.844 10.4247 102.53 12.136 102.53 14.4213C102.53 16.6753 100.844 18.3762 98.6078 18.3762Z" fill="black"/>
<path fill-rule="evenodd" clip-rule="evenodd" d="M114.328 21.4023C115.113 21.7154 116.025 21.8928 116.894 21.8928C118.781 21.8928 120.551 21.1831 121.866 19.8894C123.287 18.5015 124.04 16.6127 124.04 14.4213C124.04 10.7795 121.538 6.91846 116.894 6.91846C115.431 6.91846 113.332 7.46108 112.24 8.98459L111.944 9.40201V7.29411H108.085V26.5991H111.944V19.4405L112.24 19.8579C112.717 20.5154 113.438 21.0476 114.328 21.4023ZM116.1 10.456C118.304 10.456 120.085 12.2299 120.085 14.4109C120.085 16.6127 118.335 18.3345 116.1 18.3345C114.159 18.3345 112.082 16.8318 112.082 14.4109C112.082 12.1986 113.852 10.456 116.1 10.456Z" fill="black"/>
<path fill-rule="evenodd" clip-rule="evenodd" d="M82.0072 10.5394C82.675 10.5394 83.3217 10.7376 83.8729 11.1133C84.0533 11.2281 84.2228 11.3742 84.3712 11.5412C84.9436 12.1359 85.2616 12.9186 85.2616 13.7429V21.6006H89.1203V13.722C89.1415 11.3324 88.5479 9.52717 87.3712 8.35844C86.4064 7.3984 85.0603 6.90796 83.3748 6.90796C81.9435 6.90796 80.046 7.37753 79.0601 9.29761L78.7422 9.85068V7.29406H74.8835V21.611H78.7422V14.2647C78.7422 14.2229 78.7422 14.1917 78.7422 14.1499V14.1186V13.7534C78.7529 11.9794 80.2051 10.5394 82.0072 10.5394Z" fill="black"/>
<path d="M139.93 7.29419H136.071V14.9119H136.061C135.965 16.5918 134.534 17.938 132.806 17.938C132.413 17.938 132.022 17.865 131.651 17.7293C130.961 17.5206 130.389 17.051 130.018 16.404C129.711 15.9031 129.541 15.3292 129.541 14.7345V14.4527C129.541 14.4214 129.541 14.3797 129.541 14.3483V7.29419H125.682V14.7762C125.661 17.1658 126.255 18.9711 127.431 20.1398C128.396 21.0999 129.743 21.5903 131.428 21.5903C132.838 21.5903 134.682 21.3816 135.732 19.5763L135.923 19.2424C135.838 21.6634 134.28 23.4165 131.714 23.3852C130.919 23.406 130.389 23.3642 129.467 23.1452C128.788 22.9886 128.121 22.6547 127.453 22.3521L126.096 25.5973C127.919 26.6304 130.124 27.0478 132.36 26.9957C136.527 26.9957 139.771 23.8444 139.898 18.9606V18.9398L139.93 7.29419Z" fill="black"/>
<path d="M68.5336 7.29402V8.89058V9.2871L68.3534 8.9845C67.8869 8.32708 67.0601 7.7949 66.1803 7.42965C65.3959 7.1166 64.4843 6.93921 63.5936 6.93921C61.7068 6.93921 59.9365 7.6488 58.622 8.94274C57.2014 10.3306 56.4489 12.2194 56.4489 14.4107C56.4489 16.6021 57.2014 18.4909 58.622 19.8787C59.9471 21.1728 61.7068 21.8823 63.5936 21.8823C65.1732 21.8823 67.3252 21.2562 68.3534 19.8474L68.5336 19.5552V19.9413V21.6005H72.3923V7.29402H68.5336ZM64.3889 18.3761C62.1732 18.3761 60.3711 16.6021 60.3711 14.4212C60.3711 12.2194 62.1414 10.4976 64.3889 10.4976C66.3287 10.4976 68.4064 12.0002 68.4064 14.4212C68.4064 16.6438 66.6468 18.3761 64.3889 18.3761Z" fill="black"/>
</svg>
