<svg width="113" height="54" viewBox="0 0 113 54" fill="none" xmlns="http://www.w3.org/2000/svg">
<path d="M107.643 19.4617C105.012 19.4617 103.744 20.357 102.006 22.5705H101.911V19.9331H96.9313V53.2835H102.193V43.1081C104.26 44.8045 105.341 45.7463 107.643 45.7463C110.931 45.7463 113 43.2972 113 38.6805V26.527C113 21.9109 110.931 19.4617 107.643 19.4617ZM107.737 37.3148C107.737 40.659 106.61 41.4125 105.2 41.4125C104.167 41.4125 103.227 40.8481 102.193 40.094V25.1143C103.227 24.3601 104.167 23.7956 105.2 23.7956C106.61 23.7956 107.737 24.5493 107.737 27.8933V37.3148Z" fill="black"/>
<path d="M6.74887 11.2651H0.923828V45.2743H15.2585V40.1884H6.74887V11.2651Z" fill="black"/>
<path d="M25.499 19.4617C19.4851 19.4617 17.3238 23.3242 17.3238 28.8833V36.3255C17.3238 41.8834 19.4851 45.746 25.499 45.746C31.372 45.746 33.5797 42.0718 33.6735 36.7029H28.412V37.2677C28.412 40.1885 27.3788 41.4125 25.499 41.4125C23.6196 41.4125 22.5859 40.1885 22.5859 37.2677V33.593H33.6735V28.8833C33.6735 23.3242 31.5127 19.4617 25.499 19.4617ZM28.412 29.2601H22.5859V27.9403C22.5859 25.0197 23.6196 23.7956 25.499 23.7956C27.3788 23.7956 28.412 25.0197 28.412 27.9403V29.2601Z" fill="black"/>
<path d="M90.7947 0.716553L84.7146 11.2742H87.8648V36.9376C87.8648 39.4342 86.8785 40.6582 84.7649 40.6582C82.6502 40.6582 81.6635 39.4342 81.6635 36.9376V11.2653H75.8372V36.703C75.8372 42.543 79.2211 45.7459 84.7649 45.7459C90.309 45.7459 93.6915 42.543 93.6915 36.703V11.2742H96.8745L90.7947 0.716553Z" fill="black"/>
<path d="M66.6032 22.1003C64.5362 20.4036 63.4555 19.4618 61.1541 19.4618C57.8651 19.4618 55.7978 21.911 55.7978 26.5271V38.6806C55.7978 43.297 57.8651 45.7461 61.1541 45.7461C63.7847 45.7461 65.0539 44.8518 66.7921 42.6378H66.8846V45.2745H71.8655V11.2654H66.6032V22.1003ZM66.6032 40.0941C65.5702 40.8483 64.6308 41.4127 63.5975 41.4127C62.1877 41.4127 61.0601 40.6588 61.0601 37.315V27.8934C61.0601 24.5494 62.1877 23.7958 63.5975 23.7958C64.6308 23.7958 65.5702 24.3602 66.6032 25.1144V40.0941Z" fill="black"/>
<path d="M47.9544 19.4617C44.8996 19.4617 43.7724 20.5922 41.5648 22.477V19.9331H36.5848V45.2743H41.8463V25.3965C43.0682 24.5023 44.1015 23.7956 45.2291 23.7956C46.3568 23.7956 47.1083 24.3601 47.1083 25.6328V45.2743H52.3706V24.7845C52.3706 21.487 50.7263 19.4617 47.9544 19.4617Z" fill="black"/>
</svg>
