<svg width="119" height="32" viewBox="0 0 119 32" fill="none" xmlns="http://www.w3.org/2000/svg">
<path d="M110.915 5.75733V24.636H115.537V11.2469H118.837V7.23013H115.537V2.54393L110.915 5.75733ZM108.934 15.933C108.934 21.4226 105.237 25.3053 99.9555 25.3053C94.6739 25.3053 91.1087 21.4226 91.1087 15.933C91.1087 10.4435 94.8061 6.56067 100.088 6.56067C105.369 6.56067 108.934 10.4435 108.934 15.933ZM95.7302 15.933C95.7302 19.1464 97.4469 21.0209 99.9555 21.0209C102.464 21.0209 104.313 19.1464 104.313 15.933C104.313 12.7197 102.597 10.8452 100.088 10.8452C97.5788 10.8452 95.7302 12.7197 95.7302 15.933ZM89.7883 1.20502L85.1668 4.4184V24.636H89.7883V1.20502ZM80.2813 5.89122C78.6968 5.89122 77.3764 4.55231 77.3764 2.9456C77.3764 1.33891 78.6968 0 80.2813 0C81.8657 0 83.1864 1.20502 83.1864 2.81171C83.1864 4.4184 81.8657 5.89122 80.2813 5.89122ZM77.9045 24.636V7.23013H82.526V24.636H77.9045ZM60.0789 8.16736V32L64.7004 28.7867V24.9038C64.7004 24.9038 65.6248 25.1716 66.813 25.1716C72.887 25.1716 76.5842 21.5565 76.5842 15.5314C76.5842 10.0418 72.4908 6.56067 66.813 6.56067C63.9081 6.56067 61.9274 7.49791 60.0789 8.16736ZM64.7004 20.6192V11.6485C64.7004 11.6485 65.8888 11.113 66.813 11.113C69.7181 11.113 71.9627 12.5858 71.9627 15.6653C71.9627 19.2803 69.454 21.0209 66.5489 21.0209C65.6248 21.0209 64.7004 20.6192 64.7004 20.6192ZM59.4188 15.933C59.4188 21.4226 55.7215 25.3053 50.4399 25.3053C45.1583 25.3053 41.461 21.4226 41.461 15.933C41.461 10.4435 45.1583 6.56067 50.4399 6.56067C55.7215 6.56067 59.4188 10.4435 59.4188 15.933ZM46.2146 15.933C46.2146 19.1464 47.931 21.0209 50.4399 21.0209C52.9487 21.0209 54.6651 19.1464 54.6651 15.933C54.6651 12.7197 52.9487 10.8452 50.4399 10.8452C47.931 10.8452 46.2146 12.7197 46.2146 15.933ZM33.6705 5.75733V24.636H38.292V11.2469H41.5931V7.23013H38.292V2.54393L33.6705 5.75733ZM31.69 24.2342C29.7093 24.7698 26.8045 25.3053 24.5597 25.3053C19.5421 25.3053 16.5051 23.6987 16.5051 18.477V7.23013H21.1266V17.9414C21.1266 20.2176 22.183 21.2887 24.5597 21.2887C25.2198 21.2887 26.1442 21.1548 27.0685 21.0209V7.23013H31.69V24.2342ZM9.77098 13.2552C9.77098 11.5146 8.45057 10.7113 6.73401 10.7113C4.62135 10.7113 3.03683 11.3808 1.71642 12.1841V8.16736C3.30093 7.36402 5.28155 6.56067 7.65831 6.56067C11.6196 6.56067 14.5245 8.16736 14.5245 12.9874V24.3682C12.8079 24.636 10.2991 25.3053 7.92239 25.3053C3.43297 25.3053 -0.00012207 23.6987 -0.00012207 19.682C-0.00012207 16.067 2.90479 14.3264 7.92239 14.3264L9.77098 14.4602V13.2552ZM9.77098 17.4059L8.31853 17.272C6.07381 17.272 4.75339 17.9414 4.75339 19.4142C4.75339 20.887 6.07381 21.5565 7.92239 21.5565C8.45057 21.5565 9.11076 21.4226 9.77098 21.2887V17.4059Z" fill="black"/>
</svg>
