<svg width="138" height="40" viewBox="0 0 138 40" fill="none" xmlns="http://www.w3.org/2000/svg">
<path d="M11.2506 15.1399C13.6926 15.1399 15.3061 16.3442 16.0038 18.7098L21.1931 16.9894C20.6698 15.0109 19.5796 13.3335 17.8353 11.9571C16.091 10.5808 13.8235 9.84961 11.1198 9.84961C7.98005 9.84961 5.31998 10.9249 3.18323 13.0324C1.04646 15.1829 -0.00012207 17.8496 -0.00012207 21.0754C-0.00012207 24.3012 1.04646 26.9678 3.22682 29.1184C5.4072 31.2689 8.06725 32.3011 11.2942 32.3011C13.9543 32.3011 16.1782 31.6131 17.9225 30.1936C19.6669 28.8172 20.8006 27.1399 21.3239 25.1614L16.2219 23.484C15.9166 24.4732 15.3497 25.3334 14.5648 26.0216C13.7362 26.7097 12.646 27.0538 11.2942 27.0538C9.72434 27.0538 8.4161 26.5377 7.36953 25.4624C6.32295 24.3872 5.79968 22.9248 5.79968 21.0754C5.79968 19.2689 6.32295 17.8066 7.36953 16.7313C8.4161 15.6991 9.68072 15.1399 11.2506 15.1399ZM33.5958 27.0969C32.0697 27.0969 30.7615 26.5807 29.7149 25.5054C28.6684 24.4732 28.145 22.9678 28.145 21.0754C28.145 19.1829 28.6684 17.7206 29.7149 16.6453C30.7615 15.613 32.0697 15.0539 33.5958 15.0539C35.0786 15.0539 36.3868 15.613 37.4334 16.6453C38.4799 17.7206 39.0468 19.1829 39.0468 21.0754C39.0468 22.9678 38.4799 24.4732 37.4334 25.5054C36.3868 26.5807 35.0786 27.0969 33.5958 27.0969ZM33.5958 9.84961C30.3689 9.84961 27.6654 10.9249 25.5286 13.0324C23.3918 15.1829 22.3452 17.8496 22.3452 21.0754C22.3452 24.3442 23.3918 27.0108 25.5286 29.1184C27.6654 31.2689 30.3689 32.3011 33.5958 32.3011C36.8228 32.3011 39.4831 31.2689 41.6198 29.1184C43.7566 27.0108 44.8468 24.3442 44.8468 21.0754C44.8468 17.8496 43.7566 15.1829 41.6198 13.0324C39.4831 10.9249 36.8228 9.84961 33.5958 9.84961ZM53.8075 39.8281V29.5914C55.072 31.312 57.1217 32.172 59.9997 32.172C62.9651 32.172 65.4071 31.1397 67.2822 29.0322C69.1573 26.9678 70.1166 24.3012 70.1166 21.0324C70.1166 17.8066 69.201 15.1829 67.4565 13.1184C65.6687 11.0539 63.2703 10.0216 60.2177 10.0216C58.6479 10.0216 57.2961 10.3227 56.1622 10.9249C54.985 11.527 54.1564 12.2152 53.6332 13.0754V10.4948H48.0075V39.8281H53.8075ZM64.4042 21.0754C64.4042 22.9248 63.8809 24.3872 62.8777 25.4624C61.8749 26.5377 60.6103 27.0538 59.0839 27.0538C57.5141 27.0538 56.2495 26.5377 55.2466 25.4194C54.1998 24.3442 53.7202 22.8818 53.7202 21.0754C53.7202 19.2689 54.1998 17.8496 55.2466 16.7743C56.2495 15.6991 57.5141 15.1399 59.0839 15.1399C60.6103 15.1399 61.8749 15.6991 62.8777 16.7313C63.8809 17.8066 64.4042 19.2689 64.4042 21.0754ZM80.7048 40L94.1795 10.4948H87.9873L82.7106 22.8818L76.998 10.4948H70.5007L79.6146 28.9892L74.5562 40H80.7048Z" fill="black"/>
<path d="M96.2032 27.7418C96.2032 28.9533 96.6285 29.9317 97.4788 30.7705C98.329 31.6092 99.3212 31.9819 100.502 31.9819C101.683 31.9819 102.722 31.6092 103.573 30.7705C104.423 29.9317 104.848 28.9533 104.848 27.7418C104.848 26.577 104.423 25.5985 103.573 24.7598C102.722 23.9211 101.683 23.5017 100.502 23.5017C99.3212 23.5017 98.329 23.9211 97.4788 24.7598C96.6285 25.5985 96.2032 26.577 96.2032 27.7418Z" fill="black"/>
<path d="M108.103 25.8924C108.103 27.6128 108.757 29.1181 110.109 30.3656C111.461 31.6558 113.249 32.2581 115.473 32.2581C118.307 32.2581 120.4 31.2256 121.796 29.1181C121.796 30.1933 121.839 31.0536 122.014 31.6558H127.334C127.159 30.7094 127.072 29.5914 127.072 28.3008V17.8924C127.072 15.5698 126.287 13.6344 124.805 12.129C123.278 10.6236 120.924 9.84942 117.74 9.84942C115.037 9.84942 112.9 10.5806 111.286 11.9569C109.629 13.3763 108.713 15.0107 108.539 16.8171L113.685 17.8924C113.772 16.9462 114.164 16.129 114.862 15.4408C115.56 14.7956 116.563 14.4516 117.784 14.4516C118.918 14.4516 119.833 14.7096 120.444 15.2257C121.054 15.7419 121.403 16.43 121.403 17.2042C121.403 18.0644 120.836 18.5806 119.79 18.7096L114.513 19.4838C112.595 19.7849 111.068 20.473 109.891 21.5483C108.67 22.6666 108.103 24.0859 108.103 25.8924ZM116.694 28C115.821 28 115.124 27.7847 114.644 27.3117C114.121 26.8386 113.903 26.2364 113.903 25.5483C113.903 24.0429 114.775 23.1397 116.563 22.8816L121.403 22.1504V23.0967C121.403 24.8601 120.924 26.1074 120.051 26.8816C119.179 27.6558 118.046 28 116.694 28ZM137.301 31.6558V10.4946H131.501V31.6558H137.301ZM130.803 3.56989C130.803 4.51611 131.152 5.3333 131.85 6.02147C132.548 6.70964 133.376 7.05372 134.379 7.05372C135.339 7.05372 136.211 6.70964 136.908 6.02147C137.606 5.3333 137.955 4.51611 137.955 3.56989C137.955 2.58064 137.606 1.72042 136.908 1.03226C136.211 0.344083 135.339 0 134.379 0C133.376 0 132.548 0.387094 131.85 1.07526C131.152 1.76344 130.803 2.62365 130.803 3.56989Z" fill="black"/>
</svg>
