<svg width="132" height="35" viewBox="0 0 132 35" fill="none" xmlns="http://www.w3.org/2000/svg">
<path d="M15.8217 0.00292969H5.5665C4.8646 0.00292969 4.26785 0.510947 4.15834 1.20129L0.010647 27.3974C-0.0718474 27.9141 0.330115 28.3803 0.856368 28.3803H5.75237C6.45414 28.3803 7.0509 27.8726 7.1604 27.1808L8.27903 20.1154C8.38705 19.4236 8.9853 18.9157 9.68558 18.9157H12.9321C19.6875 18.9157 23.5862 15.6593 24.6046 9.20621C25.0633 6.38295 24.6239 4.16475 23.2968 2.61126C21.8393 0.905205 19.2541 0.00292969 15.8217 0.00292969ZM17.0049 9.57075C16.444 13.2365 13.6324 13.2365 10.9137 13.2365H9.36624L10.4519 6.39053C10.5164 5.97671 10.8762 5.67199 11.2961 5.67199H12.0053C13.8572 5.67199 15.6043 5.67199 16.507 6.72347C17.0453 7.35097 17.2103 8.28304 17.0049 9.57075Z" fill="#08368B"/>
<path d="M46.4763 9.45102H41.5657C41.1472 9.45102 40.7859 9.75577 40.7212 10.1696L40.5041 11.5378L40.1605 11.0418C39.0975 9.50471 36.7266 8.99097 34.3604 8.99097C28.9335 8.99097 24.2985 13.0854 23.3958 18.8289C22.9265 21.6939 23.5938 24.4335 25.2253 26.3439C26.7217 28.1007 28.863 28.8325 31.411 28.8325C35.7836 28.8325 38.2081 26.0318 38.2081 26.0318L37.9893 27.3912C37.9065 27.9111 38.3086 28.3771 38.832 28.3771H43.2553C43.9588 28.3771 44.5527 27.8691 44.6637 27.1776L47.3176 10.4339C47.4018 9.91852 47.0014 9.45102 46.4763 9.45102ZM39.6311 18.9723C39.1575 21.7671 36.9306 23.6434 34.0905 23.6434C32.6646 23.6434 31.5247 23.1877 30.7929 22.3243C30.0673 21.4669 29.7913 20.2465 30.0222 18.8871C30.4645 16.1162 32.729 14.1789 35.5254 14.1789C36.9201 14.1789 38.0537 14.6404 38.8005 15.5111C39.5489 16.3909 39.8455 17.6189 39.6311 18.9723Z" fill="#08368B"/>
<path d="M72.6311 9.45117H67.6964C67.2255 9.45117 66.7831 9.68421 66.5162 10.0742L59.7098 20.0615L56.8248 10.464C56.6433 9.86342 56.0872 9.45117 55.4572 9.45117H50.6079C50.0184 9.45117 49.6092 10.0247 49.7966 10.5774L55.2322 26.4683L50.1221 33.6547C49.72 34.2208 50.1247 34.9993 50.8194 34.9993H55.7483C56.216 34.9993 56.654 34.772 56.9192 34.3897L73.3331 10.7882C73.7259 10.2234 73.3226 9.45117 72.6311 9.45117Z" fill="#08368B"/>
<path d="M88.97 0.0012207H78.7133C78.0131 0.0012207 77.4163 0.509238 77.3067 1.19958L73.1591 27.3957C73.0766 27.9124 73.4785 28.3786 74.0018 28.3786H79.2652C79.754 28.3786 80.1726 28.0232 80.2488 27.5391L81.4258 20.1137C81.5339 19.4219 82.1324 18.914 82.8324 18.914H86.0775C92.8344 18.914 96.7317 15.6576 97.7513 9.2045C98.2117 6.38124 97.7694 4.16304 96.4423 2.60955C94.9862 0.903496 92.4025 0.0012207 88.97 0.0012207ZM90.1534 9.56903C89.5939 13.2347 86.7824 13.2348 84.0621 13.2348H82.5162L83.6034 6.38882C83.6678 5.975 84.0246 5.67028 84.4459 5.67028H85.1552C87.0059 5.67028 88.7541 5.67028 89.6569 6.72176C90.1951 7.34926 90.3586 8.28133 90.1534 9.56903Z" fill="#0874E1"/>
<path d="M119.624 9.45102H114.716C114.294 9.45102 113.936 9.75577 113.873 10.1696L113.655 11.5378L113.311 11.0418C112.247 9.50471 109.878 8.99097 107.512 8.99097C102.085 8.99097 97.4515 13.0854 96.5487 18.8289C96.081 21.6939 96.7451 24.4335 98.3767 26.3439C99.8763 28.1007 102.014 28.8325 104.562 28.8325C108.935 28.8325 111.36 26.0318 111.36 26.0318L111.14 27.3912C111.058 27.9111 111.46 28.3771 111.986 28.3771H116.409C117.109 28.3771 117.706 27.8691 117.815 27.1776L120.471 10.4339C120.551 9.91852 120.15 9.45102 119.624 9.45102ZM112.778 18.9723C112.307 21.7671 110.077 23.6434 107.238 23.6434C105.814 23.6434 104.672 23.1877 103.94 22.3243C103.214 21.4669 102.941 20.2465 103.169 18.8871C103.615 16.1162 105.876 14.1789 108.672 14.1789C110.067 14.1789 111.2 14.6404 111.947 15.5111C112.699 16.3909 112.996 17.6189 112.778 18.9723Z" fill="#0874E1"/>
<path d="M125.413 0.719947L121.204 27.3957C121.122 27.9124 121.523 28.3786 122.047 28.3786H126.278C126.982 28.3786 127.579 27.8709 127.687 27.1791L131.837 0.984552C131.92 0.467497 131.518 0 130.994 0H126.256C125.838 0.00124613 125.478 0.306366 125.413 0.719947Z" fill="#0874E1"/>
</svg>
