<svg xmlns="http://www.w3.org/2000/svg" width="40" height="40" viewBox="0 0 40 40">
  <path id="facebook-square" d="M35.714,2.25H4.286A4.286,4.286,0,0,0,0,6.536V37.964A4.286,4.286,0,0,0,4.286,42.25H16.54v-13.6H10.914v-6.4H16.54V17.371c0-5.549,3.3-8.615,8.363-8.615a34.121,34.121,0,0,1,4.957.432v5.446H27.068c-2.75,0-3.609,1.707-3.609,3.458V22.25H29.6l-.982,6.4H23.459v13.6H35.714A4.286,4.286,0,0,0,40,37.964V6.536A4.286,4.286,0,0,0,35.714,2.25Z" transform="translate(0 -2.25)" fill="#4c4c4c"/>
</svg>
