<svg xmlns="http://www.w3.org/2000/svg" width="40" height="39.991" viewBox="0 0 40 39.991">
  <path id="instagram" d="M20,11.98A10.254,10.254,0,1,0,30.253,22.234,10.237,10.237,0,0,0,20,11.98ZM20,28.9a6.666,6.666,0,1,1,6.666-6.666A6.677,6.677,0,0,1,20,28.9ZM33.064,11.56a2.391,2.391,0,1,1-2.391-2.391A2.385,2.385,0,0,1,33.064,11.56Zm6.791,2.427c-.152-3.2-.883-6.041-3.23-8.379s-5.176-3.07-8.379-3.23c-3.3-.188-13.2-.188-16.5,0C8.551,2.53,5.714,3.261,3.367,5.6S.3,10.775.137,13.978c-.188,3.3-.188,13.2,0,16.5.152,3.2.883,6.041,3.23,8.379s5.176,3.07,8.379,3.23c3.3.188,13.2.188,16.5,0,3.2-.152,6.041-.883,8.379-3.23s3.07-5.176,3.23-8.379c.188-3.3.188-13.189,0-16.491ZM35.589,34.022a6.745,6.745,0,0,1-3.8,3.8c-2.632,1.045-8.879.8-11.788.8s-9.165.232-11.788-.8a6.745,6.745,0,0,1-3.8-3.8c-1.045-2.632-.8-8.879-.8-11.788s-.232-9.165.8-11.788a6.745,6.745,0,0,1,3.8-3.8c2.632-1.045,8.879-.8,11.788-.8s9.165-.232,11.788.8a6.745,6.745,0,0,1,3.8,3.8c1.045,2.632.8,8.879.8,11.788S36.634,31.4,35.589,34.022Z" transform="translate(0.004 -2.237)" fill="#4c4c4c"/>
</svg>
