<svg xmlns="http://www.w3.org/2000/svg" width="40" height="53.684" viewBox="0 0 40 53.684">
  <path id="yelp" d="M4.463,25.2l10.446,5.1a2.4,2.4,0,0,1-.471,4.478L3.164,37.584A2.389,2.389,0,0,1,.205,35.529a20.673,20.673,0,0,1,.944-8.946A2.39,2.39,0,0,1,4.464,25.2ZM9.077,50.284A20.913,20.913,0,0,0,17.4,53.651,2.389,2.389,0,0,0,20.2,51.377l.409-11.62a2.4,2.4,0,0,0-4.174-1.688l-7.781,8.64a2.393,2.393,0,0,0,.429,3.574ZM24.315,38.758l6.166,9.855a2.4,2.4,0,0,0,3.566.577A20.8,20.8,0,0,0,39.574,42.1,2.411,2.411,0,0,0,38.149,38.8L27.1,35.2a2.4,2.4,0,0,0-2.78,3.555ZM39.867,24.894a20.7,20.7,0,0,0-5.285-7.267,2.4,2.4,0,0,0-3.565.461l-6.5,9.638a2.393,2.393,0,0,0,2.642,3.64l11.181-3.2a2.411,2.411,0,0,0,1.531-3.272ZM6.477,3.164A2.4,2.4,0,0,0,5.44,6.519L16.357,25.438a2.4,2.4,0,0,0,4.468-1.2V2.4A2.377,2.377,0,0,0,18.255.009,33.591,33.591,0,0,0,6.477,3.164Z" transform="translate(-0.071 -0.001)" fill="#4c4c4c"/>
</svg>
