<svg width="128" height="17" viewBox="0 0 128 17" fill="none" xmlns="http://www.w3.org/2000/svg">
<path d="M0.947324 1.89019C0.898268 1.8292 0.874807 1.77258 0.868408 1.72249C0.868408 1.65497 0.904667 1.59181 0.970786 1.53083C1.00705 1.50687 1.0561 1.48727 1.10942 1.45678C1.16914 1.42629 1.29072 1.36967 1.46562 1.29562C1.64052 1.22157 1.82181 1.16059 2.00311 1.1105C2.17801 1.06694 2.38916 1.03645 2.63871 1.01249C2.71763 1.00596 2.79015 1.00596 2.86267 1.00596C3.03757 1.00596 3.2018 1.01903 3.3575 1.05605C3.57506 1.09961 3.81181 1.19761 4.05922 1.34571C4.30024 1.48727 4.51353 1.67893 4.70549 1.92503C4.88679 2.17113 5.06169 2.5 5.21952 2.91815C5.38376 3.33196 5.5032 3.81981 5.58851 4.37517C5.78901 5.78209 5.92765 7.08448 6.00656 8.27579C6.81706 6.0282 7.54865 4.3621 8.19492 3.27533C8.19492 3.23831 8.18212 3.18168 8.15866 3.1207C8.13946 3.05972 8.1288 3.01616 8.1224 2.99656C8.03708 2.97696 7.99016 2.92904 7.98376 2.84193C7.97096 2.76135 8.01362 2.68076 8.09894 2.60671C8.55751 2.44555 8.9393 2.36497 9.25283 2.36497C9.78393 2.36497 10.1231 2.60018 10.2617 3.05536C10.4003 3.49312 10.6008 4.40784 10.8653 5.7908C11.1298 7.17377 11.3239 8.17343 11.4391 8.79195C12.3882 5.67538 13.5677 2.82886 14.9818 0.265472C14.9818 0.265472 14.9818 0.265472 14.9882 0.265472C15.0181 0.272006 15.0373 0.289429 15.0479 0.315564C15.0607 0.352588 15.0671 0.389613 15.0671 0.41357L15.0799 0.474551L15.3401 0.306852C15.4361 0.522464 15.515 0.659672 15.5641 0.714119C15.6195 0.751144 15.739 0.812125 15.9459 0.905775C16.1464 0.992891 16.2594 1.04734 16.2786 1.07783C16.43 1.26948 16.5026 1.53519 16.5026 1.86841C16.5026 2.52178 16.2189 3.4561 15.6622 4.65176C14.3441 7.46779 13.6679 10.8261 13.6317 14.7267C13.572 14.7463 13.4994 14.7703 13.3949 14.8008C13.3032 14.8247 13.1219 14.8574 12.851 14.8988C12.6996 14.9184 12.5482 14.9293 12.3967 14.9358C12.288 14.9358 12.192 14.9293 12.0939 14.9162C11.9915 14.9358 11.8891 14.9467 11.8038 14.9467C11.3559 14.9467 10.9762 14.718 10.6669 14.2607C10.3641 13.4156 10.074 12.4508 9.80312 11.3597C9.52585 10.2729 9.32536 9.38434 9.20378 8.6983C9.07581 8.0188 8.90731 7.13021 8.70895 6.02602C7.45693 9.83517 6.76801 12.7056 6.63577 14.644C6.60591 14.6636 6.56325 14.6745 6.50779 14.6941C6.45874 14.7071 6.35636 14.7311 6.20492 14.7616C6.05348 14.7921 5.90845 14.8051 5.76981 14.8051C5.63117 14.8051 5.47973 14.7812 5.3219 14.7376C5.15767 14.6941 5.01903 14.6135 4.89959 14.5089L4.84413 14.5895C4.81427 14.6135 4.77801 14.583 4.72256 14.4959C4.6735 14.4022 4.62018 14.3108 4.57752 14.2127L4.5178 14.0581C4.5306 14.2193 4.5306 14.3478 4.5306 14.4523C4.5306 14.6614 4.5178 14.7681 4.50713 14.7681C4.40476 14.7681 4.3429 14.7071 4.31304 14.5895C4.29384 14.5024 4.1744 13.8294 3.95685 12.5706C3.73929 11.3118 3.52174 10.0878 3.29778 8.91609C3.08022 7.7422 2.79015 6.48338 2.43396 5.1309C2.07776 3.78496 1.74503 2.79837 1.4251 2.17331C1.20754 2.11887 1.0497 2.01868 0.947324 1.89019ZM17.023 1.15623C17.023 1.11268 17.0465 1.05823 17.0955 0.988535C17.1446 0.92102 17.2107 0.877462 17.2832 0.846971C17.4218 0.809947 17.5669 0.779457 17.7055 0.748966C17.8207 0.729365 17.9593 0.725009 18.1236 0.725009C18.1598 0.725009 18.1961 0.725009 18.2323 0.725009C18.4371 0.731543 18.6312 0.762034 18.8125 0.818659C18.9874 0.875285 19.1687 0.97329 19.3436 1.12139C19.5249 1.26295 19.6827 1.45461 19.8022 1.67675C19.9344 1.8989 20.0389 2.20163 20.1157 2.5784C20.1754 2.90509 20.2074 3.26444 20.2074 3.65864C20.2074 3.72616 20.2074 3.79367 20.2074 3.86772C20.1839 5.02854 20.1285 6.33092 20.0496 7.77487C19.9707 9.20793 19.8981 10.3557 19.8256 11.2072L19.7232 12.4966C19.6635 12.6076 19.5718 12.7688 19.446 12.9844L19.0471 13.7989C18.8893 13.8599 18.7634 13.947 18.6717 14.0646L18.5203 14.4719L18.3561 14.4523L18.1257 14.8291C18.1129 14.8226 18.0958 14.816 18.083 14.8051C18.0638 14.7921 18.0404 14.7812 18.0105 14.7616C17.9743 14.7485 17.9551 14.742 17.9444 14.7485C17.9145 14.7616 17.8719 14.8095 17.8228 14.8901C17.7738 14.9772 17.7375 15.0207 17.714 15.0207C17.6842 14.8422 17.6351 13.7423 17.5861 11.7234C17.5306 9.70449 17.4581 7.59846 17.3621 5.41403C17.2768 3.22306 17.1638 1.80307 17.023 1.15623ZM21.8007 13.8599C21.7218 13.6008 21.6791 13.3721 21.6791 13.1739C21.6791 12.8341 21.8007 12.5946 22.0545 12.4639C22.1462 12.4029 22.2358 12.3463 22.3382 12.2962C22.4406 10.9198 22.5259 9.82645 22.5749 9.01845C22.6346 8.21481 22.6965 7.13021 22.7562 5.78427C22.7925 5.02418 22.8053 4.35121 22.8053 3.75882C22.8117 3.28404 22.8053 2.85717 22.7754 2.48693C22.7264 1.64191 22.6176 1.05387 22.4619 0.727187C22.5109 0.70323 22.5771 0.670562 22.6624 0.640071C22.7477 0.603047 22.9098 0.552955 23.1572 0.491974C23.411 0.424459 23.6478 0.387435 23.8653 0.374367C23.8952 0.374367 23.9315 0.374367 23.9613 0.374367C24.1554 0.374367 24.3666 0.404858 24.6012 0.468017C24.8742 0.555133 25.1024 0.683629 25.2965 0.875284C25.4906 1.06041 25.6527 1.3566 25.7913 1.75298C25.9236 2.14718 25.9918 2.63503 25.9918 3.20999C25.9918 5.20495 25.6826 7.76616 25.0662 10.9089C27.1692 9.94624 28.8819 9.46492 30.2 9.46492C30.3216 9.46492 30.4411 9.47146 30.5562 9.47799C30.5626 9.49106 30.5498 9.50195 30.5264 9.52155C30.5029 9.54115 30.4667 9.55204 30.4176 9.57164C30.3749 9.58471 30.3323 9.60213 30.2854 9.62173C30.2491 9.64569 30.2128 9.66529 30.1894 9.68271C30.1659 9.70231 30.1531 9.71974 30.1595 9.7328C30.1723 9.75676 30.2747 9.79379 30.456 9.85041C30.6437 9.9005 30.7397 9.94406 30.7461 9.97455C30.7525 9.98108 30.7589 9.99415 30.7589 10.005C30.7589 10.0355 30.7461 10.0856 30.7226 10.1401C30.6799 10.2207 30.6437 10.2882 30.6074 10.3448L30.5413 10.4384L30.5605 11.1724L30.2768 11.7278L30.392 11.7887C30.2534 11.9238 30.1382 12.0044 30.0465 12.0305C29.9676 12.0305 29.6284 12.1917 29.0312 12.4987C28.4319 12.808 27.6107 13.2828 26.5698 13.9318C25.5354 14.5852 24.5564 15.2712 23.6371 15.9877C23.5881 16.0248 23.5411 16.0378 23.4857 16.0378C23.3172 16.0378 23.074 15.8658 22.7733 15.526C22.319 15.0207 21.999 14.4654 21.8007 13.8599ZM28.2335 2.36497C28.2634 2.04482 28.3657 1.79 28.5428 1.61141C28.6217 1.53083 28.8158 1.45678 29.1165 1.38274C29.4258 1.31522 29.8055 1.25206 30.2768 1.21068C30.6394 1.17366 31.0447 1.15406 31.4926 1.1497C31.6142 1.1497 31.7464 1.1497 31.8786 1.15623C32.4716 1.17583 33.1008 1.21286 33.7535 1.27384C34.4125 1.33482 35.078 1.45896 35.7541 1.63755C36.4366 1.81614 37.0957 2.02739 37.7313 2.28003C38.3712 2.53267 38.9705 2.87242 39.5336 3.29275C40.0967 3.71309 40.5851 4.18787 41.0096 4.70621C41.4212 5.22455 41.7476 5.85396 41.9886 6.59445C42.2296 7.31751 42.3448 8.10156 42.3448 8.95312C42.3448 8.97272 42.3448 8.99667 42.3448 9.02063C42.3384 9.6936 42.2296 10.3056 42.0056 10.8718C41.7881 11.4337 41.5044 11.8976 41.1589 12.2722C40.8091 12.649 40.3974 12.9822 39.9261 13.2719C39.4611 13.5681 38.9897 13.7968 38.5226 13.9623C38.0576 14.13 37.5799 14.265 37.0786 14.3696C36.5838 14.4741 36.1466 14.5481 35.7904 14.5786C35.4342 14.6091 35.1014 14.6287 34.7986 14.6287C34.7431 14.6287 34.5682 14.6157 34.2717 14.5852L34.1566 14.8748L33.8068 14.8552L33.6063 15.3431L33.4015 15.2864C33.3162 15.4411 33.2565 15.5217 33.2138 15.5217C33.1946 15.391 33.1776 14.9903 33.1584 14.3238C32.8747 14.2258 32.6081 14.1017 32.3607 13.9536C32.1197 13.812 31.8701 13.6138 31.6227 13.3677C31.3817 13.1216 31.1684 12.8428 30.9999 12.5336C30.8314 12.2178 30.6863 11.8367 30.5776 11.3728C30.4688 10.9219 30.4133 10.421 30.4133 9.88526C30.4197 9.86566 30.4325 9.8417 30.4432 9.81121C30.4624 9.78725 30.4922 9.75023 30.5221 9.6936C30.5584 9.64351 30.5946 9.60649 30.6181 9.58906C30.648 9.56946 30.6735 9.58906 30.697 9.63915C30.7205 9.68271 30.7333 9.77418 30.7333 9.90486C30.7333 10.164 30.9508 10.4537 31.4051 10.7695C31.8466 11.0787 32.4097 11.3248 33.0795 11.5034C33.0069 8.08849 32.879 5.66884 32.7233 4.24232C32.591 4.23578 32.446 4.22925 32.3052 4.22925C31.2644 4.22925 30.2064 4.36428 29.1315 4.62345C28.963 4.56247 28.8051 4.39477 28.6537 4.14213C28.5023 3.8895 28.3807 3.61073 28.3082 3.30146C28.2484 3.07932 28.2164 2.85717 28.2164 2.62849C28.2207 2.55009 28.2207 2.45862 28.2335 2.36497ZM34.6834 11.706C34.6898 11.706 34.7069 11.706 34.7261 11.7125C34.7495 11.719 34.7687 11.7256 34.7815 11.7256C34.7879 11.7256 34.8007 11.719 34.8242 11.7125C34.837 11.706 34.8476 11.706 34.8604 11.706V9.31682L34.6834 11.706ZM35.2166 11.706C36.0271 11.6385 36.8611 11.4337 37.7142 11.0831C38.561 10.7368 39.2734 10.3121 39.8429 9.81121C40.4166 9.31029 40.7195 8.83551 40.7558 8.37379C40.7558 8.35419 40.7558 8.33024 40.7558 8.29975C40.7622 7.72042 40.278 7.05834 39.299 6.32439C38.2837 5.55995 37.0019 4.99152 35.4534 4.61474C35.4406 6.18718 35.3617 8.54585 35.2166 11.706ZM53.6555 2.39546C53.6683 2.06224 53.7409 1.77258 53.8731 1.5243C54.0053 1.27602 54.1824 1.13445 54.3871 1.10396C55.2403 0.979823 56.424 0.918842 57.9491 0.918842C58.0344 0.83826 58.1069 0.777279 58.173 0.757677C58.493 0.664028 58.8022 0.616114 59.0859 0.616114C59.5509 0.616114 59.9561 0.740254 60.3017 0.979823C61.4257 1.02992 63.501 1.15841 66.5361 1.38709C66.5063 1.67675 66.4146 1.97948 66.2631 2.28874C66.1053 2.60454 65.8408 2.93776 65.459 3.28186C65.0836 3.62815 64.625 3.88732 64.0876 4.05284C63.6951 4.07244 63.1619 4.08986 62.4964 4.12689C61.8373 4.17045 61.4385 4.18787 61.2935 4.1944C61.2636 5.41621 61.1911 6.76215 61.0759 8.2257C60.9607 9.69578 60.8583 10.8566 60.7624 11.7147L60.6237 12.9997L60.1886 13.9993L60.0201 13.9754L59.7066 14.7093C59.6405 14.5982 59.5615 14.6048 59.4698 14.7224L59.2821 15.1536H59.1307L58.8641 15.5609L58.6892 15.0556C58.5676 15.5195 58.478 15.7525 58.429 15.7721C58.3991 15.6001 58.3799 14.8835 58.3629 13.6182C58.3501 12.3594 58.3266 10.8022 58.2967 8.95094C58.2669 7.09972 58.2242 5.57301 58.1752 4.37081C56.9786 4.44486 55.9313 4.50584 55.0185 4.56247C55.0185 4.56247 55.0057 4.56247 54.995 4.56247C54.6857 4.56247 54.4276 4.45793 54.2037 4.23578C53.9861 4.0071 53.8347 3.73051 53.7622 3.39511C53.6961 3.10545 53.6598 2.80926 53.6598 2.51742C53.6555 2.47604 53.6555 2.43902 53.6555 2.39546ZM64.0492 8.00791C64.0492 7.29138 64.0854 6.61841 64.1707 5.98246C64.2497 5.34651 64.352 4.80857 64.48 4.36428C64.608 3.91999 64.753 3.50619 64.9215 3.13594C65.09 2.75917 65.2542 2.46297 65.3993 2.24083C65.5443 2.01868 65.7022 1.82703 65.8472 1.65497C66.005 1.48727 66.1202 1.37185 66.197 1.31522C66.2759 1.25424 66.3292 1.21721 66.3612 1.19108C66.5191 1.1105 66.6812 1.06694 66.8625 1.06694C66.9584 1.06694 67.0629 1.08001 67.1589 1.10396C67.449 1.17148 67.722 1.28909 67.9694 1.45678C68.2233 1.62884 68.428 1.83356 68.5986 2.06224C68.7671 2.29745 68.8524 2.50653 68.8524 2.69165C68.8524 2.77877 68.7927 2.90073 68.6712 3.06843C68.5496 3.23613 68.4045 3.44521 68.2361 3.70438C68.0676 3.95701 67.9033 4.26627 67.7348 4.62345C67.5663 4.98063 67.4213 5.45759 67.2997 6.03691C67.1781 6.62276 67.1184 7.26524 67.1184 7.96871C67.1184 8.70919 67.1845 9.3887 67.3189 10.0116C67.4511 10.641 67.6154 11.1354 67.8095 11.5121C67.9972 11.8824 68.2083 12.2025 68.4323 12.4748C68.6562 12.7405 68.8503 12.9321 69.0124 13.0432C69.1767 13.1478 69.2961 13.2044 69.3878 13.2153C69.5201 13.2283 69.6843 13.1652 69.8784 13.0301C70.0725 12.8951 70.2836 12.673 70.5076 12.3572C70.7379 12.0479 70.9491 11.6777 71.1432 11.253C71.3373 10.8218 71.4994 10.2707 71.6273 9.60431C71.7596 8.9444 71.8278 8.23441 71.8278 7.48085C71.8278 6.79482 71.7724 6.17847 71.6636 5.62964C71.5548 5.08081 71.4162 4.63652 71.2456 4.30765C71.0771 3.97444 70.883 3.69566 70.6782 3.4561C70.4734 3.22088 70.2602 3.05536 70.0618 2.95518C69.8571 2.85717 69.6693 2.78312 69.4945 2.7265C69.326 2.67641 69.1852 2.65245 69.0828 2.65245H68.9143L68.7821 2.60889C68.7821 2.60889 68.8482 2.57187 68.9868 2.49129C69.0423 2.44773 69.0529 2.41724 69.0359 2.38021C69.0167 2.34972 69.1511 2.34972 69.4347 2.38675C69.7184 2.42377 70.0341 2.51089 70.3775 2.65245C70.723 2.79401 70.9576 2.97914 71.0856 3.21435C70.9832 2.93558 70.7465 2.70908 70.3732 2.54138C69.9978 2.36932 69.6544 2.25825 69.3324 2.20163L68.861 2.11451C68.861 1.88583 68.989 1.72031 69.2364 1.6027C69.4838 1.49163 69.7632 1.42412 70.0767 1.39798C70.1556 1.39145 70.2346 1.38491 70.3135 1.38491C70.5438 1.38491 70.7849 1.4154 71.0451 1.46549C71.3906 1.54608 71.7276 1.67457 72.0603 1.85534C72.3995 2.03393 72.7194 2.28656 73.0223 2.61978C73.3358 2.94647 73.6024 3.32978 73.8328 3.76754C74.0695 4.20529 74.2551 4.74323 74.3895 5.37918C74.5281 6.01513 74.6006 6.71206 74.6006 7.47868C74.6006 8.45438 74.4982 9.37345 74.2913 10.225C74.0866 11.0766 73.8136 11.7931 73.4873 12.3724C73.1545 12.9474 72.7919 13.4461 72.3931 13.8665C71.9942 14.2803 71.5954 14.583 71.2136 14.7812C70.8211 14.9794 70.4649 15.0774 70.1365 15.0774C69.3132 15.0774 68.5517 14.9227 67.8628 14.6265C67.1739 14.3304 66.6001 13.9405 66.1394 13.4592C65.6808 12.9779 65.2862 12.4225 64.9663 11.7975C64.6464 11.1724 64.416 10.5386 64.271 9.90268C64.1153 9.26673 64.0492 8.63732 64.0492 8.00791ZM74.0141 1.89019C73.965 1.8292 73.9416 1.77258 73.9352 1.72249C73.9352 1.65497 73.9714 1.59181 74.0375 1.53083C74.0738 1.50687 74.1164 1.48727 74.1762 1.45678C74.2359 1.42629 74.3511 1.36967 74.526 1.29562C74.7073 1.22157 74.8885 1.16059 75.0635 1.1105C75.2383 1.06694 75.4559 1.03645 75.7033 1.01249C75.7758 1.00596 75.8548 1.00596 75.9273 1.00596C76.1022 1.00596 76.2664 1.01903 76.4221 1.05605C76.6397 1.09961 76.8764 1.19761 77.1174 1.34571C77.3585 1.48727 77.576 1.67893 77.7637 1.92503C77.9514 2.17113 78.1263 2.5 78.2841 2.91815C78.442 3.33196 78.5678 3.81981 78.6467 4.37517C78.8515 5.78209 78.9923 7.08448 79.069 8.27579C79.8795 6.0282 80.6111 4.3621 81.2574 3.27533C81.251 3.23831 81.2382 3.18168 81.2211 3.1207C81.2019 3.05972 81.1849 3.01616 81.1785 2.99656C81.0996 2.97696 81.0505 2.92904 81.0398 2.84193C81.0334 2.76135 81.0697 2.68076 81.1614 2.60671C81.62 2.44555 82.0018 2.36497 82.3153 2.36497C82.8464 2.36497 83.1855 2.60018 83.3242 3.05536C83.4628 3.49312 83.6633 4.40784 83.9235 5.7908C84.1901 7.17377 84.3821 8.17343 84.5037 8.79195C85.4464 5.67538 86.6259 2.82886 88.04 0.265472C88.04 0.265472 88.0464 0.265472 88.0528 0.265472C88.0763 0.272006 88.1019 0.289429 88.1083 0.315564C88.1275 0.352588 88.1317 0.389613 88.1317 0.41357L88.1381 0.474551L88.4047 0.306852C88.5007 0.522464 88.5732 0.659672 88.6287 0.714119C88.6778 0.751144 88.8036 0.812125 89.0105 0.905775C89.211 0.992891 89.3198 1.04734 89.3368 1.07783C89.4883 1.26948 89.5608 1.53519 89.5608 1.86841C89.5608 2.52178 89.2835 3.4561 88.7268 4.65176C87.4023 7.46779 86.7262 10.8261 86.6963 14.7267C86.6366 14.7463 86.5577 14.7703 86.4595 14.8008C86.3678 14.8247 86.1865 14.8574 85.9156 14.8988C85.7642 14.9184 85.6064 14.9293 85.4613 14.9358C85.3526 14.9358 85.2566 14.9293 85.1585 14.9162C85.0561 14.9358 84.9537 14.9467 84.862 14.9467C84.4205 14.9467 84.0387 14.718 83.7316 14.2607C83.4287 13.4156 83.1322 12.4508 82.8613 11.3597C82.5883 10.2729 82.39 9.38434 82.262 8.6983C82.134 8.0188 81.9719 7.13021 81.7714 6.02602C80.5194 9.83517 79.8241 12.7056 79.6918 14.644C79.662 14.6636 79.6193 14.6745 79.5639 14.6941C79.5148 14.7071 79.4124 14.7311 79.261 14.7616C79.116 14.7921 78.9709 14.8051 78.8323 14.8051C78.6937 14.8051 78.5422 14.7812 78.378 14.7376C78.2202 14.6941 78.0751 14.6135 77.9599 14.5089L77.9002 14.5895C77.8768 14.6135 77.8341 14.583 77.785 14.4959C77.7296 14.4022 77.6827 14.3108 77.64 14.2127L77.5803 14.0581C77.5867 14.2193 77.5931 14.3478 77.5931 14.4523C77.5931 14.6614 77.5803 14.7681 77.5632 14.7681C77.4672 14.7681 77.399 14.7071 77.3755 14.5895C77.3521 14.5024 77.2305 13.8294 77.0193 12.5706C76.8018 11.3118 76.5778 10.0878 76.3539 8.91609C76.1363 7.7422 75.8462 6.48338 75.4943 5.1309C75.1381 3.78496 74.799 2.79837 74.4854 2.17331C74.2743 2.11887 74.1164 2.01868 74.0141 1.89019ZM89.5757 1.35224C89.8061 1.25859 90.0769 1.19761 90.399 1.16059C90.6827 1.04952 90.9792 0.968934 91.282 0.931909C91.4036 0.918842 91.5294 0.907953 91.651 0.901419C91.8259 0.901419 92.0008 0.92102 92.1778 0.95151C92.4679 1.00814 92.7345 1.12356 92.9691 1.31522C93.2059 1.50034 93.3808 1.74644 93.496 2.05571C94.2276 4.05502 95.3452 6.69899 96.8638 9.96366C96.9363 8.12987 97.0643 6.2155 97.2499 4.22925C97.4376 2.24736 97.6125 0.938443 97.781 0.315564C97.8002 0.328631 97.8236 0.40268 97.8471 0.544243C97.8705 0.685807 97.8961 0.76639 97.9132 0.779457C97.926 0.792524 97.9431 0.772923 97.9623 0.735899C97.9815 0.692341 98.0049 0.642249 98.022 0.605224C98.0412 0.561666 98.0518 0.5486 98.071 0.561667C98.0902 0.581268 98.1372 0.709764 98.2097 0.95151C98.2822 1.19326 98.3249 1.32175 98.3483 1.35224C98.3782 1.38273 98.4272 1.40234 98.487 1.40887C98.5467 1.4154 98.6021 1.4154 98.6448 1.40887L98.7045 1.38927C99.0543 2.01215 99.3444 2.62414 99.5683 3.21653L99.6281 3.39511C99.5918 4.72799 99.5683 5.95197 99.5683 7.06923C99.5683 8.18649 99.5811 9.08814 99.611 9.77418C99.6345 10.4602 99.6707 11.0962 99.707 11.6755C99.7496 12.2613 99.7923 12.6751 99.8392 12.9278C99.8819 13.187 99.9245 13.4396 99.9544 13.6988C99.9843 13.9579 100.003 14.106 100.014 14.1496C100.021 14.1627 100.027 14.1801 100.027 14.2062C100.027 14.2628 100.014 14.3369 99.9971 14.4284C99.9309 14.6374 99.6515 14.8182 99.1738 14.9707C98.7813 15.0948 98.4059 15.1623 98.0668 15.1623C97.9943 15.1623 97.9217 15.1558 97.8492 15.1492C97.5826 15.1188 97.3715 15.0077 97.2264 14.8226C97.075 14.6374 96.9726 14.3412 96.9065 13.9274C96.4842 13.2784 95.9936 12.4639 95.4497 11.4817C94.9058 10.506 94.4878 9.73498 94.1913 9.17308C93.9012 8.61119 93.4469 7.70953 92.8198 6.46813C92.7601 7.45036 92.6812 8.47398 92.6023 9.53679C92.5106 10.604 92.4445 11.4316 92.3975 12.0131L92.3186 12.8777L92.2034 12.8407L91.7022 13.8294L91.3993 13.9971L91.169 14.6701L90.928 14.4654L90.6443 15.1514C90.4865 15.1514 90.3713 15.171 90.2945 15.2124C90.2284 15.2494 90.1431 15.3365 90.0535 15.4585C90.0172 15.2668 89.998 14.0995 89.9874 11.9586C89.9767 9.81774 89.9383 7.63766 89.8722 5.41403C89.8125 3.19257 89.7143 1.84009 89.5757 1.35224ZM104.788 2.76135C104.788 2.74174 104.788 2.71779 104.788 2.69383C104.788 2.35408 104.89 2.07095 105.101 1.83574C105.18 1.76169 105.378 1.66368 105.688 1.55697C105.991 1.44589 106.389 1.34135 106.867 1.24117C107.345 1.14317 107.876 1.04952 108.463 0.968934C108.957 0.907953 109.478 0.875284 110.017 0.881818C110.113 0.881818 110.205 0.881818 110.295 0.881818C110.93 0.894885 111.564 0.949333 112.187 1.04298C112.809 1.14099 113.402 1.32175 113.963 1.58528C114.526 1.85098 115.015 2.1842 115.444 2.5784C115.872 2.97914 116.211 3.51708 116.459 4.17045C116.7 4.80639 116.821 5.52946 116.815 6.35488C116.815 6.37448 116.815 6.39191 116.815 6.41151C116.796 8.17778 115.915 9.44968 114.172 10.2381C114.554 10.9415 114.825 11.6951 114.983 12.4922C115.062 12.8995 115.104 13.2893 115.104 13.653C115.104 13.9862 115.062 14.3064 114.989 14.6048C115.002 14.4872 115.002 14.3696 115.002 14.2519C115.002 13.8207 114.953 13.3939 114.87 12.967C114.748 12.429 114.622 12.0283 114.494 11.7757L114.29 11.3858C114.349 11.5775 114.418 11.8236 114.494 12.1263C114.573 12.4465 114.659 12.9169 114.755 13.5398C114.81 13.8861 114.84 14.1692 114.84 14.4044C114.84 14.5895 114.821 14.7376 114.784 14.8487L114.688 14.718C114.531 14.9903 114.405 15.1318 114.332 15.1492L113.812 15.2734L113.624 15.0687C113.298 13.7837 112.566 12.4007 111.429 10.9132C110.8 11.0003 110.207 11.0439 109.653 11.0439H109.538L109.392 13.1303C109.296 13.298 109.181 13.4875 109.053 13.7053L108.654 14.5264C108.497 14.5765 108.377 14.6614 108.285 14.779L108.121 15.1863L107.963 15.1667L107.722 15.55C107.71 15.5434 107.693 15.5369 107.686 15.5304C107.673 15.5173 107.65 15.5064 107.614 15.4868C107.584 15.4672 107.565 15.4672 107.548 15.4737C107.518 15.4868 107.475 15.5347 107.42 15.6153C107.37 15.7024 107.334 15.7395 107.304 15.7395C107.275 15.5543 107.208 13.7445 107.11 10.3121C106.415 9.86783 105.931 9.20793 105.677 8.33677C105.611 8.0776 105.581 7.86852 105.581 7.69429C105.581 7.62024 105.587 7.55926 105.6 7.50263C105.649 7.77487 105.732 8.07107 105.86 8.38468C105.993 8.69395 106.101 8.89649 106.2 8.99667C106.025 8.6199 105.897 8.25619 105.831 7.89683C105.794 7.69211 105.775 7.51352 105.775 7.35454C105.775 7.22386 105.788 7.11279 105.799 7.01478C105.854 7.16941 105.993 7.33058 106.21 7.4961C106.428 7.66815 106.711 7.82278 107.051 7.97088C107.008 6.94074 106.948 5.68626 106.869 4.19876C106.566 4.24885 106.161 4.32943 105.654 4.44486C105.442 4.35775 105.242 4.14213 105.067 3.80238C104.896 3.47134 104.8 3.11852 104.788 2.76135ZM109.672 8.48922C110.47 8.48269 111.299 8.35419 112.157 8.10591C113.021 7.85981 113.748 7.52659 114.339 7.11279C114.938 6.69899 115.252 6.27212 115.281 5.8409C115.281 5.8213 115.281 5.79734 115.281 5.77338C115.281 5.19406 114.81 4.7171 113.861 4.35339C113.014 4.02017 111.903 3.85247 110.529 3.86554C110.293 3.86554 110.052 3.86554 109.804 3.87207C109.817 4.0071 109.823 4.24232 109.823 4.57554C109.806 5.79734 109.757 7.09972 109.672 8.48922ZM117.696 7.29791C117.696 7.16724 117.696 7.03874 117.696 6.90807C117.696 6.77739 117.696 6.6489 117.696 6.52476C117.715 5.98682 117.781 5.34651 117.896 4.59296C118.024 3.84594 118.137 3.22306 118.253 2.73521L118.421 2.01215C118.408 1.96859 118.398 1.9185 118.378 1.87058C118.372 1.81396 118.355 1.72902 118.336 1.59181C118.323 1.46114 118.336 1.38709 118.378 1.38274C118.523 1.2586 118.764 1.17801 119.116 1.14752C119.232 1.13445 119.347 1.12356 119.455 1.12356C119.709 1.12356 119.963 1.15406 120.217 1.20415C120.603 1.27166 120.936 1.43936 121.226 1.70506C121.516 1.97077 121.661 2.30399 121.661 2.71125C121.661 2.77877 121.595 3.11852 121.467 3.73051C121.335 4.34686 121.213 5.0525 121.104 5.84743C121.008 6.65108 120.936 7.51352 120.893 8.44131C120.887 8.57634 120.887 8.72008 120.887 8.86818C120.874 9.64569 120.959 10.4297 121.128 11.2072C121.328 12.1263 121.648 12.8929 122.096 13.4919C122.785 13.2566 123.354 12.8058 123.807 12.1525C124.261 11.4991 124.574 10.7521 124.749 9.91793C124.931 9.09032 125.022 8.19521 125.027 7.23911C125.027 7.20208 125.027 7.16506 125.027 7.1215C125.027 6.21332 124.948 5.35522 124.796 4.56465C124.645 3.73051 124.434 2.99656 124.156 2.36061C123.883 1.7312 123.589 1.30433 123.261 1.07565L123.399 0.903597C123.551 0.903597 123.666 0.91013 123.738 0.916664L123.794 0.960222C123.83 0.984179 123.879 1.0212 123.932 1.0713C123.988 1.11485 124.054 1.1693 124.137 1.23246C124.21 1.29344 124.295 1.36749 124.385 1.44807C124.47 1.52865 124.56 1.60924 124.651 1.70071C124.743 1.78782 124.833 1.88583 124.924 1.99037C125.016 2.09491 125.099 2.20598 125.178 2.31705C125.257 2.42159 125.33 2.5392 125.396 2.66334C125.468 2.78095 125.524 2.90509 125.571 3.01616C125.528 2.8746 125.479 2.73739 125.419 2.59583C125.353 2.4608 125.291 2.33012 125.219 2.21251C125.152 2.09491 125.08 1.98384 125.001 1.87276C124.922 1.75516 124.85 1.65715 124.771 1.57003C124.692 1.48292 124.619 1.40234 124.553 1.32829C124.481 1.24771 124.414 1.18672 124.353 1.12356C124.287 1.07347 124.237 1.01903 124.188 0.982002C124.139 0.944977 124.109 0.914487 124.086 0.894885C124.063 0.870929 124.056 0.864395 124.063 0.864395C124.781 1.02556 125.423 1.42629 125.991 2.04917C126.558 2.67859 126.989 3.43214 127.279 4.31419C127.575 5.19624 127.787 6.14798 127.915 7.17159C127.97 7.62895 128 8.08631 127.993 8.54149C127.993 9.09686 127.951 9.64569 127.866 10.1902C127.708 11.1789 127.473 12.0675 127.147 12.869C126.833 13.6661 126.366 14.302 125.75 14.7768C125.182 15.208 124.534 15.4302 123.809 15.4258C123.749 15.4258 123.694 15.4258 123.627 15.4258C123.005 15.3888 122.431 15.2777 121.904 15.0926C121.373 14.914 120.919 14.6788 120.537 14.3957C120.155 14.1169 119.812 13.7793 119.509 13.383C119.2 12.9888 118.946 12.5924 118.754 12.1917C118.553 11.7844 118.385 11.3466 118.246 10.8697C118.101 10.3949 117.992 9.95495 117.926 9.56728C117.854 9.16655 117.798 8.75928 117.758 8.33241C117.726 7.9099 117.702 7.56362 117.696 7.29791ZM44.3582 9.28633C44.2623 8.98361 44.226 8.64385 44.2431 8.26708C44.2601 7.8903 44.3454 7.53966 44.4841 7.2108C45.3543 6.96469 46.2373 6.84709 47.1374 6.85362C48.0332 6.86015 48.8544 6.97776 49.5924 7.2108C50.3303 7.43948 50.8081 7.72914 51.0193 8.07542C51.0257 8.08849 51.0065 8.09502 50.9638 8.08196C50.9638 8.08196 50.9446 8.07542 50.9148 8.06889L51.175 8.40864L51.0001 8.44566C51.0235 8.48269 51.0555 8.52625 51.0918 8.57634C51.1217 8.62643 51.1643 8.70701 51.2198 8.81155C51.2688 8.91609 51.2859 8.99014 51.2752 9.0337L51.0641 9.87437L50.8764 9.79379C50.5138 9.78072 50.0723 9.75676 49.5412 9.72627C49.0101 9.69578 48.6283 9.67618 48.3915 9.66965C48.1548 9.65658 47.8711 9.65658 47.5277 9.66965C47.1822 9.67618 46.8815 9.70667 46.602 9.76765C46.329 9.82428 46.0283 9.90921 45.7062 10.0138C45.3735 10.1248 45.0898 10.1118 44.8467 9.95713C44.612 9.81121 44.4478 9.58253 44.3582 9.28633ZM101.081 11.0199C101.255 10.8849 101.467 10.7738 101.716 10.6998C101.964 10.6192 102.237 10.5887 102.533 10.5953C102.823 10.6018 103.12 10.6998 103.429 10.8784C103.738 11.057 104.003 11.3292 104.233 11.6755C104.293 11.8737 104.299 12.1132 104.252 12.4094C104.21 12.7122 104.15 12.9713 104.084 13.1935C104.018 13.4156 103.945 13.6312 103.866 13.8294L103.757 14.1387C103.738 14.3369 103.54 14.4719 103.158 14.559C102.783 14.6461 102.409 14.6157 102.045 14.4719C101.622 13.8055 101.319 13.102 101.125 12.3615C100.931 11.6123 100.918 11.168 101.081 11.0199Z" fill="#FF6600"/>
</svg>
