<svg width="31" height="38" viewBox="0 0 31 38" fill="none" xmlns="http://www.w3.org/2000/svg">
<g clip-path="url(#clip0)">
<path d="M30.7815 31.7041L25.0368 21.9888C25.0625 21.698 25.1084 21.2287 25.1709 21.0704C25.3251 20.9453 25.9034 20.7042 26.1274 20.6122C27.0784 20.2165 28.3801 19.6736 28.806 18.3596C29.2228 17.0805 28.5343 15.9413 27.9799 15.0266C27.8311 14.7819 27.4897 14.215 27.4566 14.0255C27.4897 13.8341 27.833 13.2672 27.9817 13.0225C28.5343 12.1078 29.2228 10.9705 28.806 9.68956C28.3801 8.37553 27.0766 7.83446 26.1256 7.43694C25.9034 7.34492 25.3251 7.10384 25.1709 6.97869C25.0974 6.79097 25.0442 6.15604 25.024 5.90943C24.9395 4.88803 24.8257 3.4875 23.7223 2.68326C22.6262 1.8827 21.3245 2.1882 20.2762 2.43481C20.0063 2.49738 19.3784 2.64645 19.2059 2.62621C19.048 2.52315 18.6477 2.05386 18.4917 1.87166C17.8179 1.08214 16.8944 0 15.4991 0C14.1038 0 13.1803 1.08214 12.5065 1.87166C12.3541 2.05017 11.9594 2.51395 11.7978 2.62253C11.5958 2.63725 10.9881 2.49554 10.7219 2.43297C9.67545 2.1882 8.37376 1.8827 7.27586 2.68326C6.73242 3.07894 6.37441 3.6513 6.17796 4.43346C6.05495 4.92668 6.01273 5.42542 5.97417 5.90943C5.95398 6.1542 5.90257 6.78913 5.8273 6.97685C5.67308 7.102 5.09475 7.34308 4.8726 7.4351C3.92158 7.83078 2.61989 8.37369 2.19212 9.68772C1.77719 10.9668 2.46384 12.106 3.0183 13.0206C3.16517 13.2654 3.50849 13.8322 3.54154 14.0218C3.50849 14.2132 3.16517 14.78 3.01646 15.0248C2.46384 15.9395 1.77536 17.0768 2.19212 18.3577C2.61806 19.6699 3.92158 20.2128 4.8726 20.6103C5.09475 20.7023 5.67308 20.9434 5.8273 21.0686C5.88972 21.2269 5.93562 21.6961 5.96132 21.9869L0.216637 31.7041C-0.102818 32.2452 -0.0679353 32.9187 0.306598 33.423C0.681132 33.9273 1.31637 34.1536 1.92407 34.0027L5.71163 33.0549L6.70121 36.8406C6.8591 37.4479 7.36215 37.8969 7.98087 37.9834C8.05247 37.9945 8.12591 37.9982 8.19934 37.9982C8.74278 37.9982 9.25134 37.7074 9.53041 37.2399L15.0199 28.0031C15.3467 28.0638 15.6808 28.062 16.0058 27.9994L21.4696 37.2381C21.7468 37.7074 22.2572 38 22.8025 38C22.8741 38 22.9475 37.9945 23.0173 37.9853C23.6378 37.8988 24.1409 37.4497 24.3006 36.8406L25.2902 33.0549L29.0778 34.0027C29.6855 34.1555 30.3207 33.9273 30.6952 33.423C31.0661 32.9187 31.1028 32.2433 30.7815 31.7041ZM15.4991 24.8542C15.3779 24.742 15.1815 24.534 14.8602 24.1586L14.5113 24.4567L14.8602 24.1567C14.3039 23.5052 13.6741 22.7672 12.7635 22.4691C12.4587 22.3697 12.1338 22.32 11.7703 22.32C11.1571 22.32 10.5494 22.4617 10.0151 22.5887C9.63322 22.6789 9.34681 22.736 9.16138 22.7617C9.12833 22.574 9.09529 22.2795 9.06224 21.8802C8.99064 21.0115 8.90985 20.0269 8.3352 19.2356C7.76422 18.4497 6.86094 18.0743 6.0623 17.7412C5.69144 17.5866 5.41972 17.4633 5.25081 17.3731C5.33343 17.2056 5.47296 16.959 5.6694 16.6333C6.12656 15.8787 6.64246 15.023 6.64246 14.0218C6.64246 13.0206 6.12472 12.1667 5.6694 11.4103C5.47296 11.0846 5.33343 10.838 5.25081 10.6705C5.41972 10.5803 5.69144 10.457 6.06413 10.3024C6.86094 9.96929 7.76606 9.59386 8.33704 8.80802C8.91353 8.01666 8.99431 7.03206 9.06591 6.16157C9.09896 5.7622 9.132 5.46775 9.16505 5.28003C9.35232 5.30579 9.63689 5.36468 10.0206 5.45302C10.8706 5.65178 11.8327 5.87815 12.769 5.57265C13.6797 5.27451 14.3094 4.53652 14.8657 3.88503C15.1851 3.50959 15.3834 3.30163 15.5046 3.18936C15.6258 3.30163 15.8222 3.50959 16.1435 3.88503C16.6998 4.53652 17.3295 5.27451 18.2401 5.57265C19.1765 5.87815 20.1807 5.64258 20.9886 5.45302C21.3704 5.36284 21.655 5.30579 21.8423 5.28003C21.8753 5.46775 21.9084 5.7622 21.9414 6.16157C22.013 7.03022 22.0938 8.01482 22.6685 8.80618C23.2394 9.59202 24.1427 9.96745 24.9414 10.3006C25.3122 10.4552 25.5839 10.5785 25.7547 10.6686C25.6721 10.8361 25.5325 11.0827 25.3361 11.4085C24.9028 12.1262 24.363 13.0188 24.363 14.02C24.363 15.0211 24.9028 15.9137 25.3361 16.6314C25.5325 16.9572 25.6721 17.2038 25.7547 17.3713C25.5858 17.4614 25.3141 17.5848 24.9414 17.7393C24.1446 18.0725 23.2413 18.4479 22.6703 19.2337C22.0938 20.0269 22.013 21.0115 21.9414 21.8802C21.9084 22.2795 21.8753 22.574 21.8423 22.7617C21.655 22.736 21.3704 22.6771 20.9886 22.5887C20.1807 22.3992 19.1765 22.1636 18.2401 22.4691C17.3295 22.7672 16.6998 23.5052 16.1435 24.1567C15.8185 24.534 15.6202 24.742 15.4991 24.8542ZM7.48516 25.502C8.53532 26.1259 9.74154 25.8443 10.7219 25.6125C10.9937 25.5499 11.6179 25.4008 11.7923 25.4211C11.9484 25.5241 12.3431 25.9842 12.501 26.1701L8.75931 32.4678L8.31868 30.7839C8.13692 30.0901 7.50535 29.6245 6.81687 29.6245C6.69386 29.6245 6.56902 29.6392 6.44418 29.6705L4.77346 30.0882L7.48516 25.502ZM19.2022 25.4247C19.4023 25.4082 20.0118 25.5517 20.278 25.6143C21.2584 25.8443 22.4647 26.1278 23.5148 25.502L26.2265 30.0882L24.5521 29.6705C23.7333 29.4644 22.8924 29.9649 22.6776 30.7839L22.2407 32.4568L18.5119 26.1517C18.6771 25.9584 19.048 25.5296 19.2022 25.4247Z" fill="#FF6600"/>
<path d="M15.4993 6.30505C11.2527 6.30505 7.79932 9.76863 7.79932 14.0236C7.79932 18.2785 11.2527 21.7421 15.4993 21.7421C19.7458 21.7421 23.1993 18.2804 23.1993 14.0236C23.1993 9.76679 19.7458 6.30505 15.4993 6.30505ZM20.102 14.0236C20.102 16.567 18.0366 18.6374 15.4993 18.6374C12.962 18.6374 10.8966 16.5688 10.8966 14.0236C10.8966 11.4802 12.962 9.40976 15.4993 9.40976C18.0366 9.40976 20.102 11.4802 20.102 14.0236Z" fill="#FF6600"/>
</g>
<defs>
<clipPath id="clip0">
<rect width="31" height="38" fill="white"/>
</clipPath>
</defs>
</svg>
