<svg width="30" height="38" viewBox="0 0 30 38" fill="none" xmlns="http://www.w3.org/2000/svg">
<path d="M27.6655 32.0018C29.7631 26.114 29.7629 11.8856 27.6655 5.99837L28.2752 1.68413C28.335 1.26039 28.2084 0.831526 27.9277 0.50845C27.6471 0.185572 27.2403 0 26.8123 0H3.18873C2.76085 0 2.35405 0.185375 2.07333 0.50845C1.79281 0.831526 1.66594 1.26019 1.72563 1.68393L2.33416 5.99818C0.236922 11.8854 0.236922 26.1136 2.33416 32.0016L1.72484 36.3161C1.66496 36.7398 1.79182 37.1687 2.07235 37.4916C2.35307 37.8146 2.75987 38 3.18775 38H26.8109C26.8121 38 26.8134 38 26.8148 38C27.6308 38 28.2923 37.3385 28.2923 36.5225C28.2923 36.414 28.2805 36.3082 28.2584 36.2063L27.6655 32.0018ZM4.90576 30.3595C3.31934 24.9873 3.31934 13.0121 4.90576 7.64054H25.0944C26.6811 13.0123 26.6811 24.9875 25.0944 30.3595H4.90576ZM25.1114 2.95496L24.8667 4.68558H5.13349L4.88941 2.95496H25.1114ZM4.88882 35.045L5.13329 33.3144H24.8665L25.1106 35.045H4.88882Z" fill="#FF6600"/>
<path d="M15 17.3102C12.7775 17.3102 10.9692 19.1182 10.9692 21.3407C10.9692 23.5633 12.7775 25.3713 15 25.3713C17.2223 25.3713 19.0304 23.5633 19.0304 21.3407C19.0304 19.1182 17.2225 17.3102 15 17.3102Z" fill="#FF6600"/>
<path d="M12.6104 16.0374C13.5501 16.0374 14.3145 15.2728 14.3145 14.3331C14.3145 13.3935 13.5501 12.6289 12.6104 12.6289C11.6706 12.6289 10.906 13.3935 10.906 14.3331C10.906 15.2728 11.6706 16.0374 12.6104 16.0374Z" fill="#FF6600"/>
<path d="M17.3898 12.6288C16.4501 12.6288 15.6858 13.3933 15.6858 14.333C15.6858 15.2727 16.4501 16.0372 17.3898 16.0372C18.3297 16.0372 19.0942 15.2727 19.0942 14.333C19.0942 13.3933 18.3297 12.6288 17.3898 12.6288Z" fill="#FF6600"/>
<path d="M9.16818 16.1252C8.31696 16.1252 7.62451 16.8177 7.62451 17.6689C7.62451 18.5201 8.31696 19.2126 9.16818 19.2126C10.0194 19.2126 10.7119 18.5201 10.7119 17.6689C10.7119 16.8177 10.0194 16.1252 9.16818 16.1252Z" fill="#FF6600"/>
<path d="M20.8322 16.1252C19.981 16.1252 19.2886 16.8177 19.2886 17.6689C19.2886 18.5201 19.981 19.2126 20.8322 19.2126C21.6835 19.2126 22.3759 18.5201 22.3759 17.6689C22.3759 16.8177 21.6835 16.1252 20.8322 16.1252Z" fill="#FF6600"/>
</svg>
