<svg width="103" height="105" viewBox="0 0 103 105" fill="none" xmlns="http://www.w3.org/2000/svg">
<path fill-rule="evenodd" clip-rule="evenodd" d="M79.7741 73.3834C76.0168 79.2591 71.2019 84.8025 64.11 85.4873C57.4938 86.1262 47.7952 80.1755 41.3663 78.1499C34.5877 76.0141 24.035 80.0785 18.5425 75.5194C12.4084 70.4278 12.8899 65.3424 12.6015 57.5692C12.3094 49.6984 16.1507 38.474 21.6582 33.0031C26.7371 27.958 34.0787 25.8969 41.3663 25.294C47.644 24.7748 52.9033 29.3143 59.1262 30.6636C66.6922 32.3043 81.8964 24.7015 86.8939 30.6637C91.8312 36.554 87.325 50.0929 86.8939 57.5692C86.499 64.4192 83.428 67.6693 79.7741 73.3834Z" fill="#F0F4F8"/>
</svg>
