<svg width="34" height="47" viewBox="0 0 34 47" fill="none" xmlns="http://www.w3.org/2000/svg">
<g clip-path="url(#clip0)">
<path d="M29.4831 41.483L16.5757 46.5169C12.9365 47.9352 8.82419 46.1191 7.41125 42.466L0.242758 23.9468C-0.0892129 23.1283 -0.0788388 22.1911 0.267655 21.3726L5.53354 8.97435C6.07921 7.69142 7.09172 6.70631 8.38848 6.20021C9.68317 5.69412 11.094 5.73577 12.3597 6.31268L24.5347 11.8714C25.3833 12.2588 26.0389 12.9544 26.3771 13.827L33.5207 32.2838C34.9337 35.9368 33.1224 40.0647 29.4831 41.483ZM3.76579 22.6951L10.8907 41.1081C11.5588 42.8347 13.5008 43.6927 15.2209 43.0221L28.1283 37.9883C29.8483 37.3176 30.7031 35.3682 30.035 33.6417L22.9184 15.2537L10.8098 9.7262C10.4674 9.57 10.0878 9.55959 9.73711 9.69496C9.38647 9.83242 9.11259 10.0969 8.96736 10.4447L3.76579 22.6951ZM22.9869 15.2849C22.9869 15.2849 22.989 15.2849 22.9869 15.2849V15.2849ZM3.70148 22.5347L3.70355 22.541C3.70355 22.5389 3.70355 22.5368 3.70148 22.5347Z" fill="#FF6600"/>
<path d="M16.4802 27.1144C13.2269 28.3828 9.55444 26.7583 8.29088 23.4926C7.02732 20.227 8.64567 16.5406 11.899 15.2722C15.1523 14.0039 18.8247 15.6284 20.0883 18.894C21.3498 22.1576 19.7314 25.8461 16.4802 27.1144ZM13.2497 18.767C11.9177 19.2877 11.2537 20.7976 11.7703 22.1368C12.289 23.4739 13.7933 24.1403 15.1274 23.6217C16.4594 23.1011 17.1234 21.5911 16.6067 20.252C16.088 18.9128 14.5817 18.2463 13.2497 18.767Z" fill="#FF6600"/>
<path d="M12.6543 17.2113C11.6937 17.5862 10.6106 17.1072 10.2372 16.1429L4.9775 2.55336C4.60404 1.58908 5.08124 0.501917 6.04188 0.127033C7.00252 -0.247851 8.08558 0.231167 8.45904 1.19545L13.7187 14.785C14.0922 15.7514 13.615 16.8364 12.6543 17.2113Z" fill="#FF6600"/>
</g>
<defs>
<clipPath id="clip0">
<rect width="34" height="47" fill="white"/>
</clipPath>
</defs>
</svg>
