<svg width="13" height="21" viewBox="0 0 13 21" fill="none" xmlns="http://www.w3.org/2000/svg">
<path d="M11.749 0.0043694L9.02581 0C5.96639 0 3.98925 2.02849 3.98925 5.16813V7.55098H1.2512C1.01459 7.55098 0.822998 7.7428 0.822998 7.9794V11.4319C0.822998 11.6685 1.01481 11.8601 1.2512 11.8601H3.98925V20.5718C3.98925 20.8084 4.18085 21 4.41745 21H7.98984C8.22644 21 8.41803 20.8082 8.41803 20.5718V11.8601H11.6195C11.8561 11.8601 12.0477 11.6685 12.0477 11.4319L12.049 7.9794C12.049 7.8658 12.0037 7.757 11.9236 7.6766C11.8434 7.5962 11.7342 7.55098 11.6206 7.55098H8.41803V5.53101C8.41803 4.56013 8.64939 4.06726 9.9141 4.06726L11.7486 4.0666C11.985 4.0666 12.1766 3.87479 12.1766 3.6384V0.432571C12.1766 0.196405 11.9852 0.00480634 11.749 0.0043694Z" fill="white"/>
</svg>
