<svg width="73" height="66" viewBox="0 0 73 66" fill="none" xmlns="http://www.w3.org/2000/svg">
<path fill-rule="evenodd" clip-rule="evenodd" d="M56.5 43.5C53.8614 47.6262 50.4801 51.5191 45.4999 52C40.8536 52.4486 34.0427 48.2697 29.5281 46.8472C24.7678 45.3474 17.3571 48.2016 13.5 45C9.19233 41.4244 9.53044 37.8532 9.3279 32.3944C9.12282 26.8671 11.8204 18.9848 15.688 15.1428C19.2547 11.5999 24.4103 10.1525 29.5281 9.72914C33.9366 9.36447 37.6299 12.5523 42 13.4999C47.3132 14.6521 57.9904 9.31304 61.4999 13.5C64.9671 17.6365 61.8026 27.1442 61.4999 32.3944C61.2225 37.2049 59.0659 39.4872 56.5 43.5Z" fill="#F0F4F8"/>
<path d="M11.5126 20.6532C10.6999 23.0241 8.01718 24.2523 5.52055 23.3965C4.36276 22.9996 2.85065 22.3304 2.28389 21.3765C1.62851 20.2734 2.03571 18.8255 2.47153 17.5541C3.28421 15.1832 5.07819 13.2728 7.57481 14.1286C8.7326 14.5255 9.87002 16.2878 10.4368 17.2417C11.0922 18.3448 11.9484 19.3818 11.5126 20.6532Z" fill="#F0F4F8"/>
<path d="M5.04598 33.949C3.7027 34.3721 2.25252 33.5685 1.8069 32.154C1.60025 31.498 1.39862 30.5909 1.64101 30.0165C1.9213 29.3522 2.71192 29.0535 3.43227 28.8265C4.77555 28.4034 6.23785 28.5775 6.68346 29.9921C6.89012 30.648 6.47242 31.7502 6.23003 32.3247C5.94975 32.9889 5.76633 33.722 5.04598 33.949Z" fill="#F0F4F8"/>
</svg>
