<svg width="17" height="17" viewBox="0 0 17 17" fill="none" xmlns="http://www.w3.org/2000/svg">
<g clip-path="url(#clip0)">
<path d="M11.2416 17C9.62556 17 8.01627 16.3809 6.80426 15.1696L1.83193 10.1968C-0.377904 7.98676 -0.615602 4.45706 1.27254 1.97401C1.3263 1.89589 1.45564 1.73041 1.81513 1.34821C1.82101 1.34233 1.82689 1.33561 1.83277 1.32973L2.42911 0.733323C2.90199 0.260401 3.53109 0 4.19967 0C4.86824 0 5.49734 0.260401 5.97022 0.733323L7.00164 1.76485C7.47452 2.23777 7.73489 2.86693 7.73489 3.53558C7.73489 4.20422 7.47452 4.83338 7.00164 5.3063L6.85634 5.45163C6.85214 5.45583 6.84878 5.46003 6.84458 5.46423C6.20708 6.10599 6.20876 7.14843 6.84878 7.78852L9.33158 10.2716C9.9716 10.9117 11.0139 10.9133 11.6556 10.2758C11.6598 10.2716 11.664 10.2682 11.6674 10.264L11.8127 10.1187C12.7895 9.14176 14.3778 9.14176 15.3547 10.1187L16.2677 11.0318C16.7405 11.5047 17.0009 12.1339 17.0009 12.8025C17.0009 13.4711 16.7405 14.1003 16.2677 14.5732C16.1207 14.7202 15.3698 15.467 15.0514 15.7114C13.9251 16.5758 12.5812 17 11.2416 17ZM2.65757 2.92489C2.64665 2.94169 2.63489 2.95765 2.62313 2.97277C1.22635 4.79054 1.39685 7.38531 3.02042 9.00904L7.99275 13.9819C9.61464 15.6039 12.21 15.7744 14.0293 14.3783C14.1998 14.2473 14.7466 13.7189 15.08 13.3855C15.2354 13.2301 15.3219 13.0226 15.3219 12.8025C15.3219 12.5824 15.2362 12.3749 15.08 12.2195L14.167 11.3065C13.8453 10.9847 13.322 10.9847 13.0012 11.3065L12.8416 11.4661C12.8357 11.4719 12.8299 11.4778 12.8231 11.4837C11.5255 12.7563 9.43069 12.7471 8.14394 11.4602L5.66113 8.97712C4.37353 7.6894 4.36513 5.59527 5.63677 4.29746C5.64265 4.29158 5.64853 4.28486 5.65441 4.27898L5.81399 4.11938C5.96938 3.96398 6.05589 3.7565 6.05589 3.53642C6.05589 3.31634 5.97022 3.10885 5.81399 2.95345L4.78257 1.92193C4.62719 1.76569 4.41973 1.68001 4.19967 1.68001C3.97961 1.68001 3.77215 1.76569 3.61676 1.92193L3.02966 2.50909C2.87343 2.67541 2.70545 2.86273 2.65757 2.92489ZM2.67353 2.89969C2.67017 2.90557 2.66597 2.91145 2.66261 2.91733C2.66681 2.91061 2.67017 2.90473 2.67353 2.89969Z" fill="white"/>
<path d="M5.38649 6.3361C5.17735 6.3361 4.96821 6.25882 4.80527 6.10257L1.95458 3.37088C1.61945 3.05 1.60853 2.51828 1.92938 2.18312C2.25023 1.84796 2.7819 1.83704 3.11703 2.15792L5.96772 4.89045C6.30285 5.21133 6.31377 5.74305 5.99292 6.07821C5.82829 6.24958 5.60739 6.3361 5.38649 6.3361Z" fill="white"/>
<path d="M14.2954 15.2461C14.0863 15.2461 13.8772 15.1688 13.7142 15.0126L10.8635 12.2801C10.5284 11.9592 10.5175 11.4275 10.8383 11.0923C11.1592 10.7571 11.6908 10.7462 12.026 11.0671L14.8767 13.7996C15.2118 14.1205 15.2227 14.6522 14.9019 14.9874C14.7364 15.1596 14.5163 15.2461 14.2954 15.2461Z" fill="white"/>
</g>
<defs>
<clipPath id="clip0">
<rect width="17" height="17" fill="white"/>
</clipPath>
</defs>
</svg>
