<svg width="26" height="27" viewBox="0 0 26 27" fill="none" xmlns="http://www.w3.org/2000/svg">
<path d="M25.8312 20.2073L25.8316 20.2056L22.1781 11.8567H24.8181C25.4708 11.8567 25.9999 11.305 25.9999 10.6246C25.9999 9.94414 25.4708 9.39248 24.8181 9.39248H14.1818V1.23211C14.1818 0.551655 13.6527 0 13 0C12.3473 0 11.8182 0.551655 11.8182 1.23211V9.39248H1.18182C0.529139 9.39248 0 9.94414 0 10.6246C0 11.305 0.529139 11.8567 1.18182 11.8567H3.82184L0.16837 20.2056L0.168764 20.2073C0.0623212 20.3923 0 20.608 0 20.8395C0 24.2364 2.65082 27 5.90909 27C9.16736 27 11.8182 24.2364 11.8182 20.8395C11.8182 20.6081 11.7559 20.3923 11.6493 20.2073L11.6497 20.2056L7.99626 11.8567H18.0036L14.3501 20.2056L14.3505 20.2073C14.2441 20.3923 14.1817 20.6081 14.1817 20.8395C14.1817 24.2364 16.8326 27 20.0909 27C23.3491 27 26 24.2364 26 20.8395C26 20.608 25.9377 20.3923 25.8312 20.2073ZM5.90909 13.0196L8.54912 19.6074H3.26907L5.90909 13.0196ZM5.90909 24.5358C4.36832 24.5358 3.0539 23.5058 2.56612 22.0716H9.25198C8.76429 23.5058 7.44987 24.5358 5.90909 24.5358ZM22.7309 19.6074H17.4508L20.0909 13.0196L22.7309 19.6074ZM20.0909 24.5358C18.5501 24.5358 17.2357 23.5058 16.7479 22.0716H23.4339C22.946 23.5058 21.6317 24.5358 20.0909 24.5358Z" fill="#FF6600"/>
</svg>
