<svg xmlns="http://www.w3.org/2000/svg" width="32.5" height="32.5" viewBox="0 0 32.5 32.5">
  <path id="phone-square-alt" d="M29.018,2.25H3.482A3.482,3.482,0,0,0,0,5.732V31.268A3.482,3.482,0,0,0,3.482,34.75H29.018A3.482,3.482,0,0,0,32.5,31.268V5.732A3.482,3.482,0,0,0,29.018,2.25Zm-1.189,22.3-1.088,4.715a1.088,1.088,0,0,1-1.06.844A21.04,21.04,0,0,1,4.643,9.069a1.139,1.139,0,0,1,.844-1.06L10.2,6.921a1.323,1.323,0,0,1,.245-.028,1.18,1.18,0,0,1,1,.659l2.176,5.078a1.3,1.3,0,0,1,.088.429,1.233,1.233,0,0,1-.4.842l-2.749,2.249A16.824,16.824,0,0,0,18.6,24.187l2.249-2.749a1.233,1.233,0,0,1,.842-.4,1.3,1.3,0,0,1,.429.088L27.2,23.3a1.179,1.179,0,0,1,.659,1A1.263,1.263,0,0,1,27.829,24.548Z" transform="translate(0 -2.25)" fill="#4c4c4c"/>
</svg>
