<svg xmlns="http://www.w3.org/2000/svg" width="23" height="23" viewBox="0 0 23 23">
  <path id="twitter-square" d="M20.536,2.25H2.464A2.465,2.465,0,0,0,0,4.714V22.786A2.465,2.465,0,0,0,2.464,25.25H20.536A2.465,2.465,0,0,0,23,22.786V4.714A2.465,2.465,0,0,0,20.536,2.25ZM18.025,10.4c.01.144.01.293.01.437a9.515,9.515,0,0,1-9.58,9.58,9.533,9.533,0,0,1-5.17-1.509,7.126,7.126,0,0,0,.811.041,6.747,6.747,0,0,0,4.179-1.438,3.371,3.371,0,0,1-3.147-2.336,3.644,3.644,0,0,0,1.519-.061,3.367,3.367,0,0,1-2.7-3.306v-.041a3.37,3.37,0,0,0,1.519.426,3.36,3.36,0,0,1-1.5-2.8,3.322,3.322,0,0,1,.457-1.7,9.559,9.559,0,0,0,6.941,3.522,3.374,3.374,0,0,1,5.745-3.075,6.6,6.6,0,0,0,2.136-.811,3.358,3.358,0,0,1-1.479,1.853,6.708,6.708,0,0,0,1.941-.524A7.093,7.093,0,0,1,18.026,10.4Z" transform="translate(0 -2.25)" fill="#6f6f6f"/>
</svg>
