<svg xmlns="http://www.w3.org/2000/svg" width="45" height="51" viewBox="0 0 45 51">
  <metadata><?xpacket begin="﻿" id="W5M0MpCehiHzreSzNTczkc9d"?>
<x:xmpmeta xmlns:x="adobe:ns:meta/" x:xmptk="Adobe XMP Core 5.6-c142 79.160924, 2017/07/13-01:06:39        ">
   <rdf:RDF xmlns:rdf="http://www.w3.org/1999/02/22-rdf-syntax-ns#">
      <rdf:Description rdf:about=""/>
   </rdf:RDF>
</x:xmpmeta>
                                                                                                    
                                                                                                    
                                                                                                    
                                                                                                    
                                                                                                    
                                                                                                    
                                                                                                    
                                                                                                    
                                                                                                    
                                                                                                    
                                                                                                    
                                                                                                    
                                                                                                    
                                                                                                    
                                                                                                    
                                                                                                    
                                                                                                    
                                                                                                    
                                                                                                    
                                                                                                    
                           
<?xpacket end="w"?></metadata>
<defs>
    <style>
      .cls-1 {
        fill: #005bac;
        fill-rule: evenodd;
      }
    </style>
  </defs>
  <path class="cls-1" d="M1082.84,3282.16H1057.7a4.526,4.526,0,0,1-4.49-4.54v-38.24a4.528,4.528,0,0,1,4.49-4.55h16.2a0.915,0.915,0,0,0,0-1.83h-16.2a6.349,6.349,0,0,0-6.3,6.38v38.24a6.349,6.349,0,0,0,6.3,6.38h25.14A0.92,0.92,0,0,0,1082.84,3282.16Zm7.89-37.97-10.79-10.92a0.909,0.909,0,0,0-.64-0.27h-16.2a6.349,6.349,0,0,0-6.3,6.38v38.24a6.342,6.342,0,0,0,6.3,6.38h19.74a0.92,0.92,0,0,0,0-1.84H1063.1a4.526,4.526,0,0,1-4.49-4.54v-38.24a4.528,4.528,0,0,1,4.49-4.55h15.82l10.27,10.39v30.53a0.905,0.905,0,1,0,1.81,0v-30.91A0.951,0.951,0,0,0,1090.73,3244.19Zm-0.64-.26h-5.4a4.528,4.528,0,0,1-4.49-4.55v-5.46a0.905,0.905,0,1,0-1.81,0v5.46a6.349,6.349,0,0,0,6.3,6.38h5.4A0.915,0.915,0,0,0,1090.09,3243.93Zm-16.19-5.47h-10.8a0.92,0.92,0,0,0,0,1.84h10.8A0.92,0.92,0,0,0,1073.9,3238.46Zm10.79,10.93H1063.1a0.915,0.915,0,0,0,0,1.83h21.59A0.915,0.915,0,0,0,1084.69,3249.39Zm0,5.46H1063.1a0.92,0.92,0,0,0,0,1.84h21.59A0.92,0.92,0,0,0,1084.69,3254.85Zm0,5.46H1063.1a0.92,0.92,0,0,0,0,1.84h21.59A0.92,0.92,0,0,0,1084.69,3260.31Zm-16.19,21.85h-16.19a4.528,4.528,0,0,1-4.5-4.54v-38.24a4.53,4.53,0,0,1,4.5-4.55h16.19a0.915,0.915,0,0,0,0-1.83h-16.19a6.351,6.351,0,0,0-6.31,6.38v38.24a6.351,6.351,0,0,0,6.31,6.38h16.19A0.92,0.92,0,0,0,1068.5,3282.16Z" transform="translate(-1046 -3233)"/>
</svg>
