<svg xmlns="http://www.w3.org/2000/svg" width="48" height="48" viewBox="0 0 48 48">
  <metadata><?xpacket begin="﻿" id="W5M0MpCehiHzreSzNTczkc9d"?>
<x:xmpmeta xmlns:x="adobe:ns:meta/" x:xmptk="Adobe XMP Core 5.6-c142 79.160924, 2017/07/13-01:06:39        ">
   <rdf:RDF xmlns:rdf="http://www.w3.org/1999/02/22-rdf-syntax-ns#">
      <rdf:Description rdf:about=""/>
   </rdf:RDF>
</x:xmpmeta>
                                                                                                    
                                                                                                    
                                                                                                    
                                                                                                    
                                                                                                    
                                                                                                    
                                                                                                    
                                                                                                    
                                                                                                    
                                                                                                    
                                                                                                    
                                                                                                    
                                                                                                    
                                                                                                    
                                                                                                    
                                                                                                    
                                                                                                    
                                                                                                    
                                                                                                    
                                                                                                    
                           
<?xpacket end="w"?></metadata>
<defs>
    <style>
      .cls-1 {
        fill: #005bac;
        fill-rule: evenodd;
      }
    </style>
  </defs>
  <path class="cls-1" d="M421.425,3998H390.787a3.535,3.535,0,0,0-3.574,3.57v5.16a3.537,3.537,0,0,0,3.574,3.58c2.452,0,6.334-.02,10.216-0.03s7.76-.03,10.21-0.03a1.538,1.538,0,0,1,1.532,1.54v30.63a1.522,1.522,0,0,1-1.532,1.54H380.574a1.522,1.522,0,0,1-1.531-1.54v-30.63a1.522,1.522,0,0,1,1.531-1.54h2.554a1.02,1.02,0,1,0,0-2.04h-2.554a3.537,3.537,0,0,0-3.574,3.58v30.63a3.537,3.537,0,0,0,3.574,3.58h30.639a3.537,3.537,0,0,0,3.574-3.58v-30.63a3.584,3.584,0,0,0-3.574-3.58c-2.452,0-6.334.01-10.216,0.03s-7.76.02-10.21,0.02a1.513,1.513,0,0,1-1.532-1.53v-5.16a1.52,1.52,0,0,1,1.532-1.53h30.638a1.519,1.519,0,0,1,1.532,1.53v30.64a1.513,1.513,0,0,1-1.532,1.53h-2.553a1.025,1.025,0,0,0,0,2.05h2.553a3.538,3.538,0,0,0,3.575-3.58v-30.64A3.535,3.535,0,0,0,421.425,3998ZM408.7,4034.58H385.168a1.513,1.513,0,0,1-1.532-1.53,1.021,1.021,0,0,0-2.042,0,3.535,3.535,0,0,0,3.574,3.57H408.7A1.02,1.02,0,1,0,408.7,4034.58Zm-2.553-7.66H385.168a1.02,1.02,0,1,0,0,2.04h20.976A1.02,1.02,0,1,0,406.144,4026.92Zm0-7.66H382.615a1.025,1.025,0,0,0,0,2.05h23.529a1.513,1.513,0,0,1,1.532,1.53,1.022,1.022,0,0,0,2.043,0A3.538,3.538,0,0,0,406.144,4019.26Z" transform="translate(-377 -3998)"/>
</svg>
