<svg width="32" height="32" xmlns="http://www.w3.org/2000/svg">

 <g>
  <title>background</title>
  <rect fill="none" id="canvas_background" height="402" width="582" y="-1" x="-1"/>
 </g>
 <g>
  <title>Layer 1</title>
  <path fill="#179cff" id="svg_2" d="m23,9c-2.8,0 -5,2.2 -5,5s2.2,5 5,5c0.3,0 0.7,0 1,-0.1c-1.3,1.3 -3,2.1 -5,2.1c-0.6,0 -1,0.4 -1,1s0.4,1 1,1c5,0 9,-4 9,-9c0,-2.8 -2.2,-5 -5,-5z"/>
  <path fill="#179cff" id="svg_3" d="m9,9c-2.8,0 -5,2.2 -5,5s2.2,5 5,5c0.3,0 0.7,0 1,-0.1c-1.3,1.3 -3,2.1 -5,2.1c-0.6,0 -1,0.4 -1,1s0.4,1 1,1c5,0 9,-4 9,-9c0,-2.8 -2.2,-5 -5,-5z"/>
 </g>
</svg>