<svg width="14" height="14" viewBox="0 0 14 14" fill="none" xmlns="http://www.w3.org/2000/svg">
<path d="M7 0.21875C3.25391 0.21875 0.21875 3.25391 0.21875 7C0.21875 10.7461 3.25391 13.7812 7 13.7812C10.7461 13.7812 13.7812 10.7461 13.7812 7C13.7812 3.25391 10.7461 0.21875 7 0.21875ZM8.56133 9.7918L6.14961 8.03906C6.06484 7.97617 6.01562 7.87773 6.01562 7.77383V3.17188C6.01562 2.99141 6.16328 2.84375 6.34375 2.84375H7.65625C7.83672 2.84375 7.98438 2.99141 7.98438 3.17188V6.93711L9.7207 8.20039C9.86836 8.30703 9.89844 8.51211 9.7918 8.65977L9.0207 9.7207C8.91406 9.86563 8.70898 9.89844 8.56133 9.7918Z" fill="white"/>
</svg>
