<svg width="64" height="64" viewBox="0 0 64 64" fill="none" xmlns="http://www.w3.org/2000/svg">
<g clip-path="url(#clip0)">
<path d="M51.9612 15.5939H43.0605C42.3702 15.5939 41.8105 16.1535 41.8105 16.8439V22.9559C41.8105 23.6463 42.3703 24.2059 43.0605 24.2059H51.9612C52.6515 24.2059 53.2112 23.6463 53.2112 22.9559V16.8439C53.2112 16.1535 52.6515 15.5939 51.9612 15.5939ZM50.7112 21.7059H44.3107V18.0939H50.7112V21.7059Z" fill="#6C73E1"/>
<path d="M36.4488 15.5939H27.5483C26.858 15.5939 26.2983 16.1535 26.2983 16.8439V22.9559C26.2983 23.6463 26.8581 24.2059 27.5483 24.2059H36.4488C37.1392 24.2059 37.6988 23.6463 37.6988 22.9559V16.8439C37.6988 16.1535 37.1392 15.5939 36.4488 15.5939ZM35.1988 21.7059H28.7985V18.0939H35.1988V21.7059Z" fill="#6C73E1"/>
<path d="M20.9398 15.5939H12.0356C11.3453 15.5939 10.7856 16.1535 10.7856 16.8439V22.9559C10.7856 23.6463 11.3454 24.2059 12.0356 24.2059H20.9398C21.6301 24.2059 22.1898 23.6463 22.1898 22.9559V16.8439C22.1899 16.1535 21.6301 15.5939 20.9398 15.5939ZM19.6898 21.7059H13.2856V18.0939H19.6898V21.7059Z" fill="#6C73E1"/>
<path d="M63.9681 15.7731C63.9665 15.2914 63.6881 14.8533 63.2525 14.6473L32.5326 0.12C32.1943 -0.04 31.8021 -0.04 31.4638 0.12L0.747507 14.6473C0.312007 14.8533 0.0335072 15.2912 0.0318822 15.7731L7.17292e-06 25.4285C-0.00111783 25.7607 0.130132 26.0798 0.364632 26.3151C0.599257 26.5504 0.917757 26.6826 1.25001 26.6826H4.97101V62.75C4.97101 63.4404 5.53076 64 6.22101 64H57.7788C58.4691 64 59.0288 63.4404 59.0288 62.75V26.6826H62.75C63.0823 26.6826 63.4008 26.5504 63.6354 26.3151C63.8699 26.0798 64.0011 25.7607 64 25.4285L63.9681 15.7731ZM43.1035 61.5H39.6296V58.0261H43.1035V61.5ZM49.0774 55.5261H45.6035V52.0521H49.0774V55.5261ZM49.0774 37.8525H14.9226V35.3565H49.0774V37.8525ZM49.0774 40.3525V49.5522H44.3535C43.6631 49.5522 43.1035 50.1119 43.1035 50.8022V55.5262H38.3796C37.6893 55.5262 37.1296 56.0859 37.1296 56.7762V61.5H32.8445V56.7761C32.8445 56.0858 32.2848 55.5261 31.5945 55.5261H26.8706V50.8021C26.8706 50.1117 26.3109 49.5521 25.6206 49.5521H20.8968V44.8283C20.8968 44.1379 20.337 43.5783 19.6468 43.5783H14.9229V40.3525H49.0774ZM18.3965 49.5522H14.9226V46.0784H18.3965V49.5522ZM14.9226 52.0522H18.3965V55.5262H14.9226V52.0522ZM20.8966 52.0522H24.3705V55.5262H20.8966V52.0522ZM24.3704 58.0261V61.5H20.8965V58.0261H24.3704ZM26.8705 58.0261H30.3444V61.5H26.8705V58.0261ZM14.9226 58.0261H18.3965V61.5H14.9226V58.0261ZM45.6035 61.5V58.0261H49.0774V61.5H45.6035ZM57.7789 24.1826C57.0885 24.1826 56.5289 24.7423 56.5289 25.4326V61.5H51.5775V30.357H52.6696C53.36 30.357 53.9196 29.7974 53.9196 29.107C53.9196 28.4166 53.3599 27.857 52.6696 27.857H37.6109C36.9205 27.857 36.3609 28.4166 36.3609 29.107C36.3609 29.7974 36.9206 30.357 37.6109 30.357H49.0775V32.8565H14.9226V30.357H26.3858C27.0761 30.357 27.6358 29.7974 27.6358 29.107C27.6358 28.4166 27.076 27.857 26.3858 27.857H11.327C10.6366 27.857 10.077 28.4166 10.077 29.107C10.077 29.7974 10.6368 30.357 11.327 30.357H12.4226V61.5H7.47113V25.4326C7.47113 24.7423 6.91138 24.1826 6.22113 24.1826H2.50426L2.52938 16.5701L31.9981 2.63275L61.4706 16.5701L61.4958 24.1826H57.7789Z" fill="#6C73E1"/>
<path d="M31.998 27.857C31.3077 27.857 30.748 28.4166 30.748 29.107C30.748 29.7974 31.3078 30.357 31.998 30.357H32.0053C32.6957 30.357 33.2518 29.7974 33.2518 29.107C33.2518 28.4166 32.6884 27.857 31.998 27.857Z" fill="#6C73E1"/>
</g>
<defs>
<clipPath id="clip0">
<rect width="64" height="64" fill="white"/>
</clipPath>
</defs>
</svg>
