<svg width="69" height="69" viewBox="0 0 69 69" fill="none" xmlns="http://www.w3.org/2000/svg">
<path d="M67.9893 53.4748H66.8394V39.3614C66.8394 38.8032 66.3869 38.3507 65.8287 38.3507H64.6789V26.3978C64.6789 25.8396 64.2263 25.387 63.6681 25.387H51.7152V11.2736C51.7152 10.7154 51.2627 10.2628 50.7045 10.2628H46.3834C45.8252 10.2628 45.3726 10.7154 45.3726 11.2736V46.9929H45.1411C43.2422 28.1772 36.121 14.9612 33.1106 10.1026C32.3344 8.85008 30.9859 8.10226 29.5032 8.10226H7.49256C5.74385 8.10226 4.32126 9.52499 4.32126 11.2736V36.19H2.09102C0.937969 36.1901 0 37.1281 0 38.2811V55.5659C0 56.719 0.937969 57.6569 2.09102 57.6569H4.74887C5.56353 59.5605 7.45496 60.8978 9.65313 60.8978C11.8513 60.8978 13.7427 59.5605 14.5574 57.6569H41.479C42.2936 59.5605 44.1851 60.8978 46.3832 60.8978C49.3233 60.8978 51.7151 58.5058 51.7151 55.5659V55.4964H67.9893C68.5475 55.4964 69 55.0438 69 54.4856C69 53.9274 68.5475 53.4748 67.9893 53.4748ZM6.34261 11.2736C6.34261 10.6395 6.85849 10.1237 7.49243 10.1237H8.64225V11.2733C8.64225 11.8315 9.09479 12.284 9.65299 12.284C10.2112 12.284 10.6637 11.8315 10.6637 11.2733V10.1237H29.5032C30.281 10.1237 30.9873 10.5139 31.3922 11.1674C32.6924 13.2659 35.2349 17.7325 37.653 24.0684C39.8166 29.7371 41.3989 35.6083 42.3838 41.5917H41.6234L34.9997 29.1595L36.4812 28.3703C36.9739 28.1078 37.1605 27.4957 36.898 27.003C36.6355 26.5102 36.0233 26.3235 35.5307 26.5862L30.7837 29.1152C30.291 29.3777 30.1043 29.9898 30.3669 30.4825C30.5487 30.8239 30.8983 31.0182 31.2597 31.0182C31.4201 31.0182 31.5827 30.9799 31.7341 30.8994L33.2155 30.11L39.3328 41.5918H30.1089V36.1207C30.1089 33.7763 28.2017 31.869 25.8573 31.869H19.306V26.3979C19.306 24.6492 17.8833 23.2266 16.1345 23.2266C14.3858 23.2266 12.9632 24.6493 12.9632 26.3979V36.1902H10.6639V15.5948C10.6639 15.0366 10.2113 14.5841 9.65313 14.5841C9.09493 14.5841 8.64238 15.0366 8.64238 15.5948V36.1901H6.34261V11.2736ZM23.6971 36.1901H14.985V26.3978C14.985 25.7637 15.5009 25.248 16.1348 25.248C16.7689 25.248 17.2848 25.7638 17.2848 26.3978V32.8796C17.2848 33.4378 17.7373 33.8903 18.2955 33.8903H25.8576C27.0874 33.8903 28.0877 34.8908 28.0877 36.1206V41.5917H25.7881V41.5915V38.2811C25.7881 37.1281 24.8501 36.1901 23.6971 36.1901ZM2.02148 38.2811C2.02148 38.2427 2.05262 38.2116 2.09102 38.2116H23.6971C23.7355 38.2116 23.7666 38.2427 23.7666 38.2811V46.9931H2.02148V38.2811ZM9.65313 58.8763C7.82773 58.8763 6.34274 57.3912 6.34274 55.5659C6.34274 53.7406 7.82786 52.2555 9.65313 52.2555C11.4784 52.2555 12.9635 53.7406 12.9635 55.5659C12.9635 57.3912 11.4785 58.8763 9.65313 58.8763ZM41.0514 55.5659C41.0514 55.5892 41.0528 55.6123 41.0531 55.6354H14.9832C14.9835 55.6121 14.985 55.5892 14.985 55.5659C14.985 52.6259 12.593 50.234 9.65313 50.234C6.71321 50.234 4.32126 52.626 4.32126 55.5659C4.32126 55.5892 4.32274 55.6123 4.32301 55.6354H2.09102C2.05262 55.6354 2.02148 55.6043 2.02148 55.5659V49.0145H37.7406C38.2988 49.0145 38.7513 48.562 38.7513 48.0038C38.7513 47.4456 38.2988 46.9931 37.7406 46.9931H25.7881V43.613H42.6946C42.8534 44.7361 42.9896 45.8632 43.1063 46.9931H42.0622C41.504 46.9931 41.0515 47.4456 41.0515 48.0038C41.0515 48.562 41.504 49.0145 42.0622 49.0145H45.3725V50.3313C42.9144 50.8052 41.0514 52.9715 41.0514 55.5659ZM46.3832 58.8763C44.5578 58.8763 43.0728 57.3912 43.0728 55.5659C43.0728 53.7406 44.558 52.2555 46.3832 52.2555C48.2085 52.2555 49.6936 53.7406 49.6936 55.5659C49.6936 57.3912 48.2086 58.8763 46.3832 58.8763ZM49.6936 51.3906C49.035 50.8673 48.2509 50.4963 47.394 50.3311V48.0035V12.2843H49.6936V51.3906ZM51.7152 27.4085H56.1756V28.5583C56.1756 29.1165 56.6281 29.5691 57.1863 29.5691C57.7445 29.5691 58.1971 29.1165 58.1971 28.5583V27.4085H62.6574V38.3507H51.7152V27.4085ZM64.818 53.4748H51.7152V40.372H57.2559V42.6021C57.2559 43.1603 57.7084 43.6129 58.2666 43.6129C58.8248 43.6129 59.2773 43.1603 59.2773 42.6021V40.372H64.818V53.4748Z" fill="#6C73E1"/>
<path d="M9.66396 54.5551H9.65318C9.09498 54.5551 8.64783 55.0076 8.64783 55.5658C8.64783 56.124 9.10576 56.5765 9.66396 56.5765C10.2222 56.5765 10.6747 56.124 10.6747 55.5658C10.6747 55.0076 10.2222 54.5551 9.66396 54.5551Z" fill="#6C73E1"/>
<path d="M46.3941 54.5551H46.3832C45.825 54.5551 45.378 55.0076 45.378 55.5658C45.378 56.124 45.8359 56.5765 46.3941 56.5765C46.9523 56.5765 47.4049 56.124 47.4049 55.5658C47.4049 55.0076 46.9523 54.5551 46.3941 54.5551Z" fill="#6C73E1"/>
</svg>
