<svg width="64" height="64" viewBox="0 0 64 64" fill="none" xmlns="http://www.w3.org/2000/svg">
<g clip-path="url(#clip0)">
<path d="M56.5332 4.2666H53.3335V1.06689C53.3335 0.477539 52.856 0 52.2666 0C51.6777 0 51.2002 0.477539 51.2002 1.06689V4.2666H33.0669V1.06689C33.0669 0.477539 32.5889 0 32 0C31.4111 0 30.9331 0.477539 30.9331 1.06689V4.2666H12.7998V1.06689C12.7998 0.477539 12.3223 0 11.7334 0C11.144 0 10.6665 0.477539 10.6665 1.06689V4.2666H7.4668C3.34473 4.27148 0.00488281 7.61133 0 11.7334V56.5332C0.00488281 60.6553 3.34473 63.9951 7.4668 64H56.5332C60.6553 63.9951 63.9951 60.6553 64 56.5332V11.7334C63.9951 7.61133 60.6553 4.27148 56.5332 4.2666ZM2.1333 56.5332V49.5083L14.4917 61.8667H7.4668C4.52246 61.8633 2.13672 59.4775 2.1333 56.5332ZM30.9331 26.6665V35.2002H20.2666V26.6665H30.9331ZM43.7334 26.6665V35.2002H33.0669V26.6665H43.7334ZM55.4668 26.6665C56.0557 26.6665 56.5332 27.144 56.5332 27.7334V35.2002H45.8667V26.6665H55.4668ZM33.0669 56.5332V48H43.7334V56.5332H33.0669ZM18.1333 56.5332V54.9331C18.1328 52.2573 16.9482 49.7188 14.897 48H18.1333C18.1333 48.5889 18.6108 49.0669 19.2002 49.0669C19.7891 49.0669 20.2666 48.5889 20.2666 48H30.9331V56.5332H18.1333ZM7.4668 37.3335H18.1333V45.8667H7.4668V37.3335ZM56.5332 45.8667H45.8667V37.3335H56.5332V45.8667ZM43.7334 45.8667H33.0669V37.3335H43.7334V45.8667ZM30.9331 45.8667H20.2666V37.3335H30.9331V45.8667ZM45.8667 48H56.5332V55.4668C56.5332 56.0557 56.0557 56.5332 55.4668 56.5332H45.8667V48ZM18.1333 35.2002H7.4668V27.7334C7.4668 27.144 7.94434 26.6665 8.5332 26.6665H18.1333V35.2002ZM6.3999 48H9.06689C12.894 48.0049 15.9951 51.106 16 54.9331V60.3584L3.6416 48H6.3999ZM56.5332 61.8667H18.1333V58.6665H55.4668C57.2339 58.6665 58.6665 57.2339 58.6665 55.4668V27.7334C58.6665 25.9658 57.2339 24.5332 55.4668 24.5332H8.5332C6.76611 24.5332 5.3335 25.9658 5.3335 27.7334V45.8667H2.1333V21.3335H61.8667V56.5332C61.8633 59.4775 59.4775 61.8633 56.5332 61.8667ZM61.8667 19.2002H2.1333V11.7334C2.13672 8.78906 4.52246 6.40332 7.4668 6.3999H10.6665V8.68457C8.58643 9.22217 7.22998 11.2222 7.50049 13.3535C7.77148 15.4849 9.58496 17.0825 11.7334 17.0825C13.8818 17.0825 15.6953 15.4849 15.9658 13.3535C16.2368 11.2222 14.8804 9.22217 12.7998 8.68457V6.3999H30.9331V8.68457C28.853 9.22217 27.4966 11.2222 27.7676 13.3535C28.0381 15.4849 29.8516 17.0825 32 17.0825C34.1484 17.0825 35.9619 15.4849 36.2324 13.3535C36.5034 11.2222 35.147 9.22217 33.0669 8.68457V6.3999H51.2002V8.68457C49.1196 9.22217 47.7632 11.2222 48.0342 13.3535C48.3047 15.4849 50.1182 17.0825 52.2666 17.0825C54.415 17.0825 56.2285 15.4849 56.4995 13.3535C56.77 11.2222 55.4136 9.22217 53.3335 8.68457V6.3999H56.5332C59.4775 6.40332 61.8633 8.78906 61.8667 11.7334V19.2002ZM11.7334 12.7998C12.3223 12.7998 12.7998 12.3223 12.7998 11.7334V10.9634C13.6362 11.4458 14.0439 12.4302 13.7939 13.3628C13.5439 14.2954 12.6987 14.9438 11.7334 14.9438C10.7676 14.9438 9.92236 14.2954 9.67285 13.3628C9.42285 12.4302 9.83057 11.4458 10.6665 10.9634V11.7334C10.6665 12.3223 11.144 12.7998 11.7334 12.7998ZM32 12.7998C32.5889 12.7998 33.0669 12.3223 33.0669 11.7334V10.9634C33.9028 11.4458 34.3105 12.4302 34.0605 13.3628C33.8105 14.2954 32.9653 14.9438 32 14.9438C31.0347 14.9438 30.1895 14.2954 29.9395 13.3628C29.6895 12.4302 30.0972 11.4458 30.9331 10.9634V11.7334C30.9331 12.3223 31.4111 12.7998 32 12.7998ZM52.2666 12.7998C52.856 12.7998 53.3335 12.3223 53.3335 11.7334V10.9634C54.1694 11.4458 54.5771 12.4302 54.3271 13.3628C54.0776 14.2954 53.2324 14.9438 52.2666 14.9438C51.3013 14.9438 50.4561 14.2954 50.2061 13.3628C49.9561 12.4302 50.3638 11.4458 51.2002 10.9634V11.7334C51.2002 12.3223 51.6777 12.7998 52.2666 12.7998Z" fill="#6C73E1"/>
</g>
<defs>
<clipPath id="clip0">
<rect width="64" height="64" fill="white"/>
</clipPath>
</defs>
</svg>
