<svg width="64" height="64" viewBox="0 0 64 64" fill="none" xmlns="http://www.w3.org/2000/svg">
<path d="M12 25.75C11.31 25.75 10.75 26.31 10.75 27C10.75 27.69 11.31 28.25 12 28.25C12.69 28.25 13.25 27.69 13.25 27C13.25 26.31 12.69 25.75 12 25.75Z" fill="#6C73E1"/>
<path d="M57 10.75C43.3785 10.75 36.0584 3.47125 33.6529 1.07938C33.1632 0.592375 32.9174 0.348 32.6584 0.1875C32.2549 -0.0625 31.7448 -0.0625 31.3414 0.1875C31.1632 0.297875 31.0197 0.438 30.6731 0.77675C29.7825 1.64675 27.697 3.68438 24.4722 5.70125C19.1136 9.05138 13.235 10.75 7 10.75C6.30963 10.75 5.75 11.3096 5.75 12V28.3988C5.75 36.2713 8.2335 43.7706 12.9323 50.0863C18.0278 56.9334 24.6719 61.856 31.6408 63.9473C31.7579 63.9824 31.879 64 32 64C32.121 64 32.2421 63.9824 32.3592 63.9473C39.3281 61.856 45.9723 56.9334 51.0679 50.0861C55.7665 43.7706 58.25 36.2713 58.25 28.3988V12C58.25 11.3096 57.6904 10.75 57 10.75ZM55.75 28.3988C55.75 35.7295 53.4374 42.713 49.0622 48.5938C44.374 54.8935 38.3275 59.4435 32 61.4421C25.6725 59.4435 19.626 54.8935 14.9379 48.5939C10.5626 42.713 8.25 35.7295 8.25 28.3988V13.2288C14.4969 13.0154 20.3944 11.199 25.7979 7.821C28.8206 5.93038 30.8989 4.0325 32.0061 2.96725C34.6276 5.571 42.1048 12.8097 55.75 13.2308V28.3988Z" fill="#6C73E1"/>
<path d="M52.1376 15.4864C45.2575 14.7247 38.7302 11.9406 32.7369 7.21123C32.2881 6.8571 31.6566 6.85248 31.2029 7.19985C25.2665 11.7432 18.394 14.6772 11.8512 15.4614C11.2229 15.5367 10.75 16.0697 10.75 16.7025V22C10.75 22.6904 11.3096 23.25 12 23.25C12.6904 23.25 13.25 22.6904 13.25 22V17.7937C18.0056 17.0697 24.7584 15.0551 31.9511 9.76385C37.7844 14.1839 44.0994 16.8936 50.75 17.8314V28.3989C50.75 34.646 48.7789 40.5961 45.0494 45.6067C41.4776 50.4106 36.9732 53.9222 32 55.786C27.027 53.9224 22.5231 50.4116 18.9515 45.6087C15.9424 41.5656 14.0409 36.8072 13.4525 31.8479C13.3713 31.1624 12.7499 30.6714 12.064 30.7539C11.3785 30.8351 10.8886 31.4569 10.97 32.1424C11.6098 37.5354 13.6762 42.708 16.9457 47.101C20.9137 52.4369 25.975 56.3075 31.5825 58.2945C31.7175 58.3424 31.8587 58.3662 32 58.3662C32.1413 58.3662 32.2825 58.3424 32.4175 58.2945C38.0254 56.3074 43.0871 52.4357 47.0552 47.0989C51.1079 41.654 53.25 35.1876 53.25 28.3987V16.7287C53.25 16.0916 52.7709 15.5565 52.1376 15.4864Z" fill="#6C73E1"/>
<path d="M44.4086 27.4011C44.2615 26.9486 43.8703 26.6187 43.3995 26.5504L36.2625 25.5136L33.072 19.0469C32.8615 18.6201 32.4268 18.35 31.9511 18.3499C31.4753 18.3499 31.0407 18.62 30.8302 19.0466L27.6386 25.5136L20.5015 26.5504C20.0306 26.6187 19.6395 26.9486 19.4923 27.4011C19.3453 27.8536 19.468 28.3504 19.8087 28.6825L24.9731 33.7164L23.7542 40.8249C23.6737 41.2937 23.8666 41.7677 24.2516 42.0474C24.4693 42.2056 24.7272 42.2861 24.9863 42.2861C25.1853 42.2861 25.3851 42.2387 25.568 42.1425L31.9511 38.7859L38.333 42.1424C38.7542 42.3637 39.2646 42.3271 39.6495 42.0474C40.0345 41.7677 40.2273 41.2937 40.1468 40.8247L38.928 33.7162L44.0923 28.6824C44.433 28.3505 44.5556 27.8537 44.4086 27.4011ZM36.7122 32.3849C36.4176 32.672 36.2831 33.0857 36.3527 33.4912L37.2545 38.7507L32.5327 36.2675C32.1685 36.076 31.7333 36.076 31.3691 36.2675L26.646 38.7511L27.5478 33.4914C27.6175 33.0859 27.483 32.6721 27.1883 32.385L23.3672 28.6605L28.6481 27.8934C29.0552 27.8342 29.4072 27.5785 29.5893 27.2096L31.9507 22.425L34.3112 27.2095C34.4932 27.5785 34.8452 27.8344 35.2525 27.8935L40.5333 28.6606L36.7122 32.3849Z" fill="#6C73E1"/>
</svg>
