<svg width="64" height="64" viewBox="0 0 64 64" fill="none" xmlns="http://www.w3.org/2000/svg">
<g clip-path="url(#clip0)">
<path d="M20.8213 22.4545C20.4053 22.8812 20.416 23.5532 20.832 23.9692C21.0347 24.1719 21.312 24.2786 21.5787 24.2786C21.856 24.2786 22.1334 24.1719 22.336 23.9585C22.7521 23.5415 22.7521 22.8694 22.336 22.4545C21.9094 22.0385 21.2363 22.0385 20.8213 22.4545Z" fill="#6C73E1"/>
<path d="M17.7801 49.6665C17.3641 50.0836 17.3641 50.7652 17.7801 51.1813C17.9828 51.3839 18.2601 51.4906 18.5268 51.4906C18.8041 51.4906 19.0815 51.3839 19.2842 51.1813C19.7002 50.7652 19.7002 50.0836 19.2842 49.6665C18.8681 49.2505 18.1972 49.2505 17.7801 49.6665Z" fill="#6C73E1"/>
<path d="M17.8228 25.484C17.4067 25.901 17.4067 26.5827 17.8228 26.9987C18.0361 27.2014 18.3028 27.308 18.5695 27.308C18.8468 27.308 19.1242 27.2014 19.3375 26.988C19.7429 26.572 19.7429 25.8893 19.3268 25.484C18.9119 25.0679 18.2281 25.0679 17.8228 25.484Z" fill="#6C73E1"/>
<path d="M20.8 52.6853C20.384 53.1024 20.384 53.784 20.8 54.2001C21.0027 54.4027 21.28 54.5094 21.5467 54.5094C21.824 54.5094 22.1014 54.4027 22.3041 54.2001C22.7201 53.784 22.7201 53.1024 22.3041 52.6853C21.888 52.2693 21.2149 52.2693 20.8 52.6853Z" fill="#6C73E1"/>
<path d="M26.7939 55.7681C26.3885 56.1937 26.3992 56.8658 26.8152 57.2711C27.0286 57.4738 27.2952 57.5805 27.5619 57.5805C27.8393 57.5805 28.1166 57.4738 28.33 57.2498C28.7353 56.8338 28.7353 56.1607 28.3086 55.7457C27.8819 55.3414 27.2099 55.3414 26.7939 55.7681Z" fill="#6C73E1"/>
<path d="M23.8284 19.425C23.4124 19.8506 23.4124 20.5237 23.8391 20.9397C24.0417 21.1413 24.3084 21.2491 24.5858 21.2491C24.8631 21.2491 25.1298 21.1413 25.3431 20.929C25.7592 20.512 25.7592 19.8399 25.3325 19.425C24.9164 19.0079 24.2455 19.0079 23.8284 19.425Z" fill="#6C73E1"/>
<path d="M23.8177 55.7041C23.4017 56.1202 23.4017 56.7933 23.8177 57.2189C24.0204 57.4216 24.2977 57.5282 24.5644 57.5282C24.8418 57.5282 25.1085 57.4216 25.3218 57.2189C25.7378 56.7933 25.7378 56.1202 25.3218 55.7041C24.9058 55.2881 24.2231 55.2881 23.8177 55.7041Z" fill="#6C73E1"/>
<path d="M14.8146 28.5124C14.3986 28.9294 14.3986 29.6111 14.8253 30.0271C15.028 30.2298 15.2946 30.3364 15.572 30.3364C15.8493 30.3364 16.116 30.2298 16.3294 30.0164C16.7454 29.6004 16.7454 28.9284 16.3187 28.5124C15.9027 28.0974 15.2306 28.0974 14.8146 28.5124Z" fill="#6C73E1"/>
<path d="M8.72364 40.6207C8.30762 41.0367 8.30762 41.7088 8.72364 42.1248C8.93698 42.3371 9.20366 42.4448 9.48101 42.4448C9.75835 42.4448 10.025 42.3371 10.2384 42.1248C10.6544 41.7077 10.6544 41.0357 10.2384 40.6207C9.82236 40.2036 9.13966 40.2036 8.72364 40.6207Z" fill="#6C73E1"/>
<path d="M8.80898 34.5724C8.39296 34.998 8.39296 35.6701 8.80898 36.0871C9.02232 36.2887 9.289 36.3965 9.56635 36.3965C9.83303 36.3965 10.1104 36.2887 10.3131 36.0754C10.7291 35.6594 10.7291 34.9873 10.3131 34.5724C9.89703 34.1564 9.21433 34.1564 8.80898 34.5724Z" fill="#6C73E1"/>
<path d="M5.80082 37.6019C5.3848 38.0275 5.3848 38.7006 5.80082 39.1166C6.01417 39.3182 6.28085 39.426 6.55819 39.426C6.82487 39.426 7.10222 39.3182 7.31557 39.106C7.73159 38.6889 7.72092 38.0168 7.3049 37.6019C6.88888 37.1848 6.21684 37.1848 5.80082 37.6019Z" fill="#6C73E1"/>
<path d="M26.8366 16.3955C26.4205 16.8211 26.4205 17.4931 26.8366 17.9102C27.0499 18.1118 27.3166 18.2196 27.5833 18.2196C27.8606 18.2196 28.1379 18.1118 28.3513 17.8996C28.7566 17.4825 28.7566 16.8104 28.3406 16.3955C27.9246 15.9784 27.243 15.9784 26.8366 16.3955Z" fill="#6C73E1"/>
<path d="M11.7425 43.6395C11.3264 44.0556 11.3264 44.7276 11.7425 45.1425C11.9558 45.3559 12.2225 45.4519 12.4998 45.4519C12.7665 45.4519 13.0439 45.3559 13.2572 45.1425C13.6732 44.7265 13.6732 44.0545 13.2572 43.6395C12.8305 43.2235 12.1585 43.2235 11.7425 43.6395Z" fill="#6C73E1"/>
<path d="M14.7613 46.6583C14.3453 47.0744 14.3453 47.7464 14.7613 48.1613C14.9746 48.3747 15.2413 48.4707 15.5186 48.4707C15.7853 48.4707 16.0627 48.3747 16.2653 48.1613C16.6814 47.7453 16.6814 47.0733 16.2653 46.6583C15.8493 46.2423 15.1784 46.2423 14.7613 46.6583Z" fill="#6C73E1"/>
<path d="M11.8065 31.5418C11.3904 31.9685 11.4011 32.6406 11.8171 33.0576C12.0198 33.2593 12.2971 33.367 12.5638 33.367C12.8412 33.367 13.1185 33.2593 13.3212 33.0459C13.7372 32.6299 13.7372 31.9579 13.3105 31.5418C12.8945 31.1269 12.2225 31.1269 11.8065 31.5418Z" fill="#6C73E1"/>
<path d="M32.7568 49.6558C32.3408 50.0719 32.3515 50.7546 32.7782 51.1599C32.9808 51.3615 33.2475 51.4586 33.5142 51.4586C33.7916 51.4586 34.0689 51.3509 34.2822 51.1375C34.6876 50.7215 34.6876 50.0399 34.2609 49.6345C33.846 49.2185 33.1622 49.2281 32.7568 49.6558Z" fill="#6C73E1"/>
<path d="M47.6376 34.3697C47.2216 34.7858 47.2322 35.4685 47.6589 35.8738C47.8616 36.0754 48.1283 36.1832 48.4056 36.1832C48.683 36.1832 48.9603 36.0754 49.163 35.8631C49.579 35.4364 49.5683 34.7537 49.1417 34.3484C48.7256 33.9324 48.0536 33.942 47.6376 34.3697Z" fill="#6C73E1"/>
<path d="M41.6853 40.482C41.2693 40.9077 41.2799 41.5797 41.7066 41.985C41.9093 42.1877 42.176 42.2944 42.4427 42.2944C42.72 42.2944 42.9973 42.1877 43.2107 41.9744C43.6267 41.5487 43.616 40.865 43.1894 40.4596C42.7733 40.0447 42.0906 40.0553 41.6853 40.482Z" fill="#6C73E1"/>
<path d="M44.6614 37.4312C44.2454 37.8472 44.2561 38.5193 44.6828 38.9353C44.8854 39.1369 45.1521 39.234 45.4188 39.234C45.7068 39.234 45.9842 39.1262 46.1868 38.9129C46.6029 38.4873 46.5922 37.8152 46.1655 37.4088C45.7495 36.9939 45.0678 37.0035 44.6614 37.4312Z" fill="#6C73E1"/>
<path d="M50.6137 31.3082C50.1977 31.7349 50.2084 32.407 50.6351 32.823C50.8377 33.0257 51.1044 33.1217 51.3818 33.1217C51.6591 33.1217 51.9365 33.015 52.1391 32.8016C52.5552 32.375 52.5445 31.7029 52.1178 31.2869C51.7018 30.8816 51.0191 30.8922 50.6137 31.3082Z" fill="#6C73E1"/>
<path d="M53.8683 21.3344C54.4574 21.3344 54.935 20.8568 54.935 20.2677C54.935 19.6785 54.4574 19.201 53.8683 19.201C53.2792 19.201 52.8016 19.6785 52.8016 20.2677C52.8016 20.8568 53.2792 21.3344 53.8683 21.3344Z" fill="#6C73E1"/>
<path d="M29.7807 52.7066C29.3647 53.1323 29.3753 53.8043 29.802 54.2214C30.0047 54.423 30.2714 54.519 30.5381 54.519C30.8154 54.519 31.0928 54.4123 31.3061 54.199C31.7115 53.7734 31.7115 53.1013 31.2848 52.6949C30.8581 52.2799 30.186 52.2906 29.7807 52.7066Z" fill="#6C73E1"/>
<path d="M53.8683 29.8682C54.4574 29.8682 54.935 29.3906 54.935 28.8015C54.935 28.2123 54.4574 27.7347 53.8683 27.7347C53.2792 27.7347 52.8016 28.2123 52.8016 28.8015C52.8016 29.3906 53.2792 29.8682 53.8683 29.8682Z" fill="#6C73E1"/>
<path d="M53.8683 25.6013C54.4574 25.6013 54.935 25.1237 54.935 24.5346C54.935 23.9454 54.4574 23.4678 53.8683 23.4678C53.2792 23.4678 52.8016 23.9454 52.8016 24.5346C52.8016 25.1237 53.2792 25.6013 53.8683 25.6013Z" fill="#6C73E1"/>
<path d="M35.734 46.5943C35.318 47.021 35.3287 47.6931 35.7554 48.1091C35.9581 48.3118 36.2247 48.4078 36.4914 48.4078C36.7688 48.4078 37.0461 48.3011 37.2595 48.0878C37.6755 47.6611 37.6648 46.989 37.2381 46.573C36.8104 46.1677 36.1383 46.1783 35.734 46.5943Z" fill="#6C73E1"/>
<path d="M42.5813 9.60047C42.5813 9.01378 42.1013 8.53375 41.5146 8.53375C40.9172 8.53375 40.4479 9.01378 40.4479 9.60047C40.4479 10.1872 40.9172 10.6672 41.5146 10.6672C42.1013 10.6672 42.5813 10.1872 42.5813 9.60047Z" fill="#6C73E1"/>
<path d="M29.834 13.366C29.418 13.782 29.4287 14.4637 29.8447 14.8807C30.0474 15.0824 30.3247 15.1901 30.5914 15.1901C30.8687 15.1901 31.1461 15.0824 31.3488 14.869C31.7648 14.453 31.7648 13.781 31.3488 13.366C30.9221 12.95 30.2501 12.95 29.834 13.366Z" fill="#6C73E1"/>
<path d="M32.8432 10.3354C32.4272 10.7621 32.4272 11.4342 32.8539 11.8502C33.0566 12.0529 33.3339 12.1595 33.6006 12.1595C33.878 12.1595 34.1446 12.0529 34.358 11.8395C34.774 11.4235 34.774 10.7515 34.3473 10.3354C33.9313 9.92049 33.2582 9.92049 32.8432 10.3354Z" fill="#6C73E1"/>
<path d="M37.2477 8.53375C36.6504 8.53375 36.181 9.01378 36.181 9.60047C36.181 10.1872 36.6504 10.6672 37.2477 10.6672C37.8344 10.6672 38.3144 10.1872 38.3144 9.60047C38.3144 9.01378 37.8344 8.53375 37.2477 8.53375Z" fill="#6C73E1"/>
<path d="M38.7102 43.5425C38.2942 43.9595 38.3048 44.6412 38.7315 45.0465C38.9342 45.2492 39.2009 45.3452 39.4676 45.3452C39.7449 45.3452 40.0223 45.2385 40.2356 45.0252C40.641 44.6081 40.641 43.9265 40.2143 43.5211C39.7983 43.1062 39.1145 43.1168 38.7102 43.5425Z" fill="#6C73E1"/>
<path d="M63.1562 0.312556C62.7391 -0.104531 62.065 -0.104531 61.6479 0.312556L57.6925 4.26689H32.8571L1.63422 35.7469C0.922713 36.4573 0.531227 37.4035 0.531227 38.4083C0.531227 39.4132 0.922713 40.3594 1.63422 41.0698L23.4657 62.9013C24.1985 63.6341 25.1597 64 26.1229 64C27.0894 64 28.0579 63.6309 28.7982 62.8906L59.2008 31.6667V5.77523L63.1552 1.8209C63.5722 1.40381 63.5722 0.729644 63.1562 0.312556ZM57.0685 30.8005L27.2803 61.3929C26.6456 62.0287 25.6109 62.0287 24.9741 61.3929L3.14256 39.5615C2.83428 39.2532 2.66467 38.8435 2.66467 38.4083C2.66467 37.9731 2.83428 37.5635 3.14576 37.252L33.7457 6.40033H55.5601L50.4047 11.5558C49.5609 10.9968 48.5528 10.6672 47.468 10.6672C44.527 10.6672 42.1344 13.0599 42.1344 16.0008C42.1344 18.9418 44.527 21.3344 47.468 21.3344C50.4089 21.3344 52.8016 18.9418 52.8016 16.0008C52.8016 14.916 52.472 13.9079 51.913 13.0641L57.0685 7.90867V30.8005ZM50.6681 16.0008C50.6681 17.7652 49.2323 19.201 47.468 19.201C45.7036 19.201 44.2678 17.7652 44.2678 16.0008C44.2678 14.2365 45.7036 12.8006 47.468 12.8006C47.9608 12.8006 48.4216 12.9223 48.8387 13.1217L46.7138 15.2466C46.2967 15.6637 46.2967 16.3379 46.7138 16.755C46.9218 16.963 47.1949 17.0675 47.468 17.0675C47.7411 17.0675 48.0141 16.963 48.2221 16.755L50.3471 14.6301C50.5465 15.0472 50.6681 15.508 50.6681 16.0008Z" fill="#6C73E1"/>
</g>
<defs>
<clipPath id="clip0">
<rect width="64" height="64" fill="white"/>
</clipPath>
</defs>
</svg>
