<svg xmlns="http://www.w3.org/2000/svg" width="16" height="12" viewBox="0 0 16 12">
  <metadata><?xpacket begin="﻿" id="W5M0MpCehiHzreSzNTczkc9d"?>
<x:xmpmeta xmlns:x="adobe:ns:meta/" x:xmptk="Adobe XMP Core 5.6-c142 79.160924, 2017/07/13-01:06:39        ">
   <rdf:RDF xmlns:rdf="http://www.w3.org/1999/02/22-rdf-syntax-ns#">
      <rdf:Description rdf:about=""/>
   </rdf:RDF>
</x:xmpmeta>
                                                                                                    
                                                                                                    
                                                                                                    
                                                                                                    
                                                                                                    
                                                                                                    
                                                                                                    
                                                                                                    
                                                                                                    
                                                                                                    
                                                                                                    
                                                                                                    
                                                                                                    
                                                                                                    
                                                                                                    
                                                                                                    
                                                                                                    
                                                                                                    
                                                                                                    
                                                                                                    
                           
<?xpacket end="w"?></metadata>
<defs>
    <style>
      .cls-1 {
        fill: #fff;
        fill-rule: evenodd;
      }
    </style>
  </defs>
  <path class="cls-1" d="M868.594,19H855.406A1.4,1.4,0,0,0,854,20.384v9.231A1.4,1.4,0,0,0,855.406,31h13.188A1.4,1.4,0,0,0,870,29.615V20.384A1.4,1.4,0,0,0,868.594,19Zm-0.2.923-6.369,6.272-6.425-6.272H868.4Zm-13.462,9.5V20.571l4.515,4.407Zm0.663,0.652,4.518-4.448,1.583,1.545a0.474,0.474,0,0,0,.662,0l1.543-1.52,4.494,4.424H855.6Zm13.462-.652L864.569,25l4.493-4.424v8.848Z" transform="translate(-854 -19)"/>
</svg>
