<svg xmlns="http://www.w3.org/2000/svg" width="17.031" height="17" viewBox="0 0 17.031 17">
  <metadata><?xpacket begin="﻿" id="W5M0MpCehiHzreSzNTczkc9d"?>
<x:xmpmeta xmlns:x="adobe:ns:meta/" x:xmptk="Adobe XMP Core 5.6-c142 79.160924, 2017/07/13-01:06:39        ">
   <rdf:RDF xmlns:rdf="http://www.w3.org/1999/02/22-rdf-syntax-ns#">
      <rdf:Description rdf:about=""/>
   </rdf:RDF>
</x:xmpmeta>
                                                                                                    
                                                                                                    
                                                                                                    
                                                                                                    
                                                                                                    
                                                                                                    
                                                                                                    
                                                                                                    
                                                                                                    
                                                                                                    
                                                                                                    
                                                                                                    
                                                                                                    
                                                                                                    
                                                                                                    
                                                                                                    
                                                                                                    
                                                                                                    
                                                                                                    
                                                                                                    
                           
<?xpacket end="w"?></metadata>
<defs>
    <style>
      .cls-1 {
        fill: #fff;
        fill-rule: evenodd;
      }
    </style>
  </defs>
  <path class="cls-1" d="M391.445,26.379l-1.873,1.873a17.915,17.915,0,0,1-4.816-4.833l1.864-1.864L382.065,17l-2.339,2.339-0.014.014c-0.884.957-.948,2.574-0.178,4.551a17.265,17.265,0,0,0,3.9,5.66,17.193,17.193,0,0,0,5.719,3.924,6.922,6.922,0,0,0,2.428.511,2.909,2.909,0,0,0,2.132-.78L396,30.934Zm3.146,4.555-1.029,1.028-3.146-3.146,1.029-1.028Zm-9.38-9.379-1.087,1.088L380.978,19.5l1.087-1.088Zm4.3,11a16.157,16.157,0,0,1-5.37-3.7,16.243,16.243,0,0,1-3.677-5.316c-0.559-1.437-.615-2.625-0.168-3.321l3.42,3.421a18.745,18.745,0,0,0,5.659,5.667l0.337,0.211h0l3.133,3.134C392.17,33.147,390.973,33.116,389.51,32.557Z" transform="translate(-378.969 -17)"/>
</svg>
