<svg xmlns="http://www.w3.org/2000/svg" width="17.031" height="17" viewBox="0 0 17.031 17">
  <metadata><?xpacket begin="﻿" id="W5M0MpCehiHzreSzNTczkc9d"?>
<x:xmpmeta xmlns:x="adobe:ns:meta/" x:xmptk="Adobe XMP Core 5.6-c142 79.160924, 2017/07/13-01:06:39        ">
   <rdf:RDF xmlns:rdf="http://www.w3.org/1999/02/22-rdf-syntax-ns#">
      <rdf:Description rdf:about=""/>
   </rdf:RDF>
</x:xmpmeta>
                                                                                                    
                                                                                                    
                                                                                                    
                                                                                                    
                                                                                                    
                                                                                                    
                                                                                                    
                                                                                                    
                                                                                                    
                                                                                                    
                                                                                                    
                                                                                                    
                                                                                                    
                                                                                                    
                                                                                                    
                                                                                                    
                                                                                                    
                                                                                                    
                                                                                                    
                                                                                                    
                           
<?xpacket end="w"?></metadata>
<defs>
    <style>
      .cls-1 {
        fill: #005bac;
        fill-rule: evenodd;
      }
    </style>
  </defs>
  <path id="Shape_1_copy" data-name="Shape 1 copy" class="cls-1" d="M440.445,6606.38l-1.873,1.87a17.146,17.146,0,0,1-2.619-2.16,17.377,17.377,0,0,1-2.2-2.67l1.864-1.87-4.555-4.55-2.339,2.34-0.014.01c-0.884.96-.948,2.58-0.178,4.55a19.014,19.014,0,0,0,9.62,9.59,6.955,6.955,0,0,0,2.428.51,2.905,2.905,0,0,0,2.132-.78l2.286-2.29Zm3.145,4.55-1.028,1.03-3.146-3.14,1.029-1.03Zm-9.379-9.38-1.088,1.09-3.145-3.14,1.087-1.09Zm4.3,11.01a18.013,18.013,0,0,1-9.047-9.02c-0.558-1.43-.615-2.62-0.167-3.32l3.42,3.42a18.768,18.768,0,0,0,5.659,5.67l0.337,0.21h0l3.133,3.13C441.17,6613.15,439.973,6613.12,438.509,6612.56Z" transform="translate(-427.969 -6597)"/>
</svg>
