<svg width="29" height="32" viewBox="0 0 29 32" fill="none" xmlns="http://www.w3.org/2000/svg">
<g clip-path="url(#clip0)">
<path d="M22.3928 32H6.60748C4.6613 32 2.82306 31.145 1.56602 29.655C0.307317 28.165 -0.229044 26.205 0.0897834 24.2783L0.126316 24.105L2.85627 13.875C3.42751 10.7133 6.14584 8.42833 9.35736 8.42833H19.6429C22.8544 8.42833 25.5727 10.7133 26.144 13.875L28.8955 24.1917L28.9104 24.2783C29.2309 26.205 28.6929 28.165 27.4342 29.655C26.1755 31.145 24.3389 32 22.3928 32ZM3.68157 24.9583C3.56533 25.795 3.80777 26.6383 4.35244 27.285C4.91537 27.9517 5.73568 28.3333 6.60582 28.3333H22.3911C23.2612 28.3333 24.0832 27.9517 24.6445 27.285C25.1908 26.6383 25.4332 25.795 25.3153 24.9583L22.5688 14.6583L22.5538 14.5717C22.3147 13.1367 21.0909 12.095 19.6395 12.095H9.35736C7.90769 12.095 6.6822 13.1367 6.44308 14.5717L6.40655 14.745L3.68157 24.9583Z" fill="white"/>
<path d="M23.4937 10.1883H19.8405C19.8405 7.18 18.4423 3.66667 14.5018 3.66667C10.6725 3.66667 9.30754 7.035 9.30754 10.1883H5.65431C5.65265 4.095 9.2079 0 14.5001 0C19.7956 0 23.4937 4.19 23.4937 10.1883Z" fill="white"/>
</g>
<defs>
<clipPath id="clip0">
<rect width="29" height="32" fill="white"/>
</clipPath>
</defs>
</svg>
