<svg width="24" height="27" viewBox="0 0 24 27" fill="none" xmlns="http://www.w3.org/2000/svg">
<g clip-path="url(#clip0)">
<path d="M17.8691 26.2833H5.27264C3.71961 26.2833 2.25272 25.5987 1.24962 24.4057C0.245186 23.2127 -0.182824 21.6435 0.0715967 20.1009L0.100749 19.9621L2.27922 11.7713C2.73506 9.2399 4.90426 7.4104 7.46701 7.4104H15.6747C18.2375 7.4104 20.4067 9.2399 20.8625 11.7713L23.0582 20.0315L23.0701 20.1009C23.3259 21.6435 22.8965 23.2127 21.8921 24.4057C20.8877 25.5987 19.4221 26.2833 17.8691 26.2833ZM2.9378 20.6453C2.84504 21.3152 3.03851 21.9904 3.47314 22.5082C3.92235 23.0419 4.57696 23.3475 5.27131 23.3475H17.8678C18.5621 23.3475 19.218 23.0419 19.6659 22.5082C20.1019 21.9904 20.2954 21.3152 20.2013 20.6453L18.0096 12.3985L17.9976 12.3291C17.8068 11.1802 16.8302 10.3461 15.6721 10.3461H7.46701C6.31019 10.3461 5.33227 11.1802 5.14145 12.3291L5.1123 12.4679L2.9378 20.6453Z" fill="#FF6600"/>
<path d="M18.7476 8.81956H15.8324C15.8324 6.41091 14.7167 3.59792 11.5722 3.59792C8.51649 3.59792 7.42725 6.29481 7.42725 8.81956H4.51202C4.5107 3.94087 7.34775 0.66217 11.5709 0.66217C15.7966 0.66217 18.7476 4.01693 18.7476 8.81956Z" fill="#FF6600"/>
</g>
<defs>
<clipPath id="clip0">
<rect width="23.1416" height="25.6211" fill="white" transform="translate(0 0.66217)"/>
</clipPath>
</defs>
</svg>
