<svg width="22" height="22" viewBox="0 0 22 22" fill="none" xmlns="http://www.w3.org/2000/svg">
<path d="M21.8571 16.4652L21.8575 16.4638L18.7661 9.66101H20.9999C21.5522 9.66101 21.9999 9.21152 21.9999 8.65707C21.9999 8.10263 21.5522 7.65313 20.9999 7.65313H12V1.00394C12 0.449497 11.5523 0 11 0C10.4477 0 10 0.449497 10 1.00394V7.65313H1C0.447733 7.65313 0 8.10263 0 8.65707C0 9.21152 0.447733 9.66101 1 9.66101H3.23387L0.142467 16.4638L0.1428 16.4652C0.0527333 16.6159 0 16.7917 0 16.9803C0 19.7482 2.243 22 5 22C7.757 22 10 19.7482 10 16.9803C10 16.7918 9.94727 16.6159 9.85713 16.4652L9.85747 16.4638L6.76607 9.66101H15.2338L12.1424 16.4638L12.1427 16.4652C12.0527 16.6159 11.9999 16.7918 11.9999 16.9803C11.9999 19.7482 14.2429 22 17 22C19.7569 22 22 19.7482 22 16.9803C22 16.7917 21.9473 16.6159 21.8571 16.4652ZM5 10.6085L7.23387 15.9764H2.76613L5 10.6085ZM5 19.9921C3.69627 19.9921 2.58407 19.1529 2.17133 17.9842H7.8286C7.41593 19.1529 6.30373 19.9921 5 19.9921ZM19.2339 15.9764H14.7661L17 10.6085L19.2339 15.9764ZM17 19.9921C15.6962 19.9921 14.5841 19.1529 14.1713 17.9842H19.8287C19.4159 19.1529 18.3037 19.9921 17 19.9921Z" fill="white"/>
</svg>
