<svg width="31" height="27" viewBox="0 0 31 27" fill="none" xmlns="http://www.w3.org/2000/svg">
<path d="M22.5472 3.52231C23.8978 3.52231 25.1681 4.02855 26.1231 4.94666C27.0781 5.86476 27.6047 7.08604 27.6047 8.38454C27.6047 9.68304 27.0781 10.9043 26.1231 11.8224L24.5449 13.3397L15.2882 22.239L6.03442 13.3397L4.45618 11.8224C2.48375 9.92615 2.48375 6.8415 4.45618 4.94666C5.41115 4.02855 6.68148 3.52231 8.03213 3.52231C9.38278 3.52231 10.6531 4.02855 11.6081 4.94666L13.1863 6.46396L15.2896 8.48607L17.393 6.46396L18.9712 4.94666C19.9262 4.02855 21.1965 3.52231 22.5472 3.52231ZM22.5472 0.66217C20.4914 0.66217 18.4357 1.41582 16.8679 2.92454L15.2896 4.44184L13.7114 2.92454C12.1436 1.41582 10.0879 0.66217 8.03213 0.66217C5.9764 0.66217 3.92068 1.41582 2.35285 2.92454C-0.784284 5.94055 -0.784284 10.83 2.35285 13.846L3.93109 15.3633L15.2911 26.2847L26.6512 15.3633L28.2294 13.846C31.3665 10.83 31.3665 5.94055 28.2294 2.92454C26.6586 1.41582 24.6029 0.66217 22.5472 0.66217Z" fill="#FF6600"/>
</svg>
