<svg width="17" height="20" viewBox="0 0 17 20" fill="none" xmlns="http://www.w3.org/2000/svg">
<path d="M8.49898 20L7.71922 19.2626C7.54311 19.0956 3.38066 15.1567 2.00743 13.5801C0.712575 12.0935 0 10.2026 0 8.25344C0 3.70268 3.81329 0 8.5 0C13.1867 0 17 3.70268 17 8.25344C17 10.1868 16.2976 12.0668 15.0211 13.5475C13.6458 15.1428 9.4579 19.0956 9.27976 19.2636L8.49898 20ZM8.5 2.17456C5.04808 2.17456 2.23952 4.90165 2.23952 8.25344C2.23952 9.68864 2.76377 11.0813 3.71659 12.1755C4.67449 13.2757 7.20922 15.725 8.5 16.9615C9.79689 15.723 12.3448 13.2628 13.3028 12.1518C14.2434 11.0626 14.7605 9.67777 14.7605 8.25344C14.7605 4.90165 11.9519 2.17456 8.5 2.17456Z" fill="#5B6D74"/>
<path d="M8.49999 11.7624C6.45083 11.7624 4.78442 10.1443 4.78442 8.1546C4.78442 6.16488 6.45083 4.54681 8.49999 4.54681C10.5492 4.54681 12.2156 6.16488 12.2156 8.1546C12.2156 10.1443 10.5492 11.7624 8.49999 11.7624ZM8.49999 6.72137C7.68562 6.72137 7.02394 7.36385 7.02394 8.1546C7.02394 8.94535 7.68562 9.58783 8.49999 9.58783C9.31436 9.58783 9.97604 8.94535 9.97604 8.1546C9.97604 7.36385 9.31436 6.72137 8.49999 6.72137Z" fill="#5B6D74"/>
</svg>
