<svg width="18" height="18" viewBox="0 0 18 18" fill="none" xmlns="http://www.w3.org/2000/svg">
<path d="M9 18C4.03714 18 0 13.9629 0 9C0 4.03714 4.03714 0 9 0C13.9629 0 18 4.03714 18 9C18 13.9629 13.9629 18 9 18ZM9 1.71429C4.98257 1.71429 1.71429 4.98257 1.71429 9C1.71429 13.0174 4.98257 16.2857 9 16.2857C13.0174 16.2857 16.2857 13.0174 16.2857 9C16.2857 4.98257 13.0174 1.71429 9 1.71429Z" fill="white"/>
<path d="M8.35368 9.56999C8.22254 9.41914 8.14282 9.22199 8.14282 9.00599L8.14796 5.45028C8.14882 4.97714 8.53197 4.59399 9.00339 4.59399C9.47568 4.59485 9.85797 4.97885 9.85711 5.45199L9.85197 9.00771C9.85111 9.48085 9.46797 9.86399 8.99654 9.86399C8.74025 9.86314 8.50968 9.74999 8.35368 9.56999Z" fill="white"/>
<path d="M12.8 9.85711H8.99997C8.52682 9.85711 8.14282 9.47311 8.14282 8.99996C8.14282 8.52682 8.52682 8.14282 8.99997 8.14282H12.8C13.2731 8.14282 13.6571 8.52682 13.6571 8.99996C13.6571 9.47311 13.2731 9.85711 12.8 9.85711Z" fill="white"/>
</svg>
