<svg width="52" height="51" viewBox="0 0 52 51" fill="none" xmlns="http://www.w3.org/2000/svg">
<path d="M46.0914 5.71778C46.0914 8.13324 44.0562 10.0914 41.5457 10.0914C40.3814 10.0914 38.8144 9.95374 38.0102 9.2612C37.0802 8.46037 37 7.01309 37 5.71778C37 3.30232 38.025 1 40.5355 1C41.6998 1 43.2668 2.25127 44.0711 2.94381C45.001 3.74464 46.0914 4.42248 46.0914 5.71778Z" fill="#F0F4F8"/>
<path d="M48.0042 10.5155C49.0336 10.7795 49.6458 11.8609 49.3714 12.9308C49.2442 13.427 49.0143 14.0798 48.6312 14.3469C48.1883 14.6557 47.5627 14.5317 47.0107 14.3902C45.9812 14.1262 45.112 13.4378 45.3864 12.3678C45.5136 11.8716 46.2181 11.3405 46.6012 11.0734C47.0441 10.7646 47.4521 10.374 48.0042 10.5155Z" fill="#F0F4F8"/>
<path fill-rule="evenodd" clip-rule="evenodd" d="M27.4812 0.148169C33.0077 1.16478 34.572 8.15896 38.9045 11.6357C42.802 14.7634 49.8047 14.6871 51.3983 19.3415C52.991 23.9927 51.1882 31.9257 48.7193 36.2026C46.7346 39.6407 45.3429 44.1183 42.2527 44.9492C38.8833 47.7401 31.7289 46.9669 27.4812 48.1941C21.8331 49.8259 15.4178 52.6249 10.31 49.7753C5.18881 46.9184 4.74762 40.0498 3.05033 34.5648C1.39663 29.2206 -1.18016 23.7141 0.604171 18.4095C2.38788 13.1068 7.69045 9.96257 12.4029 6.76072C17.0334 3.6146 21.9252 -0.873865 27.4812 0.148169Z" fill="#F0F4F8"/>
</svg>
