<svg width="63" height="63" viewBox="0 0 63 63" fill="none" xmlns="http://www.w3.org/2000/svg">
<path d="M34.7661 53.7715H28.2026C27.523 53.7715 26.9722 54.3224 26.9722 55.002C26.9722 55.6815 27.523 56.2324 28.2026 56.2324H34.7661C35.4457 56.2324 35.9965 55.6815 35.9965 55.002C35.9965 54.3224 35.4457 53.7715 34.7661 53.7715Z" fill="white"/>
<path d="M46.694 57.2168H46.6927C46.0132 57.2168 45.4629 57.7677 45.4629 58.4473C45.4629 59.1269 46.0144 59.6777 46.694 59.6777C47.3736 59.6777 47.9244 59.1269 47.9244 58.4473C47.9244 57.7677 47.3736 57.2168 46.694 57.2168Z" fill="white"/>
<path d="M61.7695 50.3262H60.2926V19.0227C60.2926 16.6084 58.3926 14.6443 56.0573 14.6443H53.138V4.55273C53.138 3.87315 52.5872 3.32227 51.9076 3.32227H45.0169C44.3374 3.32227 43.7865 3.87315 43.7865 4.55273V14.6443H37.1419C36.4624 14.6443 35.9115 15.1952 35.9115 15.8748C35.9115 16.5544 36.4624 17.1052 37.1419 17.1052H43.7865V50.3262H41.8177V24.7215C41.8177 24.0419 41.2668 23.491 40.5873 23.491H33.6966C33.017 23.491 32.4662 24.0419 32.4662 24.7215V50.3262H30.4974V34.7935C30.4974 34.1139 29.9465 33.563 29.2669 33.563H22.3763C21.6967 33.563 21.1459 34.1139 21.1459 34.7935V50.3262H19.1823V42.3973C19.1823 41.7177 18.6314 41.1668 17.9518 41.1668H11.0612C10.3816 41.1668 9.83071 41.7177 9.83071 42.3973V50.3262H5.1676V37.6523C5.1676 36.9728 4.61672 36.4219 3.93713 36.4219C3.25754 36.4219 2.70666 36.9728 2.70666 37.6523V50.3262H1.23047C0.550881 50.3262 0 50.8771 0 51.5566V53.6484C0 56.973 2.70469 59.6777 6.0293 59.6777H41.3255C42.0051 59.6777 42.556 59.1269 42.556 58.4473C42.556 57.7677 42.0051 57.2168 41.3255 57.2168H6.0293C4.06165 57.2168 2.46094 55.6161 2.46094 53.6484V52.7871H11.0612H17.9518H22.3763H29.2669H33.6966H40.5873H45.0169H51.9076H60.5391V53.6484C60.5391 55.6161 58.9383 57.2168 56.9707 57.2168H51.9834C51.3038 57.2168 50.7529 57.7677 50.7529 58.4473C50.7529 59.1269 51.3038 59.6777 51.9834 59.6777H56.9707C60.2953 59.6777 63 56.973 63 53.6484V51.5566C63 50.8771 62.4491 50.3262 61.7695 50.3262ZM16.7213 50.3262H12.2916V43.6277H16.7213V50.3262ZM28.0365 50.3262H23.6068V36.0239H28.0365V50.3262ZM39.3568 50.3262H34.9271V25.9519H39.3568V50.3262ZM50.6771 50.3262H46.2474V5.7832H50.6771V50.3262ZM57.8317 50.3262H53.138V17.1052H56.0573C57.0358 17.1052 57.8317 17.9655 57.8317 19.0227V50.3262Z" fill="white"/>
<path d="M21.1483 3.32227C14.8523 3.32227 9.71554 8.379 9.58499 14.6443H6.94182C4.60651 14.6443 2.70654 16.6084 2.70654 19.0227V27.6855C2.70654 28.3651 3.25742 28.916 3.93701 28.916C4.6166 28.916 5.16748 28.3651 5.16748 27.6855V19.0227C5.16748 17.9655 5.96347 17.1052 6.94182 17.1052H9.79589C10.8329 22.4262 15.5286 26.4551 21.1483 26.4551C27.5261 26.4551 32.7147 21.2664 32.7147 14.8887C32.7147 8.51091 27.5261 3.32227 21.1483 3.32227ZM21.1483 23.9941C16.1275 23.9941 12.0428 19.9095 12.0428 14.8887C12.0428 9.86787 16.1275 5.7832 21.1483 5.7832C26.1691 5.7832 30.2538 9.86787 30.2538 14.8887C30.2538 19.9095 26.1691 23.9941 21.1483 23.9941Z" fill="white"/>
<path d="M4.8077 31.655C4.5776 31.4261 4.26137 31.2944 3.93652 31.2944C3.61291 31.2944 3.29668 31.4261 3.06658 31.655C2.83771 31.8838 2.70605 32.2013 2.70605 32.5249C2.70605 32.8497 2.83771 33.166 3.06658 33.3948C3.29668 33.6249 3.61291 33.7554 3.93652 33.7554C4.26137 33.7554 4.5776 33.6249 4.8077 33.3948C5.03656 33.166 5.16699 32.8497 5.16699 32.5249C5.16699 32.2013 5.03656 31.8838 4.8077 31.655Z" fill="white"/>
<path d="M21.1484 13.7419C20.4735 13.7419 19.9243 13.2946 19.9243 12.7447C19.9243 12.1948 20.4734 11.7475 21.1484 11.7475C21.8234 11.7475 22.3725 12.1948 22.3725 12.7447C22.3725 13.4243 22.9233 13.9752 23.6029 13.9752C24.2825 13.9752 24.8334 13.4243 24.8334 12.7447C24.8334 11.2424 23.8069 9.96138 22.3779 9.48519C22.3672 8.81496 21.8213 8.27466 21.1484 8.27466C20.4754 8.27466 19.9297 8.81496 19.9189 9.48519C18.4898 9.96138 17.4634 11.2423 17.4634 12.7447C17.4634 14.6514 19.1165 16.2028 21.1484 16.2028C21.8233 16.2028 22.3725 16.6501 22.3725 17.2C22.3725 17.7499 21.8235 18.1972 21.1486 18.1972C20.4737 18.1972 19.9246 17.7499 19.9246 17.2C19.9246 16.5204 19.3737 15.9695 18.6941 15.9695C18.0145 15.9695 17.4636 16.5204 17.4636 17.2C17.4636 18.7039 18.4922 19.9859 19.9235 20.4609C19.9776 21.0905 20.505 21.5848 21.1485 21.5848C21.792 21.5848 22.3194 21.0905 22.3736 20.4609C23.8048 19.9859 24.8334 18.7039 24.8334 17.2C24.8334 15.2931 23.1803 13.7419 21.1484 13.7419Z" fill="white"/>
</svg>
