<svg width="64" height="64" viewBox="0 0 64 64" fill="none" xmlns="http://www.w3.org/2000/svg">
<path d="M31.25 52C30.56 52 30 52.56 30 53.25C30 53.94 30.56 54.5 31.25 54.5C31.94 54.5 32.5 53.94 32.5 53.25C32.5 52.56 31.94 52 31.25 52Z" fill="white"/>
<path d="M60.25 2H13.75C11.6823 2 10 3.68225 10 5.75V24.5H3.75C1.68225 24.5 0 26.1823 0 28.25V58.25C0 60.3177 1.68225 62 3.75 62H48.75C50.8177 62 52.5 60.3177 52.5 58.25V39.5H60.25C62.3177 39.5 64 37.8177 64 35.75V5.75C64 3.68225 62.3177 2 60.25 2ZM12.5 12H61.5V17H12.5V12ZM13.75 4.5H60.25C60.9393 4.5 61.5 5.06075 61.5 5.75V9.5H12.5V5.75C12.5 5.06075 13.0608 4.5 13.75 4.5ZM50 58.25C50 58.9393 49.4393 59.5 48.75 59.5H3.75C3.06075 59.5 2.5 58.9393 2.5 58.25V28.25C2.5 27.5607 3.06075 27 3.75 27H48.75C49.4393 27 50 27.5607 50 28.25V58.25ZM60.25 37H52.5V28.25C52.5 26.1823 50.8177 24.5 48.75 24.5H12.5V19.5H61.5V35.75C61.5 36.4393 60.9393 37 60.25 37Z" fill="white"/>
<path d="M8.75 42H21.25C21.9404 42 22.5 41.4404 22.5 40.75V33.25C22.5 32.5596 21.9404 32 21.25 32H8.75C8.05963 32 7.5 32.5596 7.5 33.25V40.75C7.5 41.4404 8.05963 42 8.75 42ZM10 34.5H20V39.5H10V34.5Z" fill="white"/>
<path d="M8.75 49.5H13.75C14.4404 49.5 15 48.9404 15 48.25C15 47.5596 14.4404 47 13.75 47H8.75C8.05963 47 7.5 47.5596 7.5 48.25C7.5 48.9404 8.05963 49.5 8.75 49.5Z" fill="white"/>
<path d="M17.5 48.25C17.5 48.9404 18.0596 49.5 18.75 49.5H23.75C24.4404 49.5 25 48.9404 25 48.25C25 47.5596 24.4404 47 23.75 47H18.75C18.0596 47 17.5 47.5596 17.5 48.25Z" fill="white"/>
<path d="M33.75 47H28.75C28.0596 47 27.5 47.5596 27.5 48.25C27.5 48.9404 28.0596 49.5 28.75 49.5H33.75C34.4402 49.5 35 48.9404 35 48.25C35 47.5596 34.4402 47 33.75 47Z" fill="white"/>
<path d="M43.75 47H38.75C38.0598 47 37.5 47.5596 37.5 48.25C37.5 48.9404 38.0598 49.5 38.75 49.5H43.75C44.4402 49.5 45 48.9404 45 48.25C45 47.5596 44.4402 47 43.75 47Z" fill="white"/>
<path d="M26.25 52H8.75C8.05963 52 7.5 52.5596 7.5 53.25C7.5 53.9404 8.05963 54.5 8.75 54.5H26.25C26.9404 54.5 27.5 53.9404 27.5 53.25C27.5 52.5596 26.9404 52 26.25 52Z" fill="white"/>
<path d="M40 32C39.1144 32 38.254 32.235 37.499 32.6716C36.7445 32.235 35.8849 32 35 32C32.243 32 30 34.243 30 37C30 39.757 32.243 42 35 42C35.8854 42 36.7455 41.7647 37.4992 41.3285C38.2542 41.7651 39.1145 42 40 42C42.757 42 45 39.757 45 37C45 34.243 42.757 32 40 32ZM32.5 37C32.5 35.6215 33.6215 34.5 35 34.5C35.615 34.5 36.2061 34.7262 36.6644 35.1371C36.6654 35.1379 36.6662 35.1387 36.667 35.1395C37.1964 35.6111 37.5 36.2892 37.5 37C37.5 37.7108 37.1964 38.3889 36.6644 38.8629C36.2061 39.2738 35.615 39.5 35 39.5C33.6215 39.5 32.5 38.3785 32.5 37ZM40 39.5C39.7866 39.5 39.5766 39.4711 39.3735 39.4185C39.7789 38.6857 40 37.8549 40 37C40 36.1451 39.7789 35.3143 39.3735 34.5815C39.5766 34.529 39.7866 34.5 40 34.5C41.3785 34.5 42.5 35.6215 42.5 37C42.5 38.3785 41.3785 39.5 40 39.5Z" fill="white"/>
</svg>
