<svg width="64" height="64" viewBox="0 0 64 64" fill="none" xmlns="http://www.w3.org/2000/svg">
<path d="M43.25 0C42.5598 0 42 0.55975 42 1.25V7C42 7.69025 42.5598 8.25 43.25 8.25C43.9402 8.25 44.5 7.69025 44.5 7V1.25C44.5 0.55975 43.9402 0 43.25 0Z" fill="white"/>
<path d="M14.5 39C13.81 39 13.25 39.56 13.25 40.25C13.25 40.94 13.81 41.5 14.5 41.5C15.19 41.5 15.75 40.94 15.75 40.25C15.75 39.56 15.19 39 14.5 39Z" fill="white"/>
<path d="M60.75 36.5C60.75 33.743 58.507 31.5 55.75 31.5H46.4185C47.8631 27.7996 48.4479 23.4441 48.3351 19.567C48.3136 18.8271 48.2853 18.3993 48.2469 18.1299C48.1823 15.429 45.9645 13.25 43.25 13.25C40.493 13.25 38.25 15.493 38.25 18.25V19.5C38.25 27.4058 28.0983 31.8476 20.437 33.7524C19.8577 32.4281 18.5355 31.5 17 31.5H4.5C3.80975 31.5 3.25 32.0597 3.25 32.75V62.75C3.25 63.4403 3.80975 64 4.5 64H17C18.5252 64 19.8399 63.0841 20.4251 61.7739C21.0595 61.9366 21.6484 62.0904 22.192 62.2324C26.5564 63.3722 28.9605 64 34.8075 64H48.25C51.007 64 53.25 61.757 53.25 59C53.25 57.972 52.9379 57.0158 52.4038 56.2202C54.3348 55.5449 55.75 53.6999 55.75 51.5C55.75 50.4757 55.4455 49.5164 54.913 48.7173C56.8355 48.0408 58.25 46.2 58.25 44C58.25 42.972 57.9379 42.0157 57.4038 41.2202C59.3348 40.5449 60.75 38.6999 60.75 36.5ZM18.25 60.25C18.25 60.9393 17.6892 61.5 17 61.5H5.75V34H17C17.6892 34 18.25 34.5607 18.25 35.25V60.25ZM55.75 39C53.0689 39 52.4297 39 49.5 39C48.8097 39 48.25 39.5597 48.25 40.25C48.25 40.9403 48.8097 41.5 49.5 41.5H53.25C54.6285 41.5 55.75 42.6215 55.75 44C55.75 45.3807 54.6307 46.5 53.25 46.5H47C46.3097 46.5 45.75 47.0597 45.75 47.75C45.75 48.4403 46.3097 49 47 49H50.75C52.1121 49 53.25 50.0881 53.25 51.5C53.25 52.8807 52.1307 54 50.75 54C48.0689 54 47.4297 54 44.5 54C43.8097 54 43.25 54.5597 43.25 55.25C43.25 55.9403 43.8097 56.5 44.5 56.5H48.25C49.6285 56.5 50.75 57.6215 50.75 59C50.75 60.3785 49.6285 61.5 48.25 61.5H34.8075C29.2816 61.5 27.1234 60.9364 22.8237 59.8135C22.1939 59.649 21.503 59.4686 20.75 59.2766V36.2531C29.796 34.0984 40.75 28.8389 40.75 19.5V18.25C40.75 16.8715 41.8715 15.75 43.25 15.75C44.626 15.75 45.7474 16.8697 45.75 18.2461V18.25C45.75 18.7933 46.428 25.4604 43.7093 31.5H39.5C38.8097 31.5 38.25 32.0597 38.25 32.75C38.25 33.4403 38.8097 34 39.5 34C40.3729 34 54.3252 34 55.75 34C57.1285 34 58.25 35.1215 58.25 36.5C58.25 37.8808 57.1307 39 55.75 39Z" fill="white"/>
<path d="M14.5 44C13.8098 44 13.25 44.5598 13.25 45.25V55.25C13.25 55.9403 13.8098 56.5 14.5 56.5C15.1902 56.5 15.75 55.9403 15.75 55.25V45.25C15.75 44.5598 15.1902 44 14.5 44Z" fill="white"/>
<path d="M33.25 15.75H28.25C27.5598 15.75 27 16.3098 27 17C27 17.6902 27.5598 18.25 28.25 18.25H33.25C33.9402 18.25 34.5 17.6902 34.5 17C34.5 16.3098 33.9402 15.75 33.25 15.75Z" fill="white"/>
<path d="M58.25 15.75H53.25C52.5598 15.75 52 16.3098 52 17C52 17.6902 52.5598 18.25 53.25 18.25H58.25C58.9402 18.25 59.5 17.6902 59.5 17C59.5 16.3098 58.9402 15.75 58.25 15.75Z" fill="white"/>
<path d="M54.7401 5.5098C54.2518 5.0218 53.4606 5.0218 52.9722 5.5098L49.4373 9.04467C48.9492 9.5328 48.9492 10.3243 49.4373 10.8125C49.9257 11.3007 50.7168 11.3005 51.2052 10.8125L54.7401 7.27767C55.2282 6.78955 55.2282 5.99805 54.7401 5.5098Z" fill="white"/>
<path d="M37.0627 9.04467L33.5278 5.5098C33.0396 5.0218 32.2483 5.0218 31.76 5.5098C31.2718 5.99792 31.2718 6.78942 31.76 7.27767L35.2948 10.8125C35.7833 11.3007 36.5745 11.3005 37.0627 10.8125C37.5508 10.3244 37.5508 9.53292 37.0627 9.04467Z" fill="white"/>
</svg>
