<svg width="64" height="64" viewBox="0 0 64 64" fill="none" xmlns="http://www.w3.org/2000/svg">
<g clip-path="url(#clip0)">
<path d="M63.6304 44.4829L60.5792 41.4566C60.0889 40.9702 59.2974 40.9736 58.8111 41.4639C58.3247 41.9541 58.3281 42.7457 58.8184 43.232L61.8694 46.2582C62.1131 46.5001 62.4315 46.6209 62.7497 46.6209C63.0714 46.6209 63.393 46.4975 63.6374 46.251C64.1239 45.7607 64.1206 44.9691 63.6304 44.4829Z" fill="white"/>
<path d="M57.4702 38.3601C56.982 37.8718 56.1906 37.8718 55.7021 38.3601L55.7 38.3622C55.2117 38.8505 55.2129 39.6411 55.7011 40.1293C55.9448 40.3732 56.2647 40.4951 56.5845 40.4951C56.905 40.4951 57.2257 40.3727 57.4701 40.1283C57.9583 39.6401 57.9583 38.8485 57.4702 38.3601Z" fill="white"/>
<path d="M46.8116 44.1251L58.9401 31.9967C60.777 30.1597 60.777 27.1707 58.94 25.3337C58.2922 24.686 57.5011 24.2677 56.6679 24.0769C56.9536 23.4626 57.1049 22.7885 57.1049 22.0909C57.1049 20.8324 56.6147 19.6492 55.725 18.7595C55.0271 18.0615 54.1485 17.6107 53.1949 17.4484C53.7317 15.8126 53.3522 13.9392 52.0539 12.641C51.34 11.9272 50.4521 11.4922 49.5255 11.3332C49.6807 10.8621 49.7626 10.3646 49.7626 9.85411C49.7626 8.59561 49.2725 7.41249 48.3827 6.52274C47.4929 5.63299 46.3097 5.14286 45.0514 5.14286C44.2522 5.14286 43.4839 5.34111 42.8012 5.71336L42.6806 5.58374C41.1129 3.89899 38.8937 2.93286 36.5926 2.93286H26.7751C26.0847 2.93286 25.5249 3.49274 25.5249 4.18311V5.82261C25.5249 6.47874 25.6359 7.11749 25.8481 7.71811C25.2826 7.48324 24.6707 7.35986 24.04 7.35986C22.7815 7.35986 21.5984 7.84999 20.7085 8.73974C19.4095 10.0387 19.0304 11.9135 19.5685 13.5497C18.6411 13.7084 17.752 14.1436 17.0375 14.858C16.1477 15.7479 15.6576 16.931 15.6576 18.1894C15.6576 18.6989 15.7392 19.1956 15.8939 19.6657C14.9414 19.8286 14.0636 20.2791 13.3664 20.9765C11.9317 22.4111 11.6176 24.5486 12.424 26.291C11.5701 26.4861 10.7859 26.9161 10.1511 27.5507C8.31424 29.3876 8.31424 32.3766 10.1511 34.2136L12.6454 36.7077L0.366111 48.9867C-0.122139 49.475 -0.122139 50.2666 0.366111 50.755C0.610236 50.999 0.930236 51.1212 1.25011 51.1212C1.56999 51.1212 1.88999 50.9991 2.13411 50.755L14.5319 38.3572C15.2337 38.7577 16.0302 38.972 16.8604 38.972C18.1187 38.972 19.3019 38.4819 20.1917 37.592C21.1585 36.6254 21.6157 35.3395 21.5649 34.0705C21.6282 34.0731 21.6916 34.075 21.755 34.075C22.9612 34.0749 24.1681 33.6156 25.0864 32.6974C25.9761 31.8075 26.4662 30.6244 26.4662 29.366C26.4662 29.3024 26.4641 29.2391 26.4616 29.1759C26.5242 29.1784 26.5869 29.1804 26.6496 29.1804C27.856 29.1804 29.0626 28.7211 29.981 27.8027C30.8707 26.9129 31.3609 25.7297 31.3609 24.4714C31.3609 24.4077 31.3587 24.3445 31.3562 24.2812C31.4189 24.2837 31.4815 24.2857 31.5442 24.2857C32.7507 24.2857 33.9572 23.8265 34.8756 22.9081C36.6016 21.1821 36.7055 18.4392 35.1881 16.5904L43.4874 8.29111C43.905 7.87336 44.46 7.64349 45.0506 7.64349C45.6412 7.64349 46.1964 7.87336 46.614 8.29111C47.0316 8.70874 47.2615 9.26374 47.2615 9.85436C47.2615 10.4449 47.0316 11.0001 46.6139 11.4176L45.3902 12.6412L40.9505 17.081C40.4622 17.5692 40.4622 18.3609 40.9505 18.8492C41.1946 19.0932 41.5146 19.2155 41.8345 19.2155C42.1544 19.2155 42.4744 19.0934 42.7185 18.8492L47.1582 14.4095C48.0201 13.5475 49.4227 13.5474 50.2849 14.4094C51.1469 15.2715 51.1469 16.674 50.2849 17.5361L49.0611 18.7599L45.8451 21.9759C45.3569 22.4641 45.3569 23.2557 45.8451 23.7441C46.0892 23.9881 46.4092 24.1104 46.7291 24.1104C47.049 24.1104 47.369 23.9882 47.6131 23.7441L50.8291 20.5281C51.2467 20.1104 51.8019 19.8805 52.3924 19.8805C52.983 19.8805 53.5381 20.1104 53.9557 20.5281C54.3734 20.9457 54.6032 21.5007 54.6032 22.0914C54.6032 22.6819 54.3734 23.2371 53.9556 23.6546L52.276 25.3342L50.7396 26.8706C50.2514 27.3589 50.2514 28.1505 50.7396 28.6389C50.9837 28.8829 51.3037 29.0051 51.6236 29.0051C51.9435 29.0051 52.2635 28.883 52.5076 28.6389L54.0451 27.1014C54.9072 26.2407 56.309 26.2409 57.1706 27.1025C58.0327 27.9645 58.0327 29.3671 57.1706 30.2292L45.0421 42.3576C41.9966 45.4032 37.949 47.1664 33.6449 47.3226C33.3285 47.3341 33.028 47.4652 32.8045 47.6897L21.6005 58.9352C21.1131 59.4244 21.1145 60.216 21.6037 60.7034C21.8476 60.9464 22.1669 61.068 22.4861 61.068C22.8067 61.068 23.1276 60.9454 23.3717 60.7001L31.6126 52.4289C33.7059 53.7717 36.1676 54.4102 38.6707 54.2447L45.1205 60.6946C45.3646 60.9386 45.6846 61.0609 46.0045 61.0609C46.3245 61.0609 46.6444 60.9387 46.8885 60.6946C47.3767 60.2064 47.3767 59.4147 46.8885 58.9264L40.031 52.0681C39.7714 51.8086 39.4106 51.676 39.0447 51.706L38.6484 51.7385C36.8187 51.8885 35.0102 51.4877 33.4312 50.6029L34.2347 49.7965C38.9867 49.5034 43.4357 47.5011 46.8116 44.1251ZM18.4237 35.824C18.0061 36.2417 17.4509 36.4716 16.8605 36.4716C16.2699 36.4716 15.7147 36.2417 15.2972 35.824L11.919 32.4459C11.057 31.5839 11.057 30.1812 11.919 29.3191C12.3366 28.9014 12.8919 28.6715 13.4824 28.6715C14.0729 28.6715 14.6281 28.9014 15.0456 29.3191L18.4239 32.6972C19.2857 33.5592 19.2857 34.9619 18.4237 35.824ZM23.3186 30.9291C22.4565 31.7911 21.0536 31.7911 20.1919 30.9291L16.8136 27.5509L15.1339 25.8711C14.2719 25.0091 14.2719 23.6065 15.1339 22.7445C15.5515 22.3267 16.1067 22.0969 16.6971 22.0969C17.2877 22.0969 17.8429 22.3267 18.2604 22.7445L23.3182 27.8024C23.3182 27.8024 23.3182 27.8024 23.3184 27.8024C23.7361 28.2201 23.966 28.7752 23.966 29.3657C23.966 29.9562 23.7361 30.5115 23.3186 30.9291ZM28.2132 26.0344C27.3511 26.8962 25.9484 26.8964 25.0865 26.0344L18.8049 19.7527C18.3872 19.3351 18.1574 18.7801 18.1574 18.1895C18.1574 17.599 18.3872 17.0437 18.805 16.6262C19.236 16.1952 19.8022 15.9797 20.3682 15.9797C20.934 15.9797 21.4996 16.195 21.9305 16.6252L24.7935 19.4882L28.213 22.9077H28.2131C28.6306 23.3254 28.8605 23.8804 28.8605 24.471C28.8607 25.0616 28.6309 25.6169 28.2132 26.0344ZM33.108 21.1396C32.246 22.0016 30.8434 22.0016 29.9814 21.1396L23.6997 14.858C23.6991 14.8574 23.6984 14.8567 23.6976 14.856L22.476 13.6344C21.614 12.7722 21.614 11.3697 22.476 10.5076C22.907 10.0765 23.4732 9.86099 24.0394 9.86099C24.6055 9.86099 25.1717 10.0765 25.6026 10.5076L33.1077 18.0127C33.5255 18.4304 33.7554 18.9855 33.7554 19.576C33.7555 20.1667 33.5257 20.7221 33.108 21.1396ZM33.4367 14.8056L30.0027 11.3716C30.3921 11.4547 30.7925 11.4989 31.2 11.4987C31.2091 11.4987 31.2184 11.4987 31.2276 11.4987L34.6586 11.4826C35.349 11.4794 35.9062 10.917 35.903 10.2265C35.8997 9.53799 35.3406 8.98211 34.6529 8.98211C34.6509 8.98211 34.6489 8.98211 34.6469 8.98211L31.2159 8.99824C31.2106 8.99824 31.2056 8.99824 31.2004 8.99824C30.355 8.99824 29.5599 8.67011 28.9604 8.07349C28.3571 7.47299 28.025 6.67374 28.025 5.82249V5.43324H36.5922C38.2016 5.43324 39.7535 6.10886 40.85 7.28711L40.9009 7.34174L33.4367 14.8056Z" fill="white"/>
</g>
<defs>
<clipPath id="clip0">
<rect width="64" height="64" fill="white"/>
</clipPath>
</defs>
</svg>
