<svg width="64" height="64" viewBox="0 0 64 64" fill="none" xmlns="http://www.w3.org/2000/svg">
<path d="M48.3965 26.8555H15.6035C14.9131 26.8555 14.3535 26.2959 14.3535 25.6055V20.7305C14.3535 20.04 14.9131 19.4805 15.6035 19.4805H48.3965C49.0869 19.4805 49.6465 20.04 49.6465 20.7305V25.6055C49.6465 26.2959 49.0869 26.8555 48.3965 26.8555ZM16.8535 24.3555H47.1465V21.9805H16.8535V24.3555Z" fill="white"/>
<path d="M17.814 32.9396C17.4849 32.9396 17.1626 32.8058 16.9302 32.5734C16.6973 32.3409 16.564 32.0182 16.564 31.6896C16.564 31.608 16.5713 31.5255 16.5874 31.4459C16.6035 31.3658 16.6274 31.2872 16.6587 31.212C16.6899 31.1359 16.7285 31.0631 16.7739 30.9957C16.8198 30.9269 16.8726 30.8634 16.9302 30.8058C17.2202 30.5157 17.6514 30.382 18.0576 30.4645C18.1377 30.4796 18.2163 30.5045 18.291 30.5358C18.3677 30.567 18.4399 30.6056 18.5073 30.6495C18.5762 30.6959 18.6396 30.7482 18.6973 30.8058C18.7549 30.8634 18.8076 30.9269 18.8525 30.9957C18.8975 31.0631 18.936 31.1359 18.9673 31.212C18.9985 31.2872 19.0225 31.3658 19.0386 31.4459C19.0552 31.5255 19.064 31.608 19.064 31.6896C19.064 32.0182 18.9302 32.3409 18.6973 32.5734C18.6401 32.631 18.5762 32.6832 18.5073 32.7281C18.4399 32.7731 18.3677 32.8121 18.291 32.8434C18.2163 32.8746 18.1377 32.8995 18.0576 32.9147C17.9775 32.9308 17.895 32.9396 17.814 32.9396Z" fill="white"/>
<path d="M32.9795 38.3765H17.8135C17.123 38.3765 16.5635 37.8169 16.5635 37.1265C16.5635 36.436 17.123 35.8765 17.8135 35.8765H32.9795C33.6699 35.8765 34.2295 36.436 34.2295 37.1265C34.2295 37.8169 33.6694 38.3765 32.9795 38.3765Z" fill="white"/>
<path d="M62.75 7.75H1.25C0.55957 7.75 0 8.30957 0 9V50.9639C0 51.6543 0.55957 52.2139 1.25 52.2139H38.7271V54.9038C38.7271 55.353 38.9678 55.7676 39.3579 55.9897C39.748 56.2119 40.2275 56.208 40.6138 55.9795L44.2686 53.8145L47.9639 55.9819C48.1587 56.0967 48.3774 56.1538 48.5962 56.1538C48.8105 56.1538 49.0249 56.0986 49.2173 55.9883C49.6064 55.7656 49.8462 55.3521 49.8462 54.9038V52.2139H62.75C63.4404 52.2139 64 51.6543 64 50.9639V9C64 8.30957 63.4404 7.75 62.75 7.75V7.75ZM38.7949 38.4307C38.7949 35.4028 41.2583 32.9395 44.2866 32.9395C47.3145 32.9395 49.7778 35.4028 49.7778 38.4307C49.7778 41.459 47.3145 43.9224 44.2866 43.9224C41.2588 43.9224 38.7949 41.4585 38.7949 38.4307ZM49.8462 44.166C51.3452 42.7124 52.2778 40.6787 52.2778 38.4307C52.2778 34.0244 48.6934 30.4395 44.2866 30.4395H23.1885C22.498 30.4395 21.9385 30.999 21.9385 31.6895C21.9385 32.3799 22.498 32.9395 23.1885 32.9395H38.4858C37.1289 34.3721 36.2954 36.3062 36.2954 38.4307C36.2954 40.6787 37.228 42.7124 38.7271 44.166V44.7139H11.8628C11.3799 42.5449 9.66895 40.8335 7.5 40.3511V19.6128C9.66895 19.1304 11.3799 17.4189 11.8628 15.25H52.1372C52.6196 17.4189 54.3311 19.1304 56.5 19.6128V40.3511C54.3311 40.834 52.6196 42.5449 52.1372 44.7139H49.8462V44.166ZM44.8984 51.2852C44.5063 51.0547 44.02 51.0562 43.6284 51.2876L41.2271 52.7104V45.813C42.1699 46.2056 43.2031 46.4219 44.2866 46.4219C45.3696 46.4219 46.4033 46.2056 47.3462 45.813V52.7212L44.8984 51.2852ZM61.5 49.7139H49.8462V47.2139H53.2505C53.9409 47.2139 54.5005 46.6543 54.5005 45.9639C54.5005 44.1719 55.958 42.7144 57.75 42.7144C58.4404 42.7144 59 42.1543 59 41.4644V18.4995C59 17.8096 58.4404 17.2495 57.75 17.2495C55.958 17.2495 54.5005 15.792 54.5005 14C54.5005 13.3096 53.9409 12.75 53.2505 12.75H10.7495C10.0596 12.75 9.49951 13.3096 9.49951 14C9.49951 15.792 8.04199 17.2495 6.25 17.2495C5.55957 17.2495 5 17.8096 5 18.4995V41.4639C5 42.1543 5.55957 42.7139 6.25 42.7139C8.04199 42.7139 9.49951 44.1719 9.49951 45.9639C9.49951 46.6543 10.0596 47.2139 10.7495 47.2139H38.7271V49.7139H2.5V10.25H61.5V49.7139Z" fill="white"/>
</svg>
