<svg width="64" height="64" viewBox="0 0 64 64" fill="none" xmlns="http://www.w3.org/2000/svg">
<path d="M32 5.07422C24.2795 5.07422 17.9987 11.3552 17.9987 19.0755C17.9987 22.3898 19.1784 25.6052 21.3209 28.1297C21.5619 28.4137 21.9122 28.5709 22.2741 28.5709C22.3837 28.5709 22.4943 28.5564 22.6032 28.5267C25.1181 27.8398 28.0182 27.4916 31.2229 27.4916C31.4749 27.4916 31.7265 27.4938 31.979 27.4979C31.9929 27.4983 32.0071 27.4983 32.021 27.4979C32.273 27.4937 32.5251 27.4916 32.7771 27.4916C35.9817 27.4916 38.8816 27.8398 41.396 28.5267C41.864 28.6546 42.364 28.4999 42.6785 28.1298C44.8213 25.6053 46.0013 22.3898 46.0013 19.0755C46.0014 11.3551 39.7204 5.07422 32 5.07422ZM41.2506 25.9087C38.7179 25.2998 35.8722 24.9915 32.7772 24.9915C32.5185 24.9915 32.2591 24.9938 32.0001 24.9979C31.7409 24.9937 31.482 24.9915 31.223 24.9915C28.1277 24.9915 25.2821 25.2998 22.7491 25.9087C21.2931 23.9383 20.4988 21.5403 20.4988 19.0755C20.4988 12.7337 25.6582 7.57423 32.0001 7.57423C38.342 7.57423 43.5014 12.7337 43.5014 19.0755C43.5014 21.5403 42.7069 23.9383 41.2506 25.9087Z" fill="white"/>
<path d="M56.7676 47.0346C56.1772 38.8269 53.3162 32.7868 48.258 29.0579C50.1052 26.0602 51.0754 22.6348 51.0754 19.0754C51.0754 8.55728 42.5183 0 32 0C21.4817 0 12.9243 8.55728 12.9243 19.0754C12.9243 22.635 13.8948 26.0602 15.7419 29.0579C10.6835 32.7868 7.82262 38.8269 7.23237 47.0346C6.89112 51.7821 8.01337 55.5815 10.5685 58.3269C12.5898 60.4987 15.4379 62.0002 19.2758 62.9171C22.3253 63.6457 26.0346 64 30.615 64C31.063 64 31.5291 63.9966 32 63.99C32.4712 63.9966 32.937 64 33.385 64C37.9649 64 41.6738 63.6458 44.7236 62.917C48.5613 62 51.4094 60.4984 53.4309 58.3265C55.9863 55.581 57.1088 51.7818 56.7676 47.0346ZM51.601 56.6232C48.5047 59.9502 42.7163 61.4999 33.3851 61.5C32.9432 61.5 32.4832 61.4966 32.0178 61.49C32.0117 61.49 32.0058 61.4899 32 61.4899C31.9938 61.4899 31.988 61.49 31.9821 61.49C31.5167 61.4966 31.0568 61.5 30.6148 61.5C21.283 61.5 15.4947 59.9505 12.3985 56.6237C10.3065 54.3757 9.43225 51.2978 9.72588 47.2139C10.2959 39.2865 13.125 33.6449 18.1348 30.4457C18.4234 30.2615 18.6238 29.967 18.6893 29.6309C18.7544 29.2949 18.6793 28.9466 18.4808 28.6676C16.4813 25.856 15.4242 22.5391 15.4242 19.0753C15.4244 9.93567 22.8601 2.50001 32 2.50001C41.1396 2.50001 48.5753 9.93566 48.5753 19.0754C48.5753 22.5391 47.5184 25.8561 45.5189 28.6677C45.3206 28.9467 45.2453 29.2949 45.3106 29.6309C45.376 29.967 45.5763 30.2614 45.8649 30.4457C50.8744 33.6449 53.7038 39.2867 54.2739 47.2139C54.5672 51.2975 53.6931 54.3752 51.601 56.6232Z" fill="white"/>
<path d="M50.8015 43.1666C50.7895 43.1177 50.7766 43.0687 50.7636 43.0197L50.7538 42.9822C50.5786 42.3145 49.8947 41.915 49.2275 42.0904C48.5597 42.2655 48.1603 42.9489 48.3356 43.6166L48.3468 43.6591C48.3556 43.6922 48.3645 43.7254 48.3725 43.7582C48.5116 44.3296 49.0228 44.7127 49.5858 44.7127C49.6837 44.7127 49.7833 44.7011 49.8827 44.6769C50.5532 44.5135 50.9647 43.8374 50.8015 43.1666Z" fill="white"/>
<path d="M51.5418 47.939C51.4921 47.2502 50.8922 46.7319 50.2052 46.7816C49.5167 46.8311 48.9987 47.4294 49.048 48.1179C49.216 50.4554 48.8229 52.0879 47.8466 53.1085C46.999 53.9944 45.5512 54.6893 43.5436 55.1738C42.8725 55.3358 42.4598 56.011 42.6217 56.6821C42.7598 57.2548 43.2716 57.6393 43.8358 57.6393C43.933 57.6393 44.0316 57.6279 44.1301 57.6041C46.6109 57.0055 48.469 56.0745 49.6531 54.8369C51.1453 53.277 51.7633 51.0208 51.5418 47.939Z" fill="white"/>
<path d="M41.1935 42.2925H36.9012C36.2108 42.2925 35.6512 42.8521 35.6512 43.5425C35.6512 44.2329 36.2108 44.7925 36.9012 44.7925H39.7427C39.2734 46.0914 38.0564 46.585 36.9012 46.585C35.2237 46.585 33.8589 44.8858 33.8589 42.7971C33.8589 41.0868 34.5961 39.7616 35.8814 39.1615C37.0994 38.5926 38.5589 38.8277 39.6901 39.775C40.2192 40.218 41.0077 40.1485 41.4511 39.6191C41.8942 39.0899 41.8243 38.3015 41.2951 37.8582C39.4116 36.2806 36.9316 35.912 34.8238 36.8962C32.6542 37.9092 31.3589 40.1153 31.3589 42.7973C31.3589 46.2644 33.8451 49.0852 36.9012 49.0852C40.1643 49.0852 42.4435 46.806 42.4435 43.5427C42.4435 42.8521 41.8838 42.2925 41.1935 42.2925Z" fill="white"/>
<path d="M29.9719 47.2126L26.8609 41.7947L29.5784 38.4951C30.0174 37.9622 29.9409 37.1744 29.4083 36.7356C28.8753 36.2968 28.0875 36.3729 27.6488 36.9058L24.167 41.1336L24.2246 37.6292C24.2359 36.9389 23.6855 36.3702 22.9954 36.3588C22.2989 36.3477 21.7364 36.8979 21.7249 37.5881L21.6079 44.6875C21.6079 44.6886 21.6079 44.6899 21.6079 44.691L21.5564 47.8145C21.5451 48.5047 22.0955 49.0735 22.7856 49.0849C22.7927 49.085 22.7997 49.085 22.8066 49.085C23.4875 49.085 24.0449 48.5387 24.0561 47.8556L24.1007 45.1461L25.1622 43.8571L27.8039 48.4575C28.0349 48.86 28.456 49.0853 28.8891 49.0853C29.1001 49.0853 29.3141 49.0318 29.5103 48.919C30.1089 48.5752 30.3156 47.8112 29.9719 47.2126Z" fill="white"/>
</svg>
