<svg width="64" height="64" viewBox="0 0 64 64" fill="none" xmlns="http://www.w3.org/2000/svg">
<path d="M17 56H15V58H17V56Z" fill="white"/>
<path d="M38 44H21V29C21 28.7348 20.8946 28.4804 20.7071 28.2929C20.5196 28.1054 20.2652 28 20 28H2C1.73478 28 1.48043 28.1054 1.29289 28.2929C1.10536 28.4804 1 28.7348 1 29V61C1 61.2652 1.10536 61.5196 1.29289 61.7071C1.48043 61.8946 1.73478 62 2 62H38C38.2652 62 38.5196 61.8946 38.7071 61.7071C38.8946 61.5196 39 61.2652 39 61V45C39 44.7348 38.8946 44.4804 38.7071 44.2929C38.5196 44.1054 38.2652 44 38 44ZM27 46H31V50H27V46ZM9 30H13V34H9V30ZM3 30H7V35C7 35.2652 7.10536 35.5196 7.29289 35.7071C7.48043 35.8946 7.73478 36 8 36H14C14.2652 36 14.5196 35.8946 14.7071 35.7071C14.8946 35.5196 15 35.2652 15 35V30H19V44H3V30ZM9 46H13V50H9V46ZM3 46H7V51C7 51.2652 7.10536 51.5196 7.29289 51.7071C7.48043 51.8946 7.73478 52 8 52H14C14.2652 52 14.5196 51.8946 14.7071 51.7071C14.8946 51.5196 15 51.2652 15 51V46H19V60H3V46ZM37 60H21V46H25V51C25 51.2652 25.1054 51.5196 25.2929 51.7071C25.4804 51.8946 25.7348 52 26 52H32C32.2652 52 32.5196 51.8946 32.7071 51.7071C32.8946 51.5196 33 51.2652 33 51V46H37V60Z" fill="white"/>
<path d="M35 56H33V58H35V56Z" fill="white"/>
<path d="M17 40H15V42H17V40Z" fill="white"/>
<path d="M59.7654 13.972C59.8422 13.9907 59.921 14.0001 60 14C60.1753 13.9999 60.3474 13.9539 60.4993 13.8665C60.6512 13.7791 60.7775 13.6534 60.8658 13.502C60.9566 13.3422 61.0029 13.1609 61 12.977V9.00004C61 8.77564 60.9245 8.55777 60.7857 8.38147C60.6469 8.20517 60.4528 8.08068 60.2346 8.02803L31.2346 1.02803C31.0805 0.990656 30.9196 0.990656 30.7654 1.02803L1.76539 8.02803C1.54726 8.08068 1.35317 8.20517 1.21435 8.38147C1.07553 8.55777 1.00004 8.77564 1.00002 9.00004V12.9717C0.996599 13.1811 1.05646 13.3866 1.17177 13.5614C1.28619 13.7297 1.44915 13.8591 1.63896 13.9325C1.82877 14.0058 2.03642 14.0196 2.23427 13.972L4.00002 13.5459V26H6.00002V13.0632L31 7.02866L56 13.0632V60H50V21C50 20.7348 49.8947 20.4805 49.7071 20.2929C49.5196 20.1054 49.2652 20 49 20H13C12.7348 20 12.4804 20.1054 12.2929 20.2929C12.1054 20.4805 12 20.7348 12 21V25C12 25.2653 12.1054 25.5196 12.2929 25.7071C12.4804 25.8947 12.7348 26 13 26H48V28H23V30H48V32H23V34H48V36H23V38H48V60H41V62H61V60H58V13.5459L59.7654 13.972ZM14 24V22H48V24H14ZM31 5.00003C30.921 4.99999 30.8422 5.00939 30.7654 5.02803L3.00002 11.7299V9.78754L31 3.02878L59 9.78754V11.73L31.2346 5.02803C31.1578 5.00939 31.0791 4.99999 31 5.00003Z" fill="white"/>
<path d="M33 17C33.7956 17 34.5587 16.6839 35.1213 16.1213C35.6839 15.5587 36 14.7957 36 14C36 13.2044 35.6839 12.4413 35.1213 11.8787C34.5587 11.3161 33.7956 11 33 11H29C28.2044 11 27.4413 11.3161 26.8787 11.8787C26.3161 12.4413 26 13.2044 26 14C26 14.7957 26.3161 15.5587 26.8787 16.1213C27.4413 16.6839 28.2044 17 29 17H33ZM28 14C28.0003 13.7349 28.1058 13.4807 28.2932 13.2932C28.4807 13.1058 28.7349 13.0003 29 13H33C33.2652 13 33.5196 13.1054 33.7071 13.2929C33.8946 13.4804 34 13.7348 34 14C34 14.2652 33.8946 14.5196 33.7071 14.7071C33.5196 14.8946 33.2652 15 33 15H29C28.7349 14.9997 28.4807 14.8942 28.2932 14.7068C28.1058 14.5193 28.0003 14.2651 28 14Z" fill="white"/>
</svg>
