<svg width="50" height="50" viewBox="0 0 50 50" fill="none" xmlns="http://www.w3.org/2000/svg">
<rect width="50" height="50" fill="#1E836B"/>
<g clip-path="url(#clip0_38_444)">
<path d="M35.5262 29.9455C35.4865 29.9125 30.9895 26.7085 29.7753 26.9088C29.1895 27.0123 28.855 27.412 28.1838 28.2115C28.0758 28.3405 27.8155 28.6488 27.6145 28.8685C27.1902 28.7303 26.7764 28.5619 26.3762 28.3645C24.3104 27.3588 22.6412 25.6896 21.6355 23.6237C21.4381 23.2236 21.2697 22.8098 21.1315 22.3855C21.352 22.1837 21.661 21.9235 21.793 21.8125C22.5887 21.145 22.9877 20.8097 23.0912 20.2232C23.3035 19.009 20.0875 14.5135 20.0545 14.473C19.908 14.2653 19.7173 14.0927 19.496 13.9677C19.2748 13.8426 19.0285 13.7683 18.775 13.75C17.4715 13.75 13.75 18.577 13.75 19.3907C13.75 19.438 13.8183 24.241 19.741 30.2657C25.759 36.1817 30.562 36.25 30.6093 36.25C31.4223 36.25 36.25 32.5285 36.25 31.225C36.2315 30.9715 36.157 30.7252 36.0319 30.5039C35.9067 30.2827 35.734 30.092 35.5262 29.9455ZM30.526 34.7455C29.875 34.69 25.84 34.1583 20.8 29.2075C15.8252 24.1428 15.307 20.101 15.2552 19.4748C16.2383 17.9317 17.4256 16.5288 18.7847 15.304C18.8147 15.334 18.8545 15.379 18.9055 15.4375C19.9479 16.8604 20.8458 18.3837 21.586 19.9847C21.3453 20.2269 21.0909 20.455 20.824 20.668C20.4101 20.9833 20.0301 21.3408 19.69 21.7345C19.6325 21.8152 19.5915 21.9066 19.5695 22.0033C19.5475 22.1 19.5448 22.2 19.5617 22.2978C19.7205 22.9853 19.9636 23.6506 20.2855 24.2785C21.4389 26.647 23.3528 28.5607 25.7215 29.7137C26.3493 30.0361 27.0146 30.2795 27.7023 30.4382C27.8 30.4552 27.9 30.4525 27.9967 30.4305C28.0934 30.4085 28.1848 30.3675 28.2655 30.31C28.6606 29.9685 29.0193 29.587 29.3358 29.1715C29.5713 28.891 29.8855 28.5168 30.0048 28.411C31.6099 29.1505 33.1365 30.0495 34.5618 31.0945C34.624 31.147 34.6683 31.1875 34.6975 31.2137C33.4727 32.5733 32.0694 33.7609 30.526 34.744V34.7455Z" fill="white"/>
<path d="M25.75 19.75C26.9431 19.7512 28.087 20.2257 28.9307 21.0693C29.7743 21.913 30.2488 23.0569 30.25 24.25C30.25 24.4489 30.329 24.6397 30.4697 24.7803C30.6103 24.921 30.8011 25 31 25C31.1989 25 31.3897 24.921 31.5303 24.7803C31.671 24.6397 31.75 24.4489 31.75 24.25C31.7482 22.6592 31.1155 21.1342 29.9907 20.0093C28.8658 18.8845 27.3408 18.2518 25.75 18.25C25.5511 18.25 25.3603 18.329 25.2197 18.4697C25.079 18.6103 25 18.8011 25 19C25 19.1989 25.079 19.3897 25.2197 19.5303C25.3603 19.671 25.5511 19.75 25.75 19.75Z" fill="white"/>
<path d="M25.75 16C27.9372 16.0026 30.0342 16.8726 31.5808 18.4192C33.1274 19.9658 33.9974 22.0628 34 24.25C34 24.4489 34.079 24.6397 34.2197 24.7803C34.3603 24.921 34.5511 25 34.75 25C34.9489 25 35.1397 24.921 35.2803 24.7803C35.421 24.6397 35.5 24.4489 35.5 24.25C35.497 21.6651 34.4688 19.1868 32.641 17.359C30.8132 15.5312 28.3349 14.503 25.75 14.5C25.5511 14.5 25.3603 14.579 25.2197 14.7197C25.079 14.8603 25 15.0511 25 15.25C25 15.4489 25.079 15.6397 25.2197 15.7803C25.3603 15.921 25.5511 16 25.75 16Z" fill="white"/>
</g>
<defs>
<clipPath id="clip0_38_444">
<rect width="24" height="24" fill="white" transform="translate(13 13)"/>
</clipPath>
</defs>
</svg>
