<svg width="40" height="34" viewBox="0 0 40 34" fill="none" xmlns="http://www.w3.org/2000/svg">
<g clip-path="url(#clip0)">
<path d="M38.6922 15.7338L34.3962 9.90019C33.4642 8.63313 32.0043 7.8883 30.456 7.8883H27.7V5.05968C27.7017 2.2653 25.4919 0 22.766 0L4.924 0.00856121C1.58343 0.00856121 0 2.05469 0 5.30795V25.7898C0 28.5842 2.20979 30.8495 4.93569 30.8495H6.12995C6.88325 32.7449 8.69217 34.0017 10.6998 34.0017C12.7075 34.0017 14.5165 32.7449 15.2698 30.8495H24.3461C25.0994 32.7449 26.9083 34.0017 28.916 34.0017C30.9237 34.0017 32.7326 32.7449 33.4859 30.8495H37.4779C38.8709 30.8495 40 29.692 40 28.264V19.7302C40 18.297 39.5357 16.8776 38.6922 15.7338ZM11.246 30.0362C10.1921 30.5892 9.08969 29.4608 9.6292 28.3804C9.74445 28.151 9.92985 27.9592 10.1537 27.8428C11.2059 27.2931 12.3067 28.4181 11.7705 29.4985C11.6569 29.728 11.4715 29.9197 11.246 30.0362ZM23.9803 27.0329H15.2698C14.5165 25.1374 12.7075 23.8806 10.6998 23.8806C8.69217 23.8806 6.88325 25.1374 6.12995 27.0329H4.93569C4.26591 27.0329 3.7214 26.4764 3.7214 25.7881V5.0066C3.7214 4.35252 4.23918 3.82344 4.87556 3.82344L22.766 3.81488C23.4358 3.81488 23.9803 4.37135 23.9803 5.05968V27.0329ZM27.7017 11.7015H30.4593C30.8402 11.7015 31.1976 11.8847 31.4281 12.1963L34.9257 16.9478H27.7017V11.7015ZM29.4622 30.0362C28.4082 30.5892 27.3058 29.4608 27.8453 28.3787C27.9606 28.1493 28.146 27.9592 28.3698 27.8411C29.4221 27.2914 30.5211 28.4181 29.985 29.4968C29.8731 29.728 29.686 29.9197 29.4622 30.0362ZM36.2769 27.0329H33.4842C32.7309 25.1374 30.922 23.8806 28.9143 23.8806C28.5034 23.8806 28.0959 23.932 27.7 24.0365V20.7627H36.2753V27.0329H36.2769Z" fill="#FF6600"/>
</g>
<defs>
<clipPath id="clip0">
<rect width="40" height="34" fill="white"/>
</clipPath>
</defs>
</svg>
