<svg xmlns="http://www.w3.org/2000/svg" width="40" height="40" viewBox="0 0 40 40">
  <metadata><?xpacket begin="﻿" id="W5M0MpCehiHzreSzNTczkc9d"?>
<x:xmpmeta xmlns:x="adobe:ns:meta/" x:xmptk="Adobe XMP Core 5.6-c142 79.160924, 2017/07/13-01:06:39        ">
   <rdf:RDF xmlns:rdf="http://www.w3.org/1999/02/22-rdf-syntax-ns#">
      <rdf:Description rdf:about=""/>
   </rdf:RDF>
</x:xmpmeta>
                                                                                                    
                                                                                                    
                                                                                                    
                                                                                                    
                                                                                                    
                                                                                                    
                                                                                                    
                                                                                                    
                                                                                                    
                                                                                                    
                                                                                                    
                                                                                                    
                                                                                                    
                                                                                                    
                                                                                                    
                                                                                                    
                                                                                                    
                                                                                                    
                                                                                                    
                                                                                                    
                           
<?xpacket end="w"?></metadata>
<defs>
    <style>
      .cls-1 {
        fill: #fff;
        fill-rule: evenodd;
      }
    </style>
  </defs>
  <path class="cls-1" d="M1300.85,725.07h-3.13a0.586,0.586,0,1,0,0,1.172h3.13A0.586,0.586,0,0,0,1300.85,725.07Zm1.88-2.5h-5.01a0.586,0.586,0,1,0,0,1.172h5.01A0.586,0.586,0,0,0,1302.73,722.565Zm30.06-13.151h-8.5v-18.2a1.21,1.21,0,0,0-1.21-1.212h-18.16a1.21,1.21,0,0,0-1.21,1.212v18.2h-8.5a1.21,1.21,0,0,0-1.21,1.212v18.162a1.211,1.211,0,0,0,1.21,1.212h37.58a1.211,1.211,0,0,0,1.21-1.212V710.626A1.21,1.21,0,0,0,1332.79,709.414Zm-8.1,1.171v5.091h-1.96v-5.091h1.96Zm-9.71-19.414v5.091h-1.96v-5.091h1.96Zm-11.67,19.414h1.96v5.091h-1.96v-5.091Zm29.48,18.243h-18.2V710.585h3.79a0.586,0.586,0,1,0,0-1.171h-8.76a0.586,0.586,0,1,0,0,1.171h3.79v18.243h-18.2a0.041,0.041,0,0,1-.04-0.04V710.626a0.042,0.042,0,0,1,.04-0.041h6.93v5.677a0.585,0.585,0,0,0,.59.586h3.13a0.583,0.583,0,0,0,.58-0.586v-5.677h0.67a0.586,0.586,0,1,0,0-1.171h-2.23v-18.2a0.042,0.042,0,0,1,.04-0.041h6.93v5.677a0.583,0.583,0,0,0,.58.586h3.14a0.583,0.583,0,0,0,.58-0.586v-5.677h6.93a0.042,0.042,0,0,1,.04.041v18.2h-2.23a0.586,0.586,0,1,0,0,1.171h0.67v5.677a0.583,0.583,0,0,0,.58.586h3.13a0.585,0.585,0,0,0,.59-0.586v-5.677h6.93a0.042,0.042,0,0,1,.04.041v18.162h0A0.041,0.041,0,0,1,1332.79,728.828Zm-12.53-3.758h-3.13a0.586,0.586,0,0,0,0,1.172h3.13A0.586,0.586,0,1,0,1320.26,725.07Zm1.88-2.5h-5.01a0.586,0.586,0,0,0,0,1.172h5.01A0.586,0.586,0,1,0,1322.14,722.565Zm-11.58-16.909h-3.14a0.586,0.586,0,0,0,0,1.172h3.14A0.586,0.586,0,0,0,1310.56,705.656Zm1.87-2.5h-5.01a0.586,0.586,0,0,0,0,1.172h5.01A0.586,0.586,0,1,0,1312.43,703.151Z" transform="translate(-1294 -690)"/>
</svg>
