<svg xmlns="http://www.w3.org/2000/svg" width="43" height="43" viewBox="0 0 43 43">
  <metadata><?xpacket begin="﻿" id="W5M0MpCehiHzreSzNTczkc9d"?>
<x:xmpmeta xmlns:x="adobe:ns:meta/" x:xmptk="Adobe XMP Core 5.6-c142 79.160924, 2017/07/13-01:06:39        ">
   <rdf:RDF xmlns:rdf="http://www.w3.org/1999/02/22-rdf-syntax-ns#">
      <rdf:Description rdf:about=""/>
   </rdf:RDF>
</x:xmpmeta>
                                                                                                    
                                                                                                    
                                                                                                    
                                                                                                    
                                                                                                    
                                                                                                    
                                                                                                    
                                                                                                    
                                                                                                    
                                                                                                    
                                                                                                    
                                                                                                    
                                                                                                    
                                                                                                    
                                                                                                    
                                                                                                    
                                                                                                    
                                                                                                    
                                                                                                    
                                                                                                    
                           
<?xpacket end="w"?></metadata>
<defs>
    <style>
      .cls-1 {
        fill: #fff;
        fill-rule: evenodd;
      }
    </style>
  </defs>
  <path class="cls-1" d="M736.85,2361.69a35.418,35.418,0,0,0-10.479-4.03l0.3-.41a0.57,0.57,0,0,0,.144-0.58l-0.672-2.68c0.243-.35.473-0.7,0.688-1.07,2.671-.91,4.021-2.44,4.248-4.71a2.357,2.357,0,0,0,2.186-2.29v-5.37a2.31,2.31,0,0,0-2.163-2.29c-0.158-4.14-1.983-12.26-13.6-12.26s-13.446,8.12-13.6,12.26a2.307,2.307,0,0,0-2.163,2.29v5.37a2.377,2.377,0,0,0,2.365,2.3h1.075a2.234,2.234,0,0,0,1.106-.31,15.658,15.658,0,0,0,2.576,6.08l-0.672,2.68a0.976,0.976,0,0,0,.144.58l0.3,0.41a35.418,35.418,0,0,0-10.479,4.03,3.808,3.808,0,0,0-2.15,3.51v3.08a0.68,0.68,0,0,0,.717.72h41.566a0.68,0.68,0,0,0,.717-0.72v-3.08A4.115,4.115,0,0,0,736.85,2361.69Zm-19.346-1.64,1.716,3.93h-3.464Zm-2.269,5.37h4.527l0.419,2.15h-5.376Zm9.79-10.04,0.287,1.29-0.733,1.01a0.618,0.618,0,0,0-.127.14l-2.981,4.13-0.946,1.3-1.932-4.35a10.418,10.418,0,0,0,6.137-3.21C724.829,2355.59,724.928,2355.49,725.025,2355.38Zm2.8-4.46a15.361,15.361,0,0,0,.9-3.03,2.374,2.374,0,0,0,.918.31A3.491,3.491,0,0,1,727.823,2350.92Zm3.939-10.44v5.37a0.872,0.872,0,0,1-.86.86h-1.075a0.873,0.873,0,0,1-.86-0.86v-5.37a0.871,0.871,0,0,1,.86-0.86H730.9A0.866,0.866,0,0,1,731.762,2340.48ZM717.5,2327.43c4.417,0,11.852,1.45,12.171,10.84a2.265,2.265,0,0,0-.848.26,11.466,11.466,0,0,0-22.646,0,2.211,2.211,0,0,0-.848-0.26C705.648,2328.88,713.083,2327.43,717.5,2327.43Zm-11.538,18.42a0.872,0.872,0,0,1-.86.86h-1.075a0.873,0.873,0,0,1-.86-0.86v-5.37a0.871,0.871,0,0,1,.86-0.86H705.1a0.866,0.866,0,0,1,.86.86v5.37Zm1.5-5.52a10.033,10.033,0,0,1,20.066,0v5.02a13.246,13.246,0,0,1-1.618,6.37,28.435,28.435,0,0,1-7.7.8,0.672,0.672,0,0,0-.717.71,0.68,0.68,0,0,0,.717.72,36.2,36.2,0,0,0,6.51-.49c-0.044.04-.088,0.09-0.132,0.13a12.634,12.634,0,0,1-1.139,1.32,9.135,9.135,0,0,1-5.639,2.61,0.843,0.843,0,0,0-.317-0.06,0.6,0.6,0,0,0-.3.07,8.23,8.23,0,0,1-3.553-1.08,11.678,11.678,0,0,1-3.243-2.86l-0.215-.21-0.042-.02a13.208,13.208,0,0,1-2.681-8.01v-5.02h0Zm8.94,18.57-1.932,4.35-0.946-1.3-2.981-4.13c-0.023-.02-0.048-0.05-0.074-0.07l-0.786-1.08,0.287-1.29c0.1,0.11.195,0.21,0.295,0.31A10.418,10.418,0,0,0,716.407,2358.9Zm-18.974,6.3a2.46,2.46,0,0,1,1.362-2.22c4.568-2.43,7.856-3.65,10.786-4.01l4.276,5.88-0.542,2.72H697.433v-2.37Zm40.134,2.37H721.685l-0.543-2.72,4.323-5.94c2.919,0.44,6.267,1.65,10.74,4a2.647,2.647,0,0,1,1.362,2.29v2.37h0Z" transform="translate(-696 -2326)"/>
</svg>
