<svg xmlns="http://www.w3.org/2000/svg" width="45" height="34" viewBox="0 0 45 34">
  <metadata><?xpacket begin="﻿" id="W5M0MpCehiHzreSzNTczkc9d"?>
<x:xmpmeta xmlns:x="adobe:ns:meta/" x:xmptk="Adobe XMP Core 5.6-c142 79.160924, 2017/07/13-01:06:39        ">
   <rdf:RDF xmlns:rdf="http://www.w3.org/1999/02/22-rdf-syntax-ns#">
      <rdf:Description rdf:about=""/>
   </rdf:RDF>
</x:xmpmeta>
                                                                                                    
                                                                                                    
                                                                                                    
                                                                                                    
                                                                                                    
                                                                                                    
                                                                                                    
                                                                                                    
                                                                                                    
                                                                                                    
                                                                                                    
                                                                                                    
                                                                                                    
                                                                                                    
                                                                                                    
                                                                                                    
                                                                                                    
                                                                                                    
                                                                                                    
                                                                                                    
                           
<?xpacket end="w"?></metadata>
<defs>
    <style>
      .cls-1 {
        fill: #fff;
        fill-rule: evenodd;
      }
    </style>
  </defs>
  <path class="cls-1" d="M1329,2357.61a2.215,2.215,0,1,0,2.25,2.22A2.234,2.234,0,0,0,1329,2357.61Zm0,2.96a0.74,0.74,0,1,1,.75-0.74A0.741,0.741,0,0,1,1329,2360.57Zm-24.75-2.96a2.215,2.215,0,1,0,2.25,2.22A2.234,2.234,0,0,0,1304.25,2357.61Zm0,2.96a0.74,0.74,0,1,1,.75-0.74A0.741,0.741,0,0,1,1304.25,2360.57Zm31.83-23.02a2.25,2.25,0,0,0-2.09-1.38h-8.74v-2.95A2.234,2.234,0,0,0,1323,2331h-24.75a2.234,2.234,0,0,0-2.25,2.22v20.69a2.168,2.168,0,0,0,.81,1.69,2.939,2.939,0,0,0-.56,3.19,3.01,3.01,0,0,0,2.75,1.78h0.06a5.255,5.255,0,0,0,10.38,0h14.37a5.255,5.255,0,0,0,10.38,0h4.56a2.241,2.241,0,0,0,2.25-2.22v-7.99a4.923,4.923,0,0,0-.4-1.97Zm-1.39.56,4.53,10.84a4.64,4.64,0,0,1,.16.53h-8.88a0.741,0.741,0,0,1-.75-0.74v-11.09h4.24a0.755,0.755,0,0,1,.7.46h0Zm-26.77,18.02h17.41a5.14,5.14,0,0,0-1.52,2.96h-14.37A5.14,5.14,0,0,0,1307.92,2356.13Zm-10.42-22.91a0.741,0.741,0,0,1,.75-0.74H1323a0.747,0.747,0,0,1,.75.74v21.43h-25.5a0.741,0.741,0,0,1-.75-0.74v-20.69Zm0.44,25.43a1.461,1.461,0,0,1-.33-1.61,1.512,1.512,0,0,1,1.39-.91h1.58a5.14,5.14,0,0,0-1.52,2.96H1299A1.5,1.5,0,0,1,1297.94,2358.65Zm6.31,4.87a3.7,3.7,0,1,1,3.75-3.69A3.72,3.72,0,0,1,1304.25,2363.52Zm24.75,0a3.7,3.7,0,1,1,3.75-3.69A3.72,3.72,0,0,1,1329,2363.52Zm9.75-4.43h-4.56a5.227,5.227,0,0,0-5.19-4.44h-3.75v-17h3v11.09a2.241,2.241,0,0,0,2.25,2.22h9v1.48h-0.75a0.735,0.735,0,1,0,0,1.47h0.75v1.48h-0.75a0.74,0.74,0,1,0,0,1.48h0.75v1.48a0.747,0.747,0,0,1-.75.74h0Zm-39-23.66H1302a0.735,0.735,0,1,0,0-1.47h-2.25A0.735,0.735,0,1,0,1299.75,2335.43Zm5.25,0h16.5a0.735,0.735,0,1,0,0-1.47H1305A0.735,0.735,0,1,0,1305,2335.43Z" transform="translate(-1296 -2331)"/>
</svg>
