<svg width="24" height="20" viewBox="0 0 24 20" fill="none" xmlns="http://www.w3.org/2000/svg">
<path d="M17.6041 2.6091C18.6114 2.6091 19.5587 2.98409 20.2708 3.66417C20.983 4.34425 21.3757 5.2489 21.3757 6.21075C21.3757 7.17261 20.983 8.07726 20.2708 8.75733L19.0939 9.88126L12.1908 16.4733L5.2899 9.88126L4.11295 8.75733C2.64203 7.35269 2.64203 5.06776 4.11295 3.66417C4.82511 2.98409 5.77244 2.6091 6.77968 2.6091C7.78691 2.6091 8.73424 2.98409 9.44641 3.66417L10.6234 4.7881L12.1919 6.28596L13.7604 4.7881L14.9374 3.66417C15.6495 2.98409 16.5969 2.6091 17.6041 2.6091ZM17.6041 0.490479C16.0711 0.490479 14.538 1.04873 13.3689 2.16631L12.1919 3.29024L11.0149 2.16631C9.84575 1.04873 8.31271 0.490479 6.77968 0.490479C5.24664 0.490479 3.7136 1.04873 2.54441 2.16631C0.204922 4.40039 0.204922 8.02217 2.54441 10.2563L3.72137 11.3802L12.193 19.4701L20.6646 11.3802L21.8416 10.2563C24.1811 8.02217 24.1811 4.40039 21.8416 2.16631C20.6702 1.04873 19.1372 0.490479 17.6041 0.490479Z" fill="#FF6600"/>
</svg>
