<svg width="24" height="20" viewBox="0 0 24 20" fill="none" xmlns="http://www.w3.org/2000/svg">
<path d="M17.6044 2.60911C18.6116 2.60911 19.5589 2.98411 20.2711 3.66419C20.9833 4.34426 21.3759 5.24891 21.3759 6.21077C21.3759 7.17262 20.9833 8.07727 20.2711 8.75735L19.0941 9.88128L12.191 16.4734L5.29015 9.88128L4.11319 8.75735C2.64227 7.3527 2.64227 5.06777 4.11319 3.66419C4.82535 2.98411 5.77269 2.60911 6.77992 2.60911C7.78716 2.60911 8.73449 2.98411 9.44665 3.66419L10.6236 4.78811L12.1921 6.28598L13.7607 4.78811L14.9376 3.66419C15.6498 2.98411 16.5971 2.60911 17.6044 2.60911ZM17.6044 0.490494C16.0713 0.490494 14.5383 1.04875 13.3691 2.16632L12.1921 3.29025L11.0152 2.16632C9.846 1.04875 8.31296 0.490494 6.77992 0.490494C5.24688 0.490494 3.71385 1.04875 2.54466 2.16632C0.205167 4.40041 0.205167 8.02219 2.54466 10.2563L3.72161 11.3802L12.1933 19.4702L20.6649 11.3802L21.8418 10.2563C24.1813 8.02219 24.1813 4.40041 21.8418 2.16632C20.6704 1.04875 19.1374 0.490494 17.6044 0.490494Z" fill="white"/>
</svg>
