<svg width="27" height="16" viewBox="0 0 27 16" fill="none" xmlns="http://www.w3.org/2000/svg">
<path d="M25.5468 1.51719C25.7203 0.93125 25.5468 0.5 24.7125 0.5H21.9515C21.2484 0.5 20.925 0.870312 20.7515 1.28281C20.7515 1.28281 19.3453 4.70937 17.3578 6.93125C16.7156 7.57344 16.4203 7.77969 16.0687 7.77969C15.8953 7.77969 15.6281 7.57344 15.6281 6.9875V1.51719C15.6281 0.814062 15.4312 0.5 14.85 0.5H10.5093C10.0687 0.5 9.8062 0.828125 9.8062 1.13281C9.8062 1.79844 10.8 1.95312 10.9031 3.82812V7.89687C10.9031 8.7875 10.7437 8.95156 10.3921 8.95156C9.45464 8.95156 7.17651 5.51094 5.82651 1.57344C5.55464 0.809375 5.28745 0.5 4.57964 0.5H1.8187C1.0312 0.5 0.871826 0.870312 0.871826 1.28281C0.871826 2.01406 1.80933 5.64687 5.23589 10.4469C7.5187 13.7234 10.7343 15.5 13.6593 15.5C15.4171 15.5 15.6328 15.1062 15.6328 14.4266C15.6328 11.2953 15.4734 11 16.3546 11C16.7625 11 17.4656 11.2062 19.1062 12.7859C20.9812 14.6609 21.2906 15.5 22.3406 15.5H25.1015C25.889 15.5 26.2875 15.1062 26.0578 14.3281C25.5328 12.6922 21.9843 9.32656 21.825 9.10156C21.4171 8.57656 21.5343 8.34219 21.825 7.87344C21.8296 7.86875 25.2 3.125 25.5468 1.51719Z" fill="white"/>
</svg>
