<svg xmlns="http://www.w3.org/2000/svg" width="42" height="42" viewBox="0 0 42 42">
  <metadata><?xpacket begin="﻿" id="W5M0MpCehiHzreSzNTczkc9d"?>
<x:xmpmeta xmlns:x="adobe:ns:meta/" x:xmptk="Adobe XMP Core 5.6-c142 79.160924, 2017/07/13-01:06:39        ">
   <rdf:RDF xmlns:rdf="http://www.w3.org/1999/02/22-rdf-syntax-ns#">
      <rdf:Description rdf:about=""/>
   </rdf:RDF>
</x:xmpmeta>
                                                                                                    
                                                                                                    
                                                                                                    
                                                                                                    
                                                                                                    
                                                                                                    
                                                                                                    
                                                                                                    
                                                                                                    
                                                                                                    
                                                                                                    
                                                                                                    
                                                                                                    
                                                                                                    
                                                                                                    
                                                                                                    
                                                                                                    
                                                                                                    
                                                                                                    
                                                                                                    
                           
<?xpacket end="w"?></metadata>
<defs>
    <style>
      .cls-1 {
        fill: #fff;
        fill-rule: evenodd;
      }
    </style>
  </defs>
  <path class="cls-1" d="M404.114,2331.2a0.7,0.7,0,1,0-.7-0.7A0.7,0.7,0,0,0,404.114,2331.2Zm-2.8,0a0.7,0.7,0,1,0-.7-0.7A0.7,0.7,0,0,0,401.314,2331.2Zm-2.8,0a0.7,0.7,0,1,0-.7-0.7A0.7,0.7,0,0,0,398.514,2331.2ZM433.5,2327h-35a3.5,3.5,0,0,0-3.5,3.5v35a3.5,3.5,0,0,0,3.5,3.5h35a3.5,3.5,0,0,0,3.5-3.5v-35A3.5,3.5,0,0,0,433.5,2327Zm-35,1.4h35a2.1,2.1,0,0,1,2.1,2.1v2.1H396.4v-2.1A2.1,2.1,0,0,1,398.5,2328.4Zm35,39.2h-35a2.1,2.1,0,0,1-2.1-2.1V2334h39.2v31.5A2.1,2.1,0,0,1,433.5,2367.6Zm-1.4-36.4a0.7,0.7,0,1,0-.7-0.7A0.7,0.7,0,0,0,432.1,2331.2Zm-4.2,0h1.4a0.7,0.7,0,0,0,0-1.4h-1.4A0.7,0.7,0,1,0,427.9,2331.2Zm-28,10.5h19.6a1.4,1.4,0,0,0,1.4-1.4v-2.8a1.4,1.4,0,0,0-1.4-1.4H399.9a1.4,1.4,0,0,0-1.4,1.4v2.8A1.4,1.4,0,0,0,399.9,2341.7Zm0-4.2h19.6v2.8H399.9v-2.8Zm21,6.3a0.7,0.7,0,0,0-.7-0.7H399.9a0.7,0.7,0,1,0,0,1.4h20.3A0.7,0.7,0,0,0,420.9,2343.8Zm-2.1,2.8a0.7,0.7,0,0,0-.7-0.7H399.9a0.7,0.7,0,0,0,0,1.4h18.2A0.7,0.7,0,0,0,418.8,2346.6Zm-1.4,2.8a0.7,0.7,0,0,0-.7-0.7H399.9a0.7,0.7,0,1,0,0,1.4h16.8A0.7,0.7,0,0,0,417.4,2349.4Zm-17.5,2.1a0.7,0.7,0,0,0,0,1.4h15.4a0.7,0.7,0,0,0,0-1.4H399.9Zm32.2,3.5h-6.409c10.458-19.76,6.4-12.08,7.483-14.13a2.807,2.807,0,0,0-1.164-3.79l-1.24-.65a2.793,2.793,0,0,0-3.78,1.16c-11.11,20.99-8.756,16.53-9.219,17.41H399.9a1.4,1.4,0,0,0-1.4,1.4v8.4a1.4,1.4,0,0,0,1.4,1.4h32.2a1.4,1.4,0,0,0,1.4-1.4v-8.4A1.4,1.4,0,0,0,432.1,2355Zm-6.5-11.81,1.237,0.66-6.576,12.42a6.219,6.219,0,0,0-1.411-.32Zm1.31-2.47,3.71,1.96-0.655,1.24-3.71-1.96Zm-8.517,16.57a4.331,4.331,0,0,1,3.313,1.75l-3.85,3.27Zm4.168,0.62a6.921,6.921,0,0,0-1.063-.98l6.58-12.43,1.237,0.66c-0.93,1.74-5.83,11.01-6.754,12.75h0Zm7.551-20.25,1.237,0.66a1.4,1.4,0,0,1,.583,1.89l-0.655,1.24-3.71-1.97,0.654-1.24a1.4,1.4,0,0,1,1.891-.58h0Zm1.983,27.14H399.9v-8.4h17.186c-0.26,2.43.41-3.84-.616,5.76a1.4,1.4,0,0,0,2.3,1.22c3.49-2.96,4.5-3.83,4.427-3.77,0.108-.09-0.07.24,1.754-3.21h7.15v8.4Zm-29.4-2.8h-1.4a0.7,0.7,0,0,0,0,1.4h1.4A0.7,0.7,0,0,0,402.7,2362Zm4.2,0h-1.4a0.7,0.7,0,0,0,0,1.4h1.4A0.7,0.7,0,0,0,406.9,2362Zm4.2,0h-1.4a0.7,0.7,0,0,0,0,1.4h1.4A0.7,0.7,0,0,0,411.1,2362Zm3.5,0h-0.7a0.7,0.7,0,0,0,0,1.4h0.7A0.7,0.7,0,0,0,414.6,2362Zm7.7,0h-0.7a0.7,0.7,0,0,0,0,1.4h0.7A0.7,0.7,0,0,0,422.3,2362Zm2.1,0.7a0.7,0.7,0,0,0,.7.7h1.4a0.7,0.7,0,0,0,0-1.4h-1.4A0.7,0.7,0,0,0,424.4,2362.7Zm4.9,0.7h1.4a0.7,0.7,0,0,0,0-1.4h-1.4A0.7,0.7,0,0,0,429.3,2363.4Z" transform="translate(-395 -2327)"/>
</svg>
