<svg width="56" height="34" viewBox="0 0 56 34" fill="none" xmlns="http://www.w3.org/2000/svg">
<g opacity="0.5">
<path d="M25.4395 27.093C25.4395 29.2598 23.6962 31.0039 21.5609 31.0039C19.4257 31.0039 17.6823 29.2598 17.6823 27.093C17.6823 24.9261 19.4257 23.1821 21.5609 23.1821C23.6962 23.1821 25.4395 24.9261 25.4395 27.093Z" stroke="#0B0803" stroke-width="2.27085"/>
<path d="M49.2551 27.8502C49.2551 29.7383 47.7362 31.2565 45.8779 31.2565C44.0196 31.2565 42.5007 29.7383 42.5007 27.8502C42.5007 25.9621 44.0196 24.4439 45.8779 24.4439C47.7362 24.4439 49.2551 25.9621 49.2551 27.8502Z" stroke="#0B0803" stroke-width="2.27085"/>
<rect x="40.1128" y="6.65527" width="1.50421" height="6.81256" fill="#0B0803"/>
<rect x="36.6021" y="14.2249" width="5.01405" height="1.26158" fill="#0B0803"/>
<path d="M21.5788 23.3218C19.5804 23.3218 17.9546 24.958 17.9546 26.9693C17.9546 28.9806 19.5804 30.6168 21.5788 30.6168C23.5772 30.6168 25.203 28.9806 25.203 26.9693C25.203 24.958 23.5772 23.3218 21.5788 23.3218ZM21.5788 29.5795C20.1487 29.5795 18.9853 28.4086 18.9853 26.9693C18.9853 25.53 20.1487 24.3591 21.5788 24.3591C23.0089 24.3591 24.1723 25.53 24.1723 26.9693C24.1723 28.4086 23.0087 29.5795 21.5788 29.5795Z" fill="#0B0803"/>
<path d="M45.7343 24.7703C44.0322 24.7703 42.6475 26.1639 42.6475 27.877C42.6475 29.59 44.0322 30.9836 45.7343 30.9836C47.4363 30.9836 48.8211 29.59 48.8211 27.877C48.8211 26.1639 47.4362 24.7703 45.7343 24.7703ZM45.7343 29.9463C44.6005 29.9463 43.6782 29.018 43.6782 27.877C43.6782 26.7359 44.6005 25.8076 45.7343 25.8076C46.868 25.8076 47.7904 26.7359 47.7904 27.877C47.7904 29.018 46.8679 29.9463 45.7343 29.9463Z" fill="#0B0803"/>
<path d="M16.1702 13.5942H13.9138V19.3975L0.751953 20.7853V22.173H16.1702V13.5942Z" fill="#0B0803"/>
<path d="M44.8965 15.38V0.518667C44.8965 0.232233 44.6657 0 44.3811 0H35.4357C31.097 0 27.0653 2.34554 24.9138 6.12157C24.6258 6.62727 24.3544 7.15099 24.1075 7.67822C22.8933 10.2712 22.192 13.1253 22.0553 15.9918H19.5167V0.907668C19.5167 0.621234 19.286 0.389 19.0014 0.389H16.3615C16.0769 0.389 15.8462 0.621234 15.8462 0.907668V8.94662H13.8493C13.5647 8.94662 13.334 9.17885 13.334 9.46529V18.9758L0.559001 20.1432C0.305836 20.1663 0.107169 20.372 0.0913222 20.6273L0.00100742 22.0795C-0.00788233 22.2224 0.0423641 22.3627 0.139765 22.4671C0.237166 22.5715 0.373089 22.6306 0.515454 22.6306H15.8463C15.8463 22.6306 15.8458 26.9617 15.8458 26.9694C15.8458 30.1509 18.4176 32.7393 21.5788 32.7393C23.8646 32.7393 25.8416 31.3855 26.7615 29.4329H41.1585C41.8048 31.3529 43.6112 32.7393 45.7344 32.7393C47.8582 32.7393 49.6649 31.3524 50.3109 29.4318C50.3954 29.4324 52.8844 29.4329 52.8844 29.4329C53.169 29.4329 53.3997 29.2007 53.3997 28.9143V24.4408C53.3997 19.6102 49.6302 15.6499 44.8965 15.38ZM52.369 24.4408V26.4507H50.3532C49.7462 24.4636 47.9055 23.0148 45.7346 23.0148C43.5637 23.0148 41.723 24.4636 41.1159 26.4507H27.2874C27.109 24.4458 25.9077 22.7338 24.2135 21.8474H32.594C32.8786 21.8474 33.1093 21.6152 33.1093 21.3288C33.1093 18.6119 35.3056 16.4014 38.0051 16.4014H44.3811C48.7855 16.4014 52.369 20.0078 52.369 24.4408ZM22.0292 20.4003V21.2189C21.8804 21.2073 21.7305 21.1995 21.5788 21.1995C20.8521 21.1995 20.1572 21.3377 19.5169 21.5871V20.4005H22.0292V20.4003ZM29.8227 20.8101H23.0599V17.0225C23.0599 16.1312 23.1198 15.2384 23.2343 14.3519C26.7869 14.4069 29.6767 17.2574 29.8227 20.8101ZM36.8381 15.3641V14.3268H41.4251V15.3641H36.8381ZM41.4251 13.2894H40.3944V6.89244H41.4251V13.2894ZM43.8658 1.03733V1.98779H30.96C32.3497 1.37213 33.8705 1.03733 35.4357 1.03733H43.8658ZM25.0398 8.12038C25.2751 7.61831 25.5336 7.11923 25.8081 6.63738C26.6394 5.17837 27.7785 3.95406 29.1154 3.025H43.8658V15.3641H42.4558V6.37377C42.4558 6.08734 42.225 5.8551 41.9404 5.8551H39.879C39.5944 5.8551 39.3637 6.08734 39.3637 6.37377V13.2894H36.3228C36.0382 13.2894 35.8074 13.5217 35.8074 13.8081V15.7893C33.7764 16.6082 32.297 18.5272 32.1006 20.8101H30.8534C30.7821 18.8095 29.9576 16.9994 28.656 15.659L31.1181 13.181L32.0852 14.1542C32.1858 14.2554 32.3177 14.306 32.4495 14.306C32.5813 14.306 32.7134 14.2553 32.8139 14.1542C33.0152 13.9515 33.0152 13.6232 32.8139 13.4206L29.9364 10.5248C29.7351 10.3224 29.4087 10.3224 29.2077 10.5248C29.0064 10.7275 29.0064 11.0558 29.2077 11.2583L30.3894 12.4475L27.887 14.966C26.639 13.9822 25.0849 13.3762 23.3941 13.3187C23.7168 11.5223 24.2693 9.76598 25.0398 8.12038ZM22.0292 19.363H18.5506V17.029H22.0292V19.363ZM16.877 4.06168H18.4862V5.44549H16.877V4.06168ZM18.4862 1.42633V3.02435H16.877V1.42633H18.4862ZM14.3648 11.9288C14.3648 11.9288 15.8406 11.9273 15.8463 11.9271V12.795C15.8406 12.7949 14.3648 12.7933 14.3648 12.7933V11.9288ZM15.8463 9.98395V10.8933C15.8406 10.8932 15.8352 10.8916 15.8295 10.8916H14.3648V9.98408H15.8463V9.98395ZM1.06404 21.5933L1.09251 21.1359L13.8961 19.966C14.1616 19.9417 14.3648 19.7178 14.3648 19.4495V13.8307H15.8295C15.8353 13.8307 15.8406 13.8291 15.8463 13.829V21.5934H1.06404V21.5933ZM16.877 6.48282H18.4862V15.9917H18.0352C17.7506 15.9917 17.5199 16.2239 17.5199 16.5103V19.8817C17.5199 20.1681 17.7506 20.4003 18.0352 20.4003H18.4862V22.1148C17.8541 22.5242 17.3069 23.0545 16.877 23.6738V6.48282ZM21.5788 31.702C18.9875 31.702 16.8791 29.5814 16.8766 26.9738C16.8766 26.9722 16.877 26.947 16.877 26.947C16.8891 24.3478 18.9934 22.2368 21.5788 22.2368C24.1716 22.2368 26.2809 24.3599 26.2809 26.9694C26.2809 29.5789 24.1716 31.702 21.5788 31.702ZM27.1341 28.3956C27.2087 28.1014 27.2597 27.7981 27.2874 27.4881H40.9203C40.9101 27.6166 40.9034 27.746 40.9034 27.8771C40.9034 28.0538 40.9135 28.2237 40.9318 28.3956C40.9167 28.3943 27.1341 28.3956 27.1341 28.3956ZM45.7346 31.702C43.6389 31.702 41.9341 29.9861 41.9341 27.8771C41.9341 25.768 43.639 24.0522 45.7346 24.0522C47.8301 24.0522 49.535 25.768 49.535 27.8771C49.535 29.9861 47.8301 31.702 45.7346 31.702ZM50.5379 28.3956C50.5559 28.2251 50.5657 28.0522 50.5657 27.8771C50.5657 27.746 50.559 27.6166 50.5488 27.4881H52.369V28.3956H50.5379Z" fill="#0B0803"/>
<path d="M55.3949 24.7014C55.3949 29.5204 51.5141 33.4223 46.7325 33.4223C41.9509 33.4223 38.0701 29.5204 38.0701 24.7014C38.0701 19.8825 41.9509 15.9806 46.7325 15.9806C51.5141 15.9806 55.3949 19.8825 55.3949 24.7014Z" fill="white" stroke="#0B0803" stroke-width="0.830558"/>
<path d="M48.0375 27.4386H46.0584V29.1003H44.93V27.4386H43.707V26.4839H44.93V25.6561H43.707V24.7074H44.93V20.3025H48.1025C49.0241 20.3025 49.7547 20.5422 50.2943 21.0215C50.8339 21.5009 51.1037 22.1495 51.1037 22.9672C51.1037 23.8252 50.8437 24.4879 50.3238 24.9552C49.8079 25.4184 49.0733 25.652 48.1202 25.6561H46.0584V26.4839H48.0375V27.4386ZM46.0584 24.7074H48.1025C48.7129 24.7074 49.1777 24.5604 49.4967 24.2663C49.8157 23.9723 49.9753 23.5432 49.9753 22.9793C49.9753 22.4677 49.8098 22.0548 49.479 21.7406C49.1482 21.4224 48.7011 21.2612 48.1379 21.2572H46.0584V24.7074Z" fill="#0B0803"/>
</g>
</svg>
