<svg width="58" height="37" viewBox="0 0 58 37" fill="none" xmlns="http://www.w3.org/2000/svg">
<g opacity="0.5">
<path d="M19.316 26.0912C19.6509 26.0912 19.9146 26.1875 20.1072 26.38C20.3081 26.5642 20.4086 26.8112 20.4086 27.121V28.9797H7.9502V27.9499C7.9502 27.7406 7.99206 27.5229 8.07578 27.2968C8.16788 27.0624 8.31022 26.8531 8.50279 26.6689L14.0161 21.143C14.4766 20.6741 14.8869 20.2262 15.2469 19.7992C15.6153 19.3722 15.9209 18.9494 16.1637 18.5307C16.4065 18.1121 16.5907 17.6893 16.7163 17.2623C16.8502 16.8269 16.9172 16.3706 16.9172 15.8934C16.9172 15.458 16.8544 15.0771 16.7288 14.7505C16.6033 14.4156 16.4232 14.1351 16.1888 13.9091C15.9628 13.683 15.6865 13.5156 15.3599 13.4067C15.0418 13.2895 14.6817 13.2309 14.2799 13.2309C13.9115 13.2309 13.5682 13.2853 13.25 13.3942C12.9403 13.4946 12.664 13.6412 12.4212 13.8337C12.1783 14.0179 11.9732 14.2356 11.8058 14.4868C11.6383 14.738 11.5127 15.0143 11.429 15.3157C11.2867 15.7008 11.1025 15.9562 10.8764 16.0818C10.6504 16.2073 10.3238 16.2367 9.89682 16.1697L8.26417 15.8808C8.38976 15.0101 8.63256 14.2482 8.99258 13.5951C9.3526 12.9337 9.80054 12.3853 10.3364 11.9499C10.8806 11.5061 11.5002 11.1754 12.1951 10.9577C12.8984 10.7317 13.6519 10.6187 14.4557 10.6187C15.2929 10.6187 16.059 10.7442 16.754 10.9954C17.4489 11.2382 18.0433 11.5857 18.5373 12.0378C19.0313 12.4899 19.4164 13.0341 19.6927 13.6705C19.969 14.3068 20.1072 15.0143 20.1072 15.7929C20.1072 16.4627 20.0067 17.0823 19.8058 17.6516C19.6132 18.221 19.3495 18.7652 19.0146 19.2843C18.688 19.8034 18.3029 20.3057 17.8591 20.7913C17.4154 21.2769 16.9507 21.7709 16.4651 22.2733L12.3709 26.4554C12.7644 26.3382 13.1538 26.2503 13.5389 26.1916C13.9324 26.1247 14.305 26.0912 14.6566 26.0912H19.316Z" fill="#0B0803"/>
<path d="M35.5063 19.8997C35.5063 21.4821 35.3347 22.8594 34.9914 24.0315C34.6565 25.1953 34.1876 26.1582 33.5848 26.9201C32.9904 27.682 32.2829 28.2513 31.4624 28.6281C30.6502 28.9965 29.7711 29.1807 28.825 29.1807C27.8789 29.1807 26.9998 28.9965 26.1876 28.6281C25.3839 28.2513 24.6848 27.682 24.0903 26.9201C23.4959 26.1582 23.0312 25.1953 22.6963 24.0315C22.3614 22.8594 22.1939 21.4821 22.1939 19.8997C22.1939 18.3089 22.3614 16.9316 22.6963 15.7678C23.0312 14.604 23.4959 13.6412 24.0903 12.8792C24.6848 12.1173 25.3839 11.5522 26.1876 11.1838C26.9998 10.807 27.8789 10.6187 28.825 10.6187C29.7711 10.6187 30.6502 10.807 31.4624 11.1838C32.2829 11.5522 32.9904 12.1173 33.5848 12.8792C34.1876 13.6412 34.6565 14.604 34.9914 15.7678C35.3347 16.9316 35.5063 18.3089 35.5063 19.8997ZM32.3038 19.8997C32.3038 18.5852 32.2075 17.4967 32.015 16.6344C31.8224 15.772 31.5628 15.0854 31.2363 14.5747C30.9181 14.064 30.5498 13.7081 30.1311 13.5072C29.7125 13.2979 29.2771 13.1932 28.825 13.1932C28.3813 13.1932 27.9501 13.2979 27.5314 13.5072C27.1212 13.7081 26.757 14.064 26.4388 14.5747C26.1207 15.0854 25.8653 15.772 25.6727 16.6344C25.4885 17.4967 25.3964 18.5852 25.3964 19.8997C25.3964 21.2142 25.4885 22.3026 25.6727 23.165C25.8653 24.0273 26.1207 24.7139 26.4388 25.2246C26.757 25.7353 27.1212 26.0954 27.5314 26.3047C27.9501 26.5056 28.3813 26.6061 28.825 26.6061C29.2771 26.6061 29.7125 26.5056 30.1311 26.3047C30.5498 26.0954 30.9181 25.7353 31.2363 25.2246C31.5628 24.7139 31.8224 24.0273 32.015 23.165C32.2075 22.3026 32.3038 21.2142 32.3038 19.8997Z" fill="#0B0803"/>
<path d="M50.0766 19.8997C50.0766 21.4821 49.9049 22.8594 49.5617 24.0315C49.2267 25.1953 48.7579 26.1582 48.1551 26.9201C47.5606 27.682 46.8531 28.2513 46.0326 28.6281C45.2205 28.9965 44.3414 29.1807 43.3952 29.1807C42.4491 29.1807 41.57 28.9965 40.7579 28.6281C39.9541 28.2513 39.255 27.682 38.6606 26.9201C38.0661 26.1582 37.6014 25.1953 37.2665 24.0315C36.9316 22.8594 36.7642 21.4821 36.7642 19.8997C36.7642 18.3089 36.9316 16.9316 37.2665 15.7678C37.6014 14.604 38.0661 13.6412 38.6606 12.8792C39.255 12.1173 39.9541 11.5522 40.7579 11.1838C41.57 10.807 42.4491 10.6187 43.3952 10.6187C44.3414 10.6187 45.2205 10.807 46.0326 11.1838C46.8531 11.5522 47.5606 12.1173 48.1551 12.8792C48.7579 13.6412 49.2267 14.604 49.5617 15.7678C49.9049 16.9316 50.0766 18.3089 50.0766 19.8997ZM46.8741 19.8997C46.8741 18.5852 46.7778 17.4967 46.5852 16.6344C46.3926 15.772 46.1331 15.0854 45.8066 14.5747C45.4884 14.064 45.12 13.7081 44.7014 13.5072C44.2827 13.2979 43.8474 13.1932 43.3952 13.1932C42.9515 13.1932 42.5203 13.2979 42.1017 13.5072C41.6914 13.7081 41.3272 14.064 41.0091 14.5747C40.6909 15.0854 40.4355 15.772 40.243 16.6344C40.0588 17.4967 39.9667 18.5852 39.9667 19.8997C39.9667 21.2142 40.0588 22.3026 40.243 23.165C40.4355 24.0273 40.6909 24.7139 41.0091 25.2246C41.3272 25.7353 41.6914 26.0954 42.1017 26.3047C42.5203 26.5056 42.9515 26.6061 43.3952 26.6061C43.8474 26.6061 44.2827 26.5056 44.7014 26.3047C45.12 26.0954 45.4884 25.7353 45.8066 25.2246C46.1331 24.7139 46.3926 24.0273 46.5852 23.165C46.7778 22.3026 46.8741 21.2142 46.8741 19.8997Z" fill="#0B0803"/>
<path d="M56.7436 6.01394H53.1877V9.78975H51.3456V6.01394H47.8081V4.33682H51.3456V0.579346H53.1877V4.33682H56.7436V6.01394Z" fill="#0B0803"/>
<path fill-rule="evenodd" clip-rule="evenodd" d="M42.7684 1.82544H3.39429C1.51967 1.82544 0 3.34511 0 5.21973V33.0529C0 34.9275 1.51967 36.4472 3.39429 36.4472H54.3086C56.1832 36.4472 57.7029 34.9275 57.7029 33.0529V14.7237H57.7032V12.0083C57.7032 11.6334 57.3992 11.3294 57.0243 11.3294C56.6494 11.3294 56.3454 11.6334 56.3454 12.0083L56.3452 12.0083V33.0529C56.3452 34.1777 55.4334 35.0895 54.3086 35.0895H3.39429C2.26952 35.0895 1.35772 34.1777 1.35772 33.0529V5.21973C1.35772 4.09496 2.26952 3.18315 3.39429 3.18315H45.4831L45.4838 3.18315C45.8587 3.18315 46.1627 2.87922 46.1627 2.5043C46.1627 2.12937 45.8587 1.82544 45.4838 1.82544H45.4831H42.7684Z" fill="#0B0803"/>
</g>
</svg>
