<svg width="55" height="34" viewBox="0 0 55 34" fill="none" xmlns="http://www.w3.org/2000/svg">
<g opacity="0.5">
<path d="M25.9563 27.4418C25.9563 29.6288 24.182 31.403 21.9919 31.403C19.8017 31.403 18.0275 29.6288 18.0275 27.4418C18.0275 25.2547 19.8017 23.4805 21.9919 23.4805C24.182 23.4805 25.9563 25.2547 25.9563 27.4418Z" stroke="#0B0803" stroke-width="2.30009"/>
<path d="M50.2488 28.2087C50.2488 30.1135 48.7035 31.6588 46.7959 31.6588C44.8882 31.6588 43.3429 30.1135 43.3429 28.2087C43.3429 26.3039 44.8882 24.7586 46.7959 24.7586C48.7035 24.7586 50.2488 26.3039 50.2488 28.2087Z" stroke="#0B0803" stroke-width="2.30009"/>
<rect x="40.915" y="6.74109" width="1.53433" height="6.90026" fill="#0B0803"/>
<rect x="37.3345" y="14.408" width="5.11443" height="1.27783" fill="#0B0803"/>
<path d="M22.0102 23.6221C19.9718 23.6221 18.3135 25.2794 18.3135 27.3166C18.3135 29.3537 19.9718 31.011 22.0102 31.011C24.0486 31.011 25.707 29.3537 25.707 27.3166C25.707 25.2794 24.0486 23.6221 22.0102 23.6221ZM22.0102 29.9604C20.5515 29.9604 19.3648 28.7744 19.3648 27.3166C19.3648 25.8587 20.5515 24.6728 22.0102 24.6728C23.4689 24.6728 24.6556 25.8587 24.6556 27.3166C24.6556 28.7744 23.4688 29.9604 22.0102 29.9604Z" fill="#0B0803"/>
<path d="M46.6496 25.0892C44.9134 25.0892 43.501 26.5008 43.501 28.2359C43.501 29.971 44.9134 31.3826 46.6496 31.3826C48.3857 31.3826 49.7982 29.971 49.7982 28.2359C49.7982 26.5008 48.3856 25.0892 46.6496 25.0892ZM46.6496 30.3319C45.4931 30.3319 44.5523 29.3917 44.5523 28.2359C44.5523 27.0802 45.4931 26.1399 46.6496 26.1399C47.806 26.1399 48.7469 27.0802 48.7469 28.2359C48.7469 29.3917 47.8059 30.3319 46.6496 30.3319Z" fill="#0B0803"/>
<path d="M16.494 13.7692H14.1925V19.6472L0.76709 21.0528V22.4584H16.494V13.7692Z" fill="#0B0803"/>
<path d="M45.7953 15.578V0.525344C45.7953 0.235223 45.5599 0 45.2696 0H36.1451C31.7195 0 27.6071 2.37574 25.4126 6.20038C25.1188 6.71259 24.842 7.24305 24.5901 7.77707C23.3516 10.4034 22.6363 13.2942 22.4969 16.1977H19.9074V0.919353C19.9074 0.629231 19.6721 0.394008 19.3818 0.394008H16.6891C16.3988 0.394008 16.1634 0.629231 16.1634 0.919353V9.0618H14.1266C13.8363 9.0618 13.6009 9.29702 13.6009 9.58714V19.2201L0.570192 20.4025C0.311959 20.4259 0.109315 20.6342 0.0931504 20.8928L0.00102759 22.3638C-0.00804013 22.5085 0.0432122 22.6506 0.142563 22.7563C0.241914 22.8621 0.380558 22.922 0.525773 22.922H16.1635C16.1635 22.922 16.163 27.3088 16.163 27.3166C16.163 30.5391 18.7863 33.1608 22.0108 33.1608C24.3424 33.1608 26.3589 31.7895 27.2972 29.8119H41.9825C42.6417 31.7565 44.4843 33.1608 46.65 33.1608C48.8163 33.1608 50.6591 31.756 51.318 29.8107C51.4043 29.8113 53.9431 29.8119 53.9431 29.8119C54.2334 29.8119 54.4688 29.5766 54.4688 29.2865V24.7554C54.4688 19.8626 50.6238 15.8513 45.7953 15.578ZM53.4174 24.7554V26.7913H51.3613C50.742 24.7785 48.8645 23.3111 46.6501 23.3111C44.4358 23.3111 42.5582 24.7785 41.939 26.7913H27.8337C27.6517 24.7605 26.4263 23.0265 24.6982 22.1287H33.2465C33.5368 22.1287 33.7721 21.8935 33.7721 21.6033C33.7721 18.8515 36.0124 16.6126 38.7659 16.6126H45.2696C49.7622 16.6126 53.4174 20.2654 53.4174 24.7554ZM22.4702 20.663V21.4921C22.3184 21.4803 22.1656 21.4724 22.0108 21.4724C21.2696 21.4724 20.5607 21.6124 19.9076 21.865V20.6631H22.4702V20.663ZM30.4197 21.078H23.5215V17.2417C23.5215 16.3389 23.5826 15.4346 23.6995 14.5367C27.3231 14.5924 30.2708 17.4795 30.4197 21.078ZM37.5756 15.5619V14.5112H42.2544V15.5619H37.5756ZM42.2544 13.4605H41.2031V6.98117H42.2544V13.4605ZM44.7439 1.05069V2.01338H31.5798C32.9973 1.3898 34.5485 1.05069 36.1451 1.05069H44.7439ZM25.5411 8.22492C25.7811 7.71639 26.0447 7.21088 26.3248 6.72283C27.1727 5.24504 28.3346 4.00496 29.6982 3.06394H44.7439V15.5619H43.3057V6.45583C43.3057 6.1657 43.0704 5.93048 42.7801 5.93048H40.6774C40.3871 5.93048 40.1517 6.1657 40.1517 6.45583V13.4605H37.0499C36.7596 13.4605 36.5242 13.6957 36.5242 13.9859V15.9925C34.4526 16.8221 32.9435 18.7657 32.7433 21.078H31.471C31.3984 19.0516 30.5573 17.2183 29.2297 15.8605L31.7411 13.3507L32.7275 14.3364C32.8301 14.439 32.9647 14.4902 33.0991 14.4902C33.2336 14.4902 33.3683 14.4388 33.4708 14.3364C33.6762 14.1311 33.6762 13.7986 33.4708 13.5934L30.5357 10.6603C30.3303 10.4553 29.9975 10.4553 29.7924 10.6603C29.587 10.8656 29.587 11.1981 29.7924 11.4033L30.9978 12.6077L28.4453 15.1587C27.1723 14.1622 25.5871 13.5484 23.8624 13.4902C24.1916 11.6707 24.7551 9.89171 25.5411 8.22492ZM22.4702 19.6123H18.922V17.2482H22.4702V19.6123ZM17.2149 4.11397H18.8562V5.51559H17.2149V4.11397ZM18.8562 1.4447V3.06328H17.2149V1.4447H18.8562ZM14.6524 12.0824C14.6524 12.0824 16.1577 12.0808 16.1635 12.0807V12.9597C16.1577 12.9596 14.6524 12.958 14.6524 12.958V12.0824ZM16.1635 10.1125V11.0335C16.1577 11.0334 16.1522 11.0318 16.1464 11.0318H14.6524V10.1126H16.1635V10.1125ZM1.08534 21.8713L1.11439 21.408L14.1743 20.223C14.4451 20.1984 14.6524 19.9716 14.6524 19.6999V14.0087H16.1464C16.1524 14.0087 16.1577 14.0071 16.1635 14.007V21.8714H1.08534V21.8713ZM17.2149 6.56628H18.8562V16.1976H18.3963C18.106 16.1976 17.8706 16.4328 17.8706 16.7229V20.1376C17.8706 20.4278 18.106 20.663 18.3963 20.663H18.8562V22.3995C18.2115 22.8141 17.6534 23.3513 17.2149 23.9786V6.56628ZM22.0108 32.1101C19.3676 32.1101 17.217 29.9622 17.2145 27.3211C17.2145 27.3195 17.2149 27.2939 17.2149 27.2939C17.2272 24.6612 19.3736 22.5231 22.0108 22.5231C24.6555 22.5231 26.8071 24.6735 26.8071 27.3166C26.8071 29.9597 24.6555 32.1101 22.0108 32.1101ZM27.6773 28.7612C27.7534 28.4632 27.8054 28.156 27.8337 27.8419H41.7395C41.7291 27.9721 41.7223 28.1032 41.7223 28.236C41.7223 28.415 41.7325 28.587 41.7512 28.7612C41.7358 28.7598 27.6773 28.7612 27.6773 28.7612ZM46.6501 32.1101C44.5125 32.1101 42.7736 30.3721 42.7736 28.236C42.7736 26.0998 44.5126 24.3618 46.6501 24.3618C48.7876 24.3618 50.5266 26.0998 50.5266 28.236C50.5266 30.3721 48.7876 32.1101 46.6501 32.1101ZM51.5496 28.7612C51.568 28.5885 51.578 28.4134 51.578 28.236C51.578 28.1032 51.5712 27.9721 51.5608 27.8419H53.4174V28.7612H51.5496Z" fill="#0B0803"/>
<path fill-rule="evenodd" clip-rule="evenodd" d="M10.7564 13.1966C10.7563 13.8854 10.5712 14.5615 10.2205 15.1544C9.8698 15.7473 9.36631 16.2354 8.76257 16.5676C8.15882 16.8998 7.47694 17.0639 6.78806 17.043C6.09918 17.0221 5.42854 16.8168 4.8461 16.4486C4.26366 16.0804 3.79076 15.5627 3.47673 14.9496C3.1627 14.3364 3.01906 13.6503 3.06077 12.9628C3.10249 12.2753 3.32805 11.6116 3.71391 11.0408C4.09977 10.4701 4.63179 10.0134 5.25449 9.71817L5.25449 1.64954L6.90508 -3.4164e-05L8.55566 1.64954L7.45527 2.74926L8.55566 3.84898L7.45527 4.9487L8.55566 6.04841L7.45527 7.14813L8.55566 8.24785L8.55566 9.71817C9.21427 10.0304 9.77071 10.523 10.1603 11.1387C10.5499 11.7545 10.7566 12.4681 10.7564 13.1966ZM8.00546 14.2963C8.00546 14.0046 7.88953 13.7249 7.68317 13.5187C7.4768 13.3124 7.19692 13.1966 6.90508 13.1966C6.61323 13.1966 6.33335 13.3124 6.12698 13.5187C5.92062 13.7249 5.80469 14.0046 5.80469 14.2963C5.80469 14.588 5.92062 14.8677 6.12698 15.0739C6.33335 15.2802 6.61323 15.396 6.90507 15.396C7.19692 15.396 7.4768 15.2802 7.68317 15.0739C7.88953 14.8677 8.00546 14.588 8.00546 14.2963Z" fill="#0B0803"/>
</g>
</svg>
