<svg width="41" height="42" viewBox="0 0 41 42" fill="none" xmlns="http://www.w3.org/2000/svg">
<g opacity="0.5">
<path fill-rule="evenodd" clip-rule="evenodd" d="M10.9349 15.0537C10.6713 15.0537 10.4595 14.8471 10.4595 14.5899C10.4595 12.6207 10.8571 10.7105 11.6351 8.91417C12.3871 7.17688 13.4677 5.61669 14.8421 4.27577C16.2165 2.93485 17.8157 1.88488 19.5964 1.14695C21.4376 0.387939 23.3955 0 25.414 0C27.1298 0 28.8198 0.290954 30.4362 0.860213C31.9619 1.39995 33.3839 2.17583 34.6676 3.16677L34.8794 3.33122V0.506008C34.8794 0.223487 35.0868 0 35.3548 0C35.6055 0 35.8734 0.202403 35.8734 0.506008V4.84924H31.3785C31.1062 4.84924 30.8598 4.62997 30.8598 4.3854C30.8598 4.0818 31.1278 3.87939 31.3785 3.87939H34.0236L33.7124 3.65169C31.305 1.89753 28.4351 0.969848 25.414 0.969848C17.7163 0.969848 11.4536 7.07989 11.4536 14.5899C11.4536 14.8513 11.2245 15.0537 10.9349 15.0537Z" fill="#0B0803"/>
<path fill-rule="evenodd" clip-rule="evenodd" d="M25.4142 7.29492C25.1073 7.29492 24.8955 7.0883 24.8955 6.78891V5.81907C24.8955 5.55763 25.1246 5.35522 25.4142 5.35522C25.6778 5.35522 25.8896 5.56184 25.8896 5.81907V6.78891C25.8896 7.07143 25.6821 7.29492 25.4142 7.29492Z" fill="#0B0803"/>
<path fill-rule="evenodd" clip-rule="evenodd" d="M33.3663 15.0537C33.094 15.0537 32.8477 14.8344 32.8477 14.5899C32.8477 14.2863 33.1156 14.0839 33.3663 14.0839H34.3604C34.6111 14.0839 34.879 14.2863 34.879 14.5899C34.879 14.8344 34.6327 15.0537 34.3604 15.0537H33.3663Z" fill="#0B0803"/>
<path fill-rule="evenodd" clip-rule="evenodd" d="M16.4237 15.0537C16.16 15.0537 15.9482 14.8471 15.9482 14.5899C15.9482 14.3073 16.1557 14.0839 16.4237 14.0839H17.4178C17.6684 14.0839 17.9364 14.2863 17.9364 14.5899C17.9364 14.8344 17.6901 15.0537 17.4178 15.0537H16.4237Z" fill="#0B0803"/>
<path fill-rule="evenodd" clip-rule="evenodd" d="M39.807 15.6019C39.539 15.6019 39.3315 15.3784 39.3315 15.0959C39.3315 14.8513 39.5779 14.6321 39.8502 14.6321C40.1009 14.6321 40.3256 14.8724 40.3256 15.1381C40.3256 15.3953 40.1138 15.6019 39.8502 15.6019H39.807Z" fill="#0B0803"/>
<path fill-rule="evenodd" clip-rule="evenodd" d="M36.8249 23.6981C36.6952 23.6981 36.6131 23.6559 36.5223 23.6138C36.4186 23.5336 36.3495 23.4071 36.3322 23.2722C36.3149 23.133 36.3538 22.9981 36.4359 22.8969C36.5353 22.7788 36.6779 22.7072 36.8292 22.7072C36.9373 22.7072 37.041 22.7451 37.1274 22.8126C37.2398 22.9011 37.3133 23.0403 37.3219 23.1836C37.3306 23.3017 37.2917 23.4071 37.2225 23.4788L37.2139 23.4872L37.2095 23.4957C37.1231 23.6095 36.9589 23.6981 36.8249 23.6981Z" fill="#0B0803"/>
<path fill-rule="evenodd" clip-rule="evenodd" d="M33.5821 26.6921C33.4092 26.6921 33.2407 26.612 33.1542 26.4855L33.1499 26.4812L33.1456 26.477C33.0721 26.3843 33.0419 26.2535 33.0635 26.127C33.0894 25.9921 33.1672 25.874 33.2709 25.8108L33.2753 25.8066L33.2796 25.8024C33.3531 25.7475 33.4481 25.718 33.5475 25.718C33.7161 25.718 33.8803 25.8024 33.9625 25.9289L33.9668 25.9331L33.9711 25.9373C34.0489 26.0343 34.0748 26.1608 34.0489 26.2873C34.023 26.4096 33.9452 26.5234 33.8371 26.6077C33.755 26.6499 33.6686 26.6921 33.5821 26.6921Z" fill="#0B0803"/>
<path fill-rule="evenodd" clip-rule="evenodd" d="M34.7502 25.8063C34.6032 25.8063 34.4779 25.7515 34.3612 25.6376C34.2791 25.5364 34.2402 25.4099 34.2575 25.2834C34.2747 25.1611 34.3396 25.0515 34.439 24.9672L34.4476 24.9587L34.4563 24.9503C34.5297 24.866 34.6335 24.8196 34.7545 24.8196C34.9014 24.8196 35.0441 24.887 35.1392 25.0009C35.2991 25.1991 35.2818 25.4943 35.0959 25.6756C34.9663 25.7641 34.8798 25.8063 34.7502 25.8063Z" fill="#0B0803"/>
<path fill-rule="evenodd" clip-rule="evenodd" d="M37.645 22.5172C37.5585 22.5172 37.4721 22.4751 37.3857 22.4329C37.2776 22.3696 37.1955 22.2516 37.1739 22.1124C37.1523 21.9859 37.1782 21.8552 37.2517 21.7624L37.256 21.7582L37.2603 21.754C37.3468 21.6149 37.5153 21.5305 37.6925 21.5305C37.779 21.5305 37.8697 21.5516 37.9475 21.5896C38.0556 21.6739 38.1291 21.7877 38.1593 21.91C38.1852 22.0365 38.1593 22.1588 38.0858 22.2558L38.0772 22.2642L38.0729 22.2727C37.9908 22.4245 37.8265 22.5172 37.645 22.5172Z" fill="#0B0803"/>
<path fill-rule="evenodd" clip-rule="evenodd" d="M35.8305 24.7941C35.6922 24.7941 35.5668 24.7477 35.4847 24.6676C35.3896 24.5749 35.3291 24.4231 35.3377 24.2839C35.3464 24.17 35.3939 24.0688 35.476 24.0014L35.4847 23.9929L35.4933 23.9845C35.5798 23.8875 35.7094 23.8285 35.8521 23.8285C35.9774 23.8285 36.0984 23.8749 36.1762 23.9508C36.28 24.052 36.3362 24.1785 36.3362 24.3092C36.3362 24.4399 36.28 24.5664 36.1762 24.6676C36.0941 24.7477 35.9688 24.7941 35.8305 24.7941Z" fill="#0B0803"/>
<path fill-rule="evenodd" clip-rule="evenodd" d="M39.6335 17.0779C39.3526 17.0315 39.1581 16.7659 39.2013 16.4875C39.2402 16.2683 39.4477 16.0996 39.6811 16.0996C39.707 16.0996 39.7329 16.1038 39.7632 16.108C40.0485 16.1544 40.2343 16.3906 40.1954 16.6562V16.6604C40.1565 16.8586 39.9491 17.0779 39.72 17.0779H39.6335Z" fill="#0B0803"/>
<path fill-rule="evenodd" clip-rule="evenodd" d="M39.4174 18.5116C39.3828 18.5116 39.3439 18.5116 39.305 18.4863L39.2834 18.4694L39.2575 18.4652C39.1495 18.4399 39.0544 18.3682 38.9895 18.2628C38.9161 18.1447 38.8988 18.0098 38.9377 17.8875L38.942 17.8791V17.8706C38.9809 17.6724 39.184 17.5206 39.4045 17.5206C39.452 17.5206 39.4952 17.5291 39.5384 17.5417L39.5471 17.5459H39.5557C39.6724 17.567 39.7761 17.6429 39.8453 17.7525C39.9188 17.8706 39.9361 18.0098 39.8972 18.1321V18.1363V18.1405C39.8453 18.3471 39.6378 18.5116 39.4174 18.5116Z" fill="#0B0803"/>
<path fill-rule="evenodd" clip-rule="evenodd" d="M38.9852 19.9032C38.9333 19.9032 38.8987 19.8906 38.8685 19.8779C38.8598 19.8737 38.8512 19.8695 38.8469 19.8695L38.8253 19.8611H38.8123C38.687 19.8189 38.5876 19.7303 38.5314 19.6081C38.4752 19.49 38.4665 19.3508 38.5098 19.2286C38.5746 19.0346 38.7691 18.9081 38.9938 18.9081C39.05 18.9081 39.1062 18.9165 39.1581 18.9334C39.2834 18.9755 39.3828 19.0641 39.439 19.1864C39.4952 19.3045 39.5038 19.4436 39.4606 19.5659V19.5701C39.3698 19.7852 39.1494 19.9032 38.9852 19.9032Z" fill="#0B0803"/>
<path fill-rule="evenodd" clip-rule="evenodd" d="M38.3806 21.2101C38.2942 21.2101 38.251 21.2101 38.1688 21.1679H38.1645H38.1602C38.0565 21.1257 37.9744 21.0372 37.9268 20.9233C37.8793 20.7968 37.8836 20.6577 37.9441 20.5354C38.0305 20.3709 38.1948 20.2655 38.3763 20.2655C38.4498 20.2655 38.5233 20.2824 38.5838 20.3203L38.5924 20.3245L38.6011 20.3288C38.7178 20.3709 38.8042 20.4553 38.8517 20.5775C38.895 20.6956 38.895 20.8306 38.8517 20.9571C38.7696 21.1215 38.5535 21.2101 38.3806 21.2101Z" fill="#0B0803"/>
<path fill-rule="evenodd" clip-rule="evenodd" d="M29.5192 28.5896C29.342 28.5896 29.1302 28.4209 29.0437 28.2101C28.9962 27.9444 29.1388 27.6998 29.3895 27.6197C29.4327 27.6071 29.4803 27.5986 29.5278 27.5986C29.7526 27.5986 29.9644 27.7504 30.0378 27.9571C30.0811 28.2227 29.9428 28.4673 29.6921 28.5474H29.6791L29.6575 28.5558C29.6532 28.5558 29.6445 28.5601 29.6402 28.5643C29.6056 28.5769 29.571 28.5896 29.5192 28.5896Z" fill="#0B0803"/>
<path fill-rule="evenodd" clip-rule="evenodd" d="M30.9461 28.0835C30.7473 28.0835 30.5658 27.9697 30.4707 27.7883C30.4275 27.6661 30.4361 27.5269 30.4923 27.4088C30.5485 27.2908 30.6436 27.2022 30.7646 27.16L30.7732 27.1558L30.7819 27.1516C30.8337 27.1221 30.8986 27.1052 30.9591 27.1052C31.1406 27.1052 31.3265 27.2275 31.4215 27.4088C31.4648 27.5311 31.4561 27.6703 31.3999 27.7883C31.3481 27.9064 31.253 27.9907 31.1363 28.0329L31.119 28.0371L31.106 28.0456C31.0628 28.0835 30.985 28.0835 30.9461 28.0835Z" fill="#0B0803"/>
<path fill-rule="evenodd" clip-rule="evenodd" d="M32.2864 27.4511C32.1006 27.4511 31.9364 27.3541 31.8542 27.1981C31.7894 27.0758 31.7764 26.9367 31.8153 26.8144C31.8542 26.6879 31.945 26.5867 32.066 26.5277L32.0747 26.5234C32.1395 26.4855 32.213 26.4686 32.2908 26.4686C32.4723 26.4686 32.6365 26.5698 32.723 26.7385C32.8483 26.9873 32.7748 27.2825 32.5501 27.4132C32.4593 27.4511 32.3772 27.4511 32.2864 27.4511Z" fill="#0B0803"/>
<rect x="3.13135" y="20.6609" width="2.17539" height="3.25592" fill="#0B0803"/>
<ellipse cx="25.4294" cy="14.1291" rx="1.63154" ry="1.62796" fill="#0B0803"/>
<rect x="16.1836" y="27.1729" width="2.17539" height="3.25592" fill="#0B0803"/>
<rect x="7.48193" y="32.0366" width="2.17539" height="3.25592" fill="#0B0803"/>
<path d="M24.8857 36.3779L26.5173 35.8352V39.0911L24.8857 39.6338V36.3779Z" fill="#0B0803"/>
<path fill-rule="evenodd" clip-rule="evenodd" d="M14.3926 41.2818C13.5152 41.2818 12.5817 41.2438 11.5443 41.1975H11.4968L11.4536 41.1553L11.406 41.1511C10.7015 41.1131 9.90627 41.071 9.12829 40.9866H9.12397H9.11964C9.08074 40.9866 9.05481 40.9782 9.04617 40.9698L9.01591 40.9402L8.97269 40.936C7.70199 40.8011 5.85645 40.5397 4.28321 40.0716C2.39012 39.5066 1.43062 38.8066 1.43062 37.9927V34.7037C1.45655 34.6573 1.46519 34.6109 1.47816 34.5561V34.5519C1.48248 34.5392 1.48248 34.5224 1.4868 34.5097L1.51274 34.4085L1.41765 34.3664C0.462465 33.9236 0 33.426 0 32.8483V29.5593C0.0475432 28.7961 0.989762 28.1846 2.7964 27.7292L2.89581 27.7039V24.4149C2.89581 24.3727 2.89581 24.339 2.90013 24.3052L2.92174 24.1956L2.81369 24.1619C0.920609 23.5631 0 22.8842 0 22.0957V18.8066C0.0605095 17.9169 1.41333 17.1958 3.91583 16.7236C6.04663 16.3188 8.62692 16.1501 10.4163 16.0784L10.533 16.0742L10.5416 15.9603C10.5459 15.8633 10.5848 15.7748 10.6453 15.7073C10.7231 15.6146 10.8398 15.564 10.9695 15.564H10.9781H10.9868C11.0041 15.5597 11.0257 15.5597 11.0473 15.5597C11.2634 15.5597 11.4752 15.7326 11.5357 15.9477L11.5616 16.0447L11.6654 16.0404C12.305 16.0278 12.7589 16.0236 12.9274 16.0236C13.1219 16.0236 13.6492 16.0236 14.3796 16.0447L14.5309 16.0489L14.5093 15.9013C14.4142 15.2055 14.4358 14.6531 14.4402 14.5941V14.5899C14.4358 8.68225 19.363 3.87939 25.414 3.87939C28.3228 3.87939 31.063 4.99683 33.1333 7.02086C35.2079 9.04911 36.3489 11.7352 36.3489 14.5899C36.3489 16.9049 35.6055 19.106 34.1965 20.9529C32.8567 22.7113 30.9506 24.048 28.8328 24.7269L28.742 24.7564V27.7039C28.742 27.8937 28.6901 28.0792 28.5864 28.2563L28.5648 28.2943L28.5734 28.3364C28.6167 28.5852 28.4481 28.8382 28.1845 28.9226H28.098C28.0634 28.9226 28.0289 28.9183 27.9943 28.9099L27.9381 28.8973L27.8905 28.9268C27.4367 29.2219 26.7971 29.496 25.9845 29.7406L25.8894 29.7701V32.8483C25.8894 32.9285 25.8721 33.0381 25.8375 33.1646L25.8073 33.27L25.911 33.3122C27.0175 33.7634 27.2855 34.3158 27.3157 34.7037V37.9927C27.3157 38.8108 26.3562 39.5108 24.4588 40.0758C22.8899 40.5439 21.053 40.8053 19.7866 40.9402L19.752 40.9445L19.7261 40.9613C19.7002 40.9824 19.6699 40.9866 19.6613 40.9866H19.618H19.6094C18.8357 41.071 18.0491 41.1131 17.3533 41.1511L17.3057 41.1553L17.2711 41.189C17.2625 41.1975 17.2538 41.1975 17.2409 41.1975V41.1553L17.1026 41.1679C16.1647 41.2438 15.2527 41.2818 14.3926 41.2818ZM14.868 40.312H14.9977C15.5682 40.312 16.1258 40.3077 16.6488 40.2782L16.7698 40.2698V37.9506H16.6401C16.4456 37.9548 16.2511 37.9632 16.0609 37.9717C15.8232 37.9801 15.5855 37.9927 15.3478 37.9927H14.8724V40.312H14.868ZM11.9722 40.2698L12.0933 40.2782C12.6465 40.312 13.1651 40.312 13.7875 40.312H13.9172V37.9927H13.4417C13.204 37.9927 12.9534 37.9801 12.707 37.9717C12.5082 37.9632 12.3007 37.9548 12.1019 37.9506H11.9722V40.2698ZM19.0475 37.7946C18.6715 37.8283 18.2739 37.862 17.846 37.8662H17.7163V40.2276L17.8589 40.215C18.2825 40.1812 18.6888 40.1433 19.0691 40.1095L19.1858 40.1011V37.7819L19.0475 37.7946ZM9.59508 40.1011L9.71177 40.1138C9.97542 40.1391 10.2736 40.1644 10.5373 40.1854L11.0214 40.2276V37.8662H10.8917C10.4984 37.862 10.1051 37.8283 9.73338 37.7946L9.59508 37.7819V40.1011ZM7.1747 39.7638L7.28275 39.7806C7.6847 39.8523 8.07802 39.9198 8.50158 39.9577L8.64421 39.9704V37.6512L8.52752 37.6385C8.29412 37.6175 8.06937 37.5879 7.84894 37.5584C7.66309 37.5331 7.49021 37.512 7.31733 37.4952L7.1747 37.4867V39.7638ZM21.4247 37.4994C21.2345 37.5205 21.04 37.5458 20.8542 37.5711C20.6597 37.5964 20.4565 37.6217 20.2577 37.6428L20.141 37.6554V39.9746L20.2836 39.962C20.7331 39.9198 21.1481 39.8439 21.4636 39.7849L21.5673 39.7638V37.4867L21.4247 37.4994ZM23.8278 37.0229C23.6117 37.0777 23.4042 37.1199 23.1795 37.1705C22.9936 37.2084 22.8078 37.2506 22.6176 37.297L22.5182 37.3181V39.5951L22.6781 39.5572C22.838 39.5192 22.9936 39.4855 23.1406 39.4475L23.1492 39.4433C23.4085 39.3801 23.6549 39.321 23.884 39.2746L23.9877 39.2536V36.9765L23.8278 37.0229ZM4.79754 39.2578L4.90127 39.2789C5.19517 39.3379 5.50636 39.418 5.83484 39.4981L6.22383 39.5951V37.3181L6.12442 37.2928C5.96018 37.2548 5.80027 37.2169 5.64467 37.1831H5.64035C5.40263 37.1325 5.17788 37.0819 4.96178 37.0229L4.79754 36.9807V39.2578ZM26.1704 36.1711C25.8419 36.3567 25.4615 36.5211 25.0293 36.656L24.9386 36.6856V38.9204L25.1158 38.8487C25.9197 38.5325 26.3648 38.2247 26.3648 37.9885V36.0573L26.1704 36.1711ZM2.37716 37.9927C2.37716 38.2373 2.8353 38.5409 3.66947 38.8572L3.84667 38.9204V36.6856L3.75591 36.656C3.28912 36.5085 2.88717 36.3482 2.57165 36.1669L2.37716 36.0573V37.9927ZM13.1824 37.0229C13.5714 37.0651 13.9518 37.0651 14.3926 37.0651C14.7773 37.0651 15.2138 37.0651 15.6028 37.0229H16.5537H16.558C20.6294 36.8205 23.1233 36.2217 24.247 35.8844C25.4745 35.5386 26.2438 35.1422 26.3519 34.8007L26.3692 34.7459L26.3389 34.6953C26.2611 34.5688 26.0018 34.3115 25.1547 34.0417L25.0855 34.0206L25.0293 34.067C25.0163 34.0796 24.9947 34.0965 24.9818 34.1134H24.9602L24.9299 34.126C24.9213 34.1302 24.904 34.1387 24.891 34.1471C24.8651 34.164 24.8391 34.1766 24.8089 34.1935H24.783L24.7484 34.2188C24.7268 34.2314 24.7052 34.2525 24.6792 34.2778C23.8667 34.6953 22.6694 35.0748 21.2215 35.3742H21.0919L21.0746 35.3784C21.0011 35.3995 20.8196 35.4543 20.6726 35.4585H20.6597L20.6467 35.4627C20.1194 35.585 19.5446 35.6609 18.9395 35.741C18.7104 35.7705 18.4727 35.8043 18.2393 35.838H18.1961H18.1874C17.7941 35.8844 17.3878 35.9139 16.9513 35.9476C16.5796 35.9771 16.1993 36.0067 15.8146 36.0446H15.8103C15.123 36.0868 14.4185 36.0868 13.74 36.0868C13.6146 36.0868 13.4936 36.0952 13.364 36.1079C13.2213 36.1205 13.0787 36.129 12.9188 36.129C12.7502 36.129 12.5384 36.129 12.3266 36.091L12.318 36.0952H12.305C11.566 36.0952 10.8053 36.0952 10.0705 36.0531C7.55936 35.8802 5.40695 35.5808 3.67379 35.1675C3.63057 35.1465 3.59599 35.1338 3.56574 35.1254C3.5398 35.1169 3.51387 35.1085 3.4793 35.0959L3.45768 35.0832H3.43175C3.41014 35.0832 3.34099 35.0832 3.29777 35.0495L3.28048 35.0368L3.26319 35.0326C3.13353 34.9904 3.01683 34.9567 2.89581 34.9567H2.45496L2.82234 35.1886C3.19404 35.4205 3.78616 35.6693 4.49499 35.8844C6.40536 36.4579 9.22337 36.8711 12.2272 37.0229H12.2359H13.1824ZM13.4417 35.1675H14.1333C14.4315 35.1675 14.7384 35.1675 15.0409 35.1254H15.3435V32.8062H15.2138C14.7946 32.8062 14.3451 32.8104 13.874 32.8483H13.4417V35.1675ZM10.5459 35.1212L10.6713 35.1254C10.762 35.1296 10.8485 35.138 10.9349 35.1422C11.0689 35.1549 11.1943 35.1633 11.3239 35.1633H12.4477V32.8441H11.9722C11.7345 32.8441 11.4925 32.8315 11.2591 32.823C11.0646 32.8146 10.8701 32.8062 10.6756 32.802H10.5459V35.1212ZM17.578 32.6502C17.2063 32.6839 16.813 32.7134 16.4197 32.7218H16.29V35.0959L16.4715 35.0579C16.5148 35.0495 16.5537 35.041 16.5926 35.041H16.8087L16.9383 35.0242C17.1847 34.9947 17.3965 34.9651 17.591 34.9567L17.7163 34.9525V32.6375L17.578 32.6502ZM8.38489 34.9567C8.57938 34.9778 8.78684 34.9989 8.98998 35.02H8.9943C9.1499 35.0368 9.30117 35.0537 9.45245 35.0663L9.59508 35.0832V32.7218H9.46541C9.14125 32.7176 8.76091 32.6923 8.30709 32.6502L8.16878 32.6375V34.9567H8.38489ZM19.9984 32.355C19.8082 32.3761 19.6137 32.4014 19.4279 32.4267C19.2334 32.452 19.0302 32.4773 18.8314 32.4983L18.7147 32.511V34.8302L18.8573 34.8133C19.2507 34.7712 19.6353 34.7037 20.033 34.6362L20.141 34.6194V32.3423L19.9984 32.355ZM5.7484 34.6194L5.85645 34.6362C6.25409 34.7079 6.64308 34.7712 7.03207 34.8133L7.1747 34.8302V32.511L7.058 32.4983C6.85486 32.4773 6.65604 32.452 6.46155 32.4267C6.2757 32.4014 6.08553 32.3761 5.89103 32.355L5.7484 32.3423V34.6194ZM3.58735 34.1555C3.6954 34.1808 3.8121 34.2146 3.93744 34.2441C4.15354 34.2989 4.39558 34.3621 4.63762 34.417L4.79754 34.4507V32.1737L4.69813 32.1484C4.53389 32.1104 4.37397 32.0725 4.21838 32.0387H4.21405C3.97634 31.9881 3.75159 31.9375 3.53548 31.8785L3.37124 31.8363V34.0881L3.45336 34.1176L3.47065 34.126C3.50091 34.1429 3.53548 34.1555 3.58735 34.1555ZM22.3539 31.8827C22.1378 31.9417 21.9131 31.9881 21.6754 32.0429H21.671C21.5154 32.0767 21.3555 32.1104 21.1913 32.1526L21.0919 32.1737V34.4507L21.4809 34.3537C21.8093 34.2694 22.1249 34.1935 22.4144 34.1344L22.5182 34.1134V31.8405L22.3539 31.8827ZM24.7441 31.0267C24.4026 31.2207 24.0179 31.3809 23.5641 31.5116L23.469 31.5411V33.776L23.6462 33.7043C24.1346 33.5104 24.4977 33.3206 24.7181 33.1435L24.7224 33.1393L24.891 32.9748L24.8997 32.9453C24.904 32.9327 24.9083 32.92 24.9169 32.9074C24.9213 32.8989 24.9256 32.8905 24.9256 32.8863L24.9386 32.861V30.9129L24.7441 31.0267ZM0.950863 32.8483C0.950863 33.0339 1.3096 33.367 2.11351 33.6917H2.11783L2.37716 33.776V31.5411L2.28639 31.5116C1.85418 31.3767 1.47384 31.2122 1.14536 31.0267L0.950863 30.9129V32.8483ZM11.7129 31.8785C12.1451 31.9207 12.5384 31.9207 12.9231 31.9207H13.8696L13.8912 31.9122C13.9777 31.8785 14.0987 31.8785 14.2154 31.8785H14.5223C17.8287 31.7646 20.8542 31.3472 22.8164 30.74C22.8856 30.7189 22.959 30.6978 23.0325 30.6767L22.972 30.4321C21.6365 30.6556 20.2015 30.8159 18.7147 30.9086H18.6715C18.3689 30.9086 18.0621 30.9213 17.7639 30.9297C17.4656 30.9382 17.1588 30.9508 16.8562 30.9508C16.6833 30.9508 16.5061 30.9635 16.3376 30.9719C16.169 30.9803 15.9918 30.993 15.8189 30.993C15.6676 30.993 15.525 30.9803 15.3867 30.9719C15.2441 30.9592 15.1058 30.9508 14.9545 30.9508C14.6087 30.9508 14.2673 30.9382 13.9388 30.9297H13.9345C13.606 30.9213 13.2689 30.9086 12.9231 30.9086C11.1078 30.7948 9.23634 30.5587 7.52046 30.234C7.38648 30.1918 7.26114 30.1496 7.13147 30.1496C7.10986 30.1496 7.08825 30.1412 7.06664 30.1285C7.058 30.1243 7.04936 30.1201 7.04503 30.1201L7.0191 30.1075H7.00181C5.20382 29.7027 3.95905 29.1966 3.29777 28.6021L3.2459 28.5557L3.17675 28.5726C1.56892 28.9689 1.10646 29.3864 0.981118 29.5466L0.937897 29.6015L0.959508 29.6647C1.08485 30.002 1.84986 30.3942 3.06005 30.7358C4.9661 31.3092 7.76682 31.7225 10.7491 31.8743H10.7577H11.7129V31.8785ZM16.2943 30.0231H16.424C16.9945 30.0231 17.5521 30.0189 18.075 29.9894L18.1961 29.981V27.6618H18.0664C17.6472 27.6618 17.202 27.666 16.7698 27.7039H16.2943V30.0231ZM13.4417 29.981L13.5671 29.9852C13.7097 29.9894 13.8567 29.9978 13.9993 30.0063C14.1722 30.0147 14.3494 30.0273 14.5223 30.0273H15.3435V27.7081H14.868C14.6303 27.7081 14.3883 27.6955 14.1549 27.6871C13.9604 27.6786 13.7659 27.6702 13.5714 27.666H13.4417V29.981ZM20.4738 27.5057C20.1021 27.5395 19.7088 27.569 19.3155 27.5774H19.1858V29.9304L19.3328 29.9135C19.4581 29.8966 19.5835 29.8966 19.7045 29.8966H19.7477L19.8471 29.884C20.0632 29.8545 20.2664 29.8249 20.4868 29.8165L20.6121 29.8123V27.4931L20.4738 27.5057ZM11.2375 29.8123C11.5357 29.8545 11.8426 29.8966 12.1451 29.8966H12.4477V27.5774H12.318C11.9247 27.5732 11.5314 27.5395 11.1597 27.5057L11.0214 27.4931V29.8123H11.2375ZM22.851 27.2148C22.7083 27.2317 22.5657 27.2485 22.4144 27.2696C22.181 27.2991 21.939 27.3329 21.6883 27.3582L21.5673 27.3666V29.6942L21.7186 29.6689L21.7618 29.6605C21.8266 29.6521 21.8915 29.6394 21.9563 29.6394C22.0211 29.6394 22.086 29.6268 22.1508 29.6183C22.2156 29.6099 22.2718 29.5972 22.3323 29.5972H22.3453L22.3583 29.593C22.4577 29.5719 22.5527 29.5551 22.6435 29.534H22.6522C22.73 29.5171 22.8078 29.5003 22.8942 29.4834L22.9979 29.4623V27.1979L22.851 27.2148ZM9.20609 29.5593C9.42651 29.593 9.68152 29.631 9.92356 29.6647L10.0705 29.6858V27.3666L9.95381 27.3539C9.70313 27.3286 9.46109 27.2991 9.2277 27.2654C9.0721 27.2443 8.92947 27.2274 8.78684 27.2106L8.64421 27.1979V29.475L8.74362 29.5003C8.87761 29.5298 9.02024 29.5593 9.16286 29.5593H9.20609ZM6.22383 28.9268L6.3146 28.9521C6.67333 29.0575 7.06664 29.1629 7.48589 29.2641L7.64581 29.3063V27.0292L7.55072 27.0039C7.34326 26.9533 7.1358 26.907 6.93266 26.8606C6.75113 26.8226 6.56528 26.7805 6.37943 26.7341L6.21951 26.6919V28.9268H6.22383ZM25.2541 26.7341C25.0682 26.7805 24.8824 26.8226 24.7008 26.8606C24.4977 26.907 24.2902 26.9533 24.0828 27.0039L23.9877 27.0292V29.2725L24.1303 29.2599C24.2427 29.2515 24.3507 29.2135 24.4631 29.1798C24.5928 29.1587 24.7095 29.1292 24.8305 29.0954C24.9429 29.0659 25.0552 29.0364 25.1806 29.0153L25.1979 29.0111L25.2152 29.0027C25.2497 28.9858 25.28 28.9774 25.3103 28.9732L25.4183 28.9563V26.6919L25.2541 26.7341ZM27.5966 25.8823C27.2682 26.0678 26.8878 26.2323 26.4556 26.3672L26.3648 26.3967V28.6316L26.5421 28.5641C27.3373 28.2648 27.7911 27.9485 27.7911 27.6997V25.7684L27.5966 25.8823ZM3.8899 27.7883C4.00227 28.0075 4.40855 28.269 5.09144 28.5557L5.27297 28.6316V26.3967L5.18221 26.3672C4.74999 26.2323 4.36965 26.0678 4.04117 25.8823L3.84667 25.7684V27.7461L3.8899 27.7883ZM14.6087 26.7341C14.9977 26.7762 15.3781 26.7762 15.8189 26.7762C16.2598 26.7762 16.6401 26.7762 17.0291 26.7341H17.98H17.9843C22.0211 26.5317 24.5625 25.9329 25.7165 25.5956C26.9354 25.2371 27.6917 24.8365 27.7825 24.495L27.7955 24.4528L27.7782 24.4107C27.6615 24.145 26.8878 23.7191 25.0769 23.327L25.0207 23.3143L24.9731 23.348C24.9688 23.3523 24.9645 23.3523 24.9602 23.3565L24.9386 23.3649L24.9213 23.3776C24.904 23.3944 24.878 23.4071 24.8564 23.4239C24.8175 23.4492 24.7916 23.4661 24.77 23.4872H24.7441L24.7095 23.5125C24.6879 23.5251 24.6663 23.5462 24.6403 23.5715C24.5107 23.6137 24.381 23.6559 24.2513 23.7402H24.234L24.2081 23.7528C24.2038 23.7571 24.1951 23.7613 24.1865 23.7613C24.1649 23.7697 24.1476 23.7781 24.1303 23.7824H24.1174L24.1044 23.7866C23.9877 23.8245 23.858 23.8667 23.7284 23.951H23.6419L23.6117 23.9679C23.4863 24.0396 23.3221 24.0818 23.1795 24.1155L23.1665 24.1197L23.1535 24.1239C23.1276 24.1366 23.1017 24.145 23.0844 24.1534C23.0455 24.1661 23.0195 24.1787 22.9936 24.204C22.8639 24.204 22.7818 24.2462 22.6911 24.2884C20.2923 24.9167 17.0161 25.3046 13.7011 25.3426H11.8426C11.2764 25.3426 10.7448 25.3046 10.1829 25.2667L10.0705 25.2582C9.26659 25.2161 8.43243 25.1739 7.70199 25.0896H7.69335H7.65013C6.5307 24.963 5.48475 24.7944 4.53821 24.5835C4.43016 24.5625 4.33075 24.5414 4.23566 24.5203C4.19244 24.5119 4.14922 24.5034 4.106 24.4908L3.69972 24.4064L3.98066 24.7016C4.25727 24.9926 4.94881 25.3088 5.92129 25.5956C7.07961 25.9329 9.62101 26.5317 13.6535 26.7341H13.6622H14.6087ZM10.5459 24.3727L10.667 24.3811C11.2202 24.4149 11.7432 24.4149 12.318 24.4149H12.4477V22.0957H11.9722C11.54 22.0577 11.0948 22.0535 10.6756 22.0535H10.5459V24.3727ZM13.4417 24.4149H14.0901C14.4358 24.4149 14.7384 24.4149 15.0842 24.3727H15.3435V22.0535H15.2138C14.7946 22.0535 14.3451 22.0577 13.874 22.0957H13.4417V24.4149ZM17.578 21.8975C17.2063 21.9312 16.813 21.9607 16.4197 21.9692H16.29V24.3305L16.4326 24.3179C16.8519 24.2842 17.2452 24.2504 17.5996 24.2125L17.7163 24.1998V21.8806L17.578 21.8975ZM8.16878 24.204L8.28548 24.2167C8.54913 24.242 8.84735 24.2673 9.111 24.2884L9.59508 24.3305V21.9692H9.46541C9.14125 21.965 8.76091 21.9397 8.30709 21.8975L8.16878 21.8848V24.204ZM5.7484 23.8498L5.84349 23.8751C5.8651 23.8794 5.88239 23.8878 5.90832 23.9004L5.92561 23.9089L5.9429 23.9131C6.17629 23.951 6.43562 23.9932 6.73816 24.0354H6.74681H6.91969C6.95427 24.0354 6.98885 24.0438 7.0191 24.048L7.17902 24.086V21.7583L7.06232 21.7457C6.85918 21.7246 6.66037 21.6993 6.46587 21.674C6.28002 21.6487 6.08985 21.6234 5.89535 21.6023L5.7484 21.5897V23.8498ZM19.9984 21.6023C19.8039 21.6234 19.6137 21.6487 19.4279 21.674C19.2334 21.6993 19.0302 21.7246 18.8314 21.7457L18.7147 21.7583V24.0775L18.866 24.0522C19.0562 24.0227 19.2463 23.9974 19.4279 23.9721C19.6267 23.9468 19.8298 23.9173 20.033 23.8836L20.141 23.8667V21.5897L19.9984 21.6023ZM23.1362 16.9808L23.348 17.0398C24.9861 17.4952 25.8419 18.0898 25.8894 18.8066V22.0957C25.8894 22.1758 25.8721 22.277 25.8419 22.3951L25.8073 22.5173L25.9326 22.5469C27.2379 22.8716 28.0678 23.2637 28.4697 23.7571L28.5259 23.8245L28.6123 23.795C32.6449 22.4372 35.3548 18.7349 35.3548 14.5857C35.3548 9.21356 30.8944 4.84503 25.414 4.84503C19.9076 4.84503 15.4299 9.21356 15.4299 14.5857C15.4299 14.8134 15.4213 15.1043 15.4083 15.4122C15.404 15.5893 15.3953 15.7748 15.391 15.9435L15.3867 16.07L15.512 16.0742C17.2798 16.1459 19.8255 16.3145 21.939 16.7109L22.0082 16.7236L23.6851 15.0959L23.6419 15.0116C23.469 14.6953 23.3869 14.3875 23.3869 14.0797C23.3869 13.249 23.9704 12.4942 24.8089 12.2496L24.8997 12.2243V9.74065C24.8997 9.44126 25.1114 9.23464 25.4183 9.23464C25.6863 9.23464 25.8937 9.45813 25.8937 9.74065V12.2243L25.9845 12.2496C26.823 12.4984 27.4065 13.249 27.4065 14.0797C27.4065 15.1507 26.5161 16.0194 25.4183 16.0194C25.0682 16.0194 24.7441 15.9477 24.4631 15.8085L24.381 15.7664L23.1362 16.9808ZM22.3539 21.13C22.1378 21.1891 21.9131 21.2355 21.6754 21.2903H21.671C21.5154 21.324 21.3555 21.3577 21.1913 21.3999L21.0919 21.421V23.698L21.2518 23.6559C21.671 23.5504 22.0644 23.445 22.4231 23.3438L22.5139 23.3185V21.0837L22.3539 21.13ZM3.37124 23.3227L3.4404 23.3565C3.55709 23.4113 3.6954 23.4492 3.8899 23.483C3.98066 23.4998 4.08007 23.5251 4.1838 23.5547C4.32211 23.5884 4.46474 23.6263 4.61169 23.6516H4.62033H4.62898C4.63762 23.6516 4.64626 23.6516 4.65491 23.6516L4.78889 23.6559V21.421L4.68949 21.3957C4.52525 21.3577 4.36533 21.3198 4.20973 21.2861H4.20541C3.96769 21.2355 3.74294 21.1849 3.52684 21.1258L3.3626 21.0837V23.3227H3.37124ZM0.950863 22.0957C0.950863 22.3318 1.39604 22.6396 2.19995 22.9559L2.37716 23.0234V20.7885L2.28639 20.759C1.84554 20.6198 1.47384 20.4343 1.14104 20.2572L0.950863 20.156V22.0957ZM24.7484 20.2572C24.4502 20.4174 24.0439 20.6156 23.5641 20.759L23.469 20.7885V23.0234L23.6506 22.9475C24.0914 22.7661 24.4113 22.6143 24.636 22.433L24.8089 22.3065L24.8175 22.2981C24.904 22.2095 24.9299 22.1421 24.9342 22.1252L24.9386 22.1083V20.156L24.7484 20.2572ZM11.7129 21.1258C12.1451 21.168 12.5384 21.168 12.9231 21.168C13.364 21.168 13.7443 21.168 14.1765 21.1258H15.1274H15.1317C18.1139 20.974 20.9147 20.5608 22.8207 19.9873C24.0007 19.6415 24.7873 19.2325 24.9256 18.891L24.9429 18.8446L24.9256 18.7982C24.8132 18.5072 23.9488 18.0518 21.8655 17.647C20.2318 17.3308 17.3576 16.9513 12.9231 16.9513C8.51023 16.9513 5.64467 17.3308 4.01956 17.647C1.94063 18.0518 1.0762 18.5072 0.96383 18.7982L0.946541 18.8446L0.96383 18.891C1.10214 19.2325 1.88876 19.6415 3.0687 19.9873C4.97474 20.5608 7.77547 20.974 10.7577 21.1258H10.7664H11.7129ZM25.414 13.114C24.8737 13.114 24.4199 13.5568 24.4199 14.0839C24.4199 14.6363 24.8478 15.0537 25.414 15.0537C25.9542 15.0537 26.4081 14.611 26.4081 14.0839C26.4081 13.5779 25.9326 13.114 25.414 13.114Z" fill="#0B0803"/>
</g>
</svg>
