<svg width="46" height="58" viewBox="0 0 46 58" fill="none" xmlns="http://www.w3.org/2000/svg">
<path d="M10.861 57.5185L8.17375 54.8313L5.48649 57.5185C5.18417 57.8209 4.75869 58 4.32201 58C3.41506 58 2.67606 57.261 2.67606 56.3541V44.6757C0.974131 43.1305 0 40.9359 0 38.6293C0 36.5691 0.772587 34.6097 2.1722 33.0869C3.49344 31.6537 5.25135 30.7579 7.16602 30.5116V1.67954C7.16602 0.750193 7.91622 0 8.84556 0H34.9456C35.2815 0 35.595 0.134363 35.8301 0.369498L44.6757 9.21506C44.8996 9.439 45.0116 9.73012 45.0116 10.0436V50.4981C45.0116 51.4274 44.2614 52.1776 43.332 52.1776H13.6602V56.3541C13.6602 57.261 12.9212 58 12.0143 58C11.5888 58 11.1633 57.832 10.861 57.5185ZM11.6448 55.4583V46.0305C10.5587 46.5344 9.37182 46.8031 8.17375 46.8031C6.97568 46.8031 5.7888 46.5344 4.7027 46.0305V55.4583L8.17375 51.9873L11.6448 55.4583ZM42.9961 49.3448V10.973H35.4382C34.6656 10.973 34.0386 10.3459 34.0386 9.57336V2.01544H10.178C9.62934 2.01544 9.18147 2.46332 9.18147 3.01197V30.5228C11.0961 30.7579 12.8541 31.6649 14.1753 33.0981C15.5749 34.6097 16.3475 36.5803 16.3475 38.6405C16.3475 40.9471 15.3734 43.1417 13.6602 44.6869V50.1734H42.1788C42.6266 50.1622 42.9961 49.7927 42.9961 49.3448ZM8.57683 32.4822C4.85946 32.2471 1.79151 35.3151 2.02664 39.0324C2.22819 42.1004 4.7027 44.5749 7.77066 44.7764C11.488 45.0116 14.556 41.9436 14.3209 38.2263C14.1193 35.1583 11.6448 32.6838 8.57683 32.4822ZM41.5741 8.95753L36.0541 3.43745V8.95753H41.5741Z" fill="#F7D72D"/>
<path d="M23.6256 7.16602H14.2202C13.6636 7.16602 13.2124 7.61719 13.2124 8.17374C13.2124 8.73029 13.6636 9.18146 14.2202 9.18146H23.6256C24.1821 9.18146 24.6333 8.73029 24.6333 8.17374C24.6333 7.61719 24.1821 7.16602 23.6256 7.16602Z" fill="#0B0803"/>
<path d="M20.0426 10.749H14.2202C13.6636 10.749 13.2124 11.2002 13.2124 11.7567C13.2124 12.3133 13.6636 12.7645 14.2202 12.7645H20.0426C20.5991 12.7645 21.0503 12.3133 21.0503 11.7567C21.0503 11.2002 20.5991 10.749 20.0426 10.749Z" fill="#0B0803"/>
<path d="M37.9576 16.1235H14.2202C13.6636 16.1235 13.2124 16.5747 13.2124 17.1313C13.2124 17.6878 13.6636 18.139 14.2202 18.139H37.9576C38.5142 18.139 38.9653 17.6878 38.9653 17.1313C38.9653 16.5747 38.5142 16.1235 37.9576 16.1235Z" fill="#0B0803"/>
<path d="M37.9576 19.7065H14.2202C13.6636 19.7065 13.2124 20.1577 13.2124 20.7143C13.2124 21.2708 13.6636 21.722 14.2202 21.722H37.9576C38.5142 21.722 38.9653 21.2708 38.9653 20.7143C38.9653 20.1577 38.5142 19.7065 37.9576 19.7065Z" fill="#0B0803"/>
<path d="M37.9576 26.8726H14.2202C13.6636 26.8726 13.2124 27.3237 13.2124 27.8803C13.2124 28.4368 13.6636 28.888 14.2202 28.888H37.9576C38.5142 28.888 38.9653 28.4368 38.9653 27.8803C38.9653 27.3237 38.5142 26.8726 37.9576 26.8726Z" fill="#0B0803"/>
<path d="M34.3746 30.4556H17.8032C17.2466 30.4556 16.7955 30.9067 16.7955 31.4633C16.7955 32.0198 17.2466 32.471 17.8032 32.471H34.3746C34.9312 32.471 35.3823 32.0198 35.3823 31.4633C35.3823 30.9067 34.9312 30.4556 34.3746 30.4556Z" fill="#0B0803"/>
<path d="M37.9576 23.2896H14.2202C13.6636 23.2896 13.2124 23.7407 13.2124 24.2973C13.2124 24.8538 13.6636 25.305 14.2202 25.305H37.9576C38.5142 25.305 38.9653 24.8538 38.9653 24.2973C38.9653 23.7407 38.5142 23.2896 37.9576 23.2896Z" fill="#0B0803"/>
<path d="M37.9576 35.8301H28.5522C27.9956 35.8301 27.5444 36.2813 27.5444 36.8378C27.5444 37.3943 27.9956 37.8455 28.5522 37.8455H37.9576C38.5141 37.8455 38.9653 37.3943 38.9653 36.8378C38.9653 36.2813 38.5141 35.8301 37.9576 35.8301Z" fill="#0B0803"/>
<path d="M37.9576 39.4131H32.1352C31.5786 39.4131 31.1275 39.8643 31.1275 40.4208C31.1275 40.9774 31.5786 41.4285 32.1352 41.4285H37.9576C38.5141 41.4285 38.9653 40.9774 38.9653 40.4208C38.9653 39.8643 38.5141 39.4131 37.9576 39.4131Z" fill="#0B0803"/>
<path d="M8.17373 43.22C5.64323 43.22 3.583 41.1598 3.583 38.6293C3.583 36.0988 5.64323 34.0386 8.17373 34.0386C10.7042 34.0386 12.7645 36.0988 12.7645 38.6293C12.7645 41.1598 10.7042 43.22 8.17373 43.22ZM8.17373 36.054C6.75173 36.054 5.59844 37.2073 5.59844 38.6293C5.59844 40.0513 6.75173 41.2046 8.17373 41.2046C9.59574 41.2046 10.749 40.0513 10.749 38.6293C10.749 37.2073 9.59574 36.054 8.17373 36.054Z" fill="#0B0803"/>
</svg>
