<svg width="64" height="53" viewBox="0 0 64 53" fill="none" xmlns="http://www.w3.org/2000/svg">
<path d="M29.1846 38.5775V42H14.3846V38.5775H19.8051V22.982C19.8051 22.3654 19.8236 21.7302 19.8606 21.0765L16.0126 24.2955C15.7906 24.4682 15.5686 24.5792 15.3466 24.6285C15.1369 24.6655 14.9334 24.6655 14.7361 24.6285C14.5511 24.5915 14.3846 24.5299 14.2366 24.4435C14.0886 24.3449 13.9776 24.24 13.9036 24.129L12.4606 22.1495L20.6191 15.212H24.3746V38.5775H29.1846Z" fill="#0B0803"/>
<path d="M50.6475 38.5775V42H35.8475V38.5775H41.268V22.982C41.268 22.3654 41.2865 21.7302 41.3235 21.0765L37.4755 24.2955C37.2535 24.4682 37.0315 24.5792 36.8095 24.6285C36.5998 24.6655 36.3963 24.6655 36.199 24.6285C36.014 24.5915 35.8475 24.5299 35.6995 24.4435C35.5515 24.3449 35.4405 24.24 35.3665 24.129L33.9235 22.1495L42.082 15.212H45.8375V38.5775H50.6475Z" fill="#0B0803"/>
<path d="M63.5869 8.17005H58.3489V13.7321H55.6354V8.17005H50.4244V5.69955H55.6354V0.164551H58.3489V5.69955H63.5869V8.17005Z" fill="#0B0803"/>
<path fill-rule="evenodd" clip-rule="evenodd" d="M43 2H5C2.23858 2 0 4.23858 0 7V48C0 50.7614 2.23858 53 5 53H58C60.7614 53 63 50.7614 63 48V21V17C63 16.4477 62.5523 16 62 16C61.4477 16 61 16.4477 61 17V21V48C61 49.6569 59.6569 51 58 51H5C3.34315 51 2 49.6569 2 48V7C2 5.34315 3.34315 4 5 4H47C47.5523 4 48 3.55228 48 3C48 2.44772 47.5523 2 47 2H43Z" fill="#F7D72D"/>
</svg>
