<svg width="85" height="53" viewBox="0 0 85 53" fill="none" xmlns="http://www.w3.org/2000/svg">
<path d="M28.4542 37.745C28.9475 37.745 29.336 37.8868 29.6197 38.1705C29.9157 38.4418 30.0637 38.8057 30.0637 39.262V42H11.7117V40.483C11.7117 40.1747 11.7733 39.854 11.8967 39.521C12.0323 39.1757 12.242 38.8673 12.5257 38.596L20.6472 30.456C21.3255 29.7653 21.9298 29.1055 22.4602 28.4765C23.0028 27.8475 23.453 27.2247 23.8107 26.608C24.1683 25.9913 24.4397 25.3685 24.6247 24.7395C24.822 24.0982 24.9207 23.426 24.9207 22.723C24.9207 22.0817 24.8282 21.5205 24.6432 21.0395C24.4582 20.5462 24.193 20.133 23.8477 19.8C23.5147 19.467 23.1077 19.2203 22.6267 19.06C22.158 18.8873 21.6277 18.801 21.0357 18.801C20.493 18.801 19.9873 18.8812 19.5187 19.0415C19.0623 19.1895 18.6553 19.4053 18.2977 19.689C17.94 19.9603 17.6378 20.281 17.3912 20.651C17.1445 21.021 16.9595 21.428 16.8362 21.872C16.6265 22.4393 16.3552 22.8155 16.0222 23.0005C15.6892 23.1855 15.2082 23.2287 14.5792 23.13L12.1742 22.7045C12.3592 21.4218 12.7168 20.2995 13.2472 19.3375C13.7775 18.3632 14.4373 17.5553 15.2267 16.914C16.0283 16.2603 16.941 15.7732 17.9647 15.4525C19.0007 15.1195 20.1107 14.953 21.2947 14.953C22.528 14.953 23.6565 15.138 24.6802 15.508C25.7038 15.8657 26.5795 16.3775 27.3072 17.0435C28.0348 17.7095 28.6022 18.5112 29.0092 19.4485C29.4162 20.3858 29.6197 21.428 29.6197 22.575C29.6197 23.5617 29.4717 24.4743 29.1757 25.313C28.892 26.1517 28.5035 26.9533 28.0102 27.718C27.5292 28.4827 26.9618 29.2227 26.3082 29.938C25.6545 30.6533 24.97 31.381 24.2547 32.121L18.2237 38.2815C18.8033 38.1088 19.3768 37.9793 19.9442 37.893C20.5238 37.7943 21.0727 37.745 21.5907 37.745H28.4542Z" fill="#0B0803"/>
<path d="M52.3036 28.6245C52.3036 30.9555 52.0507 32.9843 51.5451 34.711C51.0517 36.4253 50.3611 37.8437 49.4731 38.966C48.5974 40.0883 47.5552 40.927 46.3466 41.482C45.1502 42.0247 43.8552 42.296 42.4616 42.296C41.0679 42.296 39.7729 42.0247 38.5766 41.482C37.3926 40.927 36.3627 40.0883 35.4871 38.966C34.6114 37.8437 33.9269 36.4253 33.4336 34.711C32.9402 32.9843 32.6936 30.9555 32.6936 28.6245C32.6936 26.2812 32.9402 24.2523 33.4336 22.538C33.9269 20.8237 34.6114 19.4053 35.4871 18.283C36.3627 17.1607 37.3926 16.3282 38.5766 15.7855C39.7729 15.2305 41.0679 14.953 42.4616 14.953C43.8552 14.953 45.1502 15.2305 46.3466 15.7855C47.5552 16.3282 48.5974 17.1607 49.4731 18.283C50.3611 19.4053 51.0517 20.8237 51.5451 22.538C52.0507 24.2523 52.3036 26.2812 52.3036 28.6245ZM47.5861 28.6245C47.5861 26.6882 47.4442 25.0848 47.1606 23.8145C46.8769 22.5442 46.4946 21.5328 46.0136 20.7805C45.5449 20.0282 45.0022 19.504 44.3856 19.208C43.7689 18.8997 43.1276 18.7455 42.4616 18.7455C41.8079 18.7455 41.1727 18.8997 40.5561 19.208C39.9517 19.504 39.4152 20.0282 38.9466 20.7805C38.4779 21.5328 38.1017 22.5442 37.8181 23.8145C37.5467 25.0848 37.4111 26.6882 37.4111 28.6245C37.4111 30.5608 37.5467 32.1642 37.8181 33.4345C38.1017 34.7048 38.4779 35.7162 38.9466 36.4685C39.4152 37.2208 39.9517 37.7512 40.5561 38.0595C41.1727 38.3555 41.8079 38.5035 42.4616 38.5035C43.1276 38.5035 43.7689 38.3555 44.3856 38.0595C45.0022 37.7512 45.5449 37.2208 46.0136 36.4685C46.4946 35.7162 46.8769 34.7048 47.1606 33.4345C47.4442 32.1642 47.5861 30.5608 47.5861 28.6245Z" fill="#0B0803"/>
<path d="M73.7665 28.6245C73.7665 30.9555 73.5136 32.9843 73.0079 34.711C72.5146 36.4253 71.824 37.8437 70.936 38.966C70.0603 40.0883 69.0181 40.927 67.8095 41.482C66.6131 42.0247 65.3181 42.296 63.9244 42.296C62.5308 42.296 61.2358 42.0247 60.0395 41.482C58.8555 40.927 57.8256 40.0883 56.95 38.966C56.0743 37.8437 55.3898 36.4253 54.8965 34.711C54.4031 32.9843 54.1565 30.9555 54.1565 28.6245C54.1565 26.2812 54.4031 24.2523 54.8965 22.538C55.3898 20.8237 56.0743 19.4053 56.95 18.283C57.8256 17.1607 58.8555 16.3282 60.0395 15.7855C61.2358 15.2305 62.5308 14.953 63.9244 14.953C65.3181 14.953 66.6131 15.2305 67.8095 15.7855C69.0181 16.3282 70.0603 17.1607 70.936 18.283C71.824 19.4053 72.5146 20.8237 73.0079 22.538C73.5136 24.2523 73.7665 26.2812 73.7665 28.6245ZM69.049 28.6245C69.049 26.6882 68.9071 25.0848 68.6235 23.8145C68.3398 22.5442 67.9575 21.5328 67.4765 20.7805C67.0078 20.0282 66.4651 19.504 65.8485 19.208C65.2318 18.8997 64.5905 18.7455 63.9244 18.7455C63.2708 18.7455 62.6356 18.8997 62.019 19.208C61.4146 19.504 60.8781 20.0282 60.4095 20.7805C59.9408 21.5328 59.5646 22.5442 59.281 23.8145C59.0096 25.0848 58.874 26.6882 58.874 28.6245C58.874 30.5608 59.0096 32.1642 59.281 33.4345C59.5646 34.7048 59.9408 35.7162 60.4095 36.4685C60.8781 37.2208 61.4146 37.7512 62.019 38.0595C62.6356 38.3555 63.2708 38.5035 63.9244 38.5035C64.5905 38.5035 65.2318 38.3555 65.8485 38.0595C66.4651 37.7512 67.0078 37.2208 67.4765 36.4685C67.9575 35.7162 68.3398 34.7048 68.6235 33.4345C68.9071 32.1642 69.049 30.5608 69.049 28.6245Z" fill="#0B0803"/>
<path d="M83.5869 8.17005H78.3489V13.7321H75.6354V8.17005H70.4244V5.69955H75.6354V0.164551H78.3489V5.69955H83.5869V8.17005Z" fill="#0B0803"/>
<path fill-rule="evenodd" clip-rule="evenodd" d="M63 2H5C2.23858 2 0 4.23858 0 7V48C0 50.7614 2.23858 53 5 53H80C82.7614 53 85 50.7614 85 48V21V17C85 16.4477 84.5523 16 84 16C83.4477 16 83 16.4477 83 17V21V48C83 49.6569 81.6569 51 80 51H5C3.34315 51 2 49.6569 2 48V7C2 5.34315 3.34315 4 5 4H67C67.5523 4 68 3.55228 68 3C68 2.44772 67.5523 2 67 2H63Z" fill="#F7D72D"/>
</svg>
