<svg width="20" height="23" viewBox="0 0 20 23" fill="none" xmlns="http://www.w3.org/2000/svg">
<path d="M2.23311 2.59011C3.23835 1.63175 4.69132 0.428278 5.61539 0.475467C7.14355 0.552949 10.7059 5.47116 8.77496 6.86982C7.80304 7.57381 6.57908 7.22625 6.17626 8.7024C5.78052 10.1531 6.75742 11.5343 7.85959 13.0587C8.96176 14.583 9.96993 15.9397 11.4739 16.0163C13.0021 16.0938 13.0534 14.8225 14.0254 14.1185C15.9551 12.7207 19.5174 17.639 19.1159 19.1142C18.8726 20.0069 17.2762 21.0122 16.0521 21.6686C15.2238 22.0917 14.2089 22.3792 12.5026 22.1803C10.0792 21.7842 7.38879 20.4783 4.05445 15.929L3.94419 15.7768C0.659997 11.1913 0.259233 8.22684 0.638469 5.80076C0.982297 4.11868 1.571 3.24284 2.23136 2.58769L2.23311 2.59011Z" fill="#0B0803"/>
</svg>
