<svg width="27" height="33" viewBox="0 0 27 33" fill="none" xmlns="http://www.w3.org/2000/svg">
<path d="M13.2001 1.64999V4.94998H19.8V6.96841H13.2001L13.2001 12.1907H16.5001V13.8888H13.2001L13.2001 18.3261H19.8V20.3446H13.2001L13.2001 25.711H16.5001V27.7135H13.2001L13.2001 31.3499C13.2001 32.2607 13.9393 32.9998 14.8501 32.9998H24.75C25.6608 32.9998 26.4 32.2607 26.4 31.3499V1.64999C26.4 0.739197 25.6608 0 24.75 0H14.8501C13.9393 0 13.2001 0.739197 13.2001 1.64999Z" fill="#0B0803"/>
<path d="M0 5.63307L4.94998 0L9.89995 5.63307H6.59997V32.9998H3.29998V5.63307H0Z" fill="#0B0803"/>
</svg>
