<svg width="16" height="16" viewBox="0 0 16 16" fill="none" xmlns="http://www.w3.org/2000/svg">
<g clip-path="url(#clip0)">
<path d="M14.0536 7.49506C14.0367 7.25959 13.8323 7.08284 13.5965 7.0994C13.361 7.11637 13.1839 7.32103 13.2008 7.55653C13.2113 7.702 13.2166 7.85125 13.2166 8C13.2166 11.4081 10.4439 14.1808 7.03581 14.1808C3.62769 14.1808 0.855 11.4081 0.855 8C0.855 4.59187 3.62769 1.81919 7.03584 1.81919C8.38556 1.81919 9.66741 2.24631 10.7427 3.05434C10.9315 3.19615 11.1994 3.15812 11.3413 2.9694C11.4832 2.78065 11.4451 2.51265 11.2564 2.37084C10.0317 1.45062 8.57228 0.964218 7.03581 0.964218C3.15628 0.964187 0 4.12047 0 8C0 11.8795 3.15628 15.0358 7.03584 15.0358C10.9154 15.0358 14.0716 11.8796 14.0716 8C14.0716 7.83081 14.0655 7.66093 14.0536 7.49506Z" fill="#2E3F40"/>
<path d="M15.5124 1.93031C14.8622 1.28009 13.8041 1.28009 13.1539 1.93031L6.99417 8.08994L4.81061 5.90634C4.16036 5.25612 3.10229 5.25612 2.45204 5.90634C1.80179 6.55659 1.80179 7.61466 2.45204 8.26491L6.2127 12.0256C6.42817 12.241 6.71117 12.3488 6.99417 12.3488C7.2772 12.3488 7.5602 12.241 7.77567 12.0256L15.5124 4.28881C16.1626 3.63859 16.1626 2.58059 15.5124 1.93031ZM14.9079 3.68428L7.17107 11.4211C7.07357 11.5186 6.91482 11.5186 6.81732 11.4211L3.05667 7.66041C2.73976 7.3435 2.73976 6.82791 3.05667 6.511C3.21511 6.3525 3.4232 6.27331 3.63136 6.27331C3.83951 6.27331 4.04764 6.35253 4.20604 6.511L6.45236 8.75731C6.59711 8.90203 6.78957 8.98172 6.9942 8.98172C7.19892 8.98172 7.39139 8.902 7.53611 8.75728L13.7584 2.53487C14.0753 2.21796 14.5909 2.21796 14.9079 2.53487C15.2247 2.85178 15.2247 3.36737 14.9079 3.68428Z" fill="#2E3F40"/>
</g>
<defs>
<clipPath id="clip0">
<rect width="16" height="16" fill="white"/>
</clipPath>
</defs>
</svg>
