<svg width="25" height="33" viewBox="0 0 25 33" fill="none" xmlns="http://www.w3.org/2000/svg">
<path d="M23.6415 11.1058C24.5175 9.91407 25 8.43964 25 6.95412C25 3.1196 21.9186 0 18.1307 0H6.86939C3.08156 0 0 3.1196 0 6.95412C0 8.43964 0.482471 9.91407 1.35853 11.1058L3.53341 14.0643C1.51611 16.3157 0.414602 19.1974 0.414602 22.2678C0.414602 24.4555 0.992128 26.6026 2.08479 28.4771C3.14491 30.2957 4.66 31.815 6.46637 32.8705L6.68793 33H18.3119L18.5335 32.8705C20.3399 31.815 21.855 30.2957 22.9151 28.4771C24.0078 26.6026 24.5853 24.4555 24.5853 22.2678C24.5853 19.1974 23.4838 16.3157 21.4665 14.0643L23.6415 11.1058ZM6.86939 6.12306H18.1308L18.7894 7.45035L15.9048 11.5378C14.8316 11.1891 13.6878 11 12.5001 11C11.3125 11 10.1687 11.1891 9.09545 11.5378L6.21081 7.45028L6.86939 6.12306Z" fill="#F7D72D"/>
<path d="M11.4054 26.4C11.3063 26.4 11.2207 26.3679 11.1486 26.3038C11.0855 26.2304 11.054 26.1433 11.054 26.0425V21.3538H9.13509C9.03599 21.3538 8.9504 21.3217 8.87833 21.2575C8.81527 21.1842 8.78374 21.0971 8.78374 20.9963V19.6075C8.78374 19.5067 8.81527 19.4242 8.87833 19.36C8.9504 19.2867 9.03599 19.25 9.13509 19.25H15.6486C15.7477 19.25 15.8288 19.2867 15.8918 19.36C15.9639 19.4242 16 19.5067 16 19.6075V20.9963C16 21.0971 15.9639 21.1842 15.8918 21.2575C15.8288 21.3217 15.7477 21.3538 15.6486 21.3538H13.7297V26.0425C13.7297 26.1433 13.6936 26.2304 13.6216 26.3038C13.5495 26.3679 13.4684 26.4 13.3783 26.4H11.4054Z" fill="#0B0803"/>
</svg>
