<svg width="16" height="16" viewBox="0 0 16 16" fill="none" xmlns="http://www.w3.org/2000/svg">
<path d="M14.4375 5.375C14.5197 5.375 14.6003 5.34156 14.6584 5.28341C14.7166 5.22531 14.75 5.14469 14.75 5.0625C14.75 4.98031 14.7166 4.89969 14.6584 4.84156C14.6003 4.78344 14.5197 4.75 14.4375 4.75C14.3553 4.75 14.2747 4.78341 14.2166 4.84156C14.1584 4.89972 14.125 4.98031 14.125 5.0625C14.125 5.14469 14.1584 5.22531 14.2166 5.28341C14.2747 5.34156 14.3553 5.375 14.4375 5.375Z" fill="#2E3F40"/>
<path d="M6.1404 13.8646H6.13574C5.96318 13.8646 5.82324 14.0045 5.82324 14.1771C5.82324 14.3497 5.96318 14.4896 6.13574 14.4896H6.1404C6.31296 14.4896 6.4529 14.3497 6.4529 14.1771C6.4529 14.0045 6.31296 13.8646 6.1404 13.8646Z" fill="#2E3F40"/>
<path d="M16 12.5497V2.1875C16 1.67056 15.5794 1.25 15.0625 1.25H13.9921V1.0625C13.9921 0.476625 13.5154 0 12.9296 0C12.3437 0 11.8671 0.476625 11.8671 1.0625V1.25H9.05853V1.0625C9.05853 0.476625 8.58191 0 7.99603 0C7.41016 0 6.93353 0.476625 6.93353 1.0625V1.25H4.125V1.0625C4.125 0.476625 3.64838 0 3.0625 0C2.47662 0 2 0.476625 2 1.0625V1.25H0.9375C0.420563 1.25 0 1.67056 0 2.1875V15.0625C0 15.5794 0.420563 16 0.9375 16H12.5497C12.636 16 12.7141 15.965 12.7706 15.9085C12.7706 15.9085 12.7707 15.9085 12.7707 15.9085L15.9085 12.7707C15.965 12.7141 16 12.636 16 12.5497ZM12.4921 1.0625C12.4921 0.82125 12.6883 0.625 12.9296 0.625C13.1708 0.625 13.3671 0.82125 13.3671 1.0625V2.59375C13.3671 2.835 13.1708 3.03125 12.9296 3.03125C12.6883 3.03125 12.4921 2.835 12.4921 2.59375V1.0625ZM7.55853 1.0625C7.55853 0.82125 7.75478 0.625 7.99603 0.625C8.23728 0.625 8.43353 0.82125 8.43353 1.0625V2.59375C8.43353 2.835 8.23728 3.03125 7.99603 3.03125C7.75478 3.03125 7.55853 2.835 7.55853 2.59375V1.0625ZM2.625 1.0625C2.625 0.82125 2.82125 0.625 3.0625 0.625C3.30375 0.625 3.5 0.82125 3.5 1.0625V2.59375C3.5 2.835 3.30375 3.03125 3.0625 3.03125C2.82125 3.03125 2.625 2.835 2.625 2.59375V1.0625ZM0.625 15.0625V14.4896H4.89062C5.06319 14.4896 5.20312 14.3497 5.20312 14.1771C5.20312 14.0045 5.06319 13.8646 4.89062 13.8646H0.625V5.375H13.1875C13.3601 5.375 13.5 5.23506 13.5 5.0625C13.5 4.88994 13.3601 4.75 13.1875 4.75H0.625V2.1875C0.625 2.01519 0.765188 1.875 0.9375 1.875H2V2.59375C2 3.17963 2.47662 3.65625 3.0625 3.65625C3.64838 3.65625 4.125 3.17963 4.125 2.59375V1.875H6.93353V2.59375C6.93353 3.17963 7.41016 3.65625 7.99603 3.65625C8.58191 3.65625 9.05853 3.17963 9.05853 2.59375V1.875H11.8671V2.59375C11.8671 3.17963 12.3437 3.65625 12.9296 3.65625C13.5154 3.65625 13.9921 3.17963 13.9921 2.59375V1.875H15.0625C15.2348 1.875 15.375 2.01519 15.375 2.1875V12.2372H13.1747C12.6578 12.2372 12.2372 12.6578 12.2372 13.1747V15.375H0.9375C0.765188 15.375 0.625 15.2348 0.625 15.0625ZM12.8622 14.933V13.1747C12.8622 13.0024 13.0024 12.8622 13.1747 12.8622H14.9331L12.8622 14.933Z" fill="#2E3F40"/>
<path d="M9.38104 12.1905H5.73893V11.5692L7.54325 9.60119C7.80366 9.31101 7.98844 9.06919 8.09756 8.87574C8.20917 8.67981 8.26497 8.48388 8.26497 8.28794C8.26497 8.03001 8.19181 7.82167 8.04548 7.66294C7.90163 7.50421 7.70694 7.42485 7.4614 7.42485C7.16874 7.42485 6.94181 7.51413 6.7806 7.69271C6.61939 7.87128 6.53878 8.11557 6.53878 8.42559H5.63477C5.63477 8.09573 5.70917 7.79935 5.85798 7.53646C6.00927 7.27108 6.2238 7.06523 6.50158 6.9189C6.78184 6.77257 7.10426 6.6994 7.46884 6.6994C7.99464 6.6994 8.40882 6.83209 8.7114 7.09747C9.01646 7.36036 9.16899 7.72495 9.16899 8.19122C9.16899 8.46155 9.09211 8.74553 8.93834 9.04315C8.78705 9.33829 8.53779 9.67435 8.19057 10.0513L6.86616 11.4687H9.38104V12.1905Z" fill="#2E3F40"/>
</svg>
