<svg width="12" height="9" viewBox="0 0 12 9" fill="none" xmlns="http://www.w3.org/2000/svg">
<path d="M6 6.75C5.04 6.75 4.08 5.9625 3.6 5.625C1.2 4.05 0.48 3.4875 0 3.15V7.875C0 8.49621 0.537375 9 1.2 9H10.8C11.4626 9 12 8.49621 12 7.875V3.15C11.52 3.4875 10.8 4.05 8.4 5.625C7.92 5.9625 6.96 6.75 6 6.75ZM10.8 0H1.2C0.537375 0 0 0.503789 0 1.125V1.6875C0.96 2.3625 0.84 2.3625 4.32 4.725C4.68 4.95 5.4 5.625 6 5.625C6.6 5.625 7.32 4.95 7.68 4.8375C11.16 2.475 11.04 2.475 12 1.8V1.125C12 0.503789 11.4626 0 10.8 0Z" fill="white"/>
</svg>
