<svg width="12" height="12" viewBox="0 0 12 12" fill="none" xmlns="http://www.w3.org/2000/svg">
<path d="M8.6244 12C8.23703 12 7.85295 11.9315 7.47738 11.7951C5.8228 11.194 4.287 10.2151 3.03595 8.96405C1.7849 7.71304 0.805953 6.17722 0.20492 4.52264C0.0117784 3.99091 -0.0452195 3.44203 0.0355666 2.89118C0.111244 2.3752 0.311111 1.87429 0.613585 1.44259C0.917394 1.00899 1.32243 0.648348 1.78488 0.399663C2.27803 0.134479 2.8163 0 3.38478 0C3.56159 0 3.71439 0.123534 3.75145 0.296402L4.34004 3.04314C4.36668 3.16752 4.32846 3.29694 4.23853 3.38688L3.23279 4.39259C4.18156 6.27891 5.72106 7.81841 7.60739 8.76716L8.6131 7.76143C8.70305 7.67151 8.83249 7.63333 8.95684 7.65993L11.7036 8.24851C11.8765 8.28557 12 8.43837 12 8.61518C12 9.18365 11.8655 9.72195 11.6003 10.2151C11.3516 10.6775 10.991 11.0826 10.5574 11.3864C10.1257 11.6889 9.62479 11.8887 9.10878 11.9644C8.94709 11.9881 8.78543 12 8.6244 12Z" fill="white"/>
</svg>
