<svg width="10" height="17" viewBox="0 0 10 17" fill="none" xmlns="http://www.w3.org/2000/svg">
<path d="M4.64516 2.27979C2.05376 2.48389 0 4.89703 0 7.85042C0 8.30663 0.0537634 8.75084 0.139785 9.18304C0.451613 10.5877 4.39785 14.9554 4.84946 15.7717C4.91398 15.8918 5.06452 15.8918 5.12903 15.7717C5.60215 14.9193 9.52688 10.5997 9.83871 9.19505C9.91398 8.84688 9.96774 8.48672 9.9785 8.12655C10.1398 4.81299 7.6129 2.05169 4.64516 2.27979ZM4.92473 10.7918C3.47312 10.7918 2.30108 9.48318 2.30108 7.86242C2.30108 6.24166 3.47312 4.93304 4.92473 4.93304C6.37634 4.93304 7.54839 6.24166 7.54839 7.86242C7.54839 9.48318 6.37634 10.7918 4.92473 10.7918Z" fill="white"/>
</svg>
