<svg width="165" height="49" viewBox="0 0 165 49" fill="none" xmlns="http://www.w3.org/2000/svg">
<path d="M158.341 1.08407C161.411 1.08407 163.89 3.50516 163.89 6.50442V42.4956C163.89 45.4948 161.411 47.9159 158.341 47.9159H6.65919C3.58856 47.9159 1.10987 45.4948 1.10987 42.4956V6.50442C1.10987 3.50516 3.58856 1.08407 6.65919 1.08407H158.341ZM158.341 0H6.65919C2.99664 0 0 2.92699 0 6.50442V42.4956C0 46.073 2.99664 49 6.65919 49H158.341C162.003 49 165 46.073 165 42.4956V6.50442C165 2.92699 162.04 0 158.341 0Z" fill="#F7D72D"/>
<path d="M158.341 49H6.65919C2.99664 49 0 46.073 0 42.4956V27.4993H165V42.4956C165 46.073 162.04 49 158.341 49Z" fill="#F7D72D"/>
<path d="M6.54821 19.2964L8.47198 8.67249C8.61996 7.76909 9.43386 7.11865 10.3588 7.11865H19.3117C20.8285 7.11865 21.9383 7.33547 22.6783 7.76909C23.4182 8.20272 23.7881 8.8893 23.7881 9.9011C23.7881 10.7684 23.6401 11.5272 23.3812 12.1415C22.9742 13.081 22.2713 13.6953 21.3094 13.9122C21.9753 14.129 22.4193 14.3819 22.6783 14.671C23.0482 15.0324 23.1962 15.5744 23.1962 16.2248C23.1962 16.4055 23.1962 16.5862 23.1592 16.7669C23.1222 16.9476 23.1222 17.1282 23.0852 17.2366C22.8262 18.7543 22.2343 19.8384 21.3464 20.4889C20.4585 21.1393 19.1267 21.4645 17.4249 21.4645H8.43498C7.25113 21.5007 6.32624 20.4527 6.54821 19.2964ZM10.7287 15.5021L10.1368 18.7905H17.1659C18.1278 18.7905 18.7937 18.6098 19.1637 18.2846C19.5336 17.9594 19.6816 17.3451 19.6816 16.4778C19.6816 16.1164 19.5336 15.8996 19.2747 15.7189C19.0157 15.5744 18.5348 15.5021 17.8688 15.5021H10.7287ZM11.7276 9.86496L11.1727 12.9726H18.3498C18.8307 12.9726 19.2377 12.792 19.5706 12.3945C19.9036 11.997 20.0886 11.5272 20.0886 10.9129C20.0886 10.5877 20.0146 10.3347 19.8666 10.1902C19.6816 9.97337 19.3487 9.86496 18.8677 9.86496H11.7276Z" fill="#0B0803"/>
<path d="M59.9328 8.56398L57.787 20.4526C57.676 21.0308 57.1581 21.4644 56.5662 21.4644H55.5673C54.7904 21.4644 54.1984 20.7778 54.3464 20.0551L56.1592 9.97327H47.9092L46.7624 16.2609C46.4294 18.0677 45.8375 19.3686 44.9866 20.2358C44.1357 21.0669 43.0258 21.5006 41.657 21.5006C40.8801 21.5006 40.2881 20.814 40.4361 20.0913L40.5101 19.5854C40.5841 19.1156 40.9541 18.682 41.472 18.6097C41.9529 18.5374 42.2859 18.3568 42.5079 18.1038C42.8408 17.7424 43.1368 16.9836 43.3218 15.9357L44.6906 8.20262C44.8016 7.62445 45.3195 7.19082 45.9115 7.19082H58.6379C59.4888 7.15468 60.0807 7.84126 59.9328 8.56398Z" fill="#0B0803"/>
<path d="M78.3935 16.5862C78.0606 18.393 77.4316 19.6577 76.5437 20.3805C75.6558 21.1032 74.213 21.4645 72.1783 21.4645H65.7411C64.1132 21.4645 62.9294 21.2116 62.1895 20.6695C61.4496 20.1275 61.0796 19.2964 61.0796 18.14C61.0796 17.6341 61.1166 17.1282 61.2276 16.5862L62.0415 12.1054C62.4115 10.1541 63.0404 8.81704 63.9283 8.09432C64.8532 7.37161 66.333 7.01025 68.3677 7.01025H74.805C76.3958 7.01025 77.5426 7.22707 78.2085 7.69683C78.9854 8.20273 79.3554 9.06999 79.3554 10.3347C79.3554 10.8406 79.2814 11.4188 79.1704 12.1054L78.3935 16.5862ZM64.8162 16.261C64.7422 16.5501 64.7422 16.7308 64.7052 16.803C64.7052 16.8753 64.7052 16.9837 64.7052 17.1644C64.7052 17.7426 64.8902 18.1039 65.2601 18.3207C65.6301 18.5375 66.259 18.6459 67.1469 18.6459H71.7713C72.9182 18.6459 73.6581 18.5014 74.065 18.1762C74.472 17.851 74.768 17.2005 74.9529 16.2249L75.6558 12.3945C75.7298 11.997 75.7668 11.6718 75.7668 11.4188C75.7668 10.8045 75.5819 10.407 75.2119 10.1541C74.8419 9.93724 74.213 9.82884 73.3251 9.82884H68.8117C67.7018 9.82884 66.9249 10.0095 66.481 10.3709C66.037 10.7322 65.7041 11.4188 65.5561 12.4306L64.8162 16.261Z" fill="#0B0803"/>
<path d="M84.7198 7.15479C85.4227 7.15479 85.9776 7.76909 85.8296 8.45567C85.7556 8.81703 85.7186 9.17838 85.6446 9.61201C85.4597 10.6238 85.3857 11.202 85.3857 11.3827C85.3857 11.997 85.5707 12.4306 85.9406 12.6835C86.3106 12.9365 86.8655 13.081 87.6794 13.081H90.1581C91.083 13.081 91.7859 13.0088 92.2668 12.8281C92.7478 12.6474 93.2287 12.3222 93.6357 11.8524L94.3016 8.09431C94.4126 7.55228 94.8565 7.15479 95.4115 7.15479H96.5953C97.2982 7.15479 97.8532 7.76909 97.7052 8.45567L95.5224 20.5611C95.4115 21.1032 94.9675 21.5007 94.4126 21.5007H93.2287C92.5258 21.5007 91.9709 20.8863 92.1189 20.1998L93.0807 14.9601C92.4888 15.2853 91.8969 15.5383 91.268 15.6828C90.639 15.8635 89.8991 15.9358 89.0482 15.9358H86.3846C83.3139 15.9358 81.7971 14.7433 81.7971 12.3222C81.7971 11.9608 81.8711 11.4188 81.9821 10.6961C82.0561 10.1179 82.2411 9.21452 82.426 8.05818C82.537 7.51614 82.981 7.15479 83.5359 7.15479H84.7198Z" fill="#0B0803"/>
<path d="M104.031 8.45567L103.292 12.6474H112.355L113.169 8.05818C113.28 7.51614 113.724 7.11865 114.279 7.11865H115.463C116.166 7.11865 116.721 7.73296 116.573 8.41954L114.39 20.525C114.279 21.067 113.835 21.4645 113.28 21.4645H112.096C111.394 21.4645 110.839 20.8502 110.987 20.1636L111.837 15.5021H102.774L101.849 20.5611C101.738 21.1032 101.294 21.5007 100.739 21.5007H99.518C98.815 21.5007 98.2601 20.8864 98.4081 20.1998L100.591 8.09432C100.702 7.55228 101.146 7.15479 101.701 7.15479H102.885C103.587 7.15479 104.142 7.76909 104.031 8.45567Z" fill="#0B0803"/>
<path d="M120.568 7.15479H121.752C122.455 7.15479 123.01 7.76909 122.862 8.45567L122.159 12.5029H128.559C130.15 12.5029 131.26 12.7197 131.963 13.1172C132.777 13.5869 133.184 14.4181 133.184 15.5744C133.184 16.5139 133.036 17.4535 132.703 18.3207C132.37 19.2241 131.926 19.9107 131.334 20.3804C130.816 20.7779 130.224 21.067 129.521 21.2116C128.855 21.3561 128.004 21.4284 127.006 21.4284H117.017L119.422 8.02204C119.533 7.55228 120.013 7.15479 120.568 7.15479ZM121.641 15.3576L121.049 18.6459H127.117C127.524 18.6459 127.857 18.6098 128.189 18.5737C128.522 18.5375 128.781 18.4291 128.966 18.2484C129.151 18.1039 129.336 17.7787 129.447 17.3451C129.558 16.9114 129.632 16.5501 129.632 16.2971C129.632 15.9358 129.484 15.7189 129.225 15.5383C128.966 15.3937 128.485 15.3215 127.82 15.3215H121.641V15.3576ZM140.731 8.45567L138.548 20.5611C138.437 21.1032 137.993 21.5007 137.438 21.5007H136.254C135.552 21.5007 134.997 20.8863 135.145 20.1998L137.327 8.09431C137.438 7.55228 137.882 7.15479 138.437 7.15479H139.621C140.324 7.15479 140.842 7.76909 140.731 8.45567Z" fill="#0B0803"/>
<path d="M141.397 20.1636L143.58 8.05818C143.691 7.51614 144.135 7.11865 144.689 7.11865H157.342C158.045 7.11865 158.6 7.73296 158.452 8.41954L158.378 8.8893C158.267 9.43134 157.823 9.82883 157.268 9.82883H146.761L146.206 12.9726H155.973C156.676 12.9726 157.231 13.5869 157.083 14.2735L157.046 14.5265C156.935 15.0685 156.491 15.466 155.936 15.466H145.762L145.17 18.7543H155.27C155.973 18.7543 156.528 19.3687 156.38 20.0552L156.306 20.525C156.195 21.067 155.751 21.4645 155.196 21.4645H142.544C141.804 21.5007 141.286 20.8502 141.397 20.1636Z" fill="#0B0803"/>
<path d="M35.5157 21.1393C35.2197 21.1393 34.9238 21.0309 34.7388 20.814C34.5908 20.6695 34.5538 20.4527 34.5908 20.272L36.1446 12.6474L28.6345 20.814C28.4496 20.9947 28.1906 21.1031 27.8946 21.1031H26.0818C25.7859 21.1031 25.4899 20.9947 25.3049 20.7779C25.157 20.6334 25.12 20.4166 25.157 20.2359L27.6357 8.13042C27.7096 7.76906 28.0796 7.51611 28.5605 7.51611H29.8924C30.1884 7.51611 30.4843 7.62452 30.6693 7.84134C30.8173 7.98588 30.8543 8.20269 30.8173 8.38337L29.2265 16.0803L36.7736 7.8052C36.9585 7.62452 37.2175 7.51611 37.5135 7.51611H39.3262C39.6222 7.51611 39.9182 7.62452 40.1032 7.84134C40.2511 7.98588 40.2881 8.20269 40.2511 8.38337L37.7724 20.4888C37.6984 20.8502 37.3285 21.1031 36.8475 21.1031H35.5157V21.1393Z" fill="#0B0803"/>
<path d="M9.21188 31.7271H22.0863C22.4933 31.7271 22.8262 32.0884 22.7522 32.4859L20.7175 43.9048C20.6435 44.23 20.3845 44.4468 20.0516 44.4468C19.6446 44.4468 19.3117 44.0855 19.3857 43.688L21.3094 33.0279H9.80381L7.84305 43.9048C7.76906 44.23 7.51009 44.4468 7.17713 44.4468C6.77018 44.4468 6.43722 44.0855 6.51121 43.688L8.54596 32.2691C8.61995 31.9439 8.91592 31.7271 9.21188 31.7271Z" fill="white"/>
<path d="M33.074 44.4468H27.3767C24.417 44.4468 23.1962 43.688 23.1962 41.5198C23.1962 41.0862 23.2702 40.6164 23.3441 40.0744L24.0471 36.1356C24.639 32.8834 26.0448 31.5825 29.7074 31.5825H35.4047C38.0314 31.5825 39.4372 32.1607 39.4372 34.5095C39.4372 34.9793 39.3632 35.5213 39.2522 36.1356L38.5493 40.0744C37.9204 43.688 36.5515 44.4468 33.074 44.4468ZM38.0684 34.7625C38.0684 33.2809 37.2545 32.8473 35.1457 32.8473H29.4854C27.0437 32.8473 25.8968 33.5338 25.4529 35.9911L24.713 40.0383C24.639 40.4358 24.602 40.7971 24.602 41.1223C24.602 42.6762 25.5269 43.1098 27.6356 43.1098H33.2959C36.1076 43.1098 36.7735 42.4955 37.2175 40.0383L37.9574 35.9911C38.0314 35.5213 38.0684 35.1238 38.0684 34.7625Z" fill="white"/>
<path d="M53.0516 32.4859C53.0146 32.8111 52.7186 33.0279 52.4227 33.0279H43.1738L41.213 43.9048C41.176 44.1939 40.88 44.4468 40.5841 44.4468C40.1771 44.4468 39.8812 44.0855 39.9552 43.688L41.9899 32.3775C42.0639 32.0161 42.3969 31.7271 42.7668 31.7271H52.4966C52.7926 31.7271 53.1256 32.0884 53.0516 32.4859Z" fill="white"/>
<path d="M55.0493 32.2691C55.1233 31.9439 55.3823 31.7271 55.7153 31.7271H63.9283C66.6659 31.7271 67.8868 32.4859 67.8868 34.4372C67.8868 34.7986 67.8498 35.1961 67.7758 35.6297C67.2578 38.4844 65.852 39.171 62.5964 39.171H55.1603L54.3094 43.8686C54.2724 44.1939 53.9765 44.4107 53.6435 44.4107C53.2365 44.4107 52.9036 44.0493 52.9776 43.6518L55.0493 32.2691ZM63.2253 37.9063C65.3341 37.9063 66.074 37.5449 66.4439 35.6658C66.5179 35.3045 66.5549 35.0154 66.5549 34.7624C66.5549 33.4977 65.852 33.0279 64.2612 33.0279H56.3072L55.4193 37.9063H63.2253Z" fill="white"/>
<path d="M82.537 31.7271C83.0549 31.7271 83.3509 32.3052 83.0549 32.7388L76.6547 40.7971C74.8049 43.7602 72.7702 44.4107 71.6603 44.4829C71.2164 44.5191 70.8464 44.1216 70.9574 43.688C71.0314 43.3989 71.2904 43.1821 71.5863 43.1821C72.2523 43.1459 73.4361 42.9291 74.324 41.6644L69.9215 32.5943C69.7366 32.1968 70.0325 31.7271 70.4765 31.7271H70.6245C70.8834 31.7271 71.1054 31.8716 71.2164 32.0884L75.2489 40.6526L82.0561 31.98C82.167 31.8355 82.352 31.7271 82.537 31.7271Z" fill="white"/>
<path d="M84.4608 40.8333C84.7937 40.8333 85.0527 41.1223 85.0527 41.4476C85.0527 42.6039 85.9036 43.1459 88.0493 43.1459H93.7466C96.4103 43.1459 97.7052 42.5316 97.7052 40.0383C97.7052 39.171 97.2242 38.5206 95.8554 38.5206H88.6043C88.1973 38.5206 87.9014 38.1592 87.9754 37.7617C88.0123 37.4365 88.3083 37.2197 88.6043 37.2197H95.7074C97.6312 37.2197 98.4081 36.5692 98.4081 34.5456C98.4081 33.317 97.6312 32.8473 95.4114 32.8473H89.8991C87.5684 32.8473 86.6065 33.57 86.2366 34.7625C86.1626 35.0154 85.9406 35.1961 85.6446 35.1961H85.5336C85.1267 35.1961 84.8307 34.7986 84.9787 34.4011C85.6446 32.4859 87.3464 31.5464 90.1581 31.5464H95.6704C98.6301 31.5464 99.8139 32.6666 99.8139 34.365C99.8139 36.497 98.5931 37.6172 97.7052 37.7617C98.6301 38.1231 99.074 38.7013 99.074 39.8215C99.074 43.0375 97.3722 44.4107 93.5247 44.4107H87.8274C84.8677 44.4107 83.6839 43.5073 83.6839 41.7728C83.6839 41.6282 83.6839 41.5198 83.7209 41.3753C83.7579 41.0862 84.0168 40.8333 84.3128 40.8333H84.4608Z" fill="white"/>
<path d="M102.885 31.7271C103.291 31.7271 103.624 32.0884 103.55 32.4859L102.996 35.4852C102.922 35.7381 102.922 35.9911 102.922 36.2079C102.922 37.4365 103.735 38.0147 106.029 38.0147H110.358C112.799 38.0147 113.502 37.2197 114.02 35.9911L114.686 32.2691C114.76 31.9439 115.019 31.7271 115.352 31.7271C115.759 31.7271 116.092 32.0884 116.018 32.4859L113.983 43.9048C113.909 44.23 113.65 44.4468 113.317 44.4468C112.91 44.4468 112.577 44.0855 112.651 43.688L113.65 38.1953C112.836 39.0626 111.578 39.2794 110.136 39.2794H105.77C102.996 39.2794 101.59 38.629 101.59 36.3524C101.59 35.9188 101.664 35.4852 101.738 34.9431L102.219 32.2329C102.293 31.9439 102.552 31.7271 102.885 31.7271Z" fill="white"/>
<path d="M130.483 44.4468H130.372C130.002 44.4468 129.706 44.1216 129.78 43.7602L131.852 32.2329C131.889 31.9439 132.148 31.7271 132.444 31.7271H132.555C132.925 31.7271 133.221 32.0523 133.147 32.4136L132.296 37.1474H134.479L143.506 31.7993C143.617 31.727 143.728 31.7271 143.839 31.7271C144.467 31.7271 144.689 32.522 144.172 32.8473L135.774 37.7978L142.692 43.3989C143.136 43.7602 142.877 44.4468 142.285 44.4468H141.841C141.693 44.4468 141.545 44.4107 141.434 44.3023L134.294 38.4483H132.074L131.112 43.9409C131.038 44.23 130.779 44.4468 130.483 44.4468Z" fill="white"/>
<path d="M115.351 31.98L115.315 32.0161L115.351 31.98Z" fill="white"/>
<path d="M128.263 31.9439L117.683 41.9173L119.385 32.4859C119.459 32.0884 119.126 31.7271 118.719 31.7271C118.386 31.7271 118.127 31.9439 118.053 32.2691L116.018 43.5434C115.944 44.0132 116.314 44.4468 116.795 44.4468H116.869C117.054 44.4468 117.276 44.3745 117.424 44.23L128.004 34.2565L127.672 36.0995L126.303 43.688C126.229 44.0855 126.562 44.4468 126.969 44.4468C127.302 44.4468 127.561 44.23 127.635 43.9048L129.669 32.6304C129.743 32.1607 129.373 31.7271 128.892 31.7271H128.818C128.596 31.7271 128.411 31.7993 128.263 31.9439Z" fill="white"/>
<path d="M157.083 31.9439L146.502 41.9173L148.204 32.4859C148.278 32.0884 147.945 31.7271 147.538 31.7271C147.205 31.7271 146.946 31.9439 146.872 32.2691L144.837 43.5434C144.763 44.0132 145.133 44.4468 145.614 44.4468H145.688C145.873 44.4468 146.095 44.3745 146.243 44.23L156.861 34.2204L156.528 36.0633L155.159 43.6518C155.085 44.0493 155.418 44.4107 155.825 44.4107C156.158 44.4107 156.417 44.1939 156.491 43.8686L158.526 32.5943C158.6 32.1245 158.23 31.6909 157.749 31.6909H157.675C157.416 31.7271 157.231 31.7993 157.083 31.9439Z" fill="white"/>
</svg>
