<svg width="161" height="47" viewBox="0 0 161 47" fill="none" xmlns="http://www.w3.org/2000/svg">
<g clip-path="url(#clip0)">
<path d="M12.674 8.37854H29.6072C29.6072 8.37854 36.1081 26.8986 31.3316 32.3511C26.331 26.7896 12.674 8.37854 12.674 8.37854Z" fill="#179CFF"/>
<path d="M17.416 47C15.8296 47 14.2432 46.4184 12.9844 45.237C6.46635 39.1485 2.62103 35.1318 1.58641 33.2962C-0.534548 29.5158 -0.534548 22.8639 1.6209 13.5038C1.77609 12.8314 2.27616 12.3043 2.93141 12.1589C3.56943 12.0135 4.24193 12.268 4.65577 12.8132L18.761 31.5878C19.3473 32.3693 19.2266 33.5143 18.4851 34.1322C17.7437 34.7502 16.6573 34.6229 16.071 33.8414L4.22468 18.0657C3.12109 24.2997 3.22456 29.0615 4.55231 31.4242C5.36276 32.86 9.36328 37.0038 15.2778 42.5108C16.5021 43.6558 18.3472 43.6558 19.5715 42.5108C24.0376 38.3488 27.4173 34.9683 29.1589 32.9509L11.7429 9.50539C11.329 8.96015 11.2601 8.21498 11.5532 7.59704C11.8464 6.9791 12.4499 6.57925 13.1051 6.57925H30.0383C30.7798 6.57925 31.4351 7.06997 31.6765 7.81514C31.7282 7.99689 33.1077 12.3043 34.0216 17.5386C35.2976 24.8267 35.039 30.1338 33.2457 33.2962C32.211 35.15 28.3657 39.1666 21.8476 45.237C20.5889 46.4002 19.0024 47 17.416 47ZM16.6401 10.196L30.9867 29.534C32.2455 24.2633 30.1418 14.9033 28.7796 10.196H16.6401Z" fill="black"/>
<path d="M29.1417 3.63496H12.5188C11.7084 3.63496 11.1911 2.76257 11.5532 2.0174L12.5706 0.617943C12.7603 0.236272 13.1396 0 13.5362 0H28.0381C28.4347 0 28.7968 0.218097 28.9865 0.581593L30.0728 1.98105C30.4694 2.72622 29.9521 3.63496 29.1417 3.63496Z" fill="#111938"/>
</g>
<path d="M53.5887 6.07907C54.6656 6.07907 55.65 6.23893 56.5419 6.55865C57.4505 6.86154 58.233 7.25697 58.8893 7.74496C59.5455 8.23295 60.0587 8.77142 60.4289 9.36037C60.7991 9.94932 60.9927 10.513 61.0095 11.0515C61.0095 11.2029 60.9506 11.3376 60.8328 11.4554C60.7318 11.5563 60.614 11.6068 60.4794 11.6068H57.1729C56.9373 11.6068 56.7438 11.5731 56.5924 11.5058C56.4577 11.4385 56.3147 11.3376 56.1633 11.2029C56.1128 11.1525 56.0286 11.0683 55.9109 10.9505C55.8099 10.8327 55.6584 10.715 55.4565 10.5972C55.2546 10.4625 55.0022 10.3532 54.6993 10.269C54.3964 10.1681 54.0262 10.1176 53.5887 10.1176C53.269 10.1176 52.9577 10.1428 52.6548 10.1933C52.3687 10.227 52.1079 10.2943 51.8723 10.3952C51.6536 10.4794 51.4685 10.6056 51.317 10.7739C51.1824 10.9421 51.1151 11.1525 51.1151 11.4049C51.1151 11.6573 51.1908 11.8676 51.3423 12.0359C51.5105 12.2042 51.7798 12.364 52.15 12.5155C52.537 12.6501 53.0418 12.7847 53.6644 12.9193C54.287 13.0539 55.0611 13.2138 55.9866 13.3989C56.9121 13.584 57.7198 13.8196 58.4097 14.1056C59.0996 14.3917 59.6717 14.7535 60.1261 15.191C60.5972 15.6117 60.9422 16.1165 61.1609 16.7054C61.3965 17.2775 61.5143 17.959 61.5143 18.7499C61.5143 19.6081 61.3208 20.3737 60.9338 21.0468C60.5467 21.7199 59.9999 22.3005 59.2931 22.7884C58.6032 23.2596 57.7787 23.6214 56.8195 23.8738C55.8772 24.1262 54.8423 24.2524 53.7149 24.2524C52.5707 24.2524 51.5274 24.101 50.5851 23.7981C49.6427 23.4952 48.8266 23.0997 48.1367 22.6118C47.4636 22.1069 46.9336 21.5432 46.5465 20.9206C46.1595 20.298 45.9576 19.667 45.9408 19.0276C45.9408 18.8761 45.9912 18.7499 46.0922 18.649C46.21 18.5312 46.3362 18.4723 46.4708 18.4723H49.7774C50.0129 18.4723 50.198 18.5059 50.3326 18.5732C50.4673 18.6237 50.6019 18.7079 50.7365 18.8256C50.8038 18.893 50.9048 19.0023 51.0394 19.1538C51.174 19.3052 51.3507 19.4651 51.5694 19.6334C51.805 19.7848 52.0911 19.9194 52.4276 20.0372C52.781 20.155 53.2101 20.2139 53.7149 20.2139C54.6067 20.2139 55.3471 20.1213 55.9361 19.9362C56.5419 19.7343 56.8448 19.3809 56.8448 18.8761C56.8448 18.6237 56.7354 18.4134 56.5166 18.2451C56.2979 18.0768 55.9697 17.9254 55.5322 17.7908C55.0947 17.6393 54.531 17.4963 53.8411 17.3617C53.168 17.2271 52.3687 17.0588 51.4432 16.8569C49.71 16.4867 48.4396 15.8725 47.6319 15.0143C46.841 14.1393 46.4456 12.9782 46.4456 11.5311C46.4456 10.8075 46.6054 10.1176 46.9251 9.46133C47.2617 8.80507 47.7413 8.22454 48.3639 7.71972C48.9865 7.21491 49.7353 6.81947 50.6103 6.53341C51.5021 6.23052 52.4949 6.07907 53.5887 6.07907ZM81.1473 23.1671C81.1977 23.2344 81.223 23.3269 81.223 23.4447C81.223 23.5961 81.1641 23.7308 81.0463 23.8486C80.9453 23.9495 80.8191 24 80.6677 24H76.6544C76.4188 24 76.2253 23.9495 76.0739 23.8486C75.9224 23.7476 75.771 23.6046 75.6195 23.4195L70.849 17.4122V23.3185C70.849 23.5036 70.7817 23.6635 70.6471 23.7981C70.5125 23.9327 70.3526 24 70.1675 24H66.861C66.6759 24 66.516 23.9327 66.3814 23.7981C66.2468 23.6635 66.1795 23.5036 66.1795 23.3185V7.01298C66.1795 6.82788 66.2468 6.66802 66.3814 6.53341C66.516 6.39879 66.6759 6.33148 66.861 6.33148H70.1675C70.3526 6.33148 70.5125 6.39879 70.6471 6.53341C70.7817 6.66802 70.849 6.82788 70.849 7.01298V12.3388L75.2914 6.88678C75.3755 6.78581 75.4849 6.66802 75.6195 6.53341C75.7541 6.39879 75.9813 6.33148 76.301 6.33148H80.2386C80.39 6.33148 80.5162 6.39038 80.6172 6.50817C80.735 6.60913 80.7939 6.73533 80.7939 6.88678C80.7939 7.00457 80.7686 7.09712 80.7182 7.16443L74.4837 14.7871L81.1473 23.1671ZM94.5463 23.3185C94.5463 23.5036 94.479 23.6635 94.3444 23.7981C94.2098 23.9327 94.0499 24 93.8648 24H90.5583C90.3732 24 90.2133 23.9327 90.0787 23.7981C89.9441 23.6635 89.8768 23.5036 89.8768 23.3185V17.9422L84.0462 7.21491C83.9789 7.09712 83.9452 6.98774 83.9452 6.88678C83.9452 6.73533 83.9957 6.60913 84.0967 6.50817C84.2145 6.39038 84.3491 6.33148 84.5005 6.33148H87.9585C88.2951 6.33148 88.5475 6.41562 88.7157 6.58389C88.884 6.75216 88.985 6.87836 89.0186 6.9625L92.199 13.1717L95.4045 6.9625C95.4382 6.87836 95.5391 6.75216 95.7074 6.58389C95.8757 6.41562 96.1281 6.33148 96.4646 6.33148H99.9226C100.074 6.33148 100.2 6.39038 100.301 6.50817C100.419 6.60913 100.478 6.73533 100.478 6.88678C100.478 6.98774 100.444 7.09712 100.377 7.21491L94.5463 17.9422V23.3185ZM112.152 6.33148C113.313 6.33148 114.374 6.50817 115.333 6.86154C116.292 7.19808 117.116 7.67765 117.806 8.30026C118.513 8.92286 119.06 9.67167 119.447 10.5467C119.851 11.4049 120.078 12.3472 120.128 13.3736C120.145 13.727 120.154 14.0551 120.154 14.358C120.154 14.6441 120.154 14.9217 120.154 15.191C120.154 15.4602 120.154 15.7379 120.154 16.0239C120.154 16.31 120.145 16.6213 120.128 16.9578C120.078 18.0011 119.859 18.9519 119.472 19.81C119.085 20.6682 118.547 21.4086 117.857 22.0312C117.184 22.6538 116.376 23.1418 115.434 23.4952C114.491 23.8317 113.44 24 112.279 24H105.464C105.278 24 105.119 23.9327 104.984 23.7981C104.849 23.6635 104.782 23.5036 104.782 23.3185V7.01298C104.782 6.82788 104.849 6.66802 104.984 6.53341C105.119 6.39879 105.278 6.33148 105.464 6.33148H112.152ZM115.459 13.2727C115.358 11.3376 114.214 10.37 112.026 10.37H109.452V19.9615H112.152C114.273 19.9615 115.375 18.9939 115.459 17.0588C115.476 16.7054 115.484 16.3773 115.484 16.0744C115.484 15.7547 115.484 15.4518 115.484 15.1657C115.484 14.8629 115.484 14.56 115.484 14.2571C115.484 13.9542 115.476 13.6261 115.459 13.2727ZM134.063 6.33148C134.4 6.33148 134.652 6.42403 134.821 6.60913C135.006 6.79423 135.132 6.97933 135.199 7.16443L140.702 23.0661C140.769 23.2344 140.803 23.3606 140.803 23.4447C140.803 23.5961 140.744 23.7308 140.626 23.8486C140.525 23.9495 140.399 24 140.247 24H137.067C136.73 24 136.486 23.9327 136.335 23.7981C136.2 23.6466 136.116 23.5036 136.083 23.369L135.376 21.274H128.662L127.955 23.369C127.921 23.5036 127.829 23.6466 127.677 23.7981C127.543 23.9327 127.307 24 126.971 24H123.79C123.639 24 123.504 23.9495 123.386 23.8486C123.285 23.7308 123.235 23.5961 123.235 23.4447C123.235 23.3606 123.269 23.2344 123.336 23.0661L128.838 7.16443C128.906 6.97933 129.024 6.79423 129.192 6.60913C129.377 6.42403 129.638 6.33148 129.974 6.33148H134.063ZM129.974 17.3617H134.063L132.019 11.3039L129.974 17.3617ZM151.229 6.07907C152.306 6.07907 153.29 6.23893 154.182 6.55865C155.091 6.86154 155.873 7.25697 156.53 7.74496C157.186 8.23295 157.699 8.77142 158.069 9.36037C158.439 9.94932 158.633 10.513 158.65 11.0515C158.65 11.2029 158.591 11.3376 158.473 11.4554C158.372 11.5563 158.254 11.6068 158.12 11.6068H154.813C154.578 11.6068 154.384 11.5731 154.233 11.5058C154.098 11.4385 153.955 11.3376 153.804 11.2029C153.753 11.1525 153.669 11.0683 153.551 10.9505C153.45 10.8327 153.299 10.715 153.097 10.5972C152.895 10.4625 152.642 10.3532 152.34 10.269C152.037 10.1681 151.666 10.1176 151.229 10.1176C150.909 10.1176 150.598 10.1428 150.295 10.1933C150.009 10.227 149.748 10.2943 149.513 10.3952C149.294 10.4794 149.109 10.6056 148.957 10.7739C148.823 10.9421 148.755 11.1525 148.755 11.4049C148.755 11.6573 148.831 11.8676 148.983 12.0359C149.151 12.2042 149.42 12.364 149.79 12.5155C150.177 12.6501 150.682 12.7847 151.305 12.9193C151.927 13.0539 152.701 13.2138 153.627 13.3989C154.552 13.584 155.36 13.8196 156.05 14.1056C156.74 14.3917 157.312 14.7535 157.766 15.191C158.237 15.6117 158.582 16.1165 158.801 16.7054C159.037 17.2775 159.155 17.959 159.155 18.7499C159.155 19.6081 158.961 20.3737 158.574 21.0468C158.187 21.7199 157.64 22.3005 156.933 22.7884C156.243 23.2596 155.419 23.6214 154.46 23.8738C153.517 24.1262 152.483 24.2524 151.355 24.2524C150.211 24.2524 149.168 24.101 148.225 23.7981C147.283 23.4952 146.467 23.0997 145.777 22.6118C145.104 22.1069 144.574 21.5432 144.187 20.9206C143.8 20.298 143.598 19.667 143.581 19.0276C143.581 18.8761 143.631 18.7499 143.732 18.649C143.85 18.5312 143.976 18.4723 144.111 18.4723H147.418C147.653 18.4723 147.838 18.5059 147.973 18.5732C148.108 18.6237 148.242 18.7079 148.377 18.8256C148.444 18.893 148.545 19.0023 148.68 19.1538C148.814 19.3052 148.991 19.4651 149.21 19.6334C149.445 19.7848 149.731 19.9194 150.068 20.0372C150.421 20.155 150.85 20.2139 151.355 20.2139C152.247 20.2139 152.987 20.1213 153.576 19.9362C154.182 19.7343 154.485 19.3809 154.485 18.8761C154.485 18.6237 154.376 18.4134 154.157 18.2451C153.938 18.0768 153.61 17.9254 153.172 17.7908C152.735 17.6393 152.171 17.4963 151.481 17.3617C150.808 17.2271 150.009 17.0588 149.083 16.8569C147.35 16.4867 146.08 15.8725 145.272 15.0143C144.481 14.1393 144.086 12.9782 144.086 11.5311C144.086 10.8075 144.246 10.1176 144.565 9.46133C144.902 8.80507 145.382 8.22454 146.004 7.71972C146.627 7.21491 147.376 6.81947 148.251 6.53341C149.142 6.23052 150.135 6.07907 151.229 6.07907Z" fill="#179CFF"/>
<path d="M49.5944 39.7592L50.6923 34.648C50.787 34.2315 50.8627 33.8718 50.9195 33.3229C50.9574 33.9476 50.9952 34.1937 51.052 34.6859L51.6389 39.7592H52.6422L51.4685 31.2973H50.522L49.3672 36.6546C49.2157 37.3172 49.14 37.923 49.1211 38.1691C49.1022 37.923 49.0264 37.3172 48.875 36.6546L47.7202 31.2973H46.7737L45.6 39.7592H46.6033L47.1902 34.6859C47.247 34.1937 47.2848 33.9476 47.3227 33.3229C47.3795 33.7583 47.4363 34.1558 47.5499 34.648L48.6478 39.7592H49.5944ZM57.1326 36.8818C57.1136 37.6012 56.9811 38.8884 56.0346 38.8884C54.823 38.8884 54.6905 36.7871 54.6905 35.9353V35.746H58.2684C58.2684 35.5756 58.2873 35.3863 58.2873 35.2159C58.2873 33.7204 57.9844 31.1648 55.9967 31.1648C53.9333 31.1648 53.6115 34.0233 53.6115 35.5567C53.6115 37.1847 53.8954 39.8918 56.0724 39.8918C57.7383 39.8918 58.1548 38.2448 58.2116 36.8818H57.1326ZM54.7094 34.8373C54.7473 34.0611 54.9177 32.1492 56.0157 32.1492C57.0947 32.1492 57.1894 34.0801 57.2272 34.8373H54.7094ZM63.4076 32.2817V31.2973H59.0725V32.2817H60.7005V39.7592H61.7796V32.2817H63.4076ZM68.3429 39.7592V31.2973H67.2638V31.8652C66.8852 31.3919 66.5255 31.1648 65.9197 31.1648C63.8942 31.1648 63.8374 33.9665 63.8374 35.6892C63.8374 37.1847 63.8942 39.8918 65.8251 39.8918C66.4877 39.8918 66.8852 39.5889 67.2638 39.0777V39.7592H68.3429ZM67.3774 35.4809C67.3774 36.2192 67.3774 38.2069 66.8473 38.737C66.658 38.9452 66.4498 39.021 66.1658 39.021C65.1814 39.021 65.0679 37.8094 64.9921 37.0711C64.9354 36.3896 64.9354 35.727 64.9354 35.0266C64.9354 34.1747 64.9543 32.0166 66.1848 32.0166C67.2827 32.0166 67.3774 33.7961 67.3774 35.4809ZM74.7821 31.2973H70.7688V36.295C70.7688 37.1658 70.7688 38.1691 70.3334 38.6234C70.1819 38.7749 70.0305 38.8316 69.8222 38.8316C69.6329 38.8316 69.5004 38.7938 69.3679 38.6613V39.7592C69.5194 39.7971 69.6897 39.835 69.9169 39.835C70.3334 39.835 70.693 39.7214 71.0338 39.3996C71.5071 38.9263 71.6396 38.2448 71.6964 37.639C71.7342 37.2226 71.7721 36.6546 71.7721 35.8785V32.2817H73.7219V39.7592H74.7821V31.2973ZM81.2155 31.2973H77.2022V36.295C77.2022 37.1658 77.2022 38.1691 76.7668 38.6234C76.6154 38.7749 76.4639 38.8316 76.2557 38.8316C76.0664 38.8316 75.9339 38.7938 75.8013 38.6613V39.7592C75.9528 39.7971 76.1232 39.835 76.3503 39.835C76.7668 39.835 77.1265 39.7214 77.4672 39.3996C77.9405 38.9263 78.073 38.2448 78.1298 37.639C78.1677 37.2226 78.2055 36.6546 78.2055 35.8785V32.2817H80.1554V39.7592H81.2155V31.2973ZM87.5732 39.7592V31.2973H86.5131L84.5254 36.5789C84.3929 36.9386 84.3361 37.0522 84.1278 37.8283C84.1657 37.2226 84.1657 36.9575 84.1657 36.5221V31.2973H83.1056V39.7592H84.1657L86.1534 34.5533C86.3048 34.1747 86.4374 33.8151 86.5509 33.285C86.5131 34.1369 86.5131 34.3451 86.5131 34.4966V39.7592H87.5732ZM92.3425 39.7592H93.4026V31.2973H92.3425V34.7805C92.21 34.8184 91.7935 34.932 91.3392 34.932C91.2067 34.932 90.6955 34.913 90.4305 34.6669C90.1466 34.4019 90.1466 33.8718 90.1466 33.6257V31.2973H89.0865V33.5122C89.0865 34.1747 89.1054 34.9698 89.6544 35.462C89.9573 35.727 90.4684 35.9353 91.1877 35.9353C91.6421 35.9353 92.0018 35.8785 92.3425 35.7649V39.7592ZM98.4877 36.8818C98.4688 37.6012 98.3362 38.8884 97.3897 38.8884C96.1782 38.8884 96.0456 36.7871 96.0456 35.9353V35.746H99.6235C99.6235 35.5756 99.6425 35.3863 99.6425 35.2159C99.6425 33.7204 99.3396 31.1648 97.3519 31.1648C95.2884 31.1648 94.9666 34.0233 94.9666 35.5567C94.9666 37.1847 95.2506 39.8918 97.4276 39.8918C99.0935 39.8918 99.5099 38.2448 99.5667 36.8818H98.4877ZM96.0646 34.8373C96.1024 34.0611 96.2728 32.1492 97.3708 32.1492C98.4498 32.1492 98.5445 34.0801 98.5823 34.8373H96.0646ZM104.554 38.1312C104.308 38.4909 103.949 38.8884 103.475 38.8884C102.188 38.8884 102.018 36.4843 102.018 35.5756C102.018 34.6291 102.15 32.1492 103.494 32.1492C103.93 32.1492 104.271 32.4331 104.554 32.736V31.4866C104.195 31.2784 103.797 31.1648 103.4 31.1648C101.242 31.1648 100.901 34.0611 100.901 35.6702C100.901 37.1847 101.355 39.8918 103.343 39.8918C103.759 39.8918 104.214 39.7214 104.554 39.4564V38.1312ZM106.942 31.2973H105.881V39.7592H106.942V35.8785L109.384 39.7592H110.69L107.869 35.3674L110.425 31.2973H109.194L106.942 34.9887V31.2973ZM116.135 39.7592V31.2973H115.075L113.088 36.5789C112.955 36.9386 112.898 37.0522 112.69 37.8283C112.728 37.2226 112.728 36.9575 112.728 36.5221V31.2973H111.668V39.7592H112.728L114.716 34.5533C114.867 34.1747 115 33.8151 115.113 33.285C115.075 34.1369 115.075 34.3451 115.075 34.4966V39.7592H116.135ZM121.227 36.8818C121.208 37.6012 121.075 38.8884 120.129 38.8884C118.917 38.8884 118.785 36.7871 118.785 35.9353V35.746H122.362C122.362 35.5756 122.381 35.3863 122.381 35.2159C122.381 33.7204 122.078 31.1648 120.091 31.1648C118.027 31.1648 117.705 34.0233 117.705 35.5567C117.705 37.1847 117.989 39.8918 120.166 39.8918C121.832 39.8918 122.249 38.2448 122.306 36.8818H121.227ZM118.803 34.8373C118.841 34.0611 119.012 32.1492 120.11 32.1492C121.189 32.1492 121.283 34.0801 121.321 34.8373H118.803ZM128.834 31.2973V35.5567C128.834 36.2382 128.815 36.9954 128.531 37.639C128.285 38.2069 127.926 38.5477 127.471 38.7749V41.728H128.475V39.7592H132.564V41.728H133.567V38.7749H132.791V31.2973H128.834ZM131.731 38.7749H128.834C129.213 38.3962 129.497 37.9608 129.648 37.374C129.819 36.7493 129.819 36.1624 129.819 35.4809V32.2817H131.731V38.7749ZM134.665 31.2973V39.7592H136.615C137.07 39.7592 137.789 39.7025 138.338 39.1535C138.849 38.6423 138.906 38.0366 138.906 37.3929C138.906 36.9197 138.906 36.3139 138.376 35.8028C138.149 35.5756 137.808 35.4052 137.467 35.3295C137.789 35.1781 137.997 35.0077 138.092 34.913C138.508 34.5155 138.641 34.099 138.641 33.4743C138.641 32.5656 138.319 32.0924 138.092 31.8652C137.6 31.3541 136.956 31.2973 136.35 31.2973H134.665ZM135.726 34.8562V32.2817H136.331C136.464 32.2817 136.994 32.3006 137.259 32.5467C137.486 32.7549 137.543 33.2093 137.543 33.55C137.543 33.9286 137.486 34.3262 137.259 34.5533C136.956 34.8562 136.445 34.8562 136.161 34.8562H135.726ZM135.726 38.7749V35.8596H136.237C136.521 35.8596 137.013 35.8785 137.373 36.2192C137.543 36.3896 137.77 36.7304 137.77 37.4119C137.77 37.9608 137.6 38.3016 137.41 38.472C137.108 38.7559 136.502 38.7749 136.237 38.7749H135.726ZM143.614 36.8818C143.595 37.6012 143.463 38.8884 142.516 38.8884C141.305 38.8884 141.172 36.7871 141.172 35.9353V35.746H144.75C144.75 35.5756 144.769 35.3863 144.769 35.2159C144.769 33.7204 144.466 31.1648 142.478 31.1648C140.415 31.1648 140.093 34.0233 140.093 35.5567C140.093 37.1847 140.377 39.8918 142.554 39.8918C144.22 39.8918 144.636 38.2448 144.693 36.8818H143.614ZM141.191 34.8373C141.229 34.0611 141.399 32.1492 142.497 32.1492C143.576 32.1492 143.671 34.0801 143.709 34.8373H141.191ZM147.409 31.2973H146.349V43.1667H147.409V39.0777C147.807 39.5699 148.204 39.8918 148.867 39.8918C150.798 39.8918 150.855 37.1847 150.855 35.3674C150.855 33.834 150.836 31.1648 148.753 31.1648C148.148 31.1648 147.769 31.3919 147.409 31.8652V31.2973ZM149.757 35.0834C149.757 35.746 149.757 36.4085 149.7 37.0711C149.624 37.8094 149.511 39.021 148.526 39.021C148.242 39.021 148.034 38.9452 147.845 38.737C147.315 38.2069 147.315 36.2192 147.315 35.4809C147.315 33.7961 147.409 32.0166 148.507 32.0166C149.738 32.0166 149.757 34.2315 149.757 35.0834ZM156.899 39.7592V31.2973H155.839L153.851 36.5789C153.719 36.9386 153.662 37.0522 153.454 37.8283C153.491 37.2226 153.491 36.9575 153.491 36.5221V31.2973H152.431V39.7592H153.491L155.479 34.5533C155.631 34.1747 155.763 33.8151 155.877 33.285C155.839 34.1369 155.839 34.3451 155.839 34.4966V39.7592H156.899Z" fill="#696969"/>
<defs>
<clipPath id="clip0">
<rect width="34.8148" height="47" fill="white"/>
</clipPath>
</defs>
</svg>
