<svg width="64" height="64" viewBox="0 0 64 64" fill="none" xmlns="http://www.w3.org/2000/svg">
<g clip-path="url(#clip0)">
<path d="M1.41867 48.0565L4.6816 49.1445C4.97773 50.1321 5.37485 51.0864 5.86667 51.9925L4.3232 55.0709C3.92375 55.8697 4.08062 56.8345 4.71253 57.4656L6.5344 59.2875C7.16527 59.92 8.13067 60.0765 8.92907 59.6757L12.0075 58.1333C12.9137 58.6241 13.8681 59.0201 14.8555 59.3152L15.9435 62.5781C16.2241 63.4269 17.0175 64.0001 17.9115 64H20.4885C21.3817 64.0006 22.1748 63.4289 22.4565 62.5813L23.5445 59.3184C24.5319 59.0233 25.4863 58.6273 26.3925 58.1365L29.4699 59.6757C30.2686 60.0767 31.2344 59.9201 31.8656 59.2875L33.6875 57.4656C34.3194 56.8345 34.4762 55.8697 34.0768 55.0709L32.5333 51.9925C33.024 51.0863 33.4201 50.1319 33.7152 49.1445L36.9781 48.0565C37.8269 47.7759 38.4001 46.9825 38.4 46.0885V43.5115C38.4006 42.6183 37.8289 41.8253 36.9813 41.5435L33.7184 40.4555C33.4224 39.4684 33.0263 38.5141 32.5365 37.6075L34.0768 34.5291C34.4762 33.7303 34.3194 32.7655 33.6875 32.1344L31.8656 30.3125C31.234 29.6815 30.2699 29.5248 29.4709 29.9232L26.3925 31.4667C25.4863 30.976 24.5319 30.5799 23.5445 30.2848L22.4565 27.0219C22.1759 26.1731 21.3825 25.5999 20.4885 25.6H17.9115C17.0183 25.5994 16.2253 26.1711 15.9435 27.0187L14.8555 30.2816C13.8681 30.5767 12.9137 30.9728 12.0075 31.4635L8.92907 29.9232C8.13013 29.5248 7.16597 29.6815 6.5344 30.3125L4.71253 32.1344C4.08062 32.7655 3.92375 33.7303 4.3232 34.5291L5.86667 37.6075C5.37666 38.514 4.98065 39.4683 4.6848 40.4555L1.41867 41.5435C0.571125 41.8253 -0.000565905 42.6183 4.20377e-07 43.5115V46.0885C-0.000565905 46.9817 0.571125 47.7748 1.41867 48.0565ZM5.89867 42.2965C6.24222 42.1819 6.50411 41.9007 6.59413 41.5499C6.89803 40.3685 7.36777 39.2362 7.98933 38.1867C8.17415 37.8747 8.18781 37.4902 8.0256 37.1659L6.2208 33.6459L7.97547 31.8325L11.5616 33.6267C11.8859 33.7889 12.2704 33.7752 12.5824 33.5904C13.6348 32.9667 14.7704 32.4955 15.9552 32.1909C16.306 32.1009 16.5872 31.839 16.7019 31.4955L17.9115 27.7333L20.432 27.6928L21.6992 31.4944C21.8139 31.838 22.095 32.0999 22.4459 32.1899C23.6288 32.4949 24.7626 32.9661 25.8133 33.5893C26.1253 33.7742 26.5098 33.7878 26.8341 33.6256L30.3541 31.8208L32.1675 33.5755L30.3733 37.1616C30.2111 37.4859 30.2248 37.8704 30.4096 38.1824C31.0335 39.2347 31.5047 40.3703 31.8091 41.5552C31.8991 41.906 32.161 42.1872 32.5045 42.3019L36.2667 43.5552L36.3072 46.032L32.5056 47.2992C32.162 47.4139 31.9002 47.6951 31.8101 48.0459C31.5051 49.2288 31.0339 50.3626 30.4107 51.4133C30.2259 51.7253 30.2122 52.1098 30.3744 52.4341L32.1792 55.9541L30.4245 57.7675L26.8384 55.9744C26.5141 55.8122 26.1296 55.8259 25.8176 56.0107C24.7652 56.6344 23.6296 57.1056 22.4448 57.4101C22.094 57.5002 21.8128 57.7621 21.6981 58.1056L20.4885 61.8667L17.968 61.9072L16.7008 58.1056C16.5861 57.7621 16.305 57.5002 15.9541 57.4101C14.7712 57.1051 13.6374 56.6339 12.5867 56.0107C12.2747 55.8259 11.8902 55.8122 11.5659 55.9744L8.04587 57.7792L6.23253 56.0245L8.02667 52.4384C8.19011 52.1128 8.17603 51.7262 7.98933 51.4133C7.36563 50.3609 6.89444 49.2254 6.58987 48.0405C6.49985 47.6897 6.23795 47.4086 5.8944 47.2939L2.13333 46.0885L2.0928 43.568L5.89867 42.2965Z" fill="#6C73E1"/>
<path d="M13.8666 37.8838C14.0774 37.8835 14.2834 37.8208 14.4586 37.7035C15.0483 37.3085 15.685 36.9889 16.3541 36.752C16.9096 36.5559 17.2009 35.9465 17.0047 35.391C16.8086 34.8354 16.1992 34.5441 15.6437 34.7403C14.8068 35.0369 14.0102 35.4368 13.2725 35.9307C12.882 36.1921 12.7086 36.6781 12.8453 37.1276C12.9821 37.577 13.3968 37.8841 13.8666 37.8838Z" fill="#6C73E1"/>
<path d="M19.2 55.4667C24.8653 55.4702 29.5451 51.0443 29.8571 45.3876C30.1692 39.7309 26.0047 34.817 20.3734 34.1974C19.7878 34.1329 19.2608 34.5553 19.1963 35.1408C19.1318 35.7264 19.5542 36.2534 20.1398 36.3179C23.8531 36.7332 26.8645 39.5161 27.5708 43.1852C28.2772 46.8544 26.5143 50.5564 23.2205 52.3206C19.9266 54.0849 15.8681 53.501 13.2052 50.8798C10.5423 48.2586 9.89441 44.2098 11.6064 40.8886C11.7813 40.55 11.7623 40.1438 11.5566 39.823C11.3508 39.5022 10.9895 39.3156 10.6088 39.3334C10.2281 39.3512 9.88587 39.5708 9.71095 39.9094C8.00414 43.2176 8.14551 47.1764 10.0839 50.3544C12.0224 53.5325 15.4774 55.4701 19.2 55.4667Z" fill="#6C73E1"/>
<path d="M14.9333 44.8C14.9333 47.1564 16.8436 49.0667 19.2 49.0667C21.5564 49.0667 23.4667 47.1564 23.4667 44.8C23.4667 42.4436 21.5564 40.5334 19.2 40.5334C16.8436 40.5334 14.9333 42.4436 14.9333 44.8ZM19.2 42.6667C20.3782 42.6667 21.3334 43.6218 21.3334 44.8C21.3334 45.9782 20.3782 46.9334 19.2 46.9334C18.0218 46.9334 17.0667 45.9782 17.0667 44.8C17.0667 43.6218 18.0218 42.6667 19.2 42.6667Z" fill="#6C73E1"/>
<path d="M62.8554 26.928L63.8431 24.5461C64.1832 23.7215 63.9587 22.7717 63.2853 22.1867L60.6858 19.9339C60.7914 18.9087 60.7914 17.8753 60.6858 16.8501L63.2863 14.5941C63.9604 14.009 64.1847 13.0583 63.8431 12.2336L62.8565 9.85174C62.5171 9.0246 61.6854 8.50851 60.7935 8.57174L57.3599 8.81601C56.7102 8.01616 55.9799 7.28521 55.1807 6.63468L55.425 3.20321C55.4886 2.31131 54.9724 1.47937 54.145 1.14028L51.7663 0.156811C50.9418 -0.184991 49.991 0.0398057 49.4069 0.714677L47.153 3.31414C46.1279 3.20747 45.0944 3.20747 44.0693 3.31414L41.8133 0.714677C41.2281 0.0405985 40.2774 -0.183653 39.4527 0.157878L37.0709 1.14454C36.246 1.48574 35.7327 2.31718 35.7973 3.20748L36.0415 6.64108C35.2414 7.29084 34.5101 8.02107 33.8591 8.82028L30.4277 8.57601C29.5354 8.51108 28.7027 9.02773 28.3647 9.85601L27.3781 12.2379C27.0362 13.0624 27.261 14.0132 27.9359 14.5973L30.5343 16.8512C30.4293 17.8764 30.4293 18.9097 30.5343 19.9349L27.9349 22.1867C27.2606 22.7722 27.0363 23.7233 27.3781 24.5483L28.3647 26.9291C28.7073 27.7535 29.5368 28.2683 30.4277 28.2091L33.8613 27.9648C34.5114 28.765 35.242 29.4963 36.0415 30.1472L35.7973 33.5787C35.7337 34.4706 36.2499 35.3025 37.0773 35.6416L39.4591 36.6283C40.2836 36.9653 41.2312 36.7382 41.8133 36.064L44.0661 33.4656C45.0916 33.5712 46.1253 33.5712 47.1509 33.4656L49.4058 36.0672C49.9913 36.7407 50.9416 36.9648 51.7663 36.624L54.1482 35.6373C54.9749 35.2974 55.4908 34.4661 55.4282 33.5744L55.1839 30.1408C55.9838 29.4906 56.7147 28.7601 57.3653 27.9605L60.7967 28.2048C61.6847 28.2606 62.5108 27.7483 62.8554 26.928ZM60.9439 26.0747L56.9471 25.7909C56.586 25.7697 56.2381 25.9297 56.0191 26.2176C55.2854 27.1938 54.417 28.0611 53.4399 28.7936C53.1489 29.0105 52.9881 29.3606 53.0133 29.7227L53.3333 33.6693L51.0197 34.672L48.3925 31.6416C48.1898 31.4078 47.8955 31.2735 47.5861 31.2736C47.5354 31.2738 47.4847 31.2778 47.4346 31.2853C46.2237 31.4581 44.9943 31.4581 43.7834 31.2853C43.4252 31.2348 43.0658 31.3694 42.8287 31.6427L40.2687 34.6539L37.9221 33.7259L38.2058 29.7291C38.2305 29.3673 38.0698 29.0178 37.7791 28.8011C36.8014 28.0664 35.9327 27.197 35.1989 26.2187C34.9793 25.9309 34.6311 25.771 34.2698 25.792L30.3285 26.112L29.3333 23.7973L32.3626 21.1701C32.6376 20.932 32.7723 20.5701 32.7199 20.2101C32.5476 18.9992 32.5476 17.7699 32.7199 16.5589C32.7723 16.1989 32.6376 15.8371 32.3626 15.5989L29.3514 13.0389L30.2794 10.6923L34.2762 10.9771C34.6347 11.0026 34.9819 10.8458 35.1999 10.56C35.9349 9.58256 36.8043 8.71389 37.7823 7.97974C38.0734 7.76282 38.2341 7.41279 38.209 7.05068L37.889 3.10934L40.2026 2.10774L42.8298 5.13708C43.0681 5.41171 43.43 5.54599 43.7898 5.49334C45.0008 5.32107 46.23 5.32107 47.441 5.49334C47.801 5.54573 48.1629 5.41103 48.401 5.13601L50.9514 2.13334L53.2981 3.06028L53.0133 7.05281C52.9885 7.41455 53.1492 7.7641 53.4399 7.98081C54.4155 8.71493 55.2824 9.58325 56.0149 10.56C56.2318 10.851 56.5818 11.0118 56.9439 10.9867L60.8906 10.6667L61.8922 12.9803L58.8629 15.6085C58.5882 15.8469 58.454 16.2087 58.5066 16.5685C58.6789 17.7795 58.6789 19.0088 58.5066 20.2197C58.4561 20.578 58.5906 20.9374 58.8639 21.1744L61.8602 23.7728L60.9439 26.0747Z" fill="#6C73E1"/>
<path d="M40.2785 11.4731C40.4893 11.4728 40.6953 11.4101 40.8705 11.2928C41.4604 10.8997 42.0971 10.5818 42.7659 10.3467C43.1356 10.2278 43.4114 9.91737 43.486 9.53631C43.5607 9.15525 43.4223 8.76373 43.1249 8.51414C42.8274 8.26455 42.4178 8.19633 42.0555 8.33602C41.2172 8.62954 40.4191 9.02733 39.6801 9.52002C39.2896 9.78136 39.1162 10.2674 39.2529 10.7169C39.3897 11.1663 39.8044 11.4734 40.2742 11.4731H40.2785Z" fill="#6C73E1"/>
<path d="M46.7873 7.7867C46.4083 7.74516 46.0359 7.90897 45.8104 8.21641C45.585 8.52386 45.5407 8.92823 45.6942 9.27721C45.8477 9.62619 46.1757 9.86676 46.5547 9.9083C50.2643 10.3253 53.2714 13.1068 53.9759 16.7728C54.6803 20.4387 52.9183 24.1366 49.6275 25.8989C46.3366 27.6611 42.2821 27.0779 39.6214 24.4596C36.9606 21.8413 36.3123 17.7967 38.0214 14.4779C38.2092 14.1382 38.1976 13.7233 37.9911 13.3946C37.7846 13.0659 37.4159 12.8753 37.0283 12.8969C36.6408 12.9186 36.2956 13.149 36.127 13.4987C33.9858 17.6505 34.7952 22.7124 38.1243 25.9895C41.4533 29.2666 46.5274 29.9962 50.645 27.7899C54.7625 25.5837 56.9654 20.9549 56.0808 16.368C55.1962 11.7811 51.43 8.30352 46.7873 7.7867Z" fill="#6C73E1"/>
<path d="M41.3441 18.3894C41.3441 20.7458 43.2543 22.656 45.6107 22.656C47.9671 22.656 49.8774 20.7458 49.8774 18.3894C49.8774 16.0329 47.9671 14.1227 45.6107 14.1227C43.2543 14.1227 41.3441 16.0329 41.3441 18.3894ZM45.6107 16.256C46.7889 16.256 47.7441 17.2111 47.7441 18.3894C47.7441 19.5676 46.7889 20.5227 45.6107 20.5227C44.4325 20.5227 43.4774 19.5676 43.4774 18.3894C43.4774 17.2111 44.4325 16.256 45.6107 16.256Z" fill="#6C73E1"/>
</g>
<defs>
<clipPath id="clip0">
<rect width="64" height="64" fill="white"/>
</clipPath>
</defs>
</svg>
