<svg width="64" height="64" viewBox="0 0 64 64" fill="none" xmlns="http://www.w3.org/2000/svg">
<path d="M48.4081 7.09278L32.4081 0.0890505C32.136 -0.0296835 31.8268 -0.0296835 31.5547 0.0890505L15.5547 7.09278C15.1662 7.26235 14.915 7.64592 14.9147 8.06985V24.8165C14.9205 28.5801 16.729 32.113 19.7787 34.3184L30.8369 42.2938C31.5198 42.7882 32.443 42.7882 33.1259 42.2938L44.1841 34.3194C47.2338 32.1141 49.0423 28.5811 49.0481 24.8176V8.06985C49.0479 7.64592 48.7966 7.26235 48.4081 7.09278ZM46.9147 24.8176C46.9098 27.8959 45.4305 30.7855 42.9361 32.5893L31.9814 40.4901L21.0267 32.5893C18.5323 30.7855 17.053 27.8959 17.0481 24.8176V8.76745L31.9814 2.23092L46.9147 8.76745V24.8176Z" fill="#6C73E1"/>
<path d="M31.5547 4.74612L19.8213 9.88319C19.4328 10.0528 19.1816 10.4363 19.1813 10.8603V24.8176C19.1846 27.2108 20.3349 29.4574 22.2747 30.8592L31.3573 37.4107C31.7299 37.6794 32.2327 37.6794 32.6053 37.4107L41.688 30.8592C43.6278 29.4574 44.778 27.2108 44.7813 24.8176V10.8603C44.7811 10.4363 44.5299 10.0528 44.1413 9.88319L32.408 4.74612C32.1359 4.62739 31.8267 4.62739 31.5547 4.74612ZM42.648 11.5568V24.8176C42.6447 26.5254 41.8238 28.1283 40.44 29.1291L31.9813 35.2304L23.5227 29.1291C22.1388 28.1283 21.3179 26.5254 21.3147 24.8176V11.5568L31.9813 6.88799L42.648 11.5568Z" fill="#6C73E1"/>
<path d="M8.81874 35.4128L6.51154 30.0219C6.02089 28.9104 4.97458 28.1452 3.76673 28.0144C2.55888 27.8836 1.373 28.4071 0.655795 29.3877C-0.0614093 30.3683 -0.200975 31.6571 0.289669 32.7685L4.46994 41.9643C5.0339 43.2091 5.81844 44.3417 6.78567 45.3072L13.3595 51.8821C12.9893 52.2745 12.7826 52.7933 12.7814 53.3328V61.8661C12.7814 63.0443 13.7365 63.9995 14.9147 63.9995H26.6481C27.8263 63.9995 28.7814 63.0443 28.7814 61.8661V53.3328C28.7814 52.1546 27.8263 51.1995 26.6481 51.1995V49.2144C26.6808 46.6882 25.8566 44.2254 24.3099 42.2277C23.4032 41.0351 22.1674 40.1337 20.7547 39.6347C18.5082 38.6908 16.4421 37.3649 14.6481 35.7157C12.9828 34.3442 10.6172 34.2213 8.81874 35.4128ZM26.6481 61.8661H14.9147V53.3328H26.6481V61.8661ZM22.6449 43.56C23.8882 45.1799 24.5472 47.1726 24.5147 49.2144V51.1995H15.6945L8.29394 43.7989C7.50795 43.014 6.87015 42.0937 6.41127 41.0821L2.231 31.8864C2.05261 31.4939 2.08581 31.0377 2.31915 30.6752C2.55249 30.3126 2.95401 30.0935 3.38514 30.0933C3.89249 30.0929 4.35102 30.3957 4.54994 30.8624L6.93607 36.4272C7.56969 37.9119 8.483 39.2608 9.6262 40.4005L14.4987 45.2741C14.7665 45.5514 15.1631 45.6626 15.5361 45.565C15.909 45.4674 16.2003 45.1761 16.2979 44.8032C16.3955 44.4303 16.2843 44.0337 16.007 43.7659L11.1345 38.8923C10.6445 38.4035 10.204 37.8676 9.81927 37.2923C10.8436 36.504 12.2767 36.5279 13.2742 37.3499C15.2682 39.1798 17.5728 40.6391 20.0795 41.6592C21.1009 42.0306 21.9922 42.691 22.6449 43.56Z" fill="#6C73E1"/>
<path d="M23.448 56.5328H22.3814C21.7923 56.5328 21.3147 57.0103 21.3147 57.5994C21.3147 58.1885 21.7923 58.6661 22.3814 58.6661H23.448C24.0371 58.6661 24.5147 58.1885 24.5147 57.5994C24.5147 57.0103 24.0371 56.5328 23.448 56.5328Z" fill="#6C73E1"/>
<path d="M59.4928 41.9643L63.6731 32.7685C64.1871 31.6533 64.0599 30.3477 63.3404 29.3526C62.6209 28.3575 61.4208 27.8277 60.2008 27.9664C58.9807 28.105 57.9301 28.8907 57.4523 30.0219L55.1504 35.3925C53.3458 34.2069 50.9789 34.3367 49.3147 35.7125C47.5207 37.3617 45.4546 38.6876 43.208 39.6315C41.7954 40.1306 40.5596 41.0319 39.6528 42.2245C38.1055 44.2231 37.2813 46.6871 37.3147 49.2144V51.1995C36.1365 51.1995 35.1813 52.1546 35.1813 53.3328V61.8661C35.1813 63.0444 36.1365 63.9995 37.3147 63.9995H49.048C50.2262 63.9995 51.1814 63.0444 51.1814 61.8661V53.3328C51.1802 52.7933 50.9734 52.2745 50.6032 51.8821L57.1771 45.3072C58.1443 44.3417 58.9289 43.2091 59.4928 41.9643ZM49.048 61.8661H37.3147V53.3328H49.048V61.8661ZM48.2683 51.1995H39.448V49.2144C39.4158 47.173 40.0748 45.1807 41.3179 43.5611C41.9691 42.6927 42.8584 42.032 43.8779 41.6592C46.3851 40.6394 48.6901 39.1801 50.6843 37.3499C51.6807 36.5217 53.1178 36.4938 54.1456 37.2827C53.7598 37.8622 53.3171 38.4018 52.824 38.8933L47.9515 43.7669C47.5472 44.1855 47.553 44.8508 47.9645 45.2622C48.3759 45.6737 49.0412 45.6794 49.4598 45.2752L54.3323 40.4016C55.4755 39.2619 56.3888 37.913 57.0224 36.4283L59.4086 30.8624C59.608 30.3963 60.0663 30.0941 60.5734 30.0944C61.0045 30.0946 61.406 30.3137 61.6393 30.6762C61.8727 31.0387 61.9059 31.495 61.7275 31.8875L57.5472 41.0832C57.0883 42.0948 56.4505 43.0151 55.6646 43.8L48.2683 51.1995Z" fill="#6C73E1"/>
<path d="M41.5814 56.5328H40.5147C39.9256 56.5328 39.4481 57.0103 39.4481 57.5994C39.4481 58.1885 39.9256 58.6661 40.5147 58.6661H41.5814C42.1705 58.6661 42.6481 58.1885 42.6481 57.5994C42.6481 57.0103 42.1705 56.5328 41.5814 56.5328Z" fill="#6C73E1"/>
<path d="M26.2214 22.6128C25.7501 22.2593 25.0815 22.3548 24.728 22.8261C24.3746 23.2974 24.4701 23.966 24.9414 24.3195L29.208 27.5195C29.3927 27.6579 29.6172 27.7328 29.848 27.7328C29.9084 27.7326 29.9687 27.7276 30.0283 27.7179C30.3172 27.6683 30.573 27.502 30.7355 27.2581L39.2688 14.4581C39.4803 14.1411 39.5066 13.7353 39.3378 13.3936C39.169 13.0519 38.8307 12.8262 38.4503 12.8016C38.07 12.7769 37.7054 12.9571 37.4939 13.2741L29.5856 25.1365L26.2214 22.6128Z" fill="#6C73E1"/>
</svg>
