<svg width="64" height="64" viewBox="0 0 64 64" fill="none" xmlns="http://www.w3.org/2000/svg">
<path d="M47.111 28.8016L44.087 27.7939C43.9256 27.3269 43.7373 26.8698 43.5229 26.4246L44.9469 23.5772C45.1265 23.2179 45.0891 22.7881 44.85 22.4653C43.9124 21.2046 42.7955 20.0878 41.5349 19.1501C41.212 18.911 40.7822 18.8735 40.4229 19.0532L37.5755 20.4772C37.1305 20.2626 36.6732 20.0742 36.2062 19.9131L35.1984 16.8891C35.0713 16.5083 34.7412 16.231 34.3442 16.1714C32.7899 15.9411 31.2101 15.9411 29.6558 16.1714C29.2587 16.231 28.9287 16.5083 28.8016 16.8891L27.7939 19.9131C27.3269 20.0742 26.8696 20.2626 26.4246 20.4772L23.5772 19.0532C23.2177 18.8741 22.7884 18.9116 22.4652 19.1501C21.2046 20.0878 20.0878 21.2046 19.1501 22.4651C18.911 22.788 18.8736 23.2178 19.0532 23.5771L20.4772 26.4245C20.2629 26.8696 20.0746 27.3269 19.9131 27.7938L16.8891 28.8015C16.5083 28.9286 16.231 29.2586 16.1714 29.6556C15.9429 31.2101 15.9429 32.7896 16.1714 34.3441C16.231 34.7411 16.5083 35.0712 16.8891 35.1982L19.9131 36.2061C20.0742 36.6731 20.2626 37.1304 20.4772 37.5754L19.0532 40.4227C18.8735 40.7821 18.911 41.212 19.1501 41.5349C20.0878 42.7955 21.2046 43.9122 22.4651 44.85C22.7879 45.0894 23.2179 45.1268 23.5771 44.9469L26.4245 43.5229C26.8696 43.7373 27.3269 43.9255 27.7938 44.087L28.8015 47.111C28.9286 47.4919 29.2586 47.7691 29.6556 47.8288C31.2101 48.0573 32.7896 48.0573 34.3441 47.8288C34.7411 47.7691 35.0712 47.4919 35.1982 47.111L36.2061 44.087C36.6731 43.9256 37.1302 43.7373 37.5754 43.5229L40.4227 44.9469C40.782 45.127 41.2121 45.0896 41.5348 44.85C42.7954 43.9124 43.9123 42.7955 44.8499 41.5349C45.089 41.212 45.1264 40.7822 44.9468 40.4229L43.5228 37.5755C43.7374 37.1305 43.9258 36.6732 44.0869 36.2062L47.1109 35.1984C47.4917 35.0713 47.769 34.7412 47.8286 34.3442C48.0571 32.7897 48.0571 31.2102 47.8286 29.6558C47.7691 29.2587 47.4918 28.9287 47.111 28.8016ZM45.7985 33.387L42.9 34.3531C42.5703 34.463 42.3149 34.7268 42.2156 35.0599C42.0095 35.7544 41.7327 36.426 41.3896 37.064C41.2246 37.3699 41.2188 37.7369 41.374 38.0479L42.738 40.776C42.4484 41.1301 42.1396 41.4703 41.8051 41.8051C41.4703 42.1395 41.1301 42.4479 40.776 42.738L38.0479 41.3734C37.7369 41.2173 37.3691 41.2232 37.0635 41.3895C36.4256 41.7326 35.7542 42.0094 35.0599 42.2155C34.7268 42.3148 34.463 42.5701 34.3531 42.8999L33.387 45.7982C32.4646 45.8899 31.5354 45.8899 30.613 45.7982L29.6469 42.8999C29.537 42.5701 29.2731 42.3148 28.9401 42.2155C28.2457 42.0094 27.5744 41.7325 26.9365 41.3895C26.6309 41.2232 26.2631 41.2173 25.9521 41.3734L23.224 42.738C22.8699 42.4479 22.5298 42.1396 22.1949 41.8051C21.8605 41.4703 21.5516 41.1301 21.2621 40.776L22.6261 38.0479C22.7814 37.7369 22.7755 37.3699 22.6105 37.064C22.2674 36.4259 21.9906 35.7544 21.7845 35.0599C21.6852 34.7268 21.4299 34.463 21.1001 34.3531L18.2016 33.387C18.1106 32.4646 18.1106 31.5355 18.2016 30.613L21.1001 29.6469C21.4299 29.537 21.6852 29.2731 21.7845 28.9401C21.9906 28.2457 22.2675 27.5744 22.6105 26.9365C22.776 26.6306 22.782 26.2633 22.6266 25.9521L21.262 23.224C21.5521 22.8699 21.8604 22.5298 22.1949 22.1949C22.5298 21.8605 22.8699 21.5516 23.224 21.2621L25.9521 22.6261C26.2631 22.7811 26.63 22.7753 26.936 22.6105C27.5741 22.2674 28.2456 21.9906 28.9401 21.7845C29.2732 21.6853 29.537 21.4299 29.6469 21.1001L30.613 18.2016C31.5354 18.11 32.4646 18.11 33.387 18.2016L34.3531 21.1001C34.463 21.4299 34.7269 21.6853 35.0599 21.7845C35.7544 21.9906 36.426 22.2675 37.064 22.6105C37.3699 22.7753 37.7369 22.7811 38.0479 22.6261L40.776 21.2621C41.1301 21.5518 41.4703 21.8605 41.8051 22.1949C42.1395 22.5299 42.4479 22.8699 42.7379 23.224L41.3732 25.9521C41.2179 26.2633 41.2239 26.6306 41.3894 26.9365C41.7325 27.5744 42.0092 28.2457 42.2154 28.9401C42.3146 29.2732 42.57 29.537 42.8997 29.6469L45.7982 30.613C45.8894 31.5355 45.8894 32.4645 45.7985 33.387Z" fill="#6C73E1"/>
<path d="M32 24.5334C27.8763 24.5334 24.5334 27.8764 24.5334 32C24.538 36.1218 27.8783 39.462 32 39.4666C36.1238 39.4666 39.4666 36.1236 39.4666 32C39.4666 27.8764 36.1238 24.5334 32 24.5334ZM32 37.3334C29.0545 37.3334 26.6666 34.9455 26.6666 32C26.6701 29.0559 29.0559 26.6701 32 26.6666C34.9455 26.6666 37.3334 29.0544 37.3334 32C37.3334 34.9456 34.9455 37.3334 32 37.3334Z" fill="#6C73E1"/>
<path d="M59.7099 27.8388C59.219 12.4026 46.9818 0 32 0C17.0182 0 4.781 12.4026 4.29012 27.8388C1.79837 28.3386 0.004 30.5252 0 33.0666V48C0.0035 50.9441 2.38925 53.3299 5.33337 53.3334C5.3395 58.6327 9.634 62.9272 14.9334 62.9334H24.83C25.208 63.5911 25.908 63.9976 26.6666 64H36.2666C37.4444 63.9989 38.3988 63.0444 38.4 61.8666V57.6C38.3989 56.4222 37.4444 55.4679 36.2666 55.4666H26.6666C25.9079 55.469 25.208 55.8755 24.83 56.5332H14.9334C13.1669 56.5314 11.7352 55.0997 11.7334 53.3332C12.9111 53.3321 13.8655 52.3776 13.8667 51.1999V29.8666C13.8656 28.6889 12.9111 27.7345 11.7334 27.7332H10.7183C11.2537 15.8785 20.5799 6.4 32 6.4C43.4201 6.4 52.7463 15.8785 53.2819 27.7334H52.2668C51.0891 27.7348 50.1347 28.689 50.1334 29.8668V51.2C50.1347 52.3776 51.089 53.332 52.2668 53.3334H58.6668C61.6108 53.3299 63.9965 50.9441 64 48V33.0666C63.996 30.5252 62.2016 28.3386 59.7099 27.8388ZM26.6666 57.6H36.2666L36.2681 61.8666H26.6666V57.6ZM14.9334 58.6666H24.5334V60.8H14.9334C10.8116 60.7954 7.47137 57.4551 7.46675 53.3334H9.6C9.6035 56.2774 11.9893 58.6632 14.9334 58.6666ZM11.7334 29.8666L11.7349 51.2H5.33337C3.56687 51.1981 2.13525 49.7665 2.13337 48V33.0666C2.13525 31.3001 3.56687 29.8685 5.33337 29.8666H11.7334ZM32 4.26662C19.4026 4.26662 9.09575 14.699 8.55925 27.7332H6.426C6.966 13.5224 18.2279 2.13325 32 2.13325C45.7721 2.13325 57.034 13.5224 57.574 27.7332H55.4408C54.9043 14.6991 44.5974 4.26662 32 4.26662ZM61.8666 48C61.8647 49.7665 60.4331 51.1981 58.6666 51.2H52.2666V29.8666H58.6666C60.4331 29.8685 61.8647 31.3001 61.8666 33.0666V48Z" fill="#6C73E1"/>
</svg>
