<svg width="64" height="64" viewBox="0 0 64 64" fill="none" xmlns="http://www.w3.org/2000/svg">
<g clip-path="url(#clip0)">
<path d="M42.1008 32.9094L48.4503 26.5667C52.6489 28.1165 57.4454 27.1025 60.6297 23.9175C63.3233 21.2263 64.5077 17.3711 63.7983 13.6041C63.6904 13.0334 63.3619 11.2964 61.9528 10.9179C60.5698 10.5464 59.5024 11.7839 58.9895 12.3785C58.9472 12.4276 58.9124 12.4691 58.8909 12.4919L54.5222 16.8567C53.4851 17.8931 51.8209 17.9692 50.6974 17.0451C49.7731 15.9235 49.8494 14.2622 50.8859 13.2266L55.2487 8.86755C55.2773 8.84055 55.3188 8.80567 55.3678 8.76342C55.9631 8.25093 57.2017 7.18469 56.8306 5.8017C56.4524 4.39234 54.7136 4.06409 54.1413 3.95597C50.3739 3.2476 46.5165 4.42947 43.8217 7.11806C40.6341 10.3029 39.6189 15.0961 41.1692 19.2908L34.8192 25.6343L27.9301 18.7513C26.597 12.7029 31.1078 10.3973 35.8566 8.55755C36.4624 8.32293 36.9854 8.1203 37.4055 7.92006C37.8103 7.72706 38.0806 7.33219 38.1141 6.88507C38.1478 6.43795 37.9391 6.00707 37.5675 5.75608C35.3432 4.25284 32.5261 3.1806 29.6353 2.73661C26.41 2.24149 23.1913 2.52848 20.3273 3.56697C19.6783 3.80235 19.3429 4.51921 19.5783 5.16821C19.8136 5.81733 20.5306 6.15257 21.1795 5.91733C25.6339 4.30197 30.4417 5.00746 33.9744 6.61082C32.1733 7.33444 29.8877 8.3798 28.1141 10.0579C25.6252 12.4125 24.7223 15.4131 25.425 18.9851L20.1633 24.2423C19.6022 24.0973 19.1532 23.9654 18.7722 23.8535C18.5297 23.7824 18.3191 23.7207 18.1298 23.6699C17.0172 23.3744 16.2196 23.3867 15.1876 24.2993C14.9134 24.5439 14.6057 24.8595 14.2162 25.2593C13.8201 25.6658 13.3271 26.1716 12.6804 26.7981C12.4398 27.0312 12.3028 27.3512 12.3001 27.6862C12.2979 27.9746 12.3954 28.2532 12.5736 28.4762L9.8669 31.1806L2.55435 23.8779L5.2642 21.1738C5.75494 21.5675 6.47369 21.537 6.92906 21.0823L8.68829 19.3247C9.39303 18.6458 9.49966 17.9857 9.58553 17.4548C9.59653 17.3868 9.60803 17.3156 9.62191 17.2381C9.85278 15.9407 10.4269 14.7566 11.1996 13.9871L12.826 12.3586C13.3139 11.8701 13.3132 11.0788 12.8249 10.5908C12.3364 10.103 11.5449 10.1038 11.0571 10.592L9.43316 12.2178C7.89217 13.7525 7.34793 15.7472 7.16106 16.7975C7.14481 16.8882 7.13081 16.9738 7.11768 17.0556C7.05806 17.4245 7.05806 17.4245 6.95068 17.527C6.94381 17.5336 6.93706 17.5401 6.93031 17.5468L5.79244 18.6837C5.02533 18.5076 4.18596 18.7171 3.58959 19.3128L0.690618 22.2057C0.245248 22.6508 0 23.2445 0 23.8775C0 24.5106 0.245248 25.1045 0.690868 25.5498L8.19517 33.0437C8.65442 33.5026 9.25878 33.7323 9.8644 33.7323C10.4694 33.7323 11.0754 33.5029 11.5389 33.0437L14.4336 30.1515C14.879 29.7063 15.1242 29.1132 15.1242 28.4814C15.1242 28.3029 15.1047 28.1274 15.0666 27.9576C15.4342 27.591 15.7415 27.2757 16.0066 27.0037C16.362 26.639 16.6427 26.3509 16.8477 26.168C16.9688 26.0609 17.0353 26.0158 17.065 25.9981C17.1105 26.0008 17.2238 26.0156 17.4853 26.085C17.6551 26.1305 17.8468 26.1869 18.0677 26.2519C18.5242 26.3859 19.1282 26.5632 19.9127 26.757L26.8032 33.6414L21.752 38.6874C17.5551 37.1415 12.7591 38.1568 9.57403 41.339C6.88106 44.0257 5.69757 47.8799 6.40806 51.6483C6.51544 52.2197 6.84218 53.9589 8.25117 54.3384C9.63378 54.7105 10.7008 53.4732 11.2135 52.8787C11.2559 52.8296 11.2908 52.7881 11.312 52.7655L15.6843 48.3972C16.7198 47.3627 18.3823 47.288 19.5057 48.2123C20.43 49.3338 20.3553 50.9934 19.3208 52.0271L14.9542 56.39C14.9257 56.417 14.8844 56.4517 14.8354 56.4938C14.2406 57.0063 13.0031 58.0726 13.3751 59.4549C13.7542 60.8639 15.4937 61.1905 16.0648 61.2977C16.7855 61.4333 17.5091 61.4998 18.2273 61.4998C21.2653 61.4998 24.2043 60.3105 26.3811 58.1357C29.5675 54.952 30.5827 50.1585 29.0333 45.9631L34.0849 40.9169L52.8709 59.6862C53.9752 60.7895 55.4253 61.3409 56.8759 61.3409C58.3262 61.3409 59.7769 60.7892 60.881 59.6862C61.9484 58.6197 62.5363 57.1974 62.5363 55.6813C62.5363 54.1652 61.9484 52.743 60.881 51.6766L42.1008 32.9094ZM46.0344 49.3215L50.5115 44.8483L52.775 47.1102L48.298 51.5831L46.0344 49.3215ZM22.3164 25.6246L24.4924 23.4505L26.7945 21.1504L33.0504 27.401L28.572 31.8747L22.3164 25.6246ZM26.424 46.1901C28.0002 49.6208 27.273 53.7107 24.6143 56.3671C22.507 58.4726 19.4837 59.3971 16.5267 58.8407C16.3457 58.8068 16.1996 58.7714 16.0823 58.7381C16.1851 58.6369 16.3136 58.5201 16.4673 58.3876C16.5662 58.3024 16.6442 58.2352 16.7155 58.1639L21.0878 53.7955C23.0704 51.8145 23.178 48.6109 21.3328 46.5019C21.296 46.4599 21.2564 46.4204 21.2143 46.3836C19.1046 44.5409 15.8993 44.6483 13.9175 46.6284L9.54516 50.9968C9.47353 51.0683 9.40603 51.1466 9.32041 51.2458C9.18729 51.4003 9.06966 51.5293 8.96829 51.6321C8.93466 51.5146 8.89929 51.3676 8.86504 51.1858C8.30779 48.2302 9.23291 45.2107 11.3405 43.1081C13.9995 40.4516 18.0928 39.7234 21.526 41.2965C22.0007 41.5137 22.5607 41.4135 22.93 41.0444L29.4323 34.5489C29.4406 34.541 29.4493 34.5343 29.4575 34.5262C29.4652 34.5184 29.4718 34.5099 29.4793 34.5019L35.6902 28.2976C35.6946 28.2932 35.6997 28.2895 35.704 28.285C35.7084 28.2806 35.7119 28.2759 35.7161 28.2715L43.5266 20.4693C43.8968 20.0994 43.9976 19.5381 43.7788 19.0627C42.2017 15.6331 42.9291 11.5435 45.5882 8.8868C47.6983 6.78157 50.7231 5.8567 53.6787 6.41232C53.8602 6.44657 54.0068 6.4822 54.1242 6.51582C54.021 6.61744 53.8917 6.73507 53.7367 6.86832C53.6375 6.95382 53.5591 7.02132 53.4875 7.09281L49.1188 11.4576C47.1343 13.4406 47.0252 16.6458 48.8703 18.7548C48.9071 18.7968 48.9466 18.8363 48.9888 18.8732C51.0986 20.7161 54.3053 20.6068 56.2892 18.6248L60.6578 14.26C60.7294 14.1885 60.797 14.1101 60.8827 14.0109C61.017 13.855 61.1355 13.7251 61.2378 13.6216C61.2717 13.7389 61.3072 13.8855 61.3415 14.0674C61.8979 17.0208 60.9712 20.0419 58.862 22.149C56.2047 24.8071 52.1122 25.5338 48.6778 23.9573C48.2029 23.7392 47.6425 23.8397 47.2729 24.2089L26.6764 44.7838C26.3062 45.1536 26.2055 45.7147 26.424 46.1901ZM40.3322 34.6762L48.7431 43.0812L44.2658 47.5545L35.8538 39.1499L40.3322 34.6762ZM59.1142 57.9176C57.8799 59.1507 55.872 59.1504 54.638 57.9176L50.0665 53.3501L54.5432 48.8774L59.1139 53.445C59.7088 54.0392 60.0363 54.8333 60.0363 55.6813C60.0363 56.5293 59.7089 57.3233 59.1142 57.9176Z" fill="#6C73E1"/>
<path d="M15.963 8.77776C16.2829 8.77776 16.6029 8.65563 16.8469 8.41164L16.8504 8.40814C17.3385 7.92001 17.3367 7.13026 16.8486 6.64214C16.3605 6.15414 15.5674 6.15564 15.079 6.64389C14.5909 7.13201 14.5909 7.92351 15.079 8.41176C15.3231 8.65576 15.6431 8.77776 15.963 8.77776Z" fill="#6C73E1"/>
</g>
<defs>
<clipPath id="clip0">
<rect width="64" height="64" fill="white"/>
</clipPath>
</defs>
</svg>
