<svg width="64" height="64" viewBox="0 0 64 64" fill="none" xmlns="http://www.w3.org/2000/svg">
<g clip-path="url(#clip0)">
<path d="M59.7979 26.5942H58.7544C56.8267 20.8257 50.1324 15.5225 45.2086 13.0968L47.7408 4.61682C47.8805 4.14905 47.7369 3.64271 47.3722 3.318C47.007 2.99379 46.4874 2.9098 46.0392 3.10316L26.2488 11.6334C25.0955 12.1305 23.8792 12.6124 22.634 13.065C18.1267 14.7051 13.9783 17.3018 10.953 20.3775C8.38657 22.9863 6.69713 25.8608 5.95885 28.833C4.01355 28.2041 2.8241 27.3789 2.57069 26.4644C2.29627 25.4732 3.06482 24.0078 4.73474 22.3379C5.22546 21.8472 5.22546 21.0513 4.73474 20.5606C4.24402 20.0699 3.44812 20.0699 2.95691 20.5606C0.551166 22.9663 -0.393653 25.1782 0.148336 27.1353C0.6664 29.0058 2.48768 30.4184 5.56579 31.3423C5.54528 31.6504 5.53356 31.959 5.53356 32.2685C5.53356 35.666 6.38268 38.6171 8.12876 41.2904C9.52084 43.4208 11.4578 45.389 14.3685 47.6219V56.8807C14.3685 59.1976 16.2532 61.0823 18.5701 61.0823H22.9871C25.3044 61.0823 27.1892 59.1976 27.1892 56.8807V55.473C28.9944 55.7948 30.7942 55.9573 32.5578 55.9573C34.3571 55.9573 36.1564 55.8001 37.9269 55.4901V56.8807C37.9269 59.1976 39.8117 61.0823 42.1286 61.0823H46.546C48.8629 61.0823 50.7481 59.1976 50.7481 56.8807V47.6215C50.8609 47.5375 50.9727 47.454 51.0836 47.3715C54.2535 45.0077 56.8043 43.1063 58.2559 39.415H59.7979C62.1153 39.415 64 37.5302 64 35.2133V30.7959C63.9995 28.479 62.1148 26.5942 59.7979 26.5942ZM61.4859 35.2133C61.4859 36.144 60.7285 36.9013 59.7979 36.9013H57.3702C56.8248 36.9013 56.3414 37.2529 56.1739 37.7724C55.0411 41.2851 52.8687 42.9047 49.5807 45.3558C49.3048 45.5619 49.0231 45.7719 48.7355 45.9877C48.4195 46.2255 48.234 46.5975 48.234 46.9926V56.8807C48.234 57.8113 47.4767 58.5687 46.546 58.5687H42.1286C41.1979 58.5687 40.4406 57.8113 40.4406 56.8807V53.9549C40.4406 53.5726 40.2663 53.2108 39.9674 52.9725C39.7428 52.7933 39.466 52.6981 39.1838 52.6981C39.0905 52.6981 38.9967 52.7083 38.904 52.7293C36.8273 53.2035 34.6921 53.4432 32.5578 53.4432C30.4812 53.4432 28.3459 53.1966 26.2112 52.7103C25.8386 52.6253 25.447 52.7147 25.1482 52.9535C24.8494 53.1917 24.675 53.5531 24.675 53.9359V56.8807C24.675 57.8113 23.9177 58.5687 22.9871 58.5687H18.5696C17.639 58.5687 16.8816 57.8113 16.8816 56.8807V46.9974C16.8816 46.6019 16.6956 46.2289 16.3787 45.9916C13.4315 43.7836 11.536 41.9096 10.2332 39.9154C8.74204 37.6327 8.04722 35.2026 8.04722 32.2685C8.04722 24.5166 15.805 18.2247 23.4929 15.4278C24.7839 14.9581 26.0456 14.4581 27.2434 13.942L44.5617 6.47717L42.4918 13.4078C42.4889 13.4171 42.486 13.4263 42.4835 13.4356L40.924 18.6573C40.7253 19.3223 41.1037 20.0225 41.7687 20.2212C42.4337 20.42 43.1339 20.0415 43.3327 19.3765L44.4782 15.5411C46.8409 16.751 49.3585 18.5269 51.4288 20.4644C54.1939 23.0528 56.025 25.7793 56.5845 28.1406C56.7188 28.7075 57.2252 29.1079 57.8077 29.1079H59.7974C60.7281 29.1079 61.4854 29.8652 61.4854 30.7959V35.2133H61.4859Z" fill="#6C73E1"/>
<path d="M33.163 22.295C33.1396 22.294 33.1166 22.2916 33.0932 22.2916C33.079 22.2916 33.0654 22.2935 33.0512 22.294C32.996 22.293 32.9408 22.2916 32.8857 22.2916C26.3242 22.2916 20.9863 27.6299 20.9863 34.1909C20.9863 40.7524 26.3242 46.0903 32.8857 46.0903C34.9418 46.0903 36.9691 45.5571 38.7479 44.5478C39.3519 44.2055 39.5639 43.4384 39.2216 42.8344C38.8788 42.2304 38.1122 42.019 37.5082 42.3613C36.5316 42.915 35.4594 43.2866 34.35 43.4609V41.4106C35.0331 41.206 35.6591 40.8344 36.1772 40.3164C37.8778 38.6157 37.8778 35.8491 36.1772 34.1484C35.3534 33.3247 34.2587 32.8711 33.0932 32.8711C32.6825 32.8711 32.2963 32.7109 32.0063 32.4204C31.7158 32.1304 31.5561 31.7441 31.5561 31.3335C31.5561 30.9229 31.7158 30.5371 32.0063 30.2466C32.2968 29.9566 32.6825 29.7964 33.0932 29.7964C33.5038 29.7964 33.8901 29.9566 34.1801 30.2466C34.4706 30.5371 34.6303 30.9234 34.6303 31.3335C34.6303 32.0278 35.1933 32.5903 35.8871 32.5903C36.5815 32.5903 37.1444 32.0278 37.1444 31.3335C37.1444 30.2515 36.7226 29.2344 35.9579 28.4693C35.4989 28.0103 34.9496 27.6768 34.35 27.4815V24.9205C38.8319 25.6255 42.2714 29.5137 42.2714 34.1904C42.2714 34.6655 42.2352 35.1426 42.1649 35.6089C42.0609 36.2949 42.5331 36.9355 43.2196 37.0395C43.9047 37.1426 44.5467 36.6714 44.6503 35.9848C44.7396 35.395 44.785 34.791 44.785 34.1904C44.785 27.7222 39.5966 22.4429 33.163 22.295ZM30.2285 34.1982C30.9941 34.9634 32.0112 35.3848 33.0932 35.3848C33.5868 35.3848 34.0507 35.5771 34.3998 35.9258C35.12 36.6465 35.12 37.8188 34.3998 38.539C34.0507 38.8881 33.5868 39.08 33.0932 39.08C32.5995 39.08 32.1357 38.8881 31.7866 38.539C31.393 38.1455 31.1996 37.602 31.2548 37.0473C31.3237 36.3564 30.8198 35.7407 30.1293 35.6719C29.4379 35.6015 28.8222 36.1064 28.7534 36.7973C28.623 38.1054 29.0805 39.3881 30.0092 40.3164C30.5273 40.8349 31.1533 41.206 31.8364 41.4106V43.5161C27.1533 42.9926 23.5005 39.0112 23.5005 34.1909C23.5005 29.3706 27.1538 25.3897 31.8364 24.8658V27.482C31.2368 27.6768 30.6874 28.0108 30.2285 28.4693C29.4638 29.2344 29.0424 30.252 29.0424 31.334C29.0424 32.416 29.4638 33.4331 30.2285 34.1982Z" fill="#6C73E1"/>
<path d="M50.72 25.3902C50.4593 24.7466 49.7259 24.4366 49.0833 24.6968C48.4398 24.9571 48.1297 25.69 48.39 26.3336L48.4119 26.3878C48.6102 26.877 49.0804 27.1734 49.5775 27.1734C49.7347 27.1734 49.8943 27.1436 50.0486 27.0811C50.6922 26.8209 51.0027 26.088 50.742 25.4444L50.72 25.3902Z" fill="#6C73E1"/>
<path d="M42.7166 39.9618C42.4563 39.3183 41.7234 39.0077 41.0798 39.268C40.4363 39.5283 40.1257 40.2612 40.386 40.9047L40.408 40.9594C40.6062 41.4487 41.0769 41.7455 41.5735 41.7455C41.7307 41.7455 41.8904 41.7157 42.0447 41.6532C42.6882 41.393 42.9988 40.6606 42.7385 40.0165L42.7166 39.9618Z" fill="#6C73E1"/>
<path d="M5.47995 17.9122C5.6777 18.4024 6.14889 18.6998 6.64645 18.6998C6.8027 18.6998 6.96188 18.6705 7.11569 18.6085C7.75924 18.3492 8.07126 17.6173 7.81198 16.9732L7.79001 16.9185C7.53073 16.2745 6.79782 15.963 6.15426 16.2223C5.51071 16.4815 5.1987 17.2135 5.45798 17.8575L5.47995 17.9122Z" fill="#6C73E1"/>
</g>
<defs>
<clipPath id="clip0">
<rect width="64" height="64" fill="white"/>
</clipPath>
</defs>
</svg>
