<svg width="64" height="64" viewBox="0 0 64 64" fill="none" xmlns="http://www.w3.org/2000/svg">
<path d="M39.5 9.5C39.5 5.3645 36.1355 2 32 2C27.8645 2 24.5 5.3645 24.5 9.5C24.5 13.6355 27.8645 17 32 17C36.1355 17 39.5 13.6355 39.5 9.5ZM32 14.5C29.243 14.5 27 12.257 27 9.5C27 6.743 29.243 4.5 32 4.5C34.757 4.5 37 6.743 37 9.5C37 12.257 34.757 14.5 32 14.5Z" fill="#6C73E1"/>
<path d="M43.25 33.25V28.25C43.25 22.0468 38.2033 17 32 17C25.7968 17 20.75 22.0468 20.75 28.25V33.25C20.75 33.9404 21.3098 34.5 22 34.5H42C42.6903 34.5 43.25 33.9404 43.25 33.25ZM40.75 32H23.25V28.25C23.25 23.4253 27.1753 19.5 32 19.5C36.8247 19.5 40.75 23.4253 40.75 28.25V32Z" fill="#6C73E1"/>
<path d="M8.98225 51.0143L15 54.0226V60.75C15 61.4404 15.5597 62 16.25 62H29.5C30.1903 62 30.75 61.4404 30.75 60.75V44.8475C30.75 40.8746 27.8185 37.4471 24.0761 37.0446C23.9767 37.0259 19.245 36.6733 16.9576 34.3874L13.5351 30.965C12.5906 30.0203 11.3351 29.5 10 29.5V19.5C10 16.743 7.757 14.5 5 14.5C2.243 14.5 0 16.743 0 19.5V36.48C0 42.6315 3.47475 48.2599 8.98225 51.0143ZM2.5 19.5C2.5 18.1215 3.6215 17 5 17C6.3785 17 7.5 18.1215 7.5 19.5V30.1701C5.9755 31.0516 5 32.6951 5 34.5C5 35.835 5.52025 37.0904 6.46488 38.035L12.8661 44.4375C13.354 44.9256 14.1456 44.9259 14.6339 44.4376C15.122 43.9495 15.1221 43.1581 14.634 42.6699L8.23275 36.2673C7.76025 35.7949 7.5 35.1672 7.5 34.5C7.5 33.442 8.16963 32.4945 9.1665 32.1424C9.16687 32.1423 9.16725 32.142 9.16763 32.1419H9.16775C10.0278 31.837 11.051 32.0162 11.7674 32.7326L15.1903 36.1555C17.5215 38.4851 20.9191 39.1404 23.7948 39.5288C23.7994 39.5293 23.8041 39.5299 23.8089 39.5304C26.2992 39.7981 28.25 42.1338 28.25 44.8475V59.5H17.5V53.25C17.5 52.7765 17.2324 52.3436 16.809 52.132L10.1004 48.7783C5.41237 46.4336 2.5 41.7212 2.5 36.48V19.5Z" fill="#6C73E1"/>
<path d="M57.375 49.25C58.0654 49.25 58.625 48.6904 58.625 48C58.625 47.3096 58.0654 46.75 57.375 46.75C56.6846 46.75 56.125 47.3096 56.125 48C56.125 48.6904 56.6846 49.25 57.375 49.25Z" fill="#6C73E1"/>
<path d="M59 14.5C56.243 14.5 54 16.743 54 19.5V29.5C52.6649 29.5 51.4094 30.0202 50.4649 30.9649L47.0428 34.387C45.0478 36.3806 41.8117 36.713 39.9239 37.0448C36.1815 37.4473 33.25 40.8746 33.25 44.8475V60.75C33.25 61.4404 33.8098 62 34.5 62H47.75C48.4403 62 49 61.4404 49 60.75V54.0226L53.0913 51.9774C53.7086 51.6686 53.959 50.9179 53.6504 50.3003C53.3418 49.6829 52.5911 49.4325 51.9734 49.7411L47.191 52.1317C46.7676 52.3436 46.5 52.7765 46.5 53.25V59.5H35.75V44.8475C35.75 42.1338 37.7007 39.7981 40.1911 39.5303C40.1959 39.5298 40.2006 39.5293 40.2052 39.5286C43.1254 39.1343 46.481 38.4826 48.8101 36.1551L52.2326 32.7326C52.9481 32.0171 53.9717 31.8369 54.8322 32.1419H54.8324C54.8328 32.142 54.8331 32.1423 54.8335 32.1424C55.8304 32.4945 56.5 33.442 56.5 34.5C56.5 35.1672 56.2398 35.7949 55.7674 36.2675L49.3661 42.67C48.878 43.1582 48.8781 43.9496 49.3662 44.4378C49.8542 44.9258 50.6459 44.9259 51.134 44.4376L57.5353 38.0351C58.4798 37.0904 59 35.835 59 34.5C59 32.6951 58.0245 31.0516 56.5 30.1701V19.5C56.5 18.1215 57.6215 17 59 17C60.3785 17 61.5 18.1215 61.5 19.5V36.48C61.5 38.767 60.9229 41.0375 59.8309 43.046C59.501 43.6525 59.7254 44.4115 60.332 44.7412C60.9384 45.0709 61.6975 44.8466 62.0272 44.2401C63.3179 41.8664 64 39.1829 64 36.48V19.5C64 16.743 61.757 14.5 59 14.5Z" fill="#6C73E1"/>
</svg>
