<svg xmlns="http://www.w3.org/2000/svg" width="48" height="44" viewBox="0 0 48 44">
  <metadata><?xpacket begin="﻿" id="W5M0MpCehiHzreSzNTczkc9d"?>
<x:xmpmeta xmlns:x="adobe:ns:meta/" x:xmptk="Adobe XMP Core 5.6-c142 79.160924, 2017/07/13-01:06:39        ">
   <rdf:RDF xmlns:rdf="http://www.w3.org/1999/02/22-rdf-syntax-ns#">
      <rdf:Description rdf:about=""/>
   </rdf:RDF>
</x:xmpmeta>
                                                                                                    
                                                                                                    
                                                                                                    
                                                                                                    
                                                                                                    
                                                                                                    
                                                                                                    
                                                                                                    
                                                                                                    
                                                                                                    
                                                                                                    
                                                                                                    
                                                                                                    
                                                                                                    
                                                                                                    
                                                                                                    
                                                                                                    
                                                                                                    
                                                                                                    
                                                                                                    
                           
<?xpacket end="w"?></metadata>
<defs>
    <style>
      .cls-1 {
        fill: #005bac;
        fill-rule: evenodd;
      }
    </style>
  </defs>
  <path class="cls-1" d="M1072.82,4265.49a3.615,3.615,0,0,0-3.6-.02,0.218,0.218,0,0,0-.08.05l-10.42,7.2a3.582,3.582,0,0,0-1.51,2.92v1.21a1.511,1.511,0,0,1-1.53,1.53h-5.11a3.524,3.524,0,0,0-3.57,3.55v10.14a3.524,3.524,0,0,0,3.57,3.55h2.56a1.015,1.015,0,1,0,0-2.03h-2.56a1.509,1.509,0,0,1-1.53-1.52v-10.14a1.517,1.517,0,0,1,1.53-1.53h5.11a3.524,3.524,0,0,0,3.57-3.55v-1.21a1.566,1.566,0,0,1,.64-1.25l10.37-7.17a1.552,1.552,0,0,1,1.52.02,1.467,1.467,0,0,1,.75,1.3v28.6a1.02,1.02,0,1,0,2.04,0v-28.61A3.485,3.485,0,0,0,1072.82,4265.49Zm17.58,10.22a16.3,16.3,0,0,0-11.75-4.94,1.016,1.016,0,0,0-1.02,1.01v5.08a1.022,1.022,0,0,0,1.02,1.01,9.126,9.126,0,0,1,1.03,18.2V4293a6.085,6.085,0,0,0-1.03-12.09,1.015,1.015,0,1,0,0,2.03,4.06,4.06,0,1,1,0,8.12,1.016,1.016,0,0,0-1.02,1.01v5.08a1.016,1.016,0,0,0,1.02,1.01,11.155,11.155,0,0,0,1.03-22.27v-3.06a14.3,14.3,0,0,1,9.25,4.29,13.924,13.924,0,0,1,4.02,10.25,14.546,14.546,0,0,1-14.6,13.83h-4.8a1.024,1.024,0,0,0-1.02,1.02v3.24a1.47,1.47,0,0,1-.77,1.29,1.491,1.491,0,0,1-1.5.03l-10.37-7.17a1.566,1.566,0,0,1-.64-1.25v-13.9a1.02,1.02,0,0,0-2.04,0v13.9a3.564,3.564,0,0,0,1.51,2.91l10.42,7.21a0.435,0.435,0,0,0,.07.04,3.515,3.515,0,0,0,1.77.48,3.6,3.6,0,0,0,1.81-.49,3.5,3.5,0,0,0,1.78-3.05v-2.23h3.78a16.6,16.6,0,0,0,16.64-15.79A15.99,15.99,0,0,0,1090.4,4275.71Z" transform="translate(-1047 -4265)"/>
</svg>
