<svg xmlns="http://www.w3.org/2000/svg" width="48" height="48" viewBox="0 0 48 48">
  <metadata><?xpacket begin="﻿" id="W5M0MpCehiHzreSzNTczkc9d"?>
<x:xmpmeta xmlns:x="adobe:ns:meta/" x:xmptk="Adobe XMP Core 5.6-c142 79.160924, 2017/07/13-01:06:39        ">
   <rdf:RDF xmlns:rdf="http://www.w3.org/1999/02/22-rdf-syntax-ns#">
      <rdf:Description rdf:about=""/>
   </rdf:RDF>
</x:xmpmeta>
                                                                                                    
                                                                                                    
                                                                                                    
                                                                                                    
                                                                                                    
                                                                                                    
                                                                                                    
                                                                                                    
                                                                                                    
                                                                                                    
                                                                                                    
                                                                                                    
                                                                                                    
                                                                                                    
                                                                                                    
                                                                                                    
                                                                                                    
                                                                                                    
                                                                                                    
                                                                                                    
                           
<?xpacket end="w"?></metadata>
<defs>
    <style>
      .cls-1 {
        fill: #005bac;
        fill-rule: evenodd;
      }
    </style>
  </defs>
  <path class="cls-1" d="M421.425,2989.87H417l-0.345-.83,3.143-3.14a3.546,3.546,0,0,0,0-5.07l-3.626-3.63a3.55,3.55,0,0,0-5.07,0l-3.143,3.14-0.833-.34v-4.43a3.535,3.535,0,0,0-3.574-3.57h-5.106a3.535,3.535,0,0,0-3.575,3.57V2980l-0.833.34-3.143-3.14a3.548,3.548,0,0,0-5.069,0l-3.626,3.63a3.548,3.548,0,0,0,0,5.07l3.143,3.14-0.345.83h-4.425a3.537,3.537,0,0,0-3.574,3.58v5.1a3.537,3.537,0,0,0,3.574,3.58H385l0.345,0.83-3.143,3.14a3.548,3.548,0,0,0,0,5.07l3.626,3.63a3.548,3.548,0,0,0,5.069,0l3.143-3.15,0.833,0.35v4.42a3.538,3.538,0,0,0,3.575,3.58h5.106a3.538,3.538,0,0,0,3.575-3.58V3012l0.832-.34,3.143,3.14a3.55,3.55,0,0,0,5.07,0l3.626-3.63a3.546,3.546,0,0,0,0-5.07l-7-6.99a1.612,1.612,0,0,1-.408-1.54l0.144-.43a5.977,5.977,0,0,0,.252-2.37A11.847,11.847,0,1,0,401,3007.85a1.025,1.025,0,0,0,0-2.05,9.75,9.75,0,0,1-9.754-10.37,9.788,9.788,0,0,1,19.51-.47,3.89,3.89,0,0,1-.154,1.53l-0.154.46a0.508,0.508,0,0,1-.014.05,3.643,3.643,0,0,0,.925,3.55l7,7a1.507,1.507,0,0,1,0,2.18l-3.626,3.62a1.5,1.5,0,0,1-2.181,0l-3.626-3.62a1.023,1.023,0,0,0-1.114-.22l-2.093.86a1.036,1.036,0,0,0-.63.95v5.1a1.521,1.521,0,0,1-1.532,1.54h-5.106a1.522,1.522,0,0,1-1.532-1.54v-5.1a1.036,1.036,0,0,0-.63-0.95l-2.094-.86a1.021,1.021,0,0,0-1.113.22l-3.626,3.62a1.5,1.5,0,0,1-2.181,0l-3.625-3.62a1.507,1.507,0,0,1,0-2.18l3.625-3.63a1.015,1.015,0,0,0,.222-1.11l-0.868-2.1a1.024,1.024,0,0,0-.944-0.63h-5.107a1.513,1.513,0,0,1-1.531-1.53v-5.1a1.522,1.522,0,0,1,1.531-1.54h5.107a1.01,1.01,0,0,0,.944-0.63l0.868-2.09a1.015,1.015,0,0,0-.222-1.11l-3.625-3.63a1.507,1.507,0,0,1,0-2.18l3.625-3.63a1.511,1.511,0,0,1,2.181,0l3.626,3.63a1.021,1.021,0,0,0,1.113.22l2.094-.87a1.012,1.012,0,0,0,.63-0.94v-5.11a1.513,1.513,0,0,1,1.532-1.53h5.106a1.513,1.513,0,0,1,1.532,1.53v5.11a1.011,1.011,0,0,0,.629.94l2.094,0.87a1.023,1.023,0,0,0,1.114-.22l3.626-3.62a1.5,1.5,0,0,1,2.181,0l3.626,3.62a1.507,1.507,0,0,1,0,2.18l-3.626,3.63a1.015,1.015,0,0,0-.222,1.11l0.868,2.09a1.01,1.01,0,0,0,.944.63h5.106a1.521,1.521,0,0,1,1.532,1.54v5.1a1.513,1.513,0,0,1-1.532,1.53,1.025,1.025,0,0,0,0,2.05,3.538,3.538,0,0,0,3.575-3.58v-5.1A3.538,3.538,0,0,0,421.425,2989.87Z" transform="translate(-377 -2972)"/>
</svg>
