<svg xmlns="http://www.w3.org/2000/svg" width="47" height="47" viewBox="0 0 47 47">
  <metadata><?xpacket begin="﻿" id="W5M0MpCehiHzreSzNTczkc9d"?>
<x:xmpmeta xmlns:x="adobe:ns:meta/" x:xmptk="Adobe XMP Core 5.6-c142 79.160924, 2017/07/13-01:06:39        ">
   <rdf:RDF xmlns:rdf="http://www.w3.org/1999/02/22-rdf-syntax-ns#">
      <rdf:Description rdf:about=""/>
   </rdf:RDF>
</x:xmpmeta>
                                                                                                    
                                                                                                    
                                                                                                    
                                                                                                    
                                                                                                    
                                                                                                    
                                                                                                    
                                                                                                    
                                                                                                    
                                                                                                    
                                                                                                    
                                                                                                    
                                                                                                    
                                                                                                    
                                                                                                    
                                                                                                    
                                                                                                    
                                                                                                    
                                                                                                    
                                                                                                    
                           
<?xpacket end="w"?></metadata>
<defs>
    <style>
      .cls-1 {
        fill: #005bac;
        fill-rule: evenodd;
      }
    </style>
  </defs>
  <path class="cls-1" d="M1081.8,3769.48h-22.47a1.02,1.02,0,1,0,0,2.04h22.47A1.02,1.02,0,1,0,1081.8,3769.48Zm0-6.13h-22.47a1.02,1.02,0,1,0,0,2.04h22.47A1.02,1.02,0,1,0,1081.8,3763.35Zm0,12.26h-22.47a1.02,1.02,0,1,0,0,2.04h22.47A1.02,1.02,0,1,0,1081.8,3775.61Zm2.05-28.61h-32.7a7.161,7.161,0,0,0-7.15,7.15v2.05a1.024,1.024,0,0,0,1.02,1.02h7.15v26.56h-7.15a1.024,1.024,0,0,0-1.02,1.02v2.05a7.161,7.161,0,0,0,7.15,7.15h32.7a7.161,7.161,0,0,0,7.15-7.15v-32.7A7.161,7.161,0,0,0,1083.85,3747Zm-32.7,44.96a5.126,5.126,0,0,1-5.11-5.11v-1.02h30.66v1.02a7.121,7.121,0,0,0,2.15,5.11h-27.7Zm37.81-5.11a5.11,5.11,0,0,1-10.22,0v-2.05a1.024,1.024,0,0,0-1.02-1.02h-23.5v-26.56h14.81v-2.05h-22.99v-1.02a5.119,5.119,0,0,1,5.11-5.11h27.7c3,0.09,3.34,0,5,0a5.119,5.119,0,0,1,5.11,5.11v32.7Z" transform="translate(-1044 -3747)"/>
</svg>
