<svg xmlns="http://www.w3.org/2000/svg" width="48" height="48" viewBox="0 0 48 48">
  <metadata><?xpacket begin="﻿" id="W5M0MpCehiHzreSzNTczkc9d"?>
<x:xmpmeta xmlns:x="adobe:ns:meta/" x:xmptk="Adobe XMP Core 5.6-c142 79.160924, 2017/07/13-01:06:39        ">
   <rdf:RDF xmlns:rdf="http://www.w3.org/1999/02/22-rdf-syntax-ns#">
      <rdf:Description rdf:about=""/>
   </rdf:RDF>
</x:xmpmeta>
                                                                                                    
                                                                                                    
                                                                                                    
                                                                                                    
                                                                                                    
                                                                                                    
                                                                                                    
                                                                                                    
                                                                                                    
                                                                                                    
                                                                                                    
                                                                                                    
                                                                                                    
                                                                                                    
                                                                                                    
                                                                                                    
                                                                                                    
                                                                                                    
                                                                                                    
                                                                                                    
                           
<?xpacket end="w"?></metadata>
<defs>
    <style>
      .cls-1 {
        fill: #005bac;
        fill-rule: evenodd;
      }
    </style>
  </defs>
  <path class="cls-1" d="M443.918,3505.89l-13.771-13.83a3.526,3.526,0,0,0-2.56-1.06H415.894a1.02,1.02,0,1,0,0,2.04h11.693a1.484,1.484,0,0,1,1.115.47l13.787,13.84,0.04,0.03a1.384,1.384,0,0,1,.428,1.03v19.36a9.206,9.206,0,0,1-9.191,9.19H408.234a9.206,9.206,0,0,1-9.192-9.19v-25.54a9.2,9.2,0,0,1,8.171-9.13v6.58a3.535,3.535,0,0,0,3.574,3.57h22.979a1.02,1.02,0,1,0,0-2.04H410.787a1.513,1.513,0,0,1-1.532-1.53v-7.66a1.023,1.023,0,0,0-1.021-1.02A11.246,11.246,0,0,0,397,3502.23v25.54A11.246,11.246,0,0,0,408.234,3539h25.532A11.246,11.246,0,0,0,445,3527.77v-19.36A3.415,3.415,0,0,0,443.918,3505.89Zm-22.918.43a8.68,8.68,0,1,0,8.681,8.68A8.688,8.688,0,0,0,421,3506.32Zm0,15.32a6.64,6.64,0,1,1,6.638-6.64A6.647,6.647,0,0,1,421,3521.64Z" transform="translate(-397 -3491)"/>
</svg>
