<svg width="48" height="48" viewBox="0 0 48 48" fill="none" xmlns="http://www.w3.org/2000/svg">
<path d="M41.4555 0H6.54471C4.23771 0 2.36084 1.87687 2.36084 4.18388C2.36084 4.40841 2.37875 4.63331 2.4139 4.85109C2.55331 5.72297 2.95868 6.51544 3.58587 7.14263C4.14997 7.70681 4.84746 8.08875 5.60721 8.26172V47.0625C5.60721 47.5803 6.02703 48 6.54471 48H41.4556C41.9733 48 42.3931 47.5803 42.3931 47.0625V39.6435H44.702C45.2197 39.6435 45.6395 39.2238 45.6395 38.706V4.18388C45.6394 1.87687 43.7625 0 41.4555 0ZM4.91168 5.81672C4.56546 5.47069 4.34206 5.03447 4.26518 4.55363C4.24568 4.43287 4.23584 4.30856 4.23584 4.18388C4.23584 2.91075 5.27159 1.875 6.54471 1.875H37.9657C37.9334 1.92347 37.9027 1.97269 37.8726 2.02238C37.8636 2.03719 37.8551 2.05219 37.8463 2.06709C37.8234 2.10609 37.8011 2.14547 37.7794 2.18513C37.7702 2.202 37.761 2.21887 37.752 2.23594C37.7278 2.28188 37.7045 2.32819 37.682 2.37497C37.678 2.38341 37.6736 2.39166 37.6696 2.40009C37.6438 2.45475 37.6196 2.50997 37.5962 2.56566C37.5895 2.58178 37.5832 2.598 37.5766 2.61413C37.5597 2.65603 37.5434 2.69812 37.5279 2.74059C37.5214 2.75822 37.5149 2.77584 37.5087 2.79356C37.4907 2.84494 37.4735 2.89659 37.4575 2.94872C37.4555 2.95509 37.4532 2.96137 37.4514 2.96784C37.4338 3.02597 37.4178 3.08466 37.4028 3.14363C37.3985 3.16078 37.3945 3.17794 37.3903 3.19509C37.3797 3.23925 37.3698 3.28359 37.3605 3.32812C37.3568 3.34641 37.3529 3.36459 37.3494 3.38287C37.3384 3.43969 37.3284 3.49678 37.3197 3.55425C37.3192 3.55781 37.3185 3.56128 37.318 3.56484C37.309 3.62578 37.3017 3.687 37.2955 3.74859C37.2936 3.7665 37.2922 3.78441 37.2906 3.80241C37.2865 3.84853 37.2831 3.89475 37.2804 3.94116C37.2793 3.95944 37.2782 3.97772 37.2774 3.996C37.2747 4.05844 37.2728 4.12097 37.2728 4.18388C37.2728 4.24284 37.2742 4.30172 37.2766 4.36059C37.2775 4.38188 37.2792 4.40287 37.2804 4.42397C37.2825 4.46156 37.2846 4.49925 37.2878 4.53666C37.2897 4.56037 37.2925 4.58381 37.2948 4.60734C37.2983 4.64203 37.3018 4.67662 37.3062 4.71112C37.3093 4.73616 37.3131 4.761 37.3167 4.78594C37.3198 4.80769 37.3224 4.82962 37.3258 4.85119C37.3272 4.85953 37.3291 4.86769 37.3305 4.87594C37.3389 4.92572 37.3483 4.97522 37.3584 5.02434C37.3624 5.04431 37.366 5.06456 37.3703 5.08444C37.3837 5.14528 37.3984 5.20556 37.4144 5.26538C37.4252 5.30606 37.4375 5.34619 37.4495 5.38641C37.4555 5.40647 37.4613 5.42663 37.4676 5.4465C37.4824 5.49347 37.4981 5.53997 37.5146 5.58619C37.5175 5.59444 37.5205 5.60269 37.5235 5.61084C37.6363 5.92303 37.7841 6.21919 37.9647 6.49266H6.54471C5.92756 6.49266 5.34753 6.25256 4.91168 5.81672ZM40.5181 46.125H7.48221V8.36775H40.5181V46.125ZM43.7644 37.7685H42.393V7.43025C42.393 6.91247 41.9732 6.49275 41.4555 6.49275C41.3961 6.49275 41.3369 6.48975 41.2781 6.48525C41.2672 6.48441 41.2562 6.48375 41.2453 6.48272C41.1892 6.47766 41.1333 6.47044 41.0778 6.46125C41.0664 6.45937 41.0551 6.45722 41.0438 6.45516C40.9875 6.44503 40.9316 6.43331 40.8762 6.41897C40.8702 6.41747 40.8645 6.41559 40.8587 6.414C40.8076 6.40031 40.757 6.38456 40.7067 6.36731C40.6945 6.36309 40.6821 6.35925 40.6699 6.35484C40.6314 6.34097 40.5935 6.32597 40.5561 6.31012C40.53 6.29906 40.5044 6.28716 40.4788 6.27516C40.4673 6.26981 40.4558 6.26438 40.4443 6.25884C39.858 5.97159 39.411 5.44284 39.2328 4.80291C39.2269 4.78153 39.221 4.76025 39.2157 4.73869C39.2107 4.71844 39.206 4.698 39.2015 4.67756C39.1947 4.64644 39.1887 4.61503 39.1831 4.58344C39.1809 4.57059 39.1782 4.55784 39.1763 4.545C39.1681 4.49325 39.162 4.44084 39.1574 4.38797C39.1563 4.37503 39.1554 4.36191 39.1544 4.34888C39.1506 4.29413 39.1479 4.23919 39.1479 4.18397C39.1479 3.56681 39.388 2.98678 39.8231 2.55169C40.2604 2.11528 40.8402 1.875 41.4555 1.875C42.7287 1.875 43.7644 2.91075 43.7644 4.18388V37.7685Z" fill="white"/>
<path d="M37.0227 12.5457C37.0105 12.4857 36.9927 12.4267 36.9692 12.3704C36.9458 12.3142 36.9167 12.2588 36.883 12.2082C36.8483 12.1567 36.8098 12.1088 36.7667 12.0657C36.7227 12.0226 36.6749 11.9832 36.6233 11.9495C36.5727 11.9157 36.5184 11.8867 36.462 11.8632C36.4048 11.8398 36.3468 11.822 36.2867 11.8098C36.1658 11.7854 36.0411 11.7854 35.9202 11.8098C35.8602 11.822 35.8011 11.8398 35.7449 11.8632C35.6886 11.8867 35.6342 11.9157 35.5828 11.9495C35.5321 11.9832 35.4834 12.0226 35.4403 12.0657C35.397 12.1088 35.3577 12.1567 35.324 12.2082C35.2903 12.2588 35.2612 12.3142 35.2378 12.3704C35.2143 12.4267 35.1965 12.4857 35.1843 12.5457C35.1721 12.6057 35.1665 12.6676 35.1665 12.7285C35.1665 12.7904 35.1722 12.8513 35.1843 12.9123C35.1965 12.9723 35.2143 13.0304 35.2378 13.0876C35.2612 13.1439 35.2903 13.1982 35.324 13.2489C35.3577 13.3004 35.397 13.3482 35.4403 13.3913C35.4834 13.4354 35.532 13.4739 35.5828 13.5085C35.6343 13.5423 35.6887 13.5713 35.7449 13.5948C35.8012 13.6182 35.8602 13.636 35.9202 13.6482C35.9811 13.6604 36.0421 13.666 36.1039 13.666C36.1648 13.666 36.2259 13.6604 36.2867 13.6482C36.3468 13.636 36.4059 13.6182 36.462 13.5948C36.5184 13.5713 36.5727 13.5423 36.6233 13.5085C36.6749 13.4739 36.7228 13.4354 36.7667 13.3913C36.8098 13.3482 36.8483 13.3004 36.883 13.2489C36.9167 13.1982 36.9458 13.1439 36.9692 13.0876C36.9927 13.0304 37.0105 12.9723 37.0227 12.9123C37.0348 12.8513 37.0413 12.7904 37.0413 12.7285C37.0413 12.6676 37.0348 12.6057 37.0227 12.5457Z" fill="white"/>
<path d="M32.7276 11.7913H23.3384C22.8207 11.7913 22.4009 12.211 22.4009 12.7288C22.4009 13.2465 22.8207 13.6663 23.3384 13.6663H32.7276C33.2453 13.6663 33.6651 13.2465 33.6651 12.7288C33.6651 12.211 33.2453 11.7913 32.7276 11.7913Z" fill="white"/>
<path d="M36.1034 15.6138H23.3384C22.8207 15.6138 22.4009 16.0335 22.4009 16.5513C22.4009 17.0691 22.8207 17.4888 23.3384 17.4888H36.1034C36.6211 17.4888 37.0409 17.0691 37.0409 16.5513C37.0409 16.0335 36.6211 15.6138 36.1034 15.6138Z" fill="white"/>
<path d="M15.5548 9.61353C12.7832 9.61353 10.5283 11.8684 10.5283 14.64C10.5283 17.4117 12.7832 19.6666 15.5548 19.6666C18.3264 19.6666 20.5814 17.4117 20.5814 14.64C20.5814 11.8685 18.3264 9.61353 15.5548 9.61353ZM15.5548 17.7916C13.8171 17.7916 12.4033 16.3778 12.4033 14.64C12.4033 12.9023 13.8171 11.4885 15.5548 11.4885C17.2926 11.4885 18.7064 12.9023 18.7064 14.64C18.7064 16.3778 17.2926 17.7916 15.5548 17.7916Z" fill="white"/>
<path d="M17.6163 13.171C17.2501 12.8049 16.6566 12.8049 16.2904 13.1711L15.1194 14.3422L14.5108 14.0934C14.0313 13.8974 13.4842 14.1271 13.2883 14.6064C13.0922 15.0856 13.3219 15.6329 13.8013 15.829L14.9868 16.3136C15.1017 16.3605 15.2221 16.3834 15.3414 16.3834C15.5854 16.3834 15.8252 16.288 16.0045 16.1087L17.6163 14.4969C17.9823 14.1308 17.9823 13.5371 17.6163 13.171Z" fill="white"/>
<path d="M36.7667 24.4642C36.7228 24.421 36.6749 24.3817 36.6233 24.347C36.5727 24.3132 36.5184 24.2851 36.462 24.2617C36.4058 24.2382 36.3468 24.2195 36.2867 24.2082C36.1658 24.1838 36.0411 24.1838 35.9202 24.2082C35.8602 24.2195 35.8011 24.2382 35.7449 24.2617C35.6886 24.2851 35.6342 24.3132 35.5828 24.347C35.5321 24.3817 35.4834 24.421 35.4403 24.4642C35.397 24.5073 35.3577 24.5551 35.324 24.6067C35.2903 24.6573 35.2612 24.7117 35.2378 24.7679C35.2143 24.8251 35.1965 24.8842 35.1843 24.9442C35.1721 25.0042 35.1665 25.066 35.1665 25.127C35.1665 25.1879 35.1722 25.2498 35.1843 25.3098C35.1965 25.3698 35.2143 25.4288 35.2378 25.4851C35.2612 25.5423 35.2903 25.5967 35.324 25.6473C35.3577 25.6988 35.397 25.7467 35.4403 25.7898C35.4834 25.8329 35.532 25.8723 35.5828 25.906C35.6343 25.9398 35.6887 25.9688 35.7449 25.9923C35.8012 26.0157 35.8602 26.0335 35.9202 26.0457C35.9811 26.0579 36.0421 26.0645 36.1039 26.0645C36.1648 26.0645 36.2259 26.0579 36.2867 26.0457C36.3468 26.0335 36.4059 26.0157 36.462 25.9923C36.5184 25.9688 36.5727 25.9398 36.6233 25.906C36.6749 25.8723 36.7228 25.8329 36.7667 25.7898C36.9411 25.6154 37.0414 25.3735 37.0414 25.127C37.0414 24.8804 36.9411 24.6385 36.7667 24.4642Z" fill="white"/>
<path d="M32.7276 24.1892H23.3384C22.8207 24.1892 22.4009 24.6089 22.4009 25.1267C22.4009 25.6445 22.8207 26.0642 23.3384 26.0642H32.7276C33.2453 26.0642 33.6651 25.6445 33.6651 25.1267C33.6651 24.6089 33.2453 24.1892 32.7276 24.1892Z" fill="white"/>
<path d="M36.1034 28.0117H23.3384C22.8207 28.0117 22.4009 28.4314 22.4009 28.9492C22.4009 29.467 22.8207 29.8867 23.3384 29.8867H36.1034C36.6211 29.8867 37.0409 29.467 37.0409 28.9492C37.0409 28.4314 36.6211 28.0117 36.1034 28.0117Z" fill="white"/>
<path d="M15.5548 22.0115C12.7832 22.0115 10.5283 24.2664 10.5283 27.0381C10.5283 29.8097 12.7832 32.0646 15.5548 32.0646C18.3264 32.0646 20.5814 29.8097 20.5814 27.0381C20.5814 24.2664 18.3264 22.0115 15.5548 22.0115ZM15.5548 30.1896C13.8171 30.1896 12.4033 28.7758 12.4033 27.0381C12.4033 25.3003 13.8171 23.8865 15.5548 23.8865C17.2926 23.8865 18.7064 25.3003 18.7064 27.0381C18.7064 28.7758 17.2926 30.1896 15.5548 30.1896Z" fill="white"/>
<path d="M17.6163 25.5693C17.2501 25.2031 16.6567 25.2031 16.2905 25.5692L15.1194 26.7404L14.5108 26.4915C14.0311 26.2955 13.4842 26.5254 13.2882 27.0045C13.0923 27.4838 13.322 28.0312 13.8013 28.2271L14.9869 28.7118C15.1017 28.7587 15.2221 28.7816 15.3414 28.7816C15.5855 28.7816 15.8252 28.6862 16.0045 28.507L17.6163 26.8952C17.9824 26.5291 17.9824 25.9355 17.6163 25.5693Z" fill="white"/>
<path d="M37.0227 37.3416C37.0105 37.2816 36.9927 37.2226 36.9692 37.1663C36.9458 37.1091 36.9167 37.0547 36.883 37.0041C36.8483 36.9526 36.8098 36.9047 36.7667 36.8616C36.7227 36.8185 36.6749 36.7791 36.6233 36.7454C36.5727 36.7116 36.5184 36.6826 36.462 36.6591C36.4048 36.6357 36.3468 36.6179 36.2867 36.6057C36.1658 36.5813 36.0411 36.5813 35.9202 36.6057C35.8602 36.6179 35.8011 36.6357 35.7449 36.6591C35.6886 36.6826 35.6342 36.7116 35.5828 36.7454C35.5321 36.7791 35.4834 36.8185 35.4403 36.8616C35.397 36.9047 35.3577 36.9526 35.324 37.0041C35.2903 37.0547 35.2612 37.1091 35.2378 37.1663C35.2143 37.2226 35.1965 37.2816 35.1843 37.3416C35.1721 37.4016 35.1665 37.4635 35.1665 37.5244C35.1665 37.5854 35.1722 37.6472 35.1843 37.7082C35.1965 37.7672 35.2143 37.8263 35.2378 37.8835C35.2612 37.9397 35.2903 37.9941 35.324 38.0447C35.3577 38.0963 35.397 38.1441 35.4403 38.1872C35.4834 38.2304 35.532 38.2697 35.5828 38.3044C35.6343 38.3382 35.6887 38.3672 35.7449 38.3907C35.8012 38.4141 35.8602 38.4319 35.9202 38.4441C35.9811 38.4563 36.0421 38.4619 36.1039 38.4619C36.1648 38.4619 36.2259 38.4563 36.2867 38.4441C36.3468 38.4319 36.4059 38.4141 36.462 38.3907C36.5184 38.3672 36.5727 38.3382 36.6233 38.3044C36.6749 38.2697 36.7228 38.2304 36.7667 38.1872C36.8098 38.1441 36.8483 38.0963 36.883 38.0447C36.9167 37.9941 36.9458 37.9397 36.9692 37.8835C36.9927 37.8263 37.0105 37.7672 37.0227 37.7082C37.0348 37.6472 37.0413 37.5854 37.0413 37.5244C37.0413 37.4635 37.0348 37.4016 37.0227 37.3416Z" fill="white"/>
<path d="M32.7276 36.5872H23.3384C22.8207 36.5872 22.4009 37.0069 22.4009 37.5247C22.4009 38.0424 22.8207 38.4622 23.3384 38.4622H32.7276C33.2453 38.4622 33.6651 38.0424 33.6651 37.5247C33.6651 37.0069 33.2453 36.5872 32.7276 36.5872Z" fill="white"/>
<path d="M36.1034 40.4099H23.3384C22.8207 40.4099 22.4009 40.8296 22.4009 41.3474C22.4009 41.8652 22.8207 42.2849 23.3384 42.2849H36.1034C36.6211 42.2849 37.0409 41.8652 37.0409 41.3474C37.0409 40.8296 36.6212 40.4099 36.1034 40.4099Z" fill="white"/>
<path d="M15.5548 34.4094C12.7832 34.4094 10.5283 36.6643 10.5283 39.4359C10.5283 42.2076 12.7832 44.4625 15.5548 44.4625C18.3264 44.4625 20.5814 42.2076 20.5814 39.4359C20.5814 36.6643 18.3264 34.4094 15.5548 34.4094ZM15.5548 42.5875C13.8171 42.5875 12.4033 41.1737 12.4033 39.4359C12.4033 37.6982 13.8171 36.2844 15.5548 36.2844C17.2926 36.2844 18.7064 37.6982 18.7064 39.4359C18.7064 41.1737 17.2926 42.5875 15.5548 42.5875Z" fill="white"/>
<path d="M17.6163 37.9672C17.2501 37.6011 16.6567 37.6011 16.2905 37.9672L15.1194 39.1383L14.5108 38.8895C14.0311 38.6935 13.4842 38.9233 13.2882 39.4025C13.0923 39.8818 13.322 40.4292 13.8013 40.6251L14.9869 41.1098C15.1017 41.1567 15.2221 41.1795 15.3414 41.1795C15.5855 41.1795 15.8252 41.0842 16.0045 40.9049L17.6163 39.293C17.9824 38.9269 17.9824 38.3333 17.6163 37.9672Z" fill="white"/>
</svg>
