<svg width="64" height="64" viewBox="0 0 64 64" fill="none" xmlns="http://www.w3.org/2000/svg">
<g clip-path="url(#clip0)">
<path d="M0.512561 37.9406C0.017537 38.715 -0.128065 39.6622 0.111528 40.5495C0.351121 41.4368 0.953703 42.1819 1.77123 42.6019L7.3819 45.5032C7.78091 45.7052 8.02343 46.1233 8.00056 46.5699L7.7019 52.8952C7.66217 53.8121 8.00902 54.7036 8.65795 55.3525C9.30689 56.0015 10.1984 56.3483 11.1152 56.3086L17.4406 56.0099C17.8872 55.987 18.3053 56.2296 18.5072 56.6286L21.4086 62.2392C21.831 63.0543 22.5761 63.6547 23.4624 63.894C24.3486 64.1333 25.2947 63.9896 26.0699 63.4979L31.4032 60.0739C31.7748 59.84 32.2476 59.84 32.6192 60.0739L37.9526 63.4979C38.7278 63.9896 39.6738 64.1333 40.5601 63.894C41.4464 63.6547 42.1915 63.0543 42.6139 62.2392L45.5152 56.6286C45.7035 56.2169 46.1311 55.9689 46.5819 56.0099L52.9072 56.3086C53.8241 56.3483 54.7156 56.0015 55.3645 55.3525C56.0134 54.7036 56.3603 53.8121 56.3206 52.8952L56.0219 46.5699C55.999 46.1233 56.2415 45.7052 56.6406 45.5032L62.2512 42.6019C63.0663 42.1795 63.6666 41.4344 63.906 40.5481C64.1453 39.6618 64.0016 38.7158 63.5099 37.9406L60.0859 32.6072C59.852 32.2357 59.852 31.7628 60.0859 31.3912L63.5099 26.0579C64.0049 25.2835 64.1505 24.3363 63.9109 23.449C63.6713 22.5617 63.0688 21.8165 62.2512 21.3966L56.6406 18.4953C56.2415 18.2933 55.999 17.8752 56.0219 17.4286L56.3206 11.1033C56.3603 10.1864 56.0134 9.29491 55.3645 8.64598C54.7156 7.99704 53.8241 7.6502 52.9072 7.68992L46.5819 7.98858C46.1353 8.01145 45.7171 7.76894 45.5152 7.36992L42.6032 1.76992C42.1808 0.954849 41.4357 0.354507 40.5494 0.115193C39.6632 -0.124122 38.7171 0.0195706 37.9419 0.511252L32.6086 3.93525C32.237 4.16915 31.7642 4.16915 31.3926 3.93525L26.0592 0.511252C25.284 0.0195706 24.338 -0.124122 23.4517 0.115193C22.5654 0.354507 21.8203 0.954849 21.3979 1.76992L18.4966 7.38058C18.2968 7.78159 17.8772 8.02494 17.4299 7.99925L11.1046 7.70058C10.1877 7.66086 9.29622 8.00771 8.64729 8.65664C7.99835 9.30558 7.65151 10.197 7.69123 11.1139L7.98989 17.4393C8.01276 17.8859 7.77025 18.304 7.37123 18.5059L1.77123 21.3966C0.956158 21.819 0.355816 22.5641 0.116502 23.4504C-0.122813 24.3366 0.0208796 25.2827 0.512561 26.0579L3.93656 31.3912C4.17046 31.7628 4.17046 32.2357 3.93656 32.6072L0.512561 37.9406ZM5.72856 30.2392L2.31523 24.9059C2.14446 24.6391 2.09342 24.313 2.17452 24.0068C2.25563 23.7006 2.46145 23.4425 2.74189 23.2952L8.36323 20.3939C9.4954 19.8013 10.1848 18.6094 10.1339 17.3326L9.83523 11.0179C9.81982 10.6994 9.9396 10.3892 10.1651 10.1638C10.3905 9.93829 10.7007 9.8185 11.0192 9.83392L17.3339 10.1326C18.6121 10.1888 19.8066 9.49788 20.3952 8.36192L23.2966 2.74059C23.4274 2.44403 23.686 2.22305 23.9993 2.14005C24.3127 2.05705 24.6467 2.12103 24.9072 2.31392L30.2406 5.72725C31.3149 6.40885 32.6862 6.40885 33.7606 5.72725L39.0939 2.31392C39.3607 2.14315 39.6868 2.09211 39.993 2.17321C40.2992 2.25432 40.5573 2.46014 40.7046 2.74059L43.6059 8.36192C44.2024 9.49036 45.3917 10.1782 46.6672 10.1326L52.9819 9.83392C53.3004 9.8185 53.6106 9.93829 53.8361 10.1638C54.0615 10.3892 54.1813 10.6994 54.1659 11.0179L53.8672 17.3326C53.8163 18.6094 54.5057 19.8013 55.6379 20.3939L61.2592 23.2952C61.5397 23.4425 61.7455 23.7006 61.8266 24.0068C61.9077 24.313 61.8567 24.6391 61.6859 24.9059L58.2726 30.2392C57.591 31.3136 57.591 32.6849 58.2726 33.7592L61.6859 39.0926C61.8567 39.3593 61.9077 39.6855 61.8266 39.9917C61.7455 40.2979 61.5397 40.556 61.2592 40.7032L55.6379 43.6046C54.5057 44.1972 53.8163 45.389 53.8672 46.6659L54.1659 52.9806C54.1813 53.2991 54.0615 53.6093 53.8361 53.8347C53.6106 54.0602 53.3004 54.18 52.9819 54.1646L46.6672 53.8659C45.3904 53.815 44.1985 54.5044 43.6059 55.6366L40.7046 61.2579C40.5573 61.5383 40.2992 61.7442 39.993 61.8253C39.6868 61.9064 39.3607 61.8553 39.0939 61.6846L33.7606 58.2712C32.6862 57.5896 31.3149 57.5896 30.2406 58.2712L24.9072 61.6846C24.6405 61.8553 24.3143 61.9064 24.0081 61.8253C23.7019 61.7442 23.4438 61.5383 23.2966 61.2579L20.3952 55.6366C19.8323 54.5531 18.7149 53.8711 17.4939 53.8659L11.0192 54.1646C10.7007 54.18 10.3905 54.0602 10.1651 53.8347C9.9396 53.6093 9.81982 53.2991 9.83523 52.9806L10.1339 46.6659C10.1848 45.389 9.4954 44.1972 8.36323 43.6046L2.74189 40.7032C2.46145 40.556 2.25563 40.2979 2.17452 39.9917C2.09342 39.6855 2.14446 39.3593 2.31523 39.0926L5.72856 33.7592C6.41016 32.6849 6.41016 31.3136 5.72856 30.2392Z" fill="white"/>
<path d="M21.0027 13.7175C27.5928 9.7529 35.8067 9.64228 42.5011 13.4279C49.1956 17.2136 53.3342 24.3094 53.3334 32.0001C53.3517 36.7938 51.7379 41.4509 48.7574 45.2055C48.3921 45.6679 48.4709 46.3389 48.9334 46.7041C49.3958 47.0694 50.0668 46.9906 50.432 46.5281C62.4854 31.2535 51.5947 8.53345 32 8.53345C27.7387 8.53093 23.5572 9.68879 19.904 11.8828C19.4617 12.2045 19.3344 12.8087 19.6093 13.2816C19.8842 13.7544 20.4723 13.9427 20.9707 13.7175H21.0027Z" fill="white"/>
<path d="M45.7814 50.9973C46.09 50.7725 46.2553 50.4 46.2149 50.0203C46.1746 49.6405 45.9347 49.3112 45.5856 49.1563C45.2365 49.0014 44.8314 49.0444 44.5227 49.2693C30.56 59.4133 10.6667 49.472 10.6667 32C10.6489 26.2622 12.9581 20.7624 17.0667 16.7573C17.3728 16.4987 17.5082 16.0904 17.4172 15.7002C17.3262 15.31 17.0242 15.0037 16.6353 14.9072C16.2464 14.8107 15.8362 14.9402 15.5734 15.2426C11.0556 19.6455 8.51548 25.6916 8.53336 32C8.53336 51.2 30.4214 62.1546 45.7814 50.9973Z" fill="white"/>
<path d="M18.1334 45.8666C18.8341 46.586 19.7958 46.9917 20.8 46.9917C21.8043 46.9917 22.766 46.586 23.4667 45.8666L45.8667 23.4666C46.5624 22.7634 46.9467 21.8103 46.9333 20.8212C46.9535 19.2957 46.0461 17.9106 44.6395 17.3198C43.2329 16.729 41.6085 17.0508 40.5334 18.1332L18.1334 40.5332C17.4167 41.2354 17.0128 42.1965 17.0128 43.1999C17.0128 44.2032 17.4167 45.1644 18.1334 45.8666ZM19.648 42.1012L42.048 19.7012C42.4469 19.2732 43.0476 19.097 43.6145 19.2418C44.1814 19.3865 44.6241 19.8292 44.7688 20.3961C44.9136 20.963 44.7374 21.5637 44.3094 21.9626L21.9094 44.3626C21.5105 44.7906 20.9098 44.9668 20.3429 44.8221C19.776 44.6773 19.3333 44.2346 19.1885 43.6677C19.0438 43.1008 19.22 42.5001 19.648 42.1012Z" fill="white"/>
<path d="M23.4667 26.6666C25.8231 26.6666 27.7334 24.7564 27.7334 22.4C27.7334 20.0436 25.8231 18.1333 23.4667 18.1333C21.1103 18.1333 19.2 20.0436 19.2 22.4C19.2 24.7564 21.1103 26.6666 23.4667 26.6666ZM23.4667 20.2666C24.6449 20.2666 25.6 21.2218 25.6 22.4C25.6 23.5782 24.6449 24.5333 23.4667 24.5333C22.2885 24.5333 21.3333 23.5782 21.3333 22.4C21.3333 21.2218 22.2885 20.2666 23.4667 20.2666Z" fill="white"/>
<path d="M36.2667 41.5999C36.2667 43.9563 38.177 45.8666 40.5334 45.8666C42.8898 45.8666 44.8001 43.9563 44.8001 41.5999C44.8001 39.2435 42.8898 37.3333 40.5334 37.3333C38.177 37.3333 36.2667 39.2435 36.2667 41.5999ZM42.6667 41.5999C42.6667 42.7781 41.7116 43.7333 40.5334 43.7333C39.3552 43.7333 38.4001 42.7781 38.4001 41.5999C38.4001 40.4217 39.3552 39.4666 40.5334 39.4666C41.7116 39.4666 42.6667 40.4217 42.6667 41.5999Z" fill="white"/>
</g>
<defs>
<clipPath id="clip0">
<rect width="64" height="64" fill="white"/>
</clipPath>
</defs>
</svg>
