<svg width="64" height="64" viewBox="0 0 64 64" fill="none" xmlns="http://www.w3.org/2000/svg">
<g clip-path="url(#clip0)">
<path d="M59.0848 16.2027L20.9931 2.33605C17.1175 0.936947 12.84 2.93383 11.424 6.80325L4.56107 25.6555C1.79862 26.8256 0.00294062 29.5334 0 32.5334V54.9334C0.00470255 59.0552 3.34489 62.3953 7.46667 62.4001H48C52.1218 62.3953 55.462 59.0552 55.4667 54.9334V47.7451C55.6263 47.446 55.7653 47.1363 55.8827 46.8182L63.5083 25.8923L63.552 25.7739C64.9538 21.8977 62.9562 17.6178 59.0848 16.2027ZM59.3536 31.0486L54.7552 29.3718C53.5289 26.7481 50.8961 25.0702 48 25.0667H42.9173L11.2448 13.5382L12.9707 8.79258L13.0645 8.53552L61.1808 26.0448L59.3536 31.0486ZM10.5131 15.5424L36.6816 25.0667H7.46667C7.3216 25.0667 7.17973 25.0806 7.04 25.0881L10.5131 15.5424ZM53.3333 54.9334C53.3298 57.8774 50.9441 60.2632 48 60.2667H7.46667C4.52261 60.2632 2.13686 57.8774 2.13333 54.9334V32.5334C2.13686 29.5893 4.52261 27.2036 7.46667 27.2001H48C50.9441 27.2036 53.3298 29.5893 53.3333 32.5334V54.9334ZM55.4667 41.7291V32.5334C55.4667 32.3201 55.4528 32.1067 55.4336 31.8934L58.6272 33.0582L55.4667 41.7291ZM61.8091 24L13.8965 6.56752C15.2258 4.41184 17.8838 3.48253 20.2667 4.34032L58.3573 18.207C60.7343 19.0773 62.175 21.4954 61.8091 24Z" fill="white"/>
<path d="M14.9334 41.0668C16.7007 41.0668 18.1334 39.6341 18.1334 37.8668V33.6001C18.1334 31.8328 16.7007 30.4001 14.9334 30.4001H8.53337C6.76606 30.4001 5.33337 31.8328 5.33337 33.6001V37.8668C5.33337 39.6341 6.76606 41.0668 8.53337 41.0668H14.9334ZM14.9334 38.9335H11.7334V36.8001H16V37.8668C16 38.4559 15.5225 38.9335 14.9334 38.9335ZM16 33.6001V34.6668H11.7334V32.5335H14.9334C15.5225 32.5335 16 33.011 16 33.6001ZM8.53337 32.5335H9.60004V34.6668H7.46671V33.6001C7.46671 33.011 7.94427 32.5335 8.53337 32.5335ZM7.46671 37.8668V36.8001H9.60004V38.9335H8.53337C7.94427 38.9335 7.46671 38.4559 7.46671 37.8668Z" fill="white"/>
<path d="M8.53328 47.4668C7.94418 47.4668 7.46661 47.9444 7.46661 48.5335C7.46661 49.1226 7.94418 49.6001 8.53328 49.6001H14.9333C15.5224 49.6001 16 49.1226 16 48.5335C16 47.9444 15.5224 47.4668 14.9333 47.4668H8.53328Z" fill="white"/>
<path d="M25.6 47.4668H19.2C18.6109 47.4668 18.1334 47.9444 18.1334 48.5335C18.1334 49.1226 18.6109 49.6001 19.2 49.6001H25.6C26.1891 49.6001 26.6667 49.1226 26.6667 48.5335C26.6667 47.9444 26.1891 47.4668 25.6 47.4668Z" fill="white"/>
<path d="M36.2668 47.4668H29.8668C29.2777 47.4668 28.8001 47.9444 28.8001 48.5335C28.8001 49.1226 29.2777 49.6001 29.8668 49.6001H36.2668C36.8559 49.6001 37.3334 49.1226 37.3334 48.5335C37.3334 47.9444 36.8559 47.4668 36.2668 47.4668Z" fill="white"/>
<path d="M46.9333 47.4668H40.5333C39.9442 47.4668 39.4666 47.9444 39.4666 48.5335C39.4666 49.1226 39.9442 49.6001 40.5333 49.6001H46.9333C47.5224 49.6001 48 49.1226 48 48.5335C48 47.9444 47.5224 47.4668 46.9333 47.4668Z" fill="white"/>
<path d="M10.6666 53.8667H8.53328C7.94418 53.8667 7.46661 54.3443 7.46661 54.9334C7.46661 55.5225 7.94418 56 8.53328 56H10.6666C11.2557 56 11.7333 55.5225 11.7333 54.9334C11.7333 54.3443 11.2557 53.8667 10.6666 53.8667Z" fill="white"/>
<path d="M18.1334 53.8667H16C15.4109 53.8667 14.9333 54.3443 14.9333 54.9334C14.9333 55.5225 15.4109 56 16 56H18.1334C18.7225 56 19.2 55.5225 19.2 54.9334C19.2 54.3443 18.7225 53.8667 18.1334 53.8667Z" fill="white"/>
<path d="M45.8667 31.4668C44.6367 31.4707 43.4691 32.0086 42.6667 32.9409C41.5006 31.5938 39.6203 31.1132 37.9508 31.7354C36.2813 32.3576 35.1742 33.9517 35.1742 35.7334C35.1742 37.5151 36.2813 39.1092 37.9508 39.7314C39.6203 40.3537 41.5006 39.873 42.6667 38.526C43.9586 40.0051 46.0944 40.4089 47.837 39.5035C49.5797 38.5981 50.4771 36.6183 50.0095 34.711C49.5419 32.8036 47.8305 31.4635 45.8667 31.4668ZM39.4667 37.8668C38.2885 37.8668 37.3334 36.9116 37.3334 35.7334C37.3334 34.5552 38.2885 33.6001 39.4667 33.6001C40.6449 33.6001 41.6001 34.5552 41.6001 35.7334C41.6001 36.9116 40.6449 37.8668 39.4667 37.8668ZM45.8667 37.8668C44.6885 37.8668 43.7334 36.9116 43.7334 35.7334C43.7334 34.5552 44.6885 33.6001 45.8667 33.6001C47.0449 33.6001 48.0001 34.5552 48.0001 35.7334C48.0001 36.9116 47.0449 37.8668 45.8667 37.8668Z" fill="white"/>
</g>
<defs>
<clipPath id="clip0">
<rect width="64" height="64" fill="white"/>
</clipPath>
</defs>
</svg>
