<svg width="64" height="64" viewBox="0 0 64 64" fill="none" xmlns="http://www.w3.org/2000/svg">
<path d="M55.9999 40.5334C55.4108 40.5334 54.9332 41.011 54.9332 41.6001V43.7334C54.9332 44.3226 55.4108 44.8001 55.9999 44.8001C56.589 44.8001 57.0666 44.3226 57.0666 43.7334V41.6001C57.0666 41.011 56.589 40.5334 55.9999 40.5334Z" fill="white"/>
<path d="M61.3333 5.33333C61.3298 2.38928 58.9441 0.00352653 56 0H13.3333C10.3893 0.00352653 8.00353 2.38928 8 5.33333V23.4667C8 24.0558 8.47756 24.5333 9.06667 24.5333C9.65577 24.5333 10.1333 24.0558 10.1333 23.4667V5.33333C10.1333 3.56602 11.566 2.13333 13.3333 2.13333H56C57.7673 2.13333 59.2 3.56602 59.2 5.33333V46.9333H51.7333C48.7893 46.9369 46.4035 49.3226 46.4 52.2667V59.7333H40C39.4109 59.7333 38.9333 60.2109 38.9333 60.8C38.9333 61.3891 39.4109 61.8667 40 61.8667H47.4667C47.7495 61.8666 48.0208 61.7542 48.2208 61.5541L61.0208 48.7541C61.2209 48.5541 61.3333 48.2829 61.3333 48V5.33333ZM51.7333 49.0667H57.6917L48.5333 58.2251V52.2667C48.5333 50.4993 49.966 49.0667 51.7333 49.0667Z" fill="white"/>
<path d="M17.5999 6.3999H15.4666C14.8775 6.3999 14.3999 6.87747 14.3999 7.46657C14.3999 8.05567 14.8775 8.53324 15.4666 8.53324H17.5999C18.189 8.53324 18.6666 8.05567 18.6666 7.46657C18.6666 6.87747 18.189 6.3999 17.5999 6.3999Z" fill="white"/>
<path d="M53.8667 6.3999H21.8667C21.2776 6.3999 20.8 6.87747 20.8 7.46657C20.8 8.05567 21.2776 8.53324 21.8667 8.53324H53.8667C54.4558 8.53324 54.9333 8.05567 54.9333 7.46657C54.9333 6.87747 54.4558 6.3999 53.8667 6.3999Z" fill="white"/>
<path d="M17.5999 12.8H15.4666C14.8775 12.8 14.3999 13.2776 14.3999 13.8667C14.3999 14.4558 14.8775 14.9334 15.4666 14.9334H17.5999C18.189 14.9334 18.6666 14.4558 18.6666 13.8667C18.6666 13.2776 18.189 12.8 17.5999 12.8Z" fill="white"/>
<path d="M47.4667 13.8667C47.4667 13.2776 46.9891 12.8 46.4 12.8H21.8667C21.2776 12.8 20.8 13.2776 20.8 13.8667C20.8 14.4558 21.2776 14.9334 21.8667 14.9334H46.4C46.9891 14.9334 47.4667 14.4558 47.4667 13.8667Z" fill="white"/>
<path d="M17.5999 19.2H15.4666C14.8775 19.2 14.3999 19.6775 14.3999 20.2666C14.3999 20.8557 14.8775 21.3333 15.4666 21.3333H17.5999C18.189 21.3333 18.6666 20.8557 18.6666 20.2666C18.6666 19.6775 18.189 19.2 17.5999 19.2Z" fill="white"/>
<path d="M21.8667 19.2C21.2776 19.2 20.8 19.6775 20.8 20.2666C20.8 20.8557 21.2776 21.3333 21.8667 21.3333H38.9333C39.5224 21.3333 40 20.8557 40 20.2666C40 19.6775 39.5224 19.2 38.9333 19.2H21.8667Z" fill="white"/>
<path d="M57.0666 22.3999C57.0666 21.8108 56.589 21.3333 55.9999 21.3333C55.4108 21.3333 54.9332 21.8108 54.9332 22.3999V37.3332C54.9332 37.9223 55.4108 38.3999 55.9999 38.3999C56.589 38.3999 57.0666 37.9223 57.0666 37.3332V22.3999Z" fill="white"/>
<path d="M4.12476 47.122L7.61169 48.2836C7.92738 49.3467 8.35353 50.3738 8.88316 51.3482L7.23836 54.6367C6.82814 55.4579 6.98924 56.4495 7.63836 57.0986L9.56689 59.0282C10.2162 59.6778 11.2083 59.8389 12.0298 59.4282L15.3184 57.7834C16.2927 58.313 17.3198 58.7392 18.3829 59.0548L19.5445 62.5418C19.8351 63.4129 20.6507 64.0003 21.569 63.9999H24.2976C25.2167 64.0012 26.0333 63.4137 26.3242 62.5418L27.4858 59.0548C28.5489 58.7392 29.576 58.313 30.5504 57.7834L33.8389 59.4282C34.6597 59.8408 35.6528 59.6795 36.3008 59.0282L38.2304 57.0996C38.88 56.4504 39.0411 55.4582 38.6304 54.6367L36.9856 51.3482C37.5152 50.3738 37.9413 49.3467 38.257 48.2836L41.744 47.122C42.6143 46.8306 43.2006 46.0153 43.2 45.0975V42.369C43.2013 41.4498 42.6137 40.6332 41.7418 40.3423L38.2549 39.1807C37.9392 38.1176 37.5131 37.0905 36.9834 36.1162L38.6282 32.8276C39.0385 32.0064 38.8773 31.0149 38.2282 30.3658L36.2997 28.4362C35.6504 27.7866 34.6582 27.6254 33.8368 28.0362L30.5482 29.681C29.5739 29.1513 28.5468 28.7252 27.4837 28.4095L26.3221 24.9226C26.0307 24.0523 25.2153 23.4659 24.2976 23.4666H21.569C20.6499 23.4653 19.8333 24.0528 19.5424 24.9247L18.3808 28.4116C17.3177 28.7273 16.2906 29.1535 15.3162 29.6831L12.0298 28.0383C11.2091 27.625 10.2156 27.7864 9.56796 28.4383L7.63836 30.3668C6.98875 31.0161 6.82762 32.0083 7.23836 32.8298L8.88316 36.1183C8.35353 37.0926 7.92738 38.1197 7.61169 39.1828L4.12476 40.3444C3.25362 40.6351 2.66625 41.4506 2.66663 42.369V45.0975C2.66625 46.0158 3.25362 46.8314 4.12476 47.122ZM4.79996 42.369L8.82449 41.0271C9.16805 40.9124 9.42994 40.6313 9.51996 40.2804C9.84533 39.02 10.3481 37.8122 11.0133 36.6932C11.1981 36.3812 11.2118 35.9967 11.0496 35.6724L9.15089 31.8751L11.0805 29.9455L14.8778 31.8442C15.2021 32.0064 15.5866 31.9927 15.8986 31.8079C17.0176 31.1427 18.2254 30.6399 19.4858 30.3146C19.8366 30.2245 20.1178 29.9626 20.2325 29.6191L21.569 25.5999H24.2976L25.6394 29.6244C25.7541 29.968 26.0353 30.2299 26.3861 30.3199C27.6465 30.6453 28.8543 31.1481 29.9733 31.8132C30.2853 31.998 30.6698 32.0117 30.9941 31.8495L34.7914 29.9508L36.721 31.8804L34.8224 35.6778C34.6602 36.0021 34.6738 36.3866 34.8586 36.6986C35.5238 37.8175 36.0266 39.0253 36.352 40.2858C36.442 40.6366 36.7039 40.9178 37.0474 41.0324L41.0666 42.369V45.0975L37.0421 46.4394C36.6985 46.554 36.4366 46.8352 36.3466 47.186C36.0213 48.4465 35.5185 49.6543 34.8533 50.7732C34.6685 51.0852 34.6548 51.4697 34.817 51.794L36.7157 55.5914L34.7861 57.521L30.9888 55.6223C30.6644 55.4601 30.2799 55.4738 29.968 55.6586C28.849 56.3237 27.6412 56.8265 26.3808 57.1519C26.0299 57.2419 25.7488 57.5038 25.6341 57.8474L24.2976 61.8666H21.569L20.2272 57.842C20.1125 57.4985 19.8313 57.2366 19.4805 57.1466C18.2201 56.8212 17.0123 56.3184 15.8933 55.6532C15.5813 55.4684 15.1968 55.4548 14.8725 55.617L11.0752 57.5156L9.14663 55.5903L11.0453 51.793C11.2075 51.4687 11.1938 51.0842 11.009 50.7722C10.3439 49.6532 9.84107 48.4454 9.51569 47.185C9.42567 46.8341 9.16378 46.553 8.82023 46.4383L4.79996 45.0975V42.369Z" fill="white"/>
<path d="M22.9332 55.4667C29.4134 55.4667 34.6666 50.2135 34.6666 43.7333C34.6666 37.2532 29.4134 32 22.9332 32C16.4531 32 11.1999 37.2532 11.1999 43.7333C11.2075 50.2103 16.4563 55.459 22.9332 55.4667ZM22.9332 34.1333C28.2352 34.1333 32.5332 38.4314 32.5332 43.7333C32.5332 49.0353 28.2352 53.3333 22.9332 53.3333C17.6313 53.3333 13.3332 49.0353 13.3332 43.7333C13.3397 38.4341 17.634 34.1398 22.9332 34.1333Z" fill="white"/>
<path d="M22.9333 47.9999C25.2897 47.9999 27.2 46.0896 27.2 43.7332C27.2 41.3768 25.2897 39.4666 22.9333 39.4666C20.5769 39.4666 18.6666 41.3768 18.6666 43.7332C18.6666 46.0896 20.5769 47.9999 22.9333 47.9999ZM22.9333 41.5999C24.1115 41.5999 25.0666 42.555 25.0666 43.7332C25.0666 44.9114 24.1115 45.8666 22.9333 45.8666C21.7551 45.8666 20.8 44.9114 20.8 43.7332C20.8 42.555 21.7551 41.5999 22.9333 41.5999Z" fill="white"/>
</svg>
