<svg width="64" height="64" viewBox="0 0 64 64" fill="none" xmlns="http://www.w3.org/2000/svg">
<g clip-path="url(#clip0)">
<path d="M61.5757 7.02688C61.7566 6.56425 61.8571 6.06175 61.8571 5.53575V4.10712C61.8571 1.84237 60.0146 0 57.7498 0C55.4852 0 53.6427 1.84237 53.6427 4.10712V5.53575C53.6427 6.06163 53.7432 6.56425 53.9241 7.02675C52.4055 8.19837 51.5 10.0002 51.5 11.9641V13.3926C51.5 14.0829 52.0596 14.6426 52.75 14.6426H62.75C63.4403 14.6426 64 14.0829 64 13.3926V11.9642C64 10.001 63.0942 8.19862 61.5757 7.02688ZM56.1428 4.10712C56.1428 3.22087 56.8638 2.5 57.75 2.5C58.6361 2.5 59.3571 3.221 59.3571 4.10712V5.53575C59.3571 6.422 58.6361 7.14288 57.75 7.14288C56.8638 7.14288 56.1428 6.42188 56.1428 5.53575V4.10712ZM61.5 12.1427H54V11.9642C54 10.7886 54.5745 9.67613 55.504 8.97188C56.15 9.3955 56.9215 9.643 57.75 9.643C58.5793 9.643 59.3516 9.395 59.9981 8.9705C60.9371 9.67362 61.5 10.7691 61.5 11.9642V12.1427Z" fill="white"/>
<path d="M10.0758 56.3843C10.2568 55.9217 10.3571 55.4192 10.3571 54.8932V53.4644C10.3571 51.1998 8.51463 49.3574 6.25 49.3574C3.98537 49.3574 2.14287 51.1998 2.14287 53.4644V54.8932C2.14287 55.419 2.24325 55.9215 2.42425 56.384C0.905625 57.5558 0 59.3577 0 61.3217V62.7502C0 63.4404 0.559625 64.0002 1.25 64.0002H11.25C11.9404 64.0002 12.5 63.4404 12.5 62.7502V61.3217C12.5 59.3584 11.5943 57.5561 10.0758 56.3843ZM4.64288 53.4646C4.64288 52.5784 5.36387 51.8575 6.25 51.8575C7.13613 51.8575 7.85712 52.5786 7.85712 53.4646V54.8933C7.85712 55.7794 7.13613 56.5003 6.25 56.5003C5.36387 56.5003 4.64288 55.7793 4.64288 54.8933V53.4646ZM10 61.5002H2.5V61.3217C2.5 60.1459 3.0745 59.0333 4.00413 58.3292C4.65013 58.7528 5.4215 59.0003 6.25012 59.0003C7.0795 59.0003 7.85175 58.7524 8.49813 58.3279C9.43713 59.031 10 60.1265 10 61.3217V61.5002Z" fill="white"/>
<path d="M55.7499 31.9999C55.7499 18.9041 45.0959 8.25 32 8.25C27.7337 8.25 23.5479 9.396 19.8952 11.5641C19.3015 11.9165 19.106 12.6835 19.4583 13.2771C19.8107 13.8709 20.5777 14.0664 21.1713 13.714C24.4381 11.7749 28.1825 10.75 32 10.75C35.491 10.75 38.788 11.5965 41.6969 13.0946C40.7069 14.7746 40.8537 16.3016 40.9581 17.3823C41.0062 17.8801 41.056 18.3948 40.9356 18.5517C40.854 18.6582 40.4424 19.0238 38.5753 19.2582C36.943 19.4631 35.8175 20.5297 35.4061 22.2616C35.1116 23.5013 35.2031 24.8912 35.2768 26.0081C35.2974 26.3209 35.3169 26.6167 35.3238 26.8604C35.3016 27.0132 35.0881 27.4154 34.9461 27.683C34.4801 28.5612 33.776 29.8884 34.346 31.3297C34.8541 32.6145 36.2018 33.5932 38.5868 34.4095C40.4536 35.0484 41.7069 34.4143 42.7141 33.9048C43.9926 33.258 45.0026 32.7469 48.0031 34.7119C48.4267 34.9894 48.8965 35.1019 49.3927 35.1019C50.5498 35.1019 51.8497 34.4898 53.0386 33.9298C53.0812 33.9096 53.1239 33.8896 53.1667 33.8695C52.2558 44.2672 43.8255 52.5406 33.3601 53.2049C33.653 52.1366 34.2193 50.6137 34.4411 50.1453C35.2088 49.075 35.2243 47.8493 34.4814 46.6822C33.9623 45.8667 33.1619 45.2086 32.5188 44.6797C32.285 44.4876 32.0642 44.3061 31.9233 44.1691C30.5515 42.8374 28.5942 42.862 27.0212 42.8816C26.4092 42.8891 25.3881 42.9021 25.1497 42.7357C24.2288 41.6305 23.7628 40.7875 23.7649 40.2302C23.7663 39.837 24.0257 39.4574 24.4838 38.8206C25.1541 37.8889 26.0722 36.6128 26.2044 34.5104C26.4904 29.9648 23.0641 29.1098 20.311 28.4228C19.9093 28.3225 19.494 28.2189 19.0922 28.1068C14.6087 26.8552 12.3255 28.0648 10.9266 29.2742C11.2952 26.4151 12.2397 23.6542 13.7144 21.1705C14.0669 20.5768 13.8712 19.8098 13.2777 19.4575C12.6841 19.1051 11.9171 19.3005 11.5647 19.8941C9.39625 23.5464 8.25 27.7325 8.25 31.9999C8.25 45.0957 18.9041 55.7498 31.9999 55.7498C45.0957 55.7498 55.7499 45.0957 55.7499 31.9999ZM51.9735 31.6682C51.2636 32.0025 49.7967 32.6925 49.3431 32.6012C47.5146 31.4082 46.0105 30.8435 44.6124 30.8253C43.2959 30.8062 42.3485 31.2882 41.5857 31.6742C40.7345 32.1047 40.2655 32.3417 39.3966 32.0444C37.2261 31.3015 36.7675 30.6543 36.6711 30.4104C36.5358 30.068 36.7863 29.5498 37.1549 28.855C37.4934 28.2169 37.8435 27.5569 37.8235 26.8079C37.8156 26.5128 37.7943 26.1879 37.7715 25.8439C37.5755 22.8671 37.8465 21.8694 38.8868 21.7388C41.0237 21.4706 42.2297 20.9725 42.9195 20.0732C43.6392 19.1347 43.5369 18.076 43.4466 17.142C43.3582 16.227 43.2744 15.3521 43.8491 14.3686C49.2837 18.0327 52.9393 24.1409 53.2298 31.104C52.8293 31.266 52.4086 31.4633 51.9735 31.6682ZM10.767 32.8093C11.1669 32.5444 11.5097 32.1958 11.8462 31.8537C12.9942 30.6864 14.2957 29.3632 18.4198 30.5148C18.8551 30.6363 19.2875 30.7442 19.7057 30.8485C22.7866 31.6173 23.8518 32.0884 23.7093 34.3535C23.6223 35.7373 23.0549 36.5259 22.4543 37.3608C21.8988 38.1329 21.2693 39.008 21.2648 40.2212C21.2603 41.4341 21.8689 42.7067 23.2384 44.3477C24.1318 45.4184 25.6166 45.3995 27.0526 45.3816C28.2802 45.3657 29.5505 45.3502 30.1817 45.963C30.3967 46.1717 30.6562 46.3851 30.931 46.6111C31.4372 47.0272 32.067 47.5452 32.3724 48.0248C32.6089 48.3966 32.5402 48.5183 32.3874 48.7188C32.0573 49.1515 31.3303 51.3091 31.323 51.3307C31.0553 52.131 30.8892 52.7402 30.7922 53.2149C19.9022 52.6014 11.179 43.751 10.767 32.8093Z" fill="white"/>
<path d="M8.57092 17.5402C8.78654 17.6876 9.03192 17.7581 9.27479 17.7581C9.67379 17.7581 10.0662 17.5675 10.3082 17.213C10.7545 16.5595 11.2367 15.918 11.7414 15.3062C12.1808 14.7737 12.1053 13.9859 11.5728 13.5465C11.0402 13.1072 10.2524 13.1828 9.81304 13.7152C9.26042 14.385 8.73242 15.0875 8.24367 15.8031C7.85429 16.3731 8.00079 17.151 8.57092 17.5402Z" fill="white"/>
<path d="M4.50015 46.4999C5.19053 46.4999 5.75015 45.9401 5.75015 45.2499V43.0356C5.75015 42.3454 5.19053 41.7856 4.50015 41.7856C3.80978 41.7856 3.25015 42.3454 3.25015 43.0356V45.2499C3.25015 45.9401 3.80978 46.4999 4.50015 46.4999Z" fill="white"/>
<path d="M16.2715 10.6902C16.5186 10.6902 16.7684 10.617 16.9863 10.4648C17.6359 10.0109 18.314 9.58165 19.0018 9.18878C19.6013 8.8464 19.8096 8.08278 19.4673 7.48328C19.1249 6.8839 18.3614 6.6754 17.7619 7.01778C17.0086 7.44803 16.2659 7.91815 15.5545 8.41515C14.9886 8.81053 14.8503 9.58978 15.2456 10.1558C15.4888 10.5039 15.877 10.6902 16.2715 10.6902Z" fill="white"/>
<path d="M4.50015 36.7856C5.19053 36.7856 5.75015 36.2259 5.75015 35.5356V33.0356C5.75015 32.3454 5.19053 31.7856 4.50015 31.7856C3.80978 31.7856 3.25015 32.3454 3.25015 33.0356V35.5356C3.25015 36.226 3.80978 36.7856 4.50015 36.7856Z" fill="white"/>
<path d="M4.95975 26.8121C5.05725 26.8353 5.15475 26.8463 5.25075 26.8463C5.81612 26.8463 6.32875 26.4601 6.46562 25.8861C6.64937 25.1157 6.871 24.3449 7.12425 23.5951C7.34525 22.9411 6.994 22.2317 6.34 22.0107C5.68587 21.7897 4.97662 22.1409 4.75575 22.7949C4.47812 23.6169 4.23525 24.4617 4.034 25.3059C3.87375 25.9776 4.28825 26.6519 4.95975 26.8121Z" fill="white"/>
<path d="M25.3182 6.56756C25.4183 6.56756 25.5202 6.55543 25.6218 6.53018C26.3901 6.33843 27.1765 6.17993 27.959 6.05906C28.6412 5.95368 29.1088 5.31518 29.0035 4.63293C28.8981 3.95056 28.2597 3.48256 27.5773 3.58843C26.72 3.72093 25.8585 3.89443 25.0166 4.10443C24.3468 4.27156 23.9392 4.95018 24.1063 5.61993C24.2481 6.18818 24.7578 6.56756 25.3182 6.56756Z" fill="white"/>
<path d="M45.2499 5.75H47.7499C48.4403 5.75 48.9999 5.19025 48.9999 4.5C48.9999 3.80975 48.4403 3.25 47.7499 3.25H45.2499C44.5595 3.25 43.9999 3.80975 43.9999 4.5C43.9999 5.19025 44.5597 5.75 45.2499 5.75Z" fill="white"/>
<path d="M35.2498 5.75H37.7498C38.4402 5.75 38.9998 5.19025 38.9998 4.5C38.9998 3.80975 38.4402 3.25 37.7498 3.25H35.2498C34.5594 3.25 33.9998 3.80975 33.9998 4.5C33.9998 5.19025 34.5594 5.75 35.2498 5.75Z" fill="white"/>
<path d="M38.3783 57.4699C37.61 57.6616 36.8237 57.8201 36.0412 57.941C35.3589 58.0464 34.8913 58.6849 34.9967 59.3671C35.092 59.9848 35.6243 60.4266 36.2305 60.4266C36.2939 60.4266 36.3582 60.4218 36.4229 60.4118C37.2803 60.2793 38.1418 60.1058 38.9837 59.8956C39.6534 59.7286 40.061 59.05 39.8939 58.3803C39.7267 57.7104 39.048 57.3034 38.3783 57.4699Z" fill="white"/>
<path d="M28.7502 58.25H26.2502C25.5598 58.25 25.0002 58.8098 25.0002 59.5C25.0002 60.1902 25.5598 60.75 26.2502 60.75H28.7502C29.4405 60.75 30.0002 60.1902 30.0002 59.5C30.0002 58.8098 29.4405 58.25 28.7502 58.25Z" fill="white"/>
<path d="M59.0402 37.1881C58.3686 37.0282 57.6945 37.4426 57.5343 38.114C57.3506 38.8844 57.1289 39.6551 56.8757 40.405C56.6547 41.059 57.006 41.7684 57.66 41.9894C57.7926 42.0341 57.9275 42.0554 58.0601 42.0554C58.5816 42.0554 59.0681 41.7264 59.2442 41.205C59.5218 40.383 59.7647 39.5382 59.966 38.694C60.1262 38.0226 59.7117 37.3482 59.0402 37.1881Z" fill="white"/>
<path d="M18.7501 58.25H16.2501C15.5597 58.25 15.0001 58.8098 15.0001 59.5C15.0001 60.1902 15.5597 60.75 16.2501 60.75H18.7501C19.4405 60.75 20.0001 60.1902 20.0001 59.5C20.0001 58.8098 19.4405 58.25 18.7501 58.25Z" fill="white"/>
<path d="M59.4998 17.5002C58.8094 17.5002 58.2498 18.06 58.2498 18.7502V20.9644C58.2498 21.6546 58.8094 22.2144 59.4998 22.2144C60.1902 22.2144 60.7498 21.6546 60.7498 20.9644V18.7502C60.7498 18.0599 60.1902 17.5002 59.4998 17.5002Z" fill="white"/>
<path d="M59.4998 27.2146C58.8094 27.2146 58.2498 27.7744 58.2498 28.4646V30.9646C58.2498 31.6549 58.8094 32.2146 59.4998 32.2146C60.1902 32.2146 60.7498 31.6549 60.7498 30.9646V28.4646C60.7498 27.7742 60.1902 27.2146 59.4998 27.2146Z" fill="white"/>
<path d="M47.0139 53.5351C46.3642 53.989 45.6861 54.4183 44.9984 54.8111C44.3989 55.1535 44.1905 55.9171 44.5329 56.5166C44.7636 56.9204 45.1854 57.1469 45.6195 57.1469C45.8296 57.1469 46.0427 57.0937 46.2382 56.9821C46.9915 56.5519 47.7342 56.0817 48.4456 55.5847C49.0115 55.1894 49.1498 54.4101 48.7545 53.8441C48.3591 53.2781 47.5797 53.1399 47.0139 53.5351Z" fill="white"/>
<path d="M55.4291 46.4596C54.8592 46.0702 54.0812 46.2167 53.692 46.7869C53.2456 47.4404 52.7635 48.0819 52.2587 48.6936C51.8193 49.2261 51.8948 50.014 52.4273 50.4534C52.6603 50.6455 52.9421 50.7391 53.2222 50.7391C53.5825 50.7391 53.94 50.5842 54.1871 50.2846C54.7397 49.6149 55.2677 48.9124 55.7565 48.1967C56.1457 47.6267 55.9992 46.8489 55.4291 46.4596Z" fill="white"/>
<path d="M15.2903 17.0503C15.524 17.245 15.8076 17.3398 16.0897 17.3398C16.4481 17.3398 16.804 17.1865 17.0512 16.8897C17.4932 16.3595 17.4215 15.5712 16.8912 15.1292C16.3608 14.6875 15.5727 14.7591 15.1307 15.2893L15.1301 15.2901C14.688 15.8205 14.76 16.6083 15.2903 17.0503Z" fill="white"/>
</g>
<defs>
<clipPath id="clip0">
<rect width="64" height="64" fill="white"/>
</clipPath>
</defs>
</svg>
