<svg width="64" height="64" viewBox="0 0 64 64" fill="none" xmlns="http://www.w3.org/2000/svg">
<g clip-path="url(#clip0)">
<path d="M14.856 49.2627C14.1657 49.2627 13.6025 48.7031 13.6025 48.0127C13.6025 47.3223 14.1587 46.7627 14.849 46.7627H14.8562C15.5465 46.7627 16.1062 47.3223 16.1062 48.0127C16.1062 48.7031 15.5464 49.2627 14.856 49.2627Z" fill="white"/>
<path d="M62.1044 43.2583V32.4661C62.1044 32.3112 62.0744 32.1524 62.0176 32.0083L55.7674 16.1258C55.5793 15.6478 55.1179 15.3336 54.6041 15.3336H42.6236V10.0857C42.6236 9.39532 42.0639 8.83569 41.3736 8.83569H25.8046C25.1143 8.83569 24.5546 9.39532 24.5546 10.0857C24.5546 10.7761 25.1143 11.3357 25.8046 11.3357H40.1236V15.3337H36.5619C35.8716 15.3337 35.3119 15.8933 35.3119 16.5837V42.9977H19.9102C18.6211 41.6801 16.8302 40.8614 14.8525 40.8614C12.8748 40.8614 11.084 41.6802 9.79475 42.9977H4.39563V25.0139H20.8626V27.0862C20.8626 27.5539 21.1238 27.9824 21.5394 28.1971C21.72 28.2903 21.9166 28.3362 22.1125 28.3362C22.3675 28.3362 22.6213 28.2582 22.8369 28.1049L31.0076 22.2963C31.3375 22.0618 31.5334 21.6822 31.5334 21.2776C31.5334 20.8729 31.3375 20.4933 31.0076 20.2588L22.8369 14.4502C22.4558 14.1793 21.9551 14.1437 21.5394 14.3582C21.1238 14.5727 20.8626 15.0013 20.8626 15.4691V17.5413H4.39563V11.3357H14.5796C15.27 11.3357 15.8296 10.7761 15.8296 10.0857C15.8296 9.39532 15.27 8.83569 14.5796 8.83569H3.14563C2.45525 8.83569 1.89562 9.39532 1.89562 10.0857V43.2583C0.781375 43.7447 0 44.8598 0 46.1552V47.4841C0 49.2271 1.41113 50.6452 3.14563 50.6452H8.24988C9.29362 53.2892 11.8589 55.1642 14.8525 55.1642C17.8461 55.1642 20.4114 53.2892 21.4551 50.6452H40.7485C41.7923 53.2892 44.3574 55.1642 47.3511 55.1642C50.3449 55.1642 52.9099 53.2892 53.9538 50.6452H60.8545C62.589 50.6452 64.0001 49.2271 64.0001 47.4841V46.1552C64 44.8598 63.2186 43.7447 62.1044 43.2583ZM4.39563 20.0413H22.1126C22.803 20.0413 23.3626 19.4817 23.3626 18.7913V17.8913L28.126 21.2776L23.3626 24.6638V23.7638C23.3626 23.0734 22.803 22.5138 22.1126 22.5138H4.39563V20.0413ZM7.75238 48.1453H3.14563C2.79563 48.1453 2.5 47.8426 2.5 47.4842V46.1553C2.5 45.7988 2.79563 45.4977 3.14563 45.4977H8.20387C7.91062 46.2806 7.74913 47.1279 7.74913 48.0129C7.74913 48.0572 7.75163 48.1011 7.75238 48.1453ZM14.8525 52.6642C12.3141 52.6642 10.2491 50.5776 10.2491 48.0128C10.2491 45.4481 12.3142 43.3613 14.8525 43.3613C17.3908 43.3613 19.456 45.4479 19.456 48.0128C19.456 50.5777 17.3908 52.6642 14.8525 52.6642ZM59.0191 31.2161H46.344V23.1277H55.8361L59.0191 31.2161ZM37.8119 17.8336H53.7526L54.8522 20.6278H45.094C44.4038 20.6278 43.844 21.1874 43.844 21.8778V32.4662C43.844 33.1566 44.4038 33.7162 45.094 33.7162H59.6044V37.1069H57.7646C57.0744 37.1069 56.5146 37.6666 56.5146 38.3569C56.5146 39.0473 57.0744 39.6069 57.7646 39.6069H59.6044V42.9977H52.4089C51.1198 41.6801 49.3289 40.8614 47.3511 40.8614C45.3734 40.8614 43.5825 41.6802 42.2934 42.9977H37.8119V17.8336ZM21.9526 48.1453C21.9534 48.1011 21.956 48.0573 21.956 48.0128C21.956 47.1279 21.7944 46.2806 21.5012 45.4976H40.7025C40.4094 46.2804 40.2477 47.1278 40.2477 48.0128C40.2477 48.0572 40.2503 48.1011 40.2511 48.1453H21.9526ZM47.3511 52.6642C44.8127 52.6642 42.7477 50.5776 42.7477 48.0128C42.7477 45.4481 44.8129 43.3613 47.3511 43.3613C49.8894 43.3613 51.9545 45.4479 51.9545 48.0128C51.9545 50.5777 49.8894 52.6642 47.3511 52.6642ZM61.5 47.4842C61.5 47.8426 61.2044 48.1453 60.8544 48.1453H54.4511C54.4519 48.1011 54.4545 48.0573 54.4545 48.0128C54.4545 47.1279 54.2929 46.2806 53.9997 45.4976H60.8545C61.2045 45.4976 61.5001 45.7987 61.5001 46.1552V47.4842H61.5Z" fill="white"/>
<path d="M47.3547 46.7627H47.3476C46.6573 46.7627 46.1011 47.3223 46.1011 48.0127C46.1011 48.7031 46.6643 49.2627 47.3546 49.2627C48.0448 49.2627 48.6046 48.7031 48.6046 48.0127C48.6046 47.3223 48.0449 46.7627 47.3547 46.7627Z" fill="white"/>
<path d="M8.81103 35.8423C8.12066 35.8423 7.56104 36.4019 7.56104 37.0923C7.56104 37.7827 8.12066 38.3423 8.81103 38.3423H14.955C15.6454 38.3423 16.205 37.7827 16.205 37.0923C16.205 36.4019 15.6454 35.8423 14.955 35.8423H8.81103Z" fill="white"/>
<path d="M19.9538 32.0337C19.9538 31.3433 19.3942 30.7837 18.7038 30.7837H8.81103C8.12066 30.7837 7.56104 31.3433 7.56104 32.0337C7.56104 32.7241 8.12066 33.2837 8.81103 33.2837H18.7038C19.3942 33.2837 19.9538 32.7241 19.9538 32.0337Z" fill="white"/>
<path d="M20.1919 11.3357H20.1954C20.8858 11.3357 21.4436 10.7761 21.4436 10.0857C21.4436 9.39532 20.8823 8.83569 20.1919 8.83569C19.5015 8.83569 18.9419 9.39532 18.9419 10.0857C18.9419 10.7761 19.5015 11.3357 20.1919 11.3357Z" fill="white"/>
</g>
<defs>
<clipPath id="clip0">
<rect width="64" height="64" fill="white"/>
</clipPath>
</defs>
</svg>
