<svg xmlns="http://www.w3.org/2000/svg" width="28.37" height="24.824" viewBox="0 0 28.37 24.824">
  <path id="archive" d="M1.773,25.3a1.771,1.771,0,0,0,1.773,1.773H24.824A1.771,1.771,0,0,0,26.6,25.3V9.343H1.773Zm8.866-11.747a.667.667,0,0,1,.665-.665h5.763a.667.667,0,0,1,.665.665V14a.667.667,0,0,1-.665.665H11.3A.667.667,0,0,1,10.639,14ZM26.6,2.25H1.773A1.771,1.771,0,0,0,0,4.023v2.66a.889.889,0,0,0,.887.887h26.6a.889.889,0,0,0,.887-.887V4.023A1.771,1.771,0,0,0,26.6,2.25Z" transform="translate(0 -2.25)" fill="#61922f"/>
</svg>
