<svg xmlns="http://www.w3.org/2000/svg" width="20.126" height="23" viewBox="0 0 20.126 23">
  <path id="calendar-alt" d="M6.648,12.937h-1.8a.541.541,0,0,1-.539-.539V10.6a.541.541,0,0,1,.539-.539h1.8a.541.541,0,0,1,.539.539v1.8A.541.541,0,0,1,6.648,12.937ZM11.5,12.4V10.6a.541.541,0,0,0-.539-.539h-1.8a.541.541,0,0,0-.539.539v1.8a.541.541,0,0,0,.539.539h1.8A.541.541,0,0,0,11.5,12.4Zm4.313,0V10.6a.541.541,0,0,0-.539-.539h-1.8a.541.541,0,0,0-.539.539v1.8a.541.541,0,0,0,.539.539h1.8A.541.541,0,0,0,15.812,12.4ZM11.5,16.711v-1.8a.541.541,0,0,0-.539-.539h-1.8a.541.541,0,0,0-.539.539v1.8a.541.541,0,0,0,.539.539h1.8A.541.541,0,0,0,11.5,16.711Zm-4.312,0v-1.8a.541.541,0,0,0-.539-.539h-1.8a.541.541,0,0,0-.539.539v1.8a.541.541,0,0,0,.539.539h1.8A.541.541,0,0,0,7.187,16.711Zm8.625,0v-1.8a.541.541,0,0,0-.539-.539h-1.8a.541.541,0,0,0-.539.539v1.8a.541.541,0,0,0,.539.539h1.8A.541.541,0,0,0,15.812,16.711Zm4.312-11.68V20.844A2.157,2.157,0,0,1,17.969,23H2.156A2.157,2.157,0,0,1,0,20.844V5.031A2.157,2.157,0,0,1,2.156,2.875H4.312V.539A.541.541,0,0,1,4.852,0h1.8a.541.541,0,0,1,.539.539V2.875h5.75V.539A.541.541,0,0,1,13.477,0h1.8a.541.541,0,0,1,.539.539V2.875H17.97a2.157,2.157,0,0,1,2.156,2.156ZM17.969,20.574V7.187H2.156V20.574a.27.27,0,0,0,.27.27H17.7A.27.27,0,0,0,17.969,20.574Z" fill="gray"/>
</svg>
