<svg xmlns="http://www.w3.org/2000/svg" width="26.553" height="30.344" viewBox="0 0 26.553 30.344">
  <path id="calendar-alt" d="M8.771,17.068H6.4a.714.714,0,0,1-.711-.711V13.986a.714.714,0,0,1,.711-.711H8.771a.714.714,0,0,1,.711.711v2.371A.714.714,0,0,1,8.771,17.068Zm6.4-.711V13.986a.714.714,0,0,0-.711-.711H12.09a.714.714,0,0,0-.711.711v2.371a.714.714,0,0,0,.711.711h2.371A.714.714,0,0,0,15.172,16.357Zm5.689,0V13.986a.714.714,0,0,0-.711-.711H17.779a.714.714,0,0,0-.711.711v2.371a.714.714,0,0,0,.711.711H20.15A.714.714,0,0,0,20.861,16.357Zm-5.689,5.689V19.676a.714.714,0,0,0-.711-.711H12.09a.714.714,0,0,0-.711.711v2.371a.714.714,0,0,0,.711.711h2.371A.714.714,0,0,0,15.172,22.047Zm-5.689,0V19.676a.714.714,0,0,0-.711-.711H6.4a.714.714,0,0,0-.711.711v2.371a.714.714,0,0,0,.711.711H8.771A.714.714,0,0,0,9.482,22.047Zm11.379,0V19.676a.714.714,0,0,0-.711-.711H17.779a.714.714,0,0,0-.711.711v2.371a.714.714,0,0,0,.711.711H20.15A.714.714,0,0,0,20.861,22.047ZM26.551,6.638V27.5a2.846,2.846,0,0,1-2.845,2.845H2.845A2.846,2.846,0,0,1,0,27.5V6.638A2.846,2.846,0,0,1,2.845,3.793H5.689V.711A.714.714,0,0,1,6.4,0H8.772a.714.714,0,0,1,.711.711V3.793h7.586V.711A.714.714,0,0,1,17.781,0h2.371a.714.714,0,0,1,.711.711V3.793h2.845a2.846,2.846,0,0,1,2.845,2.845ZM23.706,27.144V9.482H2.845V27.144A.357.357,0,0,0,3.2,27.5h20.15A.357.357,0,0,0,23.706,27.144Z" fill="#61922f"/>
</svg>
