<svg xmlns="http://www.w3.org/2000/svg" width="29.425" height="22.887" viewBox="0 0 29.425 22.887">
  <path id="spa" d="M29.029,10.173a16.336,16.336,0,0,0-10.924,4.24,13.13,13.13,0,0,0-3.393,4.846,13.137,13.137,0,0,0-3.393-4.846A16.341,16.341,0,0,0,.4,10.173a.388.388,0,0,0-.4.4A14.143,14.143,0,0,0,4.535,20.754a13.558,13.558,0,0,0,10.178,4.132A13.56,13.56,0,0,0,24.89,20.754a14.141,14.141,0,0,0,4.535-10.181.389.389,0,0,0-.4-.4Zm-14.318,5.65a14.063,14.063,0,0,1,2.253-2.581,15.316,15.316,0,0,1,3.078-2.308,16.85,16.85,0,0,0-4.942-8.8.613.613,0,0,0-.773,0,16.848,16.848,0,0,0-4.942,8.79,15.031,15.031,0,0,1,3.025,2.267,14.445,14.445,0,0,1,2.3,2.629Z" transform="translate(0 -1.999)" fill="gray"/>
</svg>
