<svg xmlns="http://www.w3.org/2000/svg" width="28.212" height="22.57" viewBox="0 0 28.212 22.57">
  <path id="hand-sparkles" d="M4.7,7.522h0L6.89,6.611a.323.323,0,0,0,.162-.265h0a.321.321,0,0,0-.162-.265L4.705,5.17h0L3.791,2.983a.294.294,0,0,0-.525,0L2.354,5.171h0L.163,6.084A.321.321,0,0,0,0,6.348H0a.323.323,0,0,0,.162.265l2.186.907h0l.911,2.19a.293.293,0,0,0,.525,0L4.7,7.522ZM20.779,20.6l-.044-.019-.044-.022a1.7,1.7,0,0,1,0-3.048l.044-.022.044-.019,1.653-.689.689-1.652.018-.044.02-.042a1.712,1.712,0,0,1,.809-.764c0-.059.011-.118.012-.176V6.348a1.411,1.411,0,1,0-2.821,0V9.522a.353.353,0,0,1-.353.353h-.7a.353.353,0,0,1-.353-.353v-6.7a1.411,1.411,0,0,0-2.821,0v6.7a.353.353,0,0,1-.353.353h-.705a.353.353,0,0,1-.353-.353V1.411a1.411,1.411,0,1,0-2.821,0V9.522a.353.353,0,0,1-.353.353h-.705a.353.353,0,0,1-.353-.353v-6.7a1.411,1.411,0,1,0-2.821,0V13.445l-1.04-1.433a1.764,1.764,0,0,0-2.853,2.076L10.108,21.7a2.119,2.119,0,0,0,1.71.872h8.711A2.091,2.091,0,0,0,22.435,21.3l0-.008Zm-5.36-5.638-1.313.547-.548,1.313a.176.176,0,0,1-.315,0L12.7,15.514l-1.313-.547a.176.176,0,0,1,0-.316L12.7,14.1l.548-1.313a.176.176,0,0,1,.315,0l.548,1.313,1.313.548a.176.176,0,0,1,0,.316Zm12.793,4.073a.321.321,0,0,0-.162-.265l-2.185-.911h0l-.911-2.186a.294.294,0,0,0-.525,0l-.912,2.188h0l-2.189.915a.321.321,0,0,0-.162.265h0a.321.321,0,0,0,.162.263l2.185.911h0l.911,2.185a.293.293,0,0,0,.525,0l.912-2.187h0l2.184-.911a.321.321,0,0,0,.162-.263h0Z" fill="gray"/>
</svg>
