<svg xmlns="http://www.w3.org/2000/svg" width="32.52" height="32.5" viewBox="0 0 32.52 32.5">
  <path id="instagram" d="M16.259,10.155a8.333,8.333,0,1,0,8.336,8.333A8.321,8.321,0,0,0,16.259,10.155Zm0,13.75a5.417,5.417,0,1,1,5.419-5.417,5.427,5.427,0,0,1-5.419,5.417ZM26.88,9.814a1.944,1.944,0,1,1-1.944-1.943A1.939,1.939,0,0,1,26.88,9.814ZM32.4,11.786a9.618,9.618,0,0,0-2.626-6.809,9.685,9.685,0,0,0-6.812-2.625c-2.685-.153-10.73-.153-13.415,0A9.675,9.675,0,0,0,2.737,4.969,9.645,9.645,0,0,0,.111,11.779c-.153,2.684-.153,10.726,0,13.409A9.618,9.618,0,0,0,2.737,32a9.7,9.7,0,0,0,6.812,2.625c2.685.153,10.73.153,13.415,0A9.626,9.626,0,0,0,29.775,32,9.677,9.677,0,0,0,32.4,25.188c.153-2.684.153-10.719,0-13.4ZM28.934,28.068a5.483,5.483,0,0,1-3.09,3.089c-2.14.849-7.219.653-9.584.653S8.809,32,6.676,31.157a5.483,5.483,0,0,1-3.09-3.089c-.849-2.139-.653-7.216-.653-9.58s-.189-7.448.653-9.58a5.483,5.483,0,0,1,3.09-3.089c2.14-.849,7.219-.653,9.584-.653s7.451-.189,9.584.653a5.483,5.483,0,0,1,3.09,3.089c.849,2.139.653,7.216.653,9.58s.2,7.448-.653,9.58Z" transform="translate(0.004 -2.237)" fill="#4c4c4c"/>
</svg>
