<svg xmlns="http://www.w3.org/2000/svg" width="21.366" height="16.025" viewBox="0 0 21.366 16.025"><defs><style>.a{fill:#4c4c4c;}</style></defs><path class="a" d="M20.961,9.792a.251.251,0,0,1,.4.2v8.534a2,2,0,0,1-2,2H2a2,2,0,0,1-2-2V9.992a.249.249,0,0,1,.4-.2c.935.726,2.174,1.648,6.431,4.74.881.643,2.366,1.995,3.848,1.986,1.49.012,3-1.369,3.852-1.986,4.257-3.092,5.492-4.019,6.426-4.745ZM10.683,15.183c.968.017,2.362-1.218,3.063-1.728,5.537-4.019,5.959-4.369,7.236-5.371a1,1,0,0,0,.384-.789V6.5a2,2,0,0,0-2-2H2a2,2,0,0,0-2,2V7.3a1,1,0,0,0,.384.789c1.277,1,1.7,1.352,7.236,5.371C8.321,13.965,9.715,15.2,10.683,15.183Z" transform="translate(0 -4.5)"/></svg>