<svg xmlns="http://www.w3.org/2000/svg" width="15.779" height="21.04" viewBox="0 0 15.779 21.04"><defs><style>.a{fill:#61922f;}</style></defs><path class="a" d="M15.545,15.553l-3.283-3.719h1.259a.934.934,0,0,0,.854-.536.906.906,0,0,0-.135-.988L11.03,6.574h1.187a.931.931,0,0,0,.857-.559.914.914,0,0,0-.174-.989L8.369.2A.677.677,0,0,0,7.41.2L2.879,5.026a.914.914,0,0,0-.174.989.931.931,0,0,0,.857.559H4.749L1.538,10.31A.907.907,0,0,0,1.4,11.3a.935.935,0,0,0,.854.536H3.517L.234,15.553a.907.907,0,0,0-.146,1,.954.954,0,0,0,.863.545H6.575v1L5.33,20.088a.657.657,0,0,0,.588.951H9.861a.657.657,0,0,0,.588-.951L9.2,18.1v-1h5.624a.952.952,0,0,0,.863-.545.909.909,0,0,0-.146-1Z" transform="translate(0 0.001)"/></svg>