<svg xmlns="http://www.w3.org/2000/svg" width="18.282" height="22.501" viewBox="0 0 18.282 22.501">
  <path id="utensils" d="M9.137.668a53.779,53.779,0,0,1,.708,5.66,4.635,4.635,0,0,1-3.028,4.6l.568,10.464A1.058,1.058,0,0,1,6.328,22.5H3.516a1.058,1.058,0,0,1-1.055-1.112l.567-10.464A4.633,4.633,0,0,1,0,6.328,53.6,53.6,0,0,1,.708.668C.848-.225,2.7-.238,2.813.716V6.922c.057.149.664.141.7,0C3.577,5.81,3.863.8,3.868.69c.145-.914,1.964-.914,2.105,0,.009.119.29,5.12.352,6.232.039.141.651.149.7,0V.716C7.142-.233,9-.225,9.137.668Zm5.238,12.556-.659,8.135a1.055,1.055,0,0,0,1.05,1.143h2.461a1.052,1.052,0,0,0,1.055-1.055V1.055A1.055,1.055,0,0,0,17.227,0C13.6,0,7.5,7.845,14.375,13.224Z" transform="translate(0 0)" fill="gray"/>
</svg>
