<svg xmlns="http://www.w3.org/2000/svg" width="28.408" height="19.886" viewBox="0 0 28.408 19.886">
  <path id="wifi" d="M28.183,7.254a20.639,20.639,0,0,0-27.957,0A.706.706,0,0,0,.21,8.275L1.73,9.783a.721.721,0,0,0,.994.017,17.03,17.03,0,0,1,22.96,0,.722.722,0,0,0,.994-.017L28.2,8.275a.706.706,0,0,0-.016-1.02ZM14.2,16a2.841,2.841,0,1,0,2.841,2.841A2.841,2.841,0,0,0,14.2,16Zm9-3.71a13.627,13.627,0,0,0-17.992,0,.7.7,0,0,0-.025,1.027L6.711,14.83a.724.724,0,0,0,.979.036,10,10,0,0,1,13.028,0,.724.724,0,0,0,.979-.036l1.529-1.509a.7.7,0,0,0-.025-1.027Z" transform="translate(0 -1.8)" fill="gray"/>
</svg>
