<svg xmlns="http://www.w3.org/2000/svg" width="26.824" height="36" viewBox="0 0 26.824 36">
  <path id="yelp" d="M3.016,16.9l7,3.418a1.606,1.606,0,0,1-.316,3L2.145,25.2A1.6,1.6,0,0,1,.161,23.826a13.863,13.863,0,0,1,.633-6A1.6,1.6,0,0,1,3.017,16.9ZM6.11,33.72a14.024,14.024,0,0,0,5.584,2.258,1.6,1.6,0,0,0,1.872-1.525l.274-7.792a1.607,1.607,0,0,0-2.8-1.132L5.823,31.323a1.605,1.605,0,0,0,.288,2.4Zm10.219-7.729L20.464,32.6a1.612,1.612,0,0,0,2.391.387,13.947,13.947,0,0,0,3.706-4.754,1.617,1.617,0,0,0-.955-2.217l-7.412-2.409a1.612,1.612,0,0,0-1.864,2.384Zm10.429-9.3a13.883,13.883,0,0,0-3.544-4.873,1.607,1.607,0,0,0-2.391.309l-4.359,6.463a1.6,1.6,0,0,0,1.772,2.441l7.5-2.146a1.617,1.617,0,0,0,1.027-2.194ZM4.367,2.122a1.607,1.607,0,0,0-.7,2.25l7.321,12.687a1.606,1.606,0,0,0,3-.8V1.609a1.594,1.594,0,0,0-1.723-1.6,22.526,22.526,0,0,0-7.9,2.116Z" transform="translate(-0.071 -0.001)" fill="#4c4c4c"/>
</svg>
