<svg width="42" height="42" viewBox="0 0 42 42" fill="none" xmlns="http://www.w3.org/2000/svg">
<g opacity="0.5">
<path d="M10.506 15.9269C10.3454 15.9269 10.1044 15.8547 9.94373 15.6861L8.85132 14.5948C8.53003 14.2738 8.53003 13.7923 8.85132 13.4713C9.00394 13.3189 9.20475 13.2306 9.41359 13.2306C9.62244 13.2306 9.82325 13.3189 9.97586 13.4713L10.506 14.001L12.8997 11.6096C13.0523 11.4572 13.2531 11.3689 13.4619 11.3689C13.6708 11.3689 13.8636 11.4491 14.0162 11.6016C14.1608 11.714 14.2491 11.8905 14.2652 12.0911C14.2812 12.3319 14.1929 12.5726 14.0242 12.7331L11.0683 15.6861C10.8996 15.8547 10.7309 15.9269 10.506 15.9269Z" fill="#0B0803"/>
<path d="M10.506 21.7045C10.3454 21.7045 10.1044 21.6323 9.94373 21.4637L8.85132 20.3724C8.53003 20.0514 8.53003 19.5699 8.85132 19.2489C9.00394 19.0965 9.20475 19.0082 9.41359 19.0082C9.62244 19.0082 9.82325 19.0965 9.97586 19.2489L10.506 19.7786L12.8916 17.3952C13.0121 17.2348 13.2129 17.1465 13.4378 17.1465C13.6627 17.1465 13.8716 17.2348 14.0242 17.3872C14.1768 17.5397 14.2652 17.7403 14.2652 17.9489C14.2652 18.1576 14.1768 18.3582 14.0242 18.5107L11.0683 21.4637C10.8996 21.6323 10.7309 21.7045 10.506 21.7045Z" fill="#0B0803"/>
<path d="M13.0122 8.41572C12.5383 8.41572 12.209 8.08671 12.209 7.61325C12.209 7.1398 12.5383 6.81079 13.0122 6.81079H13.6548C14.1287 6.81079 14.4581 7.1398 14.4581 7.61325C14.4581 8.08671 14.1287 8.41572 13.6548 8.41572H13.0122Z" fill="#0B0803"/>
<path d="M15.583 8.41572C15.1091 8.41572 14.7798 8.08671 14.7798 7.61325C14.7798 7.1398 15.1091 6.81079 15.583 6.81079H16.2256C16.6995 6.81079 17.0289 7.1398 17.0289 7.61325C17.0289 8.08671 16.6995 8.41572 16.2256 8.41572H15.583Z" fill="#0B0803"/>
<path d="M10.4419 8.41572C9.968 8.41572 9.63867 8.08671 9.63867 7.61325C9.63867 7.1398 9.968 6.81079 10.4419 6.81079H11.0845C11.5584 6.81079 11.8877 7.1398 11.8877 7.61325C11.8877 8.08671 11.5584 8.41572 11.0845 8.41572H10.4419Z" fill="#0B0803"/>
<path d="M5.94387 21.8971C5.46995 21.8971 5.14062 21.5681 5.14062 21.0947V1.19358C5.14062 0.808394 5.44586 0.391113 5.94387 0.391113H29.0772C29.3021 0.391113 29.4708 0.463335 29.6395 0.631852L36.0654 7.05156C36.2341 7.22008 36.3064 7.38859 36.3064 7.61328V20.4527C36.3064 20.8379 36.0011 21.2552 35.5031 21.2552C35.0292 21.2552 34.6999 20.9261 34.6999 20.4527V8.41575H29.0772C28.6033 8.41575 28.274 8.08674 28.274 7.61328V1.99604H6.74711V21.0947C6.74711 21.4798 6.44188 21.8971 5.94387 21.8971ZM33.5111 6.81082L29.8804 3.18369V6.81082H33.5111Z" fill="#0B0803"/>
<path d="M10.4419 5.84784C9.968 5.84784 9.63867 5.51883 9.63867 5.04538C9.63867 4.57193 9.968 4.24292 10.4419 4.24292H18.7956C19.2695 4.24292 19.5989 4.57193 19.5989 5.04538C19.5989 5.51883 19.2695 5.84784 18.7956 5.84784H10.4419Z" fill="#0B0803"/>
<path d="M25.2217 16.1193C24.7478 16.1193 24.4185 15.7903 24.4185 15.3169C24.4185 14.8434 24.7478 14.5144 25.2217 14.5144H25.8643C26.3382 14.5144 26.6675 14.8434 26.6675 15.3169C26.6675 15.7903 26.3382 16.1193 25.8643 16.1193H25.2217Z" fill="#0B0803"/>
<path d="M27.792 16.1193C27.3181 16.1193 26.9888 15.7903 26.9888 15.3169C26.9888 14.8434 27.3181 14.5144 27.792 14.5144H28.4346C28.9085 14.5144 29.2378 14.8434 29.2378 15.3169C29.2378 15.7903 28.9085 16.1193 28.4346 16.1193H27.792Z" fill="#0B0803"/>
<path d="M22.6514 16.1193C22.1775 16.1193 21.8481 15.7903 21.8481 15.3169C21.8481 14.8434 22.1775 14.5144 22.6514 14.5144H23.294C23.7679 14.5144 24.0972 14.8434 24.0972 15.3169C24.0972 15.7903 23.7679 16.1193 23.294 16.1193H22.6514Z" fill="#0B0803"/>
<path d="M17.5103 13.5515C17.0364 13.5515 16.707 13.2224 16.707 12.749C16.707 12.2755 17.0364 11.9465 17.5103 11.9465H31.0047C31.4786 11.9465 31.808 12.2755 31.808 12.749C31.808 13.2224 31.4786 13.5515 31.0047 13.5515H17.5103Z" fill="#0B0803"/>
<path d="M17.5103 16.1193C17.0364 16.1193 16.707 15.7903 16.707 15.3169C16.707 14.8434 17.0364 14.5144 17.5103 14.5144H20.7232C21.1971 14.5144 21.5265 14.8434 21.5265 15.3169C21.5265 15.7903 21.1971 16.1193 20.7232 16.1193H17.5103Z" fill="#0B0803"/>
<path d="M17.5103 19.9711C17.0364 19.9711 16.707 19.6421 16.707 19.1687C16.707 18.6952 17.0364 18.3662 17.5103 18.3662H31.0047C31.4786 18.3662 31.808 18.6952 31.808 19.1687C31.808 19.6421 31.4786 19.9711 31.0047 19.9711H17.5103Z" fill="#0B0803"/>
<path d="M21.2377 41.8383C20.9646 41.8383 20.7879 41.6377 20.6112 41.4451C20.5871 41.421 20.571 41.3969 20.5469 41.3728L20.1854 41.0198C20.1533 41.0438 20.1212 41.0679 20.0891 41.092C19.9605 41.1963 19.8079 41.3086 19.6312 41.4049C19.3581 41.5414 19.0127 41.6136 18.6593 41.6136C18.0408 41.6136 17.4866 41.4049 17.0126 40.9957L8.25732 34.1025H1.36551C0.610463 34.1025 0 33.4926 0 32.7383V23.5822C0 22.8279 0.610463 22.218 1.36551 22.218H16.7074C17.0126 22.218 17.3098 22.3384 17.5347 22.547L18.8762 23.839L20.828 22.4347C21.0208 22.2902 21.2538 22.218 21.4947 22.218H40.0817C40.8368 22.218 41.4472 22.8279 41.4472 23.5822V32.6661C41.4472 33.4204 40.8368 34.0303 40.0817 34.0303H33.8004L27.6235 36.5099L22.0811 41.421C22.049 41.4531 22.0168 41.4772 21.9847 41.5093C21.816 41.6698 21.6473 41.8302 21.4064 41.8302H21.2377V41.8383ZM17.9926 39.7117C18.1693 39.8562 18.4022 39.9364 18.6272 39.9364C18.7316 39.9364 18.828 39.9204 18.9163 39.8883C18.9645 39.8642 19.0047 39.8401 19.0448 39.808L15.0206 35.7797C14.6993 35.4587 14.6993 34.9772 15.0206 34.6562C15.1652 34.5037 15.366 34.4235 15.5829 34.4235C15.7997 34.4235 16.0086 34.5118 16.1692 34.6642L21.3823 39.8722L22.2337 39.1259L16.9484 33.8538C16.6271 33.5328 16.6271 33.0513 16.9484 32.7303C17.093 32.5778 17.2938 32.4976 17.5107 32.4976C17.7275 32.4976 17.9364 32.5859 18.097 32.7383L23.4386 38.0747L24.29 37.3284L18.8762 31.9278C18.5549 31.6069 18.5549 31.1254 18.8762 30.8044C19.0207 30.6519 19.2216 30.5717 19.4384 30.5717C19.6553 30.5717 19.8641 30.6599 20.0248 30.8124L25.5029 36.2852L26.0893 35.8358L20.6353 29.8254L17.342 31.4383C16.7315 31.7433 16.0407 31.9038 15.3499 31.9038C14.8921 31.9038 14.4423 31.8315 14.0166 31.7031L13.2454 31.4464C12.5948 31.2297 12.1129 30.6599 12.0406 30.026C11.9683 29.384 12.2575 28.6859 12.7474 28.3408L17.5428 24.7939L16.5468 23.8229H9.31759V32.8908L17.9926 39.7117ZM20.6513 28.1322C21.0208 28.1322 21.3742 28.2927 21.6232 28.5655L27.3825 34.897L32.7722 32.7303V23.8229H21.7357L19.4625 25.468L19.1412 25.6606L13.6712 29.6408L13.6631 29.6488C13.631 29.6649 13.623 29.6809 13.623 29.7612C13.623 29.7772 13.6551 29.8334 13.7194 29.8655L14.5467 30.1223C14.8198 30.2186 15.109 30.2748 15.3981 30.2748C15.7997 30.2748 16.2094 30.1865 16.611 30.0019L20.065 28.2766C20.2417 28.1803 20.4505 28.1322 20.6513 28.1322ZM39.1982 32.4896C39.5516 32.4896 39.8407 32.2007 39.8407 31.8476V24.4649C39.8407 24.1118 39.5516 23.8229 39.1982 23.8229H34.3787V32.4896H39.1982ZM2.24907 23.8229C1.89565 23.8229 1.60648 24.1118 1.60648 24.4649V31.8476C1.60648 32.2007 1.89565 32.4896 2.24907 32.4896H7.71111V23.8229H2.24907Z" fill="#0B0803"/>
</g>
</svg>
