<svg width="58" height="33" viewBox="0 0 58 33" fill="none" xmlns="http://www.w3.org/2000/svg">
<g opacity="0.5">
<g clip-path="url(#clip0)">
<path d="M56.334 8.73172C56.1091 8.9472 55.9659 9.07032 55.8432 9.19345C53.9311 11.1224 52.0088 13.0514 50.0967 14.9804C49.9637 15.1138 49.8308 15.2472 49.6774 15.3395C49.3605 15.5242 49.0537 15.4729 48.7981 15.2164C48.5424 14.9599 48.4913 14.6521 48.6754 14.334C48.7674 14.1801 48.9106 14.0467 49.0333 13.9133C50.8738 12.0561 52.7246 10.199 54.5753 8.35208C54.7082 8.22896 54.9025 8.16739 55.0661 8.08531C55.0048 8.02375 54.9536 7.95192 54.8923 7.89036C54.289 7.9827 53.6959 8.07505 53.0927 8.16739C52.4689 8.25974 52.0804 8.03401 52.0292 7.53124C51.9679 7.03873 52.2644 6.75144 52.8575 6.65909C54.1459 6.4744 55.4342 6.27945 56.7226 6.07424C57.5917 5.94085 58.0826 6.43336 57.9701 7.30551C57.8065 8.56756 57.6633 9.83986 57.4997 11.1019C57.4895 11.184 57.4793 11.2763 57.469 11.3584C57.377 11.892 57.06 12.1895 56.6408 12.1382C56.1807 12.0767 55.925 11.7073 55.9966 11.1532C56.0989 10.3939 56.2113 9.63465 56.334 8.73172Z" fill="#0B0803"/>
<path d="M44.247 6.5782C44.472 6.36273 44.5947 6.26012 44.7174 6.13699C46.5886 4.26957 48.4598 2.39189 50.331 0.514209C50.4537 0.391082 50.5662 0.257695 50.6991 0.16535C51.0161 -0.0603826 51.3433 -0.050122 51.6296 0.206392C51.9364 0.483427 51.9773 0.822025 51.7626 1.17088C51.6705 1.31453 51.5376 1.4274 51.4251 1.55053C49.5335 3.44873 47.6316 5.34693 45.7399 7.2554C45.6274 7.36826 45.515 7.50165 45.3002 7.72738C46.1387 7.62478 46.8545 7.54269 47.56 7.46061C48.1326 7.38878 48.4905 7.60425 48.5518 8.06598C48.6132 8.50718 48.2962 8.84578 47.7441 8.91761C46.4455 9.08177 45.1571 9.2562 43.8585 9.42037C42.7746 9.5435 42.3554 9.1023 42.5292 8.00442C42.7133 6.79367 42.8973 5.58292 43.0711 4.37218C43.1734 3.69498 43.4699 3.39743 43.9914 3.48977C44.4618 3.57185 44.6356 3.93097 44.5436 4.56713C44.4413 5.19302 44.3595 5.81892 44.247 6.5782Z" fill="#0B0803"/>
</g>
<path d="M27.8975 26.8817C27.8975 29.0231 29.6316 30.7573 31.7688 30.7573C33.9059 30.7573 35.6401 29.0231 35.6401 26.8817C35.6401 24.7404 33.9059 23.0062 31.7688 23.0062C29.6316 23.0062 27.8975 24.7404 27.8975 26.8817Z" stroke="#0B0803" stroke-width="2.26282"/>
<path d="M4.13384 27.6335C4.13384 29.4983 5.64401 31.0084 7.50488 31.0084C9.36574 31.0084 10.8759 29.4983 10.8759 27.6335C10.8759 25.7687 9.36574 24.2586 7.50488 24.2586C5.64401 24.2586 4.13384 25.7687 4.13384 27.6335Z" stroke="#0B0803" stroke-width="2.26282"/>
<rect width="1.50082" height="6.75944" transform="matrix(-1 0 0 1 13.2588 6.60339)" fill="#0B0803"/>
<rect width="5.00272" height="1.25175" transform="matrix(-1 0 0 1 16.7603 14.114)" fill="#0B0803"/>
<path d="M31.7502 23.1404C33.7441 23.1404 35.3662 24.7639 35.3662 26.7595C35.3662 28.755 33.7441 30.3786 31.7502 30.3786C29.7563 30.3786 28.1342 28.755 28.1342 26.7595C28.1342 24.7639 29.7563 23.1404 31.7502 23.1404ZM31.7502 29.3493C33.1771 29.3493 34.3378 28.1875 34.3378 26.7595C34.3378 25.3314 33.1771 24.1696 31.7502 24.1696C30.3234 24.1696 29.1626 25.3314 29.1626 26.7595C29.1626 28.1875 30.3235 29.3493 31.7502 29.3493Z" fill="#0B0803"/>
<path d="M7.64868 24.5771C9.3469 24.5771 10.7285 25.9599 10.7285 27.6596C10.7285 29.3593 9.3469 30.7421 7.64868 30.7421C5.95046 30.7421 4.56885 29.3593 4.56885 27.6596C4.56885 25.9599 5.95059 24.5771 7.64868 24.5771ZM7.64868 29.7128C8.77989 29.7128 9.70015 28.7918 9.70015 27.6596C9.70015 26.5274 8.77989 25.6064 7.64868 25.6064C6.51748 25.6064 5.59722 26.5274 5.59722 27.6596C5.59722 28.7918 6.51761 29.7128 7.64868 29.7128Z" fill="#0B0803"/>
<path d="M37.1459 13.4885H39.3972V19.2466L52.5293 20.6235V22.0004H37.1459V13.4885Z" fill="#0B0803"/>
<path d="M8.48426 15.2601V0.514623C8.48426 0.230422 8.71449 0 8.99845 0H17.9237C22.2526 0 26.2752 2.32726 28.4217 6.07384C28.7092 6.5756 28.9799 7.09524 29.2263 7.61835C30.4377 10.1911 31.1374 13.0229 31.2738 15.8671H33.8067V0.90059C33.8067 0.61639 34.0369 0.385967 34.3208 0.385967H36.9548C37.2387 0.385967 37.4689 0.61639 37.4689 0.90059V8.87686H39.4613C39.7452 8.87686 39.9755 9.10729 39.9755 9.39149V18.8279L52.7216 19.9862C52.9742 20.0091 53.1724 20.2131 53.1882 20.4664L53.2783 21.9074C53.2872 22.0492 53.237 22.1884 53.1398 22.2919C53.0427 22.3955 52.9071 22.4542 52.765 22.4542H37.4688C37.4688 22.4542 37.4693 26.7515 37.4693 26.7591C37.4693 29.9158 34.9033 32.484 31.7493 32.484C29.4686 32.484 27.4961 31.1407 26.5783 29.2034H12.2138C11.569 31.1085 9.76664 32.484 7.6482 32.484C5.52925 32.484 3.72665 31.1079 3.08212 29.2023C2.99779 29.2029 0.514412 29.2034 0.514412 29.2034C0.230453 29.2034 0.000228882 28.973 0.000228882 28.6888V24.2502C0.000228882 19.4573 3.76123 15.5279 8.48426 15.2601ZM1.02859 24.2502V26.2445H3.03983C3.64553 24.2728 5.48207 22.8354 7.64807 22.8354C9.81407 22.8354 11.6506 24.2728 12.2563 26.2445H26.0535C26.2316 24.2552 27.4301 22.5566 29.1205 21.6771H20.759C20.475 21.6771 20.2448 21.4467 20.2448 21.1625C20.2448 18.4667 18.0535 16.2735 15.3601 16.2735H8.99845C4.60398 16.2735 1.02859 19.8518 1.02859 24.2502ZM31.2999 20.2413V21.0535C31.4484 21.0419 31.5979 21.0342 31.7493 21.0342C32.4743 21.0342 33.1677 21.1713 33.8065 21.4187V20.2414H31.2999V20.2413ZM23.524 20.6478H30.2715V16.8898C30.2715 16.0054 30.2117 15.1196 30.0975 14.24C26.5529 14.2946 23.6697 17.1228 23.524 20.6478ZM16.5244 15.2443V14.215H11.9478V15.2443H16.5244ZM11.9478 13.1858H12.9762V6.8387H11.9478V13.1858ZM9.51263 1.02925V1.97229H22.3892C21.0027 1.36144 19.4854 1.02925 17.9237 1.02925H9.51263ZM28.296 8.05707C28.0613 7.55891 27.8034 7.06372 27.5295 6.58563C26.7001 5.138 25.5635 3.92323 24.2297 3.00141H9.51263V15.2443H10.9194V6.32407C10.9194 6.03987 11.1497 5.80945 11.4336 5.80945H13.4904C13.7743 5.80945 14.0045 6.03987 14.0045 6.32407V13.1858H17.0386C17.3226 13.1858 17.5528 13.4162 17.5528 13.7004V15.6662C19.5792 16.4787 21.0553 18.3827 21.2512 20.6478H22.4956C22.5667 18.6628 23.3894 16.8669 24.688 15.5369L22.2315 13.0782L21.2666 14.0438C21.1662 14.1443 21.0346 14.1945 20.9031 14.1945C20.7716 14.1945 20.6398 14.1442 20.5396 14.0438C20.3386 13.8427 20.3386 13.517 20.5396 13.316L23.4105 10.4427C23.6114 10.2419 23.937 10.2419 24.1376 10.4427C24.3385 10.6438 24.3385 10.9696 24.1376 11.1705L22.9585 12.3504L25.4553 14.8493C26.7005 13.8732 28.251 13.2719 29.9381 13.2149C29.6161 11.4325 29.0649 9.68984 28.296 8.05707ZM31.2999 19.212H34.7706V16.8962H31.2999V19.212ZM36.4404 4.03001H34.8349V5.40303H36.4404V4.03001ZM34.8349 1.41521V3.00077H36.4404V1.41521H34.8349ZM38.947 11.8358C38.947 11.8358 37.4745 11.8343 37.4688 11.8341V12.6952C37.4745 12.6951 38.947 12.6936 38.947 12.6936V11.8358ZM37.4688 9.90611V10.8084C37.4745 10.8082 37.4799 10.8067 37.4855 10.8067H38.947V9.90624H37.4688V9.90611ZM52.2177 21.4249L52.1893 20.9711L39.4146 19.8103C39.1497 19.7862 38.947 19.564 38.947 19.2979V13.7228H37.4855C37.4797 13.7228 37.4745 13.7213 37.4688 13.7211V21.425H52.2177V21.4249ZM36.4404 6.43227H34.8349V15.867H35.2848C35.5688 15.867 35.799 16.0974 35.799 16.3816V19.7267C35.799 20.0109 35.5688 20.2413 35.2848 20.2413H34.8349V21.9424C35.4655 22.3485 36.0115 22.8747 36.4404 23.4892V6.43227ZM31.7493 31.4548C34.3347 31.4548 36.4384 29.3508 36.4408 26.7635C36.4408 26.7619 36.4404 26.7369 36.4404 26.7369C36.4284 24.158 34.3288 22.0634 31.7493 22.0634C29.1623 22.0634 27.0577 24.1699 27.0577 26.7591C27.0577 29.3483 29.1623 31.4548 31.7493 31.4548ZM26.2065 28.1742C26.1321 27.8823 26.0812 27.5814 26.0535 27.2737H12.4514C12.4616 27.4012 12.4683 27.5296 12.4683 27.6597C12.4683 27.8351 12.4583 28.0036 12.44 28.1742C12.455 28.1729 26.2065 28.1742 26.2065 28.1742ZM7.64807 31.4548C9.739 31.4548 11.4399 29.7523 11.4399 27.6597C11.4399 25.5671 9.73887 23.8646 7.64807 23.8646C5.55727 23.8646 3.85622 25.5671 3.85622 27.6597C3.85622 29.7523 5.55727 31.4548 7.64807 31.4548ZM2.85563 28.1742C2.83763 28.005 2.82786 27.8335 2.82786 27.6597C2.82786 27.5296 2.83454 27.4012 2.84469 27.2737H1.02859V28.1742H2.85563Z" fill="#0B0803"/>
</g>
<defs>
<clipPath id="clip0">
<rect width="15.5116" height="15.4627" fill="white" transform="translate(42.4883)"/>
</clipPath>
</defs>
</svg>
