<svg width="44" height="37" viewBox="0 0 44 37" fill="none" xmlns="http://www.w3.org/2000/svg">
<g opacity="0.5">
<path d="M19.8127 26.6563V28.9797H9.76559V26.6563H13.4453V16.0692C13.4453 15.6505 13.4579 15.2193 13.483 14.7756L10.8708 16.9608C10.7201 17.0781 10.5694 17.1534 10.4187 17.1869C10.2763 17.212 10.1382 17.212 10.0042 17.1869C9.87862 17.1618 9.76559 17.1199 9.66512 17.0613C9.56465 16.9943 9.4893 16.9232 9.43906 16.8478L8.45947 15.504L13.9979 10.7944H16.5474V26.6563H19.8127Z" fill="#0B0803"/>
<path d="M34.3829 26.6563V28.9797H24.3358V26.6563H28.0156V16.0692C28.0156 15.6505 28.0282 15.2193 28.0533 14.7756L25.441 16.9608C25.2903 17.0781 25.1396 17.1534 24.9889 17.1869C24.8466 17.212 24.7084 17.212 24.5745 17.1869C24.4489 17.1618 24.3358 17.1199 24.2354 17.0613C24.1349 16.9943 24.0596 16.9232 24.0093 16.8478L23.0297 15.504L28.5682 10.7944H31.1176V26.6563H34.3829Z" fill="#0B0803"/>
<path d="M43.1669 6.01394H39.6111V9.78975H37.769V6.01394H34.2314V4.33682H37.769V0.579346H39.6111V4.33682H43.1669V6.01394Z" fill="#0B0803"/>
<path fill-rule="evenodd" clip-rule="evenodd" d="M29.1914 1.82544H3.39429C1.51968 1.82544 0 3.34511 0 5.21973V33.0529C0 34.9275 1.51967 36.4472 3.39429 36.4472H39.3738C41.2484 36.4472 42.768 34.9275 42.768 33.0529V14.7237H42.7687V12.0083C42.7687 11.6334 42.4648 11.3294 42.0898 11.3294C41.7149 11.3294 41.411 11.6334 41.411 12.0083L41.4103 12.0083V33.0529C41.4103 34.1777 40.4985 35.0895 39.3738 35.0895H3.39429C2.26952 35.0895 1.35772 34.1777 1.35772 33.0529V5.21973C1.35772 4.09496 2.26952 3.18315 3.39429 3.18315L31.9068 3.18315C31.9069 3.18315 31.9069 3.18315 31.907 3.18315C32.2818 3.1831 32.5857 2.87918 32.5857 2.5043C32.5857 2.12941 32.2818 1.8255 31.907 1.82544C31.9069 1.82544 31.9069 1.82544 31.9068 1.82544H29.1914Z" fill="#0B0803"/>
</g>
</svg>
