<svg width="37" height="46" viewBox="0 0 37 46" fill="none" xmlns="http://www.w3.org/2000/svg">
<g opacity="0.5">
<path d="M8.97818 45.6181L6.83627 43.4869L4.69436 45.6181C4.45339 45.8579 4.11426 46 3.7662 46C3.0433 46 2.45428 45.4139 2.45428 44.6946V35.4324C1.09773 34.207 0.321289 32.4664 0.321289 30.6371C0.321289 29.0031 0.937089 27.449 2.05267 26.2413C3.10577 25.1046 4.50694 24.3942 6.03305 24.1988V1.33205C6.03305 0.594981 6.631 0 7.37175 0H28.1751C28.4428 0 28.6927 0.106564 28.8801 0.29305L35.9306 7.30849C36.1091 7.4861 36.1983 7.71699 36.1983 7.96564V40.0502C36.1983 40.7873 35.6004 41.3822 34.8596 41.3822H11.2093V44.6946C11.2093 45.4139 10.6203 46 9.89742 46C9.55828 46 9.21915 45.8668 8.97818 45.6181ZM9.60291 43.9842V36.507C8.73722 36.9066 7.79121 37.1197 6.83627 37.1197C5.88134 37.1197 4.93532 36.9066 4.06963 36.507V43.9842L6.83627 41.2313L9.60291 43.9842ZM34.5919 39.1355V8.7027H28.5678C27.952 8.7027 27.4522 8.20541 27.4522 7.59266V1.59846H8.43378C7.99647 1.59846 7.63949 1.95367 7.63949 2.3888V24.2077C9.1656 24.3942 10.5668 25.1135 11.6199 26.2502C12.7355 27.449 13.3513 29.012 13.3513 30.6459C13.3513 32.4753 12.5748 34.2158 11.2093 35.4413V39.7927H33.9404C34.2974 39.7838 34.5919 39.4907 34.5919 39.1355ZM7.15756 25.7618C4.19458 25.5753 1.74923 28.0085 1.93665 30.9568C2.09729 33.39 4.06964 35.3525 6.51498 35.5124C9.47796 35.6988 11.9233 33.2656 11.7359 30.3174C11.5753 27.8842 9.60291 25.9216 7.15756 25.7618ZM33.4585 7.10425L29.0586 2.72625V7.10425H33.4585Z" fill="#0B0803"/>
<path d="M19.1574 5.68335H11.6527C11.2113 5.68335 10.8535 6.04118 10.8535 6.48258C10.8535 6.92398 11.2113 7.28181 11.6527 7.28181H19.1574C19.5988 7.28181 19.9566 6.92398 19.9566 6.48258C19.9566 6.04118 19.5988 5.68335 19.1574 5.68335Z" fill="#0B0803"/>
<path d="M16.3015 8.52515H11.6527C11.2113 8.52515 10.8535 8.88297 10.8535 9.32437C10.8535 9.76578 11.2113 10.1236 11.6527 10.1236H16.3015C16.7429 10.1236 17.1008 9.76578 17.1008 9.32437C17.1008 8.88297 16.7429 8.52515 16.3015 8.52515Z" fill="#0B0803"/>
<path d="M30.5809 12.7876H11.6527C11.2113 12.7876 10.8535 13.1454 10.8535 13.5868C10.8535 14.0282 11.2113 14.3861 11.6527 14.3861H30.5809C31.0223 14.3861 31.3802 14.0282 31.3802 13.5868C31.3802 13.1454 31.0223 12.7876 30.5809 12.7876Z" fill="#0B0803"/>
<path d="M30.5809 15.6294H11.6527C11.2113 15.6294 10.8535 15.9872 10.8535 16.4286C10.8535 16.87 11.2113 17.2279 11.6527 17.2279H30.5809C31.0223 17.2279 31.3802 16.87 31.3802 16.4286C31.3802 15.9872 31.0223 15.6294 30.5809 15.6294Z" fill="#0B0803"/>
<path d="M30.5809 21.3127H11.6527C11.2113 21.3127 10.8535 21.6706 10.8535 22.112C10.8535 22.5534 11.2113 22.9112 11.6527 22.9112H30.5809C31.0223 22.9112 31.3802 22.5534 31.3802 22.112C31.3802 21.6706 31.0223 21.3127 30.5809 21.3127Z" fill="#0B0803"/>
<path d="M27.7246 24.1545H14.5082C14.0668 24.1545 13.709 24.5124 13.709 24.9538C13.709 25.3952 14.0668 25.753 14.5082 25.753H27.7246C28.166 25.753 28.5239 25.3952 28.5239 24.9538C28.5239 24.5124 28.166 24.1545 27.7246 24.1545Z" fill="#0B0803"/>
<path d="M30.5809 18.4709H11.6527C11.2113 18.4709 10.8535 18.8288 10.8535 19.2702C10.8535 19.7116 11.2113 20.0694 11.6527 20.0694H30.5809C31.0223 20.0694 31.3802 19.7116 31.3802 19.2702C31.3802 18.8288 31.0223 18.4709 30.5809 18.4709Z" fill="#0B0803"/>
<path d="M30.5803 28.417H23.0756C22.6342 28.417 22.2764 28.7748 22.2764 29.2162C22.2764 29.6576 22.6342 30.0154 23.0756 30.0154H30.5803C31.0217 30.0154 31.3795 29.6576 31.3795 29.2162C31.3795 28.7748 31.0217 28.417 30.5803 28.417Z" fill="#0B0803"/>
<path d="M30.5808 31.2588H25.932C25.4906 31.2588 25.1328 31.6166 25.1328 32.058C25.1328 32.4994 25.4906 32.8572 25.932 32.8572H30.5808C31.0222 32.8572 31.3801 32.4994 31.3801 32.058C31.3801 31.6166 31.0222 31.2588 30.5808 31.2588Z" fill="#0B0803"/>
<path d="M6.83683 34.2779C4.81987 34.2779 3.17773 32.644 3.17773 30.637C3.17773 28.6301 4.81987 26.9961 6.83683 26.9961C8.8538 26.9961 10.4959 28.6301 10.4959 30.637C10.4959 32.644 8.8538 34.2779 6.83683 34.2779ZM6.83683 28.5945C5.70341 28.5945 4.78417 29.5092 4.78417 30.637C4.78417 31.7648 5.70341 32.6795 6.83683 32.6795C7.97026 32.6795 8.8895 31.7648 8.8895 30.637C8.8895 29.5092 7.97026 28.5945 6.83683 28.5945Z" fill="#0B0803"/>
</g>
</svg>
