<svg width="52" height="52" viewBox="0 0 52 52" fill="none" xmlns="http://www.w3.org/2000/svg">
<path d="M13.1815 19.4912C12.9799 19.4912 12.6776 19.4006 12.476 19.1892L11.1055 17.8199C10.7024 17.4172 10.7024 16.8132 11.1055 16.4105C11.297 16.2192 11.5489 16.1084 11.8109 16.1084C12.0729 16.1084 12.3249 16.2192 12.5163 16.4105L13.1815 17.0749L16.1846 14.0747C16.376 13.8835 16.628 13.7727 16.89 13.7727C17.152 13.7727 17.3939 13.8734 17.5853 14.0647C17.7667 14.2056 17.8776 14.4271 17.8977 14.6788C17.9179 14.9808 17.807 15.2829 17.5954 15.4842L13.8869 19.1892C13.6753 19.4006 13.4636 19.4912 13.1815 19.4912Z" fill="#0B0803"/>
<path d="M13.1815 26.74C12.9799 26.74 12.6776 26.6494 12.476 26.4379L11.1055 25.0687C10.7024 24.666 10.7024 24.0619 11.1055 23.6592C11.297 23.468 11.5489 23.3572 11.8109 23.3572C12.0729 23.3572 12.3249 23.468 12.5163 23.6592L13.1815 24.3237L16.1745 21.3336C16.3256 21.1322 16.5776 21.0215 16.8598 21.0215C17.1419 21.0215 17.4039 21.1322 17.5954 21.3235C17.7869 21.5148 17.8977 21.7665 17.8977 22.0283C17.8977 22.29 17.7869 22.5417 17.5954 22.733L13.8869 26.4379C13.6753 26.6494 13.4636 26.74 13.1815 26.74Z" fill="#0B0803"/>
<path d="M16.3256 10.0678C15.731 10.0678 15.3178 9.65497 15.3178 9.06098C15.3178 8.46698 15.731 8.0542 16.3256 8.0542H17.1318C17.7264 8.0542 18.1395 8.46698 18.1395 9.06098C18.1395 9.65497 17.7264 10.0678 17.1318 10.0678H16.3256Z" fill="#0B0803"/>
<path d="M19.5504 10.0678C18.9558 10.0678 18.5426 9.65497 18.5426 9.06098C18.5426 8.46698 18.9558 8.0542 19.5504 8.0542H20.3566C20.9512 8.0542 21.3643 8.46698 21.3643 9.06098C21.3643 9.65497 20.9512 10.0678 20.3566 10.0678H19.5504Z" fill="#0B0803"/>
<path d="M13.1008 10.0678C12.5062 10.0678 12.093 9.65497 12.093 9.06098C12.093 8.46698 12.5062 8.0542 13.1008 8.0542H13.907C14.5015 8.0542 14.9147 8.46698 14.9147 9.06098C14.9147 9.65497 14.5015 10.0678 13.907 10.0678H13.1008Z" fill="#0B0803"/>
<path d="M7.45737 26.9816C6.86279 26.9816 6.44962 26.5688 6.44962 25.9748V1.00678C6.44962 0.523524 6.83256 0 7.45737 0H36.4806C36.7628 0 36.9744 0.0906099 37.1861 0.302033L45.2481 8.35624C45.4597 8.56767 45.5504 8.77909 45.5504 9.06099V25.1694C45.5504 25.6527 45.1674 26.1762 44.5426 26.1762C43.9481 26.1762 43.5349 25.7634 43.5349 25.1694V10.0678H36.4806C35.8861 10.0678 35.4729 9.65498 35.4729 9.06099V2.01355H8.46512V25.9748C8.46512 26.4581 8.08217 26.9816 7.45737 26.9816ZM42.0434 8.05421L37.4884 3.50358V8.05421H42.0434Z" fill="#F7D72D"/>
<path d="M13.1008 6.84606C12.5062 6.84606 12.093 6.43329 12.093 5.83929C12.093 5.2453 12.5062 4.83252 13.1008 4.83252H23.5814C24.176 4.83252 24.5891 5.2453 24.5891 5.83929C24.5891 6.43329 24.176 6.84606 23.5814 6.84606H13.1008Z" fill="#0B0803"/>
<path d="M31.6434 19.7328C31.0488 19.7328 30.6357 19.32 30.6357 18.726C30.6357 18.132 31.0488 17.7192 31.6434 17.7192H32.4496C33.0442 17.7192 33.4574 18.132 33.4574 18.726C33.4574 19.32 33.0442 19.7328 32.4496 19.7328H31.6434Z" fill="#0B0803"/>
<path d="M34.8682 19.7328C34.2737 19.7328 33.8605 19.32 33.8605 18.726C33.8605 18.132 34.2737 17.7192 34.8682 17.7192H35.6744C36.269 17.7192 36.6822 18.132 36.6822 18.726C36.6822 19.32 36.269 19.7328 35.6744 19.7328H34.8682Z" fill="#0B0803"/>
<path d="M28.4186 19.7328C27.824 19.7328 27.4109 19.32 27.4109 18.726C27.4109 18.132 27.824 17.7192 28.4186 17.7192H29.2248C29.8194 17.7192 30.2326 18.132 30.2326 18.726C30.2326 19.32 29.8194 19.7328 29.2248 19.7328H28.4186Z" fill="#0B0803"/>
<path d="M21.969 16.5111C21.3744 16.5111 20.9612 16.0983 20.9612 15.5043C20.9612 14.9103 21.3744 14.4976 21.969 14.4976H38.8992C39.4938 14.4976 39.907 14.9103 39.907 15.5043C39.907 16.0983 39.4938 16.5111 38.8992 16.5111H21.969Z" fill="#0B0803"/>
<path d="M21.969 19.7328C21.3744 19.7328 20.9612 19.32 20.9612 18.726C20.9612 18.132 21.3744 17.7192 21.969 17.7192H26C26.5946 17.7192 27.0078 18.132 27.0078 18.726C27.0078 19.32 26.5946 19.7328 26 19.7328H21.969Z" fill="#0B0803"/>
<path d="M21.969 24.5653C21.3744 24.5653 20.9612 24.1525 20.9612 23.5585C20.9612 22.9645 21.3744 22.5518 21.969 22.5518H38.8992C39.4938 22.5518 39.907 22.9645 39.907 23.5585C39.907 24.1525 39.4938 24.5653 38.8992 24.5653H21.969Z" fill="#0B0803"/>
<path d="M26.645 52C26.3023 52 26.0806 51.7483 25.8589 51.5067C25.8287 51.4765 25.8085 51.4463 25.7783 51.4161L25.3248 50.9731C25.2845 51.0033 25.2442 51.0335 25.2039 51.0637C25.0426 51.1946 24.8512 51.3355 24.6295 51.4563C24.2868 51.6275 23.8535 51.7181 23.4101 51.7181C22.6341 51.7181 21.9388 51.4563 21.3442 50.9429L10.3597 42.2947H1.71318C0.765892 42.2947 0 41.5295 0 40.5831V29.0958C0 28.1494 0.765892 27.3843 1.71318 27.3843H20.9612C21.3442 27.3843 21.7171 27.5353 21.9992 27.7971L23.6822 29.418L26.131 27.6561C26.3729 27.4749 26.6651 27.3843 26.9674 27.3843H50.2868C51.2341 27.3843 52 28.1494 52 29.0958V40.4925C52 41.4389 51.2341 42.204 50.2868 42.204H42.4062L34.6566 45.315L27.7031 51.4765C27.6628 51.5167 27.6225 51.5469 27.5822 51.5872C27.3705 51.7886 27.1589 51.9899 26.8566 51.9899H26.645V52ZM22.5736 49.332C22.7953 49.5133 23.0876 49.6139 23.3698 49.6139C23.5008 49.6139 23.6217 49.5938 23.7326 49.5535C23.793 49.5233 23.8434 49.4931 23.8938 49.4528L18.845 44.3988C18.4419 43.9961 18.4419 43.392 18.845 42.9893C19.0264 42.798 19.2783 42.6974 19.5504 42.6974C19.8225 42.6974 20.0845 42.8081 20.286 42.9994L26.8264 49.5334L27.8946 48.5971L21.2636 41.9826C20.8605 41.5798 20.8605 40.9758 21.2636 40.5731C21.445 40.3818 21.6969 40.2811 21.969 40.2811C22.2411 40.2811 22.5031 40.3918 22.7047 40.5831L29.4062 47.2782L30.4744 46.3419L23.6822 39.5663C23.2791 39.1636 23.2791 38.5595 23.6822 38.1568C23.8636 37.9655 24.1155 37.8648 24.3876 37.8648C24.6597 37.8648 24.9217 37.9756 25.1233 38.1669L31.9961 45.0331L32.7318 44.4693L25.8891 36.9285L21.7574 38.9522C20.9915 39.3347 20.1248 39.5361 19.2581 39.5361C18.6837 39.5361 18.1194 39.4455 17.5853 39.2844L16.6178 38.9622C15.8016 38.6904 15.1969 37.9756 15.1062 37.1802C15.0155 36.3748 15.3783 35.4989 15.993 35.066L22.0093 30.616L20.7597 29.3978H11.6899V40.7744L22.5736 49.332ZM25.9093 34.8042C26.3729 34.8042 26.8163 35.0056 27.1287 35.3479L34.3543 43.2914L41.1163 40.5731V29.3978H27.2698L24.4178 31.4617L24.0147 31.7034L17.1519 36.697L17.1419 36.707C17.1016 36.7272 17.0915 36.7473 17.0915 36.848C17.0915 36.8681 17.1318 36.9386 17.2124 36.9789L18.2504 37.301C18.593 37.4219 18.9558 37.4923 19.3186 37.4923C19.8225 37.4923 20.3364 37.3816 20.8403 37.15L25.1736 34.9854C25.3953 34.8646 25.6574 34.8042 25.9093 34.8042ZM49.1783 40.271C49.6217 40.271 49.9845 39.9086 49.9845 39.4656V30.2033C49.9845 29.7603 49.6217 29.3978 49.1783 29.3978H43.1318V40.271H49.1783ZM2.82171 29.3978C2.37829 29.3978 2.0155 29.7603 2.0155 30.2033V39.4656C2.0155 39.9086 2.37829 40.271 2.82171 40.271H9.67442V29.3978H2.82171Z" fill="#0B0803"/>
</svg>
