<svg width="17" height="17" viewBox="0 0 17 17" fill="none" xmlns="http://www.w3.org/2000/svg">
<path d="M3.88396 9.08274C3.7558 8.95162 3.54556 8.94923 3.4145 9.07743C3.40644 9.08526 3.39843 9.0932 3.39047 9.10117C3.26067 9.23069 3.26044 9.4409 3.38993 9.57069C3.45481 9.6357 3.53985 9.66821 3.62495 9.66821C3.70978 9.66821 3.79461 9.63587 3.85943 9.57119L3.87862 9.5522C4.00977 9.42403 4.01216 9.21386 3.88396 9.08274Z" fill="#2E3F40"/>
<path d="M7.89743 9.10149C7.06782 8.27191 5.85361 7.96551 4.72853 8.30176C4.55285 8.35429 4.45301 8.53923 4.50554 8.7149C4.55806 8.89055 4.743 8.99036 4.91868 8.9379C5.80945 8.67151 6.77105 8.91412 7.4279 9.57098C8.41164 10.5547 8.41164 12.1553 7.4279 13.1391C6.93597 13.6311 6.29 13.877 5.64384 13.877C4.9978 13.8769 4.35157 13.6309 3.85977 13.1391C3.19182 12.4712 2.95343 11.496 3.23761 10.5943C3.29273 10.4194 3.19564 10.233 3.02076 10.1779C2.84591 10.1229 2.65948 10.2198 2.60436 10.3947C2.2455 11.5335 2.54662 12.765 3.39028 13.6086C4.01157 14.2299 4.82771 14.5406 5.64384 14.5406C6.45997 14.5406 7.2761 14.2299 7.89743 13.6087C9.14002 12.366 9.14002 10.3441 7.89743 9.10149Z" fill="#2E3F40"/>
<path d="M5.64384 10.0935C4.94824 10.0935 4.38232 10.6594 4.38232 11.355C4.38232 12.0506 4.94824 12.6165 5.64384 12.6165C6.33944 12.6165 6.90536 12.0506 6.90536 11.355C6.90536 10.6594 6.33944 10.0935 5.64384 10.0935ZM5.64384 11.9526C5.31433 11.9526 5.04629 11.6845 5.04629 11.355C5.04629 11.0255 5.31437 10.7575 5.64384 10.7575C5.97335 10.7575 6.2414 11.0255 6.2414 11.355C6.24143 11.6845 5.97335 11.9526 5.64384 11.9526Z" fill="#2E3F40"/>
<path d="M11.1778 12.4935L10.9286 12.2685C10.6706 12.0356 10.5226 11.7026 10.5226 11.355C10.5226 11.0074 10.6706 10.6744 10.9286 10.4415L11.1778 10.2165C11.2821 10.1223 11.3159 9.97266 11.262 9.84291L10.6848 8.4512C10.631 8.32151 10.5012 8.23976 10.3612 8.24684L10.0256 8.264C9.67855 8.28147 9.33889 8.15098 9.09332 7.90541C8.84771 7.65984 8.71703 7.32001 8.73472 6.97313L8.75189 6.63755C8.75906 6.4973 8.67721 6.36774 8.54752 6.31392L7.15582 5.73669C7.02606 5.68293 6.87641 5.7165 6.78225 5.82089L6.55727 6.07011C6.32431 6.3281 5.99139 6.47609 5.64375 6.47609C5.29611 6.47609 4.96319 6.3281 4.73023 6.07011L4.50525 5.82089C4.41102 5.71657 4.26137 5.68293 4.13165 5.73669L2.73991 6.31392C2.61022 6.36774 2.52837 6.49727 2.53555 6.63752L2.55268 6.97317C2.57038 7.32001 2.43965 7.65984 2.19408 7.90544C1.94848 8.15108 1.60862 8.28183 1.26178 8.26403L0.926193 8.24687C0.786209 8.2398 0.656385 8.32154 0.602596 8.45123L0.0253605 9.84291C-0.0284949 9.97266 0.00520625 10.1223 0.10953 10.2165L0.358752 10.4415C0.61674 10.6744 0.764726 11.0073 0.764726 11.355C0.764726 11.7026 0.61674 12.0356 0.358719 12.2686L0.10953 12.4935C0.00523945 12.5877 -0.0284617 12.7373 0.0253605 12.8671L0.602596 14.2588C0.656418 14.3885 0.786009 14.4702 0.926193 14.4632L1.26178 14.446C1.60878 14.4282 1.94848 14.559 2.19408 14.8046C2.43972 15.0502 2.57041 15.39 2.55268 15.7369L2.53555 16.0725C2.52837 16.2127 2.61022 16.3423 2.73991 16.3961L4.13162 16.9734C4.26137 17.0271 4.41105 16.9935 4.50522 16.8892L4.73017 16.6399C4.96315 16.3819 5.29608 16.234 5.64372 16.234C5.99132 16.234 6.32428 16.3819 6.55723 16.6399L6.78222 16.8892C6.84653 16.9604 6.93664 16.9987 7.02872 16.9987C7.07148 16.9987 7.11465 16.9904 7.15578 16.9733L8.54749 16.3961C8.67718 16.3423 8.75903 16.2127 8.75185 16.0725L8.73469 15.7369C8.71699 15.39 8.84771 15.0502 9.09328 14.8046C9.33889 14.559 9.67895 14.4285 10.0256 14.446L10.3612 14.4632C10.5013 14.4702 10.631 14.3885 10.6848 14.2588L11.262 12.8671C11.3159 12.7373 11.2822 12.5877 11.1778 12.4935ZM10.1612 13.7882L10.0594 13.7829C9.52519 13.7557 9.00201 13.9569 8.62376 14.3351C8.24557 14.7133 8.0443 15.2366 8.07159 15.7708L8.07677 15.8726L7.1179 16.2702L7.05 16.195C6.69141 15.7978 6.17882 15.57 5.64365 15.57C5.10852 15.57 4.59593 15.7978 4.2373 16.195L4.1694 16.2702L3.21053 15.8725L3.21571 15.7708C3.243 15.2366 3.04176 14.7134 2.66354 14.3351C2.28533 13.9569 1.76188 13.7559 1.22784 13.7829L1.12608 13.7881L0.728369 12.8292L0.803574 12.7613C1.20082 12.4027 1.42862 11.8901 1.42862 11.3549C1.42862 10.8198 1.20078 10.3072 0.803607 9.94862L0.728369 9.88069L1.12608 8.92179L1.22784 8.927C1.76171 8.9537 2.28526 8.75298 2.66348 8.3748C3.04169 7.99662 3.24294 7.47331 3.21564 6.93917L3.21046 6.8374L4.1693 6.43976L4.2372 6.515C4.5958 6.91221 5.10838 7.14001 5.64355 7.14001C6.17868 7.14001 6.69127 6.91221 7.0499 6.515L7.11783 6.43976L8.0767 6.83743L8.07152 6.9392C8.04423 7.4734 8.24551 7.99662 8.62369 8.37487C9.00191 8.75308 9.52525 8.9537 10.0594 8.92707L10.1612 8.92185L10.5589 9.88076L10.4836 9.94866C10.0864 10.3072 9.85861 10.8198 9.85861 11.355C9.85861 11.8902 10.0864 12.4027 10.4836 12.7614L10.5589 12.8293L10.1612 13.7882Z" fill="#2E3F40"/>
<path d="M12.2547 1.65965C11.5225 1.65965 10.9268 2.25535 10.9268 2.98758C10.9268 3.17089 11.0754 3.31957 11.2587 3.31957C11.4421 3.31957 11.5907 3.17092 11.5907 2.98758C11.5907 2.62148 11.8886 2.32361 12.2546 2.32361C12.6207 2.32361 12.9186 2.62148 12.9186 2.98758C12.9186 3.35367 12.6207 3.65154 12.2546 3.65154C12.0713 3.65154 11.9227 3.80019 11.9227 3.9835V4.6459C11.9227 4.82922 12.0713 4.97787 12.2546 4.97787C12.438 4.97787 12.5866 4.82922 12.5866 4.6459V4.27346C13.1587 4.12571 13.5826 3.60519 13.5826 2.98758C13.5826 2.25535 12.9869 1.65965 12.2547 1.65965Z" fill="#2E3F40"/>
<path d="M12.4896 5.65628C12.4278 5.59419 12.3425 5.55899 12.2548 5.55899C12.1675 5.55899 12.0819 5.59419 12.0201 5.65628C11.9584 5.71803 11.9229 5.8033 11.9229 5.89099C11.9229 5.97831 11.9584 6.06358 12.0201 6.12567C12.0822 6.18746 12.1675 6.22298 12.2548 6.22298C12.3425 6.22298 12.4278 6.18742 12.4896 6.12567C12.5516 6.06358 12.5868 5.97831 12.5868 5.89099C12.5868 5.80333 12.5516 5.71803 12.4896 5.65628Z" fill="#2E3F40"/>
<path d="M15.3403 0.00125122H9.16965C8.25438 0.00125122 7.50977 0.745897 7.50977 1.66114V4.55243C7.50977 4.73575 7.65838 4.8844 7.84173 4.8844C8.02508 4.8844 8.17373 4.73575 8.17373 4.55243V1.66117C8.17373 1.11203 8.62051 0.665246 9.16965 0.665246H15.3403C15.8894 0.665246 16.3362 1.11203 16.3362 1.66117V6.0212C16.3362 6.57035 15.8894 7.01713 15.3403 7.01713H13.4916C13.4039 7.01713 13.3198 7.05183 13.2576 7.11362L12.342 8.02338V7.34909C12.342 7.16578 12.1934 7.01713 12.01 7.01713H10.0396C9.85629 7.01713 9.70768 7.16578 9.70768 7.34909C9.70768 7.53241 9.85629 7.68106 10.0396 7.68106H11.6781V8.82125C11.6781 8.95533 11.7588 9.07625 11.8826 9.12775C11.9238 9.14492 11.9671 9.15325 12.01 9.15325C12.096 9.15325 12.1806 9.11978 12.2441 9.05673L13.6285 7.68106H15.3403C16.2556 7.68106 17.0002 6.93641 17.0002 6.02117V1.66117C17.0002 0.745897 16.2556 0.00125122 15.3403 0.00125122Z" fill="#2E3F40"/>
</svg>
