<svg width="18" height="18" viewBox="0 0 18 18" fill="none" xmlns="http://www.w3.org/2000/svg">
<path fill-rule="evenodd" clip-rule="evenodd" d="M14.6311 2.84863H2.45978C1.69122 2.84863 1.06818 3.47167 1.06818 4.24023C1.06818 4.70552 1.30071 5.14002 1.68786 5.39812L7.36041 9.17982C8.07801 9.65822 9.01289 9.65822 9.73049 9.17982L15.403 5.39812C15.7902 5.14002 16.0227 4.70552 16.0227 4.24023C16.0227 3.47167 15.3997 2.84863 14.6311 2.84863ZM1.42423 7.83338C1.42423 7.68469 1.43942 7.53956 1.46833 7.39944C1.54988 7.00419 2.01827 6.90207 2.35405 7.12593L6.76788 10.0685C7.84429 10.7861 9.2466 10.7861 10.323 10.0685L14.7368 7.12594C15.0726 6.90208 15.541 7.0042 15.6226 7.39944C15.6515 7.53956 15.6667 7.6847 15.6667 7.83338V12.8182C15.6667 13.6048 15.029 14.2425 14.2424 14.2425H2.84847C2.06188 14.2425 1.42423 13.6048 1.42423 12.8182V7.83338Z" fill="white"/>
</svg>
