<svg width="18" height="18" viewBox="0 0 18 18" fill="none" xmlns="http://www.w3.org/2000/svg">
<path d="M11.4772 11.1662L11.0366 11.827C10.9487 11.9589 10.8324 12.0715 10.6792 12.1119C10.1772 12.2446 8.84446 12.3045 6.81543 10.2755C4.7864 8.24644 4.84629 6.91371 4.97893 6.41171C5.01943 6.25846 5.13197 6.14217 5.26386 6.05424L5.92463 5.61372C6.4166 5.28575 6.54954 4.62106 6.22156 4.12909L4.97357 2.25712C4.6873 1.82771 4.13543 1.66365 3.66107 1.86695L3.0981 2.10822C2.67044 2.29151 2.32158 2.62045 2.1135 3.03661C1.93965 3.3843 1.80491 3.75044 1.78665 4.13874C1.72912 5.36244 1.99744 8.37725 5.35555 11.7354C8.71365 15.0935 11.7284 15.3618 12.9521 15.3042C13.3404 15.286 13.7066 15.1512 14.0543 14.9774C14.4704 14.7693 14.7994 14.4204 14.9827 13.9928L15.2239 13.4298C15.4272 12.9555 15.2632 12.4036 14.8338 12.1173L12.9618 10.8693C12.4698 10.5413 11.8051 10.6743 11.4772 11.1662Z" fill="white"/>
</svg>
