<svg width="18" height="18" viewBox="0 0 18 18" fill="none" xmlns="http://www.w3.org/2000/svg">
<path fill-rule="evenodd" clip-rule="evenodd" d="M9.23849 15.9387C10.9633 14.7829 15.3106 11.4733 15.3106 7.47731C15.3106 3.74102 12.2817 0.712158 8.54546 0.712158C4.80917 0.712158 1.7803 3.74102 1.7803 7.47731C1.7803 11.4733 6.12764 14.7829 7.85242 15.9387C8.27613 16.2226 8.81478 16.2226 9.23849 15.9387ZM8.54545 9.61364C9.72534 9.61364 10.6818 8.65715 10.6818 7.47727C10.6818 6.29739 9.72534 5.34091 8.54545 5.34091C7.36557 5.34091 6.40909 6.29739 6.40909 7.47727C6.40909 8.65715 7.36557 9.61364 8.54545 9.61364Z" fill="white"/>
</svg>
