<svg width="91" height="91" xmlns="http://www.w3.org/2000/svg">

 <g>
  <title>background</title>
  <rect fill="none" id="canvas_background" height="402" width="582" y="-1" x="-1"/>
 </g>
 <g>
  <title>Layer 1</title>
  <path transform="rotate(180 43.653629302978516,45.990177154541016) " fill="#ffffff" id="svg_2" d="m52.449306,4.507638c1.9,-0.2 2,-2.8 0,-3c-23.3,-2.3 -48.6,23 -41.4,46.6c5.7,18.3 25.5,24.3 43.2,21.5c-5.9,3.8 -11.6,7.8 -16.6,12.7c-4.5,4.4 2.4,11.3 6.9,6.9c9.5,-9.4 20.1,-17 31.2,-24.3c2.7,-1.7 2.2,-5.7 -0.9,-6.7c-12.7,-4 -22.7,-11 -33.9,-18c-2.8,-1.7 -5.3,2.1 -3.4,4.4c5.3,6.2 12.3,10.9 19.8,14.6c-12.7,3.2 -29.8,1.9 -36.4,-9.9c-10.7,-19.5 12.7,-42.6 31.5,-44.8z" class="st0"/>
 </g>
</svg>