<svg xmlns="http://www.w3.org/2000/svg" width="13" height="19.031" viewBox="0 0 13 19.031">
  <metadata><?xpacket begin="﻿" id="W5M0MpCehiHzreSzNTczkc9d"?>
<x:xmpmeta xmlns:x="adobe:ns:meta/" x:xmptk="Adobe XMP Core 5.6-c142 79.160924, 2017/07/13-01:06:39        ">
   <rdf:RDF xmlns:rdf="http://www.w3.org/1999/02/22-rdf-syntax-ns#">
      <rdf:Description rdf:about=""/>
   </rdf:RDF>
</x:xmpmeta>
                                                                                                    
                                                                                                    
                                                                                                    
                                                                                                    
                                                                                                    
                                                                                                    
                                                                                                    
                                                                                                    
                                                                                                    
                                                                                                    
                                                                                                    
                                                                                                    
                                                                                                    
                                                                                                    
                                                                                                    
                                                                                                    
                                                                                                    
                                                                                                    
                                                                                                    
                                                                                                    
                           
<?xpacket end="w"?></metadata>
<defs>
    <style>
      .cls-1 {
        fill: #fff;
        fill-rule: evenodd;
      }
    </style>
  </defs>
  <path class="cls-1" d="M1345.5,15c-4.84,0-7.97,5.366-5.8,9.853l3.34,7.5a2.664,2.664,0,0,0,4.92,0l3.34-7.5c2.17-4.486-.96-9.853-5.8-9.853h0Zm4.77,9.321c0,0.014.15-.34-3.34,7.533a1.549,1.549,0,0,1-2.86,0c-3.48-7.844-3.34-7.518-3.35-7.533-1.78-3.664.75-8.127,4.78-8.127S1352.06,20.654,1350.27,24.32Zm-4.77-5.848a3.32,3.32,0,1,0,3.17,3.317,3.248,3.248,0,0,0-3.17-3.317h0Zm0,5.44a2.125,2.125,0,1,1,2.03-2.123A2.08,2.08,0,0,1,1345.5,23.912Z" transform="translate(-1339 -15)"/>
</svg>
