<svg xmlns="http://www.w3.org/2000/svg" width="13" height="19.03" viewBox="0 0 13 19.03">
  <metadata><?xpacket begin="﻿" id="W5M0MpCehiHzreSzNTczkc9d"?>
<x:xmpmeta xmlns:x="adobe:ns:meta/" x:xmptk="Adobe XMP Core 5.6-c142 79.160924, 2017/07/13-01:06:39        ">
   <rdf:RDF xmlns:rdf="http://www.w3.org/1999/02/22-rdf-syntax-ns#">
      <rdf:Description rdf:about=""/>
   </rdf:RDF>
</x:xmpmeta>
                                                                                                    
                                                                                                    
                                                                                                    
                                                                                                    
                                                                                                    
                                                                                                    
                                                                                                    
                                                                                                    
                                                                                                    
                                                                                                    
                                                                                                    
                                                                                                    
                                                                                                    
                                                                                                    
                                                                                                    
                                                                                                    
                                                                                                    
                                                                                                    
                                                                                                    
                                                                                                    
                           
<?xpacket end="w"?></metadata>
<defs>
    <style>
      .cls-1 {
        fill: #005bac;
        fill-rule: evenodd;
      }
    </style>
  </defs>
  <path id="Shape_4_copy" data-name="Shape 4 copy" class="cls-1" d="M432.5,6549c-4.843,0-7.97,5.37-5.8,9.85l3.335,7.51a2.669,2.669,0,0,0,4.924,0l3.335-7.51c2.173-4.48-.951-9.85-5.8-9.85h0Zm4.775,9.32c-0.007.01,0.151-.34-3.349,7.53a1.541,1.541,0,0,1-2.852,0c-3.486-7.84-3.341-7.52-3.348-7.53-1.782-3.66.749-8.13,4.774-8.13S439.056,6554.65,437.274,6558.32Zm-4.775-5.85a3.323,3.323,0,1,0,3.173,3.32,3.253,3.253,0,0,0-3.173-3.32h0Zm0,5.44a2.122,2.122,0,1,1,2.031-2.12A2.079,2.079,0,0,1,432.5,6557.91Z" transform="translate(-426 -6549)"/>
</svg>
